<?xml version="1.0" encoding="UTF-8" standalone="no"?>
<!-- Created with Inkscape (http://www.inkscape.org/) -->

<svg
   xmlns:dc="http://purl.org/dc/elements/1.1/"
   xmlns:cc="http://creativecommons.org/ns#"
   xmlns:rdf="http://www.w3.org/1999/02/22-rdf-syntax-ns#"
   xmlns:svg="http://www.w3.org/2000/svg"
   xmlns="http://www.w3.org/2000/svg"
   xmlns:sodipodi="http://sodipodi.sourceforge.net/DTD/sodipodi-0.dtd"
   xmlns:inkscape="http://www.inkscape.org/namespaces/inkscape"
   width="1080"
   height="720"
   viewBox="0 0 1080 720"
   id="svg2"
   version="1.1"
   inkscape:version="0.91 r13725"
   sodipodi:docname="Rasp_Pi_mBotAdapter.svg">
  <sodipodi:namedview
     id="base"
     pagecolor="#ffffff"
     bordercolor="#666666"
     borderopacity="1.0"
     inkscape:pageopacity="0.0"
     inkscape:pageshadow="2"
     inkscape:zoom="1.4"
     inkscape:cx="237.26371"
     inkscape:cy="379.47701"
     inkscape:document-units="px"
     inkscape:current-layer="layer1"
     showgrid="false"
     units="px"
     inkscape:window-width="3840"
     inkscape:window-height="2097"
     inkscape:window-x="-8"
     inkscape:window-y="199"
     inkscape:window-maximized="1"
     inkscape:snap-others="false" />
  <defs
     id="defs4" />
  <metadata
     id="metadata7">
    <rdf:RDF>
      <cc:Work
         rdf:about="">
        <dc:format>image/svg+xml</dc:format>
        <dc:type
           rdf:resource="http://purl.org/dc/dcmitype/StillImage" />
        <dc:title></dc:title>
      </cc:Work>
    </rdf:RDF>
  </metadata>
  <g
     transform="translate(0,-332.36219)"
     id="layer1"
     inkscape:groupmode="layer"
     inkscape:label="100 [feed=400]">
    <path
       id="rect3336"
       d="m 294.7334,361.58191 c 0,-9.81496 -7.90184,-17.71679 -17.7168,-17.71679 l -240.945314,0 c -9.81496,0 -17.71679,7.90183 -17.71679,17.71679 l 0,305.78711 c 0,9.81496 7.90183,17.7168 17.71679,17.7168 l 240.945314,0 c 9.81496,0 17.7168,-7.90184 17.7168,-17.7168 l 0,-305.78711 z m -17.62305,12.34375 a 7.2394748,7.2394748 0 0 1 -7.23828,7.24024 7.2394748,7.2394748 0 0 1 -7.24024,-7.24024 7.2394748,7.2394748 0 0 1 7.24024,-7.24023 7.2394748,7.2394748 0 0 1 7.23828,7.24023 z m 0,281.69336 a 7.2394748,7.2394748 0 0 1 -7.23828,7.23828 7.2394748,7.2394748 0 0 1 -7.24024,-7.23828 7.2394748,7.2394748 0 0 1 7.24024,-7.24023 7.2394748,7.2394748 0 0 1 7.23828,7.24023 z M 248.04199,365.95496 a 4.6548223,4.6548219 0 0 1 -4.6543,4.6543 4.6548223,4.6548219 0 0 1 -4.65625,-4.6543 4.6548223,4.6548219 0 0 1 4.65625,-4.6543 4.6548223,4.6548219 0 0 1 4.6543,4.6543 z m 0,205.51172 a 4.6548223,4.6548219 0 0 1 -4.6543,4.65429 4.6548223,4.6548219 0 0 1 -4.65625,-4.65429 4.6548223,4.6548219 0 0 1 4.65625,-4.6543 4.6548223,4.6548219 0 0 1 4.6543,4.6543 z M 74.41895,365.95496 a 4.6548223,4.6548219 0 0 1 -4.6543,4.6543 4.6548223,4.6548219 0 0 1 -4.6543,-4.6543 4.6548223,4.6548219 0 0 1 4.6543,-4.6543 4.6548223,4.6548219 0 0 1 4.6543,4.6543 z m 0,205.51172 a 4.6548223,4.6548219 0 0 1 -4.6543,4.65429 4.6548223,4.6548219 0 0 1 -4.6543,-4.65429 4.6548223,4.6548219 0 0 1 4.6543,-4.6543 4.6548223,4.6548219 0 0 1 4.6543,4.6543 z M 50.33887,373.92566 a 7.2394748,7.2394748 0 0 1 -7.238284,7.24024 7.2394748,7.2394748 0 0 1 -7.24024,-7.24024 7.2394748,7.2394748 0 0 1 7.24024,-7.24023 7.2394748,7.2394748 0 0 1 7.238284,7.24023 z m 0,281.69336 a 7.2394748,7.2394748 0 0 1 -7.238284,7.23828 7.2394748,7.2394748 0 0 1 -7.24024,-7.23828 7.2394748,7.2394748 0 0 1 7.24024,-7.24023 7.2394748,7.2394748 0 0 1 7.238284,7.24023 z"
       style="fill:#0000ff;fill-rule:evenodd;stroke:#000000;stroke-width:1px;stroke-linecap:butt;stroke-linejoin:miter;stroke-opacity:1"
       inkscape:connector-curvature="0" />
    <g
       id="g3348">
      <g
         id="g3350" />
    </g>
    <g
       id="g3366">
      <g
         id="g3368" />
    </g>
    <g
       id="g4710">
      <g
         id="g4712" />
    </g>
    <path
       id="rect3336-8"
       d="m 578.3323,359.75434 c 0,-9.81496 -7.90184,-17.71679 -17.7168,-17.71679 l -240.94531,0 c -9.81496,0 -17.71679,7.90183 -17.71679,17.71679 l 0,305.78711 c 0,9.81496 7.90183,17.7168 17.71679,17.7168 l 240.94531,0 c 9.81496,0 17.7168,-7.90184 17.7168,-17.7168 l 0,-305.78711 z m -17.62305,12.34375 a 7.2394748,7.2394748 0 0 1 -7.23828,7.24024 7.2394748,7.2394748 0 0 1 -7.24024,-7.24024 7.2394748,7.2394748 0 0 1 7.24024,-7.24023 7.2394748,7.2394748 0 0 1 7.23828,7.24023 z m 0,281.69336 a 7.2394748,7.2394748 0 0 1 -7.23828,7.23828 7.2394748,7.2394748 0 0 1 -7.24024,-7.23828 7.2394748,7.2394748 0 0 1 7.24024,-7.24023 7.2394748,7.2394748 0 0 1 7.23828,7.24023 z M 531.64089,364.12739 a 4.6548223,4.6548219 0 0 1 -4.6543,4.6543 4.6548223,4.6548219 0 0 1 -4.65625,-4.6543 4.6548223,4.6548219 0 0 1 4.65625,-4.6543 4.6548223,4.6548219 0 0 1 4.6543,4.6543 z m 0,205.51172 a 4.6548223,4.6548219 0 0 1 -4.6543,4.65429 4.6548223,4.6548219 0 0 1 -4.65625,-4.65429 4.6548223,4.6548219 0 0 1 4.65625,-4.6543 4.6548223,4.6548219 0 0 1 4.6543,4.6543 z M 358.01786,364.12739 a 4.6548223,4.6548219 0 0 1 -4.6543,4.6543 4.6548223,4.6548219 0 0 1 -4.6543,-4.6543 4.6548223,4.6548219 0 0 1 4.6543,-4.6543 4.6548223,4.6548219 0 0 1 4.6543,4.6543 z m 0,205.51172 a 4.6548223,4.6548219 0 0 1 -4.6543,4.65429 4.6548223,4.6548219 0 0 1 -4.6543,-4.65429 4.6548223,4.6548219 0 0 1 4.6543,-4.6543 4.6548223,4.6548219 0 0 1 4.6543,4.6543 z M 333.93778,372.09809 a 7.2394748,7.2394748 0 0 1 -7.23829,7.24024 7.2394748,7.2394748 0 0 1 -7.24024,-7.24024 7.2394748,7.2394748 0 0 1 7.24024,-7.24023 7.2394748,7.2394748 0 0 1 7.23829,7.24023 z m 0,281.69336 a 7.2394748,7.2394748 0 0 1 -7.23829,7.23828 7.2394748,7.2394748 0 0 1 -7.24024,-7.23828 7.2394748,7.2394748 0 0 1 7.24024,-7.24023 7.2394748,7.2394748 0 0 1 7.23829,7.24023 z"
       style="fill:#0000ff;fill-rule:evenodd;stroke:#000000;stroke-width:1px;stroke-linecap:butt;stroke-linejoin:miter;stroke-opacity:1"
       inkscape:connector-curvature="0" />
    <path
       id="rect3336-8-9"
       d="m 870.04659,356.32577 c 0,-9.81496 -7.90184,-17.71679 -17.7168,-17.71679 l -240.94531,0 c -9.81496,0 -17.71679,7.90183 -17.71679,17.71679 l 0,305.78711 c 0,9.81496 7.90183,17.7168 17.71679,17.7168 l 240.94531,0 c 9.81496,0 17.7168,-7.90184 17.7168,-17.7168 l 0,-305.78711 z m -17.62305,12.34375 a 7.2394748,7.2394748 0 0 1 -7.23828,7.24024 7.2394748,7.2394748 0 0 1 -7.24024,-7.24024 7.2394748,7.2394748 0 0 1 7.24024,-7.24023 7.2394748,7.2394748 0 0 1 7.23828,7.24023 z m 0,281.69336 a 7.2394748,7.2394748 0 0 1 -7.23828,7.23828 7.2394748,7.2394748 0 0 1 -7.24024,-7.23828 7.2394748,7.2394748 0 0 1 7.24024,-7.24023 7.2394748,7.2394748 0 0 1 7.23828,7.24023 z M 823.35518,360.69882 a 4.6548223,4.6548219 0 0 1 -4.6543,4.6543 4.6548223,4.6548219 0 0 1 -4.65625,-4.6543 4.6548223,4.6548219 0 0 1 4.65625,-4.6543 4.6548223,4.6548219 0 0 1 4.6543,4.6543 z m 0,205.51172 a 4.6548223,4.6548219 0 0 1 -4.6543,4.65429 4.6548223,4.6548219 0 0 1 -4.65625,-4.65429 4.6548223,4.6548219 0 0 1 4.65625,-4.6543 4.6548223,4.6548219 0 0 1 4.6543,4.6543 z M 649.73215,360.69882 a 4.6548223,4.6548219 0 0 1 -4.6543,4.6543 4.6548223,4.6548219 0 0 1 -4.6543,-4.6543 4.6548223,4.6548219 0 0 1 4.6543,-4.6543 4.6548223,4.6548219 0 0 1 4.6543,4.6543 z m 0,205.51172 a 4.6548223,4.6548219 0 0 1 -4.6543,4.65429 4.6548223,4.6548219 0 0 1 -4.6543,-4.65429 4.6548223,4.6548219 0 0 1 4.6543,-4.6543 4.6548223,4.6548219 0 0 1 4.6543,4.6543 z M 625.65207,368.66952 a 7.2394748,7.2394748 0 0 1 -7.23829,7.24024 7.2394748,7.2394748 0 0 1 -7.24024,-7.24024 7.2394748,7.2394748 0 0 1 7.24024,-7.24023 7.2394748,7.2394748 0 0 1 7.23829,7.24023 z m 0,281.69336 a 7.2394748,7.2394748 0 0 1 -7.23829,7.23828 7.2394748,7.2394748 0 0 1 -7.24024,-7.23828 7.2394748,7.2394748 0 0 1 7.24024,-7.24023 7.2394748,7.2394748 0 0 1 7.23829,7.24023 z"
       style="fill:#0000ff;fill-rule:evenodd;stroke:#000000;stroke-width:1px;stroke-linecap:butt;stroke-linejoin:miter;stroke-opacity:1"
       inkscape:connector-curvature="0" />
    <path
       id="rect3336-7"
       d="m 294.61803,711.46863 c 0,-9.81496 -7.90184,-17.71679 -17.7168,-17.71679 l -240.945314,0 c -9.81496,0 -17.71679,7.90183 -17.71679,17.71679 l 0,305.78707 c 0,9.815 7.90183,17.7168 17.71679,17.7168 l 240.945314,0 c 9.81496,0 17.7168,-7.9018 17.7168,-17.7168 l 0,-305.78707 z m -17.62305,12.34375 a 7.2394748,7.2394748 0 0 1 -7.23828,7.24024 7.2394748,7.2394748 0 0 1 -7.24024,-7.24024 7.2394748,7.2394748 0 0 1 7.24024,-7.24023 7.2394748,7.2394748 0 0 1 7.23828,7.24023 z m 0,281.69332 a 7.2394748,7.2394748 0 0 1 -7.23828,7.2383 7.2394748,7.2394748 0 0 1 -7.24024,-7.2383 7.2394748,7.2394748 0 0 1 7.24024,-7.24019 7.2394748,7.2394748 0 0 1 7.23828,7.24019 z M 247.92662,715.84168 a 4.6548223,4.6548219 0 0 1 -4.6543,4.6543 4.6548223,4.6548219 0 0 1 -4.65625,-4.6543 4.6548223,4.6548219 0 0 1 4.65625,-4.6543 4.6548223,4.6548219 0 0 1 4.6543,4.6543 z m 0,205.51172 a 4.6548223,4.6548219 0 0 1 -4.6543,4.65429 4.6548223,4.6548219 0 0 1 -4.65625,-4.65429 4.6548223,4.6548219 0 0 1 4.65625,-4.6543 4.6548223,4.6548219 0 0 1 4.6543,4.6543 z M 74.303576,715.84168 a 4.6548223,4.6548219 0 0 1 -4.6543,4.6543 4.6548223,4.6548219 0 0 1 -4.6543,-4.6543 4.6548223,4.6548219 0 0 1 4.6543,-4.6543 4.6548223,4.6548219 0 0 1 4.6543,4.6543 z m 0,205.51172 a 4.6548223,4.6548219 0 0 1 -4.6543,4.65429 4.6548223,4.6548219 0 0 1 -4.6543,-4.65429 4.6548223,4.6548219 0 0 1 4.6543,-4.6543 4.6548223,4.6548219 0 0 1 4.6543,4.6543 z M 50.223496,723.81238 a 7.2394748,7.2394748 0 0 1 -7.23828,7.24024 7.2394748,7.2394748 0 0 1 -7.24024,-7.24024 7.2394748,7.2394748 0 0 1 7.24024,-7.24023 7.2394748,7.2394748 0 0 1 7.23828,7.24023 z m 0,281.69332 a 7.2394748,7.2394748 0 0 1 -7.23828,7.2383 7.2394748,7.2394748 0 0 1 -7.24024,-7.2383 7.2394748,7.2394748 0 0 1 7.24024,-7.24019 7.2394748,7.2394748 0 0 1 7.23828,7.24019 z"
       style="fill:#0000ff;fill-rule:evenodd;stroke:#000000;stroke-width:1px;stroke-linecap:butt;stroke-linejoin:miter;stroke-opacity:1"
       inkscape:connector-curvature="0" />
    <path
       id="rect3336-8-2"
       d="m 580.90374,709.04006 c 0,-9.81496 -7.90184,-17.71679 -17.7168,-17.71679 l -240.94531,0 c -9.81496,0 -17.71679,7.90183 -17.71679,17.71679 l 0,305.78714 c 0,9.8149 7.90183,17.7168 17.71679,17.7168 l 240.94531,0 c 9.81496,0 17.7168,-7.9019 17.7168,-17.7168 l 0,-305.78714 z m -17.62305,12.34375 a 7.2394748,7.2394748 0 0 1 -7.23828,7.24024 7.2394748,7.2394748 0 0 1 -7.24024,-7.24024 7.2394748,7.2394748 0 0 1 7.24024,-7.24023 7.2394748,7.2394748 0 0 1 7.23828,7.24023 z m 0,281.69339 a 7.2394748,7.2394748 0 0 1 -7.23828,7.2383 7.2394748,7.2394748 0 0 1 -7.24024,-7.2383 7.2394748,7.2394748 0 0 1 7.24024,-7.24026 7.2394748,7.2394748 0 0 1 7.23828,7.24026 z M 534.21233,713.41311 a 4.6548223,4.6548219 0 0 1 -4.6543,4.6543 4.6548223,4.6548219 0 0 1 -4.65625,-4.6543 4.6548223,4.6548219 0 0 1 4.65625,-4.6543 4.6548223,4.6548219 0 0 1 4.6543,4.6543 z m 0,205.51172 a 4.6548223,4.6548219 0 0 1 -4.6543,4.65429 4.6548223,4.6548219 0 0 1 -4.65625,-4.65429 4.6548223,4.6548219 0 0 1 4.65625,-4.6543 4.6548223,4.6548219 0 0 1 4.6543,4.6543 z M 360.5893,713.41311 a 4.6548223,4.6548219 0 0 1 -4.6543,4.6543 4.6548223,4.6548219 0 0 1 -4.6543,-4.6543 4.6548223,4.6548219 0 0 1 4.6543,-4.6543 4.6548223,4.6548219 0 0 1 4.6543,4.6543 z m 0,205.51172 a 4.6548223,4.6548219 0 0 1 -4.6543,4.65429 4.6548223,4.6548219 0 0 1 -4.6543,-4.65429 4.6548223,4.6548219 0 0 1 4.6543,-4.6543 4.6548223,4.6548219 0 0 1 4.6543,4.6543 z M 336.50922,721.38381 a 7.2394748,7.2394748 0 0 1 -7.23829,7.24024 7.2394748,7.2394748 0 0 1 -7.24024,-7.24024 7.2394748,7.2394748 0 0 1 7.24024,-7.24023 7.2394748,7.2394748 0 0 1 7.23829,7.24023 z m 0,281.69339 a 7.2394748,7.2394748 0 0 1 -7.23829,7.2383 7.2394748,7.2394748 0 0 1 -7.24024,-7.2383 7.2394748,7.2394748 0 0 1 7.24024,-7.24026 7.2394748,7.2394748 0 0 1 7.23829,7.24026 z"
       style="fill:#0000ff;fill-rule:evenodd;stroke:#000000;stroke-width:1px;stroke-linecap:butt;stroke-linejoin:miter;stroke-opacity:1"
       inkscape:connector-curvature="0" />
    <path
       id="rect3336-8-5"
       d="m 872.47516,710.18291 c 0,-9.81496 -7.90184,-17.71679 -17.7168,-17.71679 l -240.94531,0 c -9.81496,0 -17.71679,7.90183 -17.71679,17.71679 l 0,305.78709 c 0,9.815 7.90183,17.7168 17.71679,17.7168 l 240.94531,0 c 9.81496,0 17.7168,-7.9018 17.7168,-17.7168 l 0,-305.78709 z m -17.62305,12.34375 a 7.2394748,7.2394748 0 0 1 -7.23828,7.24024 7.2394748,7.2394748 0 0 1 -7.24024,-7.24024 7.2394748,7.2394748 0 0 1 7.24024,-7.24023 7.2394748,7.2394748 0 0 1 7.23828,7.24023 z m 0,281.69334 a 7.2394748,7.2394748 0 0 1 -7.23828,7.2383 7.2394748,7.2394748 0 0 1 -7.24024,-7.2383 7.2394748,7.2394748 0 0 1 7.24024,-7.24021 7.2394748,7.2394748 0 0 1 7.23828,7.24021 z M 825.78375,714.55596 a 4.6548223,4.6548219 0 0 1 -4.6543,4.6543 4.6548223,4.6548219 0 0 1 -4.65625,-4.6543 4.6548223,4.6548219 0 0 1 4.65625,-4.6543 4.6548223,4.6548219 0 0 1 4.6543,4.6543 z m 0,205.51172 a 4.6548223,4.6548219 0 0 1 -4.6543,4.65429 4.6548223,4.6548219 0 0 1 -4.65625,-4.65429 4.6548223,4.6548219 0 0 1 4.65625,-4.6543 4.6548223,4.6548219 0 0 1 4.6543,4.6543 z M 652.16072,714.55596 a 4.6548223,4.6548219 0 0 1 -4.6543,4.6543 4.6548223,4.6548219 0 0 1 -4.6543,-4.6543 4.6548223,4.6548219 0 0 1 4.6543,-4.6543 4.6548223,4.6548219 0 0 1 4.6543,4.6543 z m 0,205.51172 a 4.6548223,4.6548219 0 0 1 -4.6543,4.65429 4.6548223,4.6548219 0 0 1 -4.6543,-4.65429 4.6548223,4.6548219 0 0 1 4.6543,-4.6543 4.6548223,4.6548219 0 0 1 4.6543,4.6543 z M 628.08064,722.52666 a 7.2394748,7.2394748 0 0 1 -7.23829,7.24024 7.2394748,7.2394748 0 0 1 -7.24024,-7.24024 7.2394748,7.2394748 0 0 1 7.24024,-7.24023 7.2394748,7.2394748 0 0 1 7.23829,7.24023 z m 0,281.69334 a 7.2394748,7.2394748 0 0 1 -7.23829,7.2383 7.2394748,7.2394748 0 0 1 -7.24024,-7.2383 7.2394748,7.2394748 0 0 1 7.24024,-7.24021 7.2394748,7.2394748 0 0 1 7.23829,7.24021 z"
       style="fill:#0000ff;fill-rule:evenodd;stroke:#000000;stroke-width:1px;stroke-linecap:butt;stroke-linejoin:miter;stroke-opacity:1"
       inkscape:connector-curvature="0" />
    <g
       id="g4237">
      <g
         id="g4239" />
      <g
         id="g4241" />
      <g
         id="g4243" />
      <g
         id="g4245" />
      <g
         id="g4247" />
      <g
         id="g4249" />
    </g>
    <g
       id="g4297">
      <g
         id="g4299" />
      <g
         id="g4301" />
    </g>
  </g>
</svg>
