<?xml version="1.0" encoding="UTF-8" standalone="no"?>
<!-- Created with Inkscape (http://www.inkscape.org/) -->

<svg
   xmlns:dc="http://purl.org/dc/elements/1.1/"
   xmlns:cc="http://creativecommons.org/ns#"
   xmlns:rdf="http://www.w3.org/1999/02/22-rdf-syntax-ns#"
   xmlns:svg="http://www.w3.org/2000/svg"
   xmlns="http://www.w3.org/2000/svg"
   xmlns:sodipodi="http://sodipodi.sourceforge.net/DTD/sodipodi-0.dtd"
   xmlns:inkscape="http://www.inkscape.org/namespaces/inkscape"
   width="1080"
   height="720"
   viewBox="0 0 1080 720"
   id="svg2"
   version="1.1"
   inkscape:version="0.91 r13725"
   sodipodi:docname="Rasp_Pi_mBotAdapter.svg">
  <sodipodi:namedview
     id="base"
     pagecolor="#ffffff"
     bordercolor="#666666"
     borderopacity="1.0"
     inkscape:pageopacity="0.0"
     inkscape:pageshadow="2"
     inkscape:zoom="1.4"
     inkscape:cx="342.62085"
     inkscape:cy="379.11987"
     inkscape:document-units="mm"
     inkscape:current-layer="layer1"
     showgrid="false"
     units="px"
     inkscape:window-width="3840"
     inkscape:window-height="2097"
     inkscape:window-x="-8"
     inkscape:window-y="231"
     inkscape:window-maximized="1" />
  <defs
     id="defs4" />
  <metadata
     id="metadata7">
    <rdf:RDF>
      <cc:Work
         rdf:about="">
        <dc:format>image/svg+xml</dc:format>
        <dc:type
           rdf:resource="http://purl.org/dc/dcmitype/StillImage" />
        <dc:title></dc:title>
      </cc:Work>
    </rdf:RDF>
  </metadata>
  <g
     inkscape:label="100 [feed=400]"
     inkscape:groupmode="layer"
     id="layer1"
     transform="translate(0,-332.36219)">
    <path
       style="fill:#0000ff;fill-rule:evenodd;stroke:#000000;stroke-width:1px;stroke-linecap:butt;stroke-linejoin:miter;stroke-opacity:1"
       d="M 53.650391 17.923828 C 43.835431 17.923828 35.933594 25.825665 35.933594 35.640625 L 35.933594 276.58594 C 35.933594 286.4009 43.835431 294.30273 53.650391 294.30273 L 359.4375 294.30273 C 369.25246 294.30273 377.1543 286.4009 377.1543 276.58594 L 377.1543 35.640625 C 377.1543 25.825665 369.25246 17.923828 359.4375 17.923828 L 53.650391 17.923828 z M 65.994141 35.546875 A 7.2394748 7.2394748 0 0 1 73.234375 42.785156 A 7.2394748 7.2394748 0 0 1 65.994141 50.025391 A 7.2394748 7.2394748 0 0 1 58.753906 42.785156 A 7.2394748 7.2394748 0 0 1 65.994141 35.546875 z M 347.6875 35.546875 A 7.2394748 7.2394748 0 0 1 354.92578 42.785156 A 7.2394748 7.2394748 0 0 1 347.6875 50.025391 A 7.2394748 7.2394748 0 0 1 340.44727 42.785156 A 7.2394748 7.2394748 0 0 1 347.6875 35.546875 z M 58.023438 64.615234 A 4.6548219 4.6548223 0 0 1 62.677734 69.269531 A 4.6548219 4.6548223 0 0 1 58.023438 73.925781 A 4.6548219 4.6548223 0 0 1 53.369141 69.269531 A 4.6548219 4.6548223 0 0 1 58.023438 64.615234 z M 263.53516 64.615234 A 4.6548219 4.6548223 0 0 1 268.18945 69.269531 A 4.6548219 4.6548223 0 0 1 263.53516 73.925781 A 4.6548219 4.6548223 0 0 1 258.88086 69.269531 A 4.6548219 4.6548223 0 0 1 263.53516 64.615234 z M 58.023438 238.23828 A 4.6548219 4.6548223 0 0 1 62.677734 242.89258 A 4.6548219 4.6548223 0 0 1 58.023438 247.54688 A 4.6548219 4.6548223 0 0 1 53.369141 242.89258 A 4.6548219 4.6548223 0 0 1 58.023438 238.23828 z M 263.53516 238.23828 A 4.6548219 4.6548223 0 0 1 268.18945 242.89258 A 4.6548219 4.6548223 0 0 1 263.53516 247.54688 A 4.6548219 4.6548223 0 0 1 258.88086 242.89258 A 4.6548219 4.6548223 0 0 1 263.53516 238.23828 z M 65.994141 262.31836 A 7.2394748 7.2394748 0 0 1 73.234375 269.55664 A 7.2394748 7.2394748 0 0 1 65.994141 276.79688 A 7.2394748 7.2394748 0 0 1 58.753906 269.55664 A 7.2394748 7.2394748 0 0 1 65.994141 262.31836 z M 347.6875 262.31836 A 7.2394748 7.2394748 0 0 1 354.92578 269.55664 A 7.2394748 7.2394748 0 0 1 347.6875 276.79688 A 7.2394748 7.2394748 0 0 1 340.44727 269.55664 A 7.2394748 7.2394748 0 0 1 347.6875 262.31836 z "
       transform="translate(0,332.36219)"
       id="rect3336" />
    <g
       id="g3348">
      <g
         id="g3350" />
    </g>
    <g
       id="g3366">
      <g
         id="g3368" />
    </g>
  </g>
</svg>
