<?xml version="1.0" encoding="UTF-8" standalone="no"?>
<!-- Created with Inkscape (http://www.inkscape.org/) -->

<svg
   xmlns:dc="http://purl.org/dc/elements/1.1/"
   xmlns:cc="http://creativecommons.org/ns#"
   xmlns:rdf="http://www.w3.org/1999/02/22-rdf-syntax-ns#"
   xmlns:svg="http://www.w3.org/2000/svg"
   xmlns="http://www.w3.org/2000/svg"
   xmlns:sodipodi="http://sodipodi.sourceforge.net/DTD/sodipodi-0.dtd"
   xmlns:inkscape="http://www.inkscape.org/namespaces/inkscape"
   width="1080"
   height="720"
   viewBox="0 0 1080 720"
   id="svg2"
   version="1.1"
   inkscape:version="0.91 r13725"
   sodipodi:docname="Rasp_Pi_mBotAdapter_Rover_Cut.svg">
  <sodipodi:namedview
     id="base"
     pagecolor="#ffffff"
     bordercolor="#666666"
     borderopacity="1.0"
     inkscape:pageopacity="0.0"
     inkscape:pageshadow="2"
     inkscape:zoom="1.4"
     inkscape:cx="145.59758"
     inkscape:cy="172.76976"
     inkscape:document-units="mm"
     inkscape:current-layer="layer1"
     showgrid="false"
     units="px"
     inkscape:window-width="3840"
     inkscape:window-height="2097"
     inkscape:window-x="-8"
     inkscape:window-y="119"
     inkscape:window-maximized="1" />
  <defs
     id="defs4" />
  <metadata
     id="metadata7">
    <rdf:RDF>
      <cc:Work
         rdf:about="">
        <dc:format>image/svg+xml</dc:format>
        <dc:type
           rdf:resource="http://purl.org/dc/dcmitype/StillImage" />
        <dc:title></dc:title>
      </cc:Work>
    </rdf:RDF>
  </metadata>
  <g
     transform="translate(0,-332.36219)"
     id="layer1"
     inkscape:groupmode="layer"
     inkscape:label="100 [feed=300]">
    <path
       inkscape:connector-curvature="0"
       id="rect4799"
       d="m 28.251673,652.03518 0,368.50392 318.896487,0 0,-368.50392 -318.896487,0 z m 45.88477,28.6543 a 8.7283087,8.7283096 0 0 1 8.72851,8.72852 8.7283087,8.7283096 0 0 1 -8.72851,8.72851 8.7283087,8.7283096 0 0 1 -8.72852,-8.72851 8.7283087,8.7283096 0 0 1 8.72852,-8.72852 z m 226.771477,0 a 8.7283087,8.7283096 0 0 1 8.72852,8.72852 8.7283087,8.7283096 0 0 1 -8.72852,8.72851 8.7283087,8.7283096 0 0 1 -8.72851,-8.72851 8.7283087,8.7283096 0 0 1 8.72851,-8.72852 z m -199.81445,84.0293 a 4.6548223,4.6548219 0 0 1 4.65625,4.65429 4.6548223,4.6548219 0 0 1 -4.65625,4.6543 4.6548223,4.6548219 0 0 1 -4.654297,-4.6543 4.6548223,4.6548219 0 0 1 4.654297,-4.65429 z m 173.62305,0 a 4.6548223,4.6548219 0 0 1 4.65429,4.65429 4.6548223,4.6548219 0 0 1 -4.65429,4.6543 4.6548223,4.6548219 0 0 1 -4.6543,-4.6543 4.6548223,4.6548219 0 0 1 4.6543,-4.65429 z M 101.09347,970.2305 a 4.6548223,4.6548219 0 0 1 4.65625,4.65429 4.6548223,4.6548219 0 0 1 -4.65625,4.6543 4.6548223,4.6548219 0 0 1 -4.654297,-4.6543 4.6548223,4.6548219 0 0 1 4.654297,-4.65429 z m 173.62305,0 a 4.6548223,4.6548219 0 0 1 4.65429,4.65429 4.6548223,4.6548219 0 0 1 -4.65429,4.6543 4.6548223,4.6548219 0 0 1 -4.6543,-4.6543 4.6548223,4.6548219 0 0 1 4.6543,-4.65429 z M 74.136443,992.50003 a 8.7283087,8.7283096 0 0 1 8.72851,8.72847 8.7283087,8.7283096 0 0 1 -8.72851,8.7286 8.7283087,8.7283096 0 0 1 -8.72852,-8.7286 8.7283087,8.7283096 0 0 1 8.72852,-8.72847 z m 226.771477,0 a 8.7283087,8.7283096 0 0 1 8.72852,8.72847 8.7283087,8.7283096 0 0 1 -8.72852,8.7286 8.7283087,8.7283096 0 0 1 -8.72851,-8.7286 8.7283087,8.7283096 0 0 1 8.72851,-8.72847 z"
       style="fill:#00ff00;fill-opacity:1;stroke:#000000;stroke-width:0.35433072;stroke-miterlimit:4;stroke-dasharray:none;stroke-opacity:1" />
    <g
       transform="matrix(0,-1,1,0,-626.6479,1023.0764)"
       id="g3348">
      <g
         id="g3350" />
    </g>
    <g
       transform="matrix(0,-1,1,0,-626.6479,1023.0764)"
       id="g3366">
      <g
         id="g3368" />
    </g>
    <path
       inkscape:connector-curvature="0"
       id="rect4799-2"
       d="m 363.05176,652.0388 0,368.5039 318.89648,0 0,-368.5039 -318.89648,0 z m 45.88476,28.6543 a 8.7283087,8.7283096 0 0 1 8.72851,8.72852 8.7283087,8.7283096 0 0 1 -8.72851,8.72851 8.7283087,8.7283096 0 0 1 -8.72852,-8.72851 8.7283087,8.7283096 0 0 1 8.72852,-8.72852 z m 226.77148,0 a 8.7283087,8.7283096 0 0 1 8.72852,8.72852 8.7283087,8.7283096 0 0 1 -8.72852,8.72851 8.7283087,8.7283096 0 0 1 -8.72851,-8.72851 8.7283087,8.7283096 0 0 1 8.72851,-8.72852 z m -199.81445,84.0293 a 4.6548223,4.6548219 0 0 1 4.65625,4.65429 4.6548223,4.6548219 0 0 1 -4.65625,4.6543 4.6548223,4.6548219 0 0 1 -4.6543,-4.6543 4.6548223,4.6548219 0 0 1 4.6543,-4.65429 z m 173.62305,0 a 4.6548223,4.6548219 0 0 1 4.65429,4.65429 4.6548223,4.6548219 0 0 1 -4.65429,4.6543 4.6548223,4.6548219 0 0 1 -4.6543,-4.6543 4.6548223,4.6548219 0 0 1 4.6543,-4.65429 z M 435.89355,970.23412 a 4.6548223,4.6548219 0 0 1 4.65625,4.65429 4.6548223,4.6548219 0 0 1 -4.65625,4.6543 4.6548223,4.6548219 0 0 1 -4.6543,-4.6543 4.6548223,4.6548219 0 0 1 4.6543,-4.65429 z m 173.62305,0 a 4.6548223,4.6548219 0 0 1 4.65429,4.65429 4.6548223,4.6548219 0 0 1 -4.65429,4.6543 4.6548223,4.6548219 0 0 1 -4.6543,-4.6543 4.6548223,4.6548219 0 0 1 4.6543,-4.65429 z m -200.58008,22.26953 a 8.7283087,8.7283096 0 0 1 8.72851,8.72845 8.7283087,8.7283096 0 0 1 -8.72851,8.7286 8.7283087,8.7283096 0 0 1 -8.72852,-8.7286 8.7283087,8.7283096 0 0 1 8.72852,-8.72845 z m 226.77148,0 a 8.7283087,8.7283096 0 0 1 8.72852,8.72845 8.7283087,8.7283096 0 0 1 -8.72852,8.7286 8.7283087,8.7283096 0 0 1 -8.72851,-8.7286 8.7283087,8.7283096 0 0 1 8.72851,-8.72845 z"
       style="fill:#00ff00;fill-opacity:1;stroke:#000000;stroke-width:0.35433072;stroke-miterlimit:4;stroke-dasharray:none;stroke-opacity:1" />
    <path
       inkscape:connector-curvature="0"
       id="rect4799-2-7"
       d="m 701.26604,651.11024 0,368.50386 318.89646,0 0,-368.50386 -318.89646,0 z m 45.88476,28.6543 a 8.7283087,8.7283096 0 0 1 8.72851,8.72852 8.7283087,8.7283096 0 0 1 -8.72851,8.72851 8.7283087,8.7283096 0 0 1 -8.72852,-8.72851 8.7283087,8.7283096 0 0 1 8.72852,-8.72852 z m 226.77149,0 a 8.7283087,8.7283096 0 0 1 8.72852,8.72852 8.7283087,8.7283096 0 0 1 -8.72852,8.72851 8.7283087,8.7283096 0 0 1 -8.72851,-8.72851 8.7283087,8.7283096 0 0 1 8.72851,-8.72852 z m -199.81446,84.0293 a 4.6548223,4.6548219 0 0 1 4.65625,4.65429 4.6548223,4.6548219 0 0 1 -4.65625,4.6543 4.6548223,4.6548219 0 0 1 -4.6543,-4.6543 4.6548223,4.6548219 0 0 1 4.6543,-4.65429 z m 173.62306,0 a 4.6548223,4.6548219 0 0 1 4.65429,4.65429 4.6548223,4.6548219 0 0 1 -4.65429,4.6543 4.6548223,4.6548219 0 0 1 -4.6543,-4.6543 4.6548223,4.6548219 0 0 1 4.6543,-4.65429 z M 774.10783,969.30556 a 4.6548223,4.6548219 0 0 1 4.65625,4.65429 4.6548223,4.6548219 0 0 1 -4.65625,4.6543 4.6548223,4.6548219 0 0 1 -4.6543,-4.6543 4.6548223,4.6548219 0 0 1 4.6543,-4.65429 z m 173.62306,0 a 4.6548223,4.6548219 0 0 1 4.65429,4.65429 4.6548223,4.6548219 0 0 1 -4.65429,4.6543 4.6548223,4.6548219 0 0 1 -4.6543,-4.6543 4.6548223,4.6548219 0 0 1 4.6543,-4.65429 z M 747.1508,991.57509 a 8.7283087,8.7283096 0 0 1 8.72851,8.72841 8.7283087,8.7283096 0 0 1 -8.72851,8.7286 8.7283087,8.7283096 0 0 1 -8.72852,-8.7286 8.7283087,8.7283096 0 0 1 8.72852,-8.72841 z m 226.77149,0 a 8.7283087,8.7283096 0 0 1 8.72852,8.72841 8.7283087,8.7283096 0 0 1 -8.72852,8.7286 8.7283087,8.7283096 0 0 1 -8.72851,-8.7286 8.7283087,8.7283096 0 0 1 8.72851,-8.72841 z"
       style="fill:#00ff00;fill-opacity:1;stroke:#000000;stroke-width:0.35433072;stroke-miterlimit:4;stroke-dasharray:none;stroke-opacity:1" />
    <g
       id="g4855">
      <g
         id="g4857" />
      <g
         id="g4859" />
      <g
         id="g4861" />
    </g>
  </g>
</svg>
