G75*
%MOIN*%
%OFA0B0*%
%FSLAX25Y25*%
%IPPOS*%
%LPD*%
%AMOC8*
5,1,8,0,0,1.08239X$1,22.5*
%
%ADD10C,0.00800*%
%ADD11OC8,0.06400*%
%ADD12C,0.06400*%
%ADD13C,0.07400*%
%ADD14C,0.00000*%
%ADD15C,0.01600*%
%ADD16OC8,0.04362*%
D10*
X0146255Y0061333D02*
X0461216Y0061333D01*
X0461216Y0297554D01*
X0146255Y0297554D01*
X0146255Y0061333D01*
D11*
X0393224Y0086333D03*
X0403224Y0086333D03*
X0403224Y0096333D03*
X0393224Y0096333D03*
X0393224Y0106333D03*
X0403224Y0106333D03*
X0403224Y0116333D03*
X0403224Y0126333D03*
X0393224Y0126333D03*
X0393224Y0116333D03*
X0393224Y0136333D03*
X0403224Y0136333D03*
X0403224Y0146333D03*
X0403224Y0156333D03*
X0393224Y0156333D03*
X0393224Y0146333D03*
X0393224Y0166333D03*
X0403224Y0166333D03*
X0403224Y0176333D03*
X0403224Y0186333D03*
X0393224Y0186333D03*
X0393224Y0176333D03*
X0393224Y0196333D03*
X0403224Y0196333D03*
X0403224Y0206333D03*
X0403224Y0216333D03*
X0393224Y0216333D03*
X0393224Y0206333D03*
X0393224Y0226333D03*
X0403224Y0226333D03*
X0403224Y0236333D03*
X0393224Y0236333D03*
X0393224Y0246333D03*
X0403224Y0246333D03*
X0403224Y0256333D03*
X0393224Y0256333D03*
X0393224Y0266333D03*
X0403224Y0266333D03*
X0403224Y0276333D03*
X0393224Y0276333D03*
D12*
X0426921Y0276142D02*
X0431447Y0280667D01*
X0438518Y0273596D02*
X0433992Y0269071D01*
X0441063Y0262000D02*
X0445589Y0266525D01*
X0444455Y0241333D02*
X0438055Y0241333D01*
X0438055Y0231333D02*
X0444455Y0231333D01*
X0444455Y0221333D02*
X0438055Y0221333D01*
X0438055Y0211333D02*
X0444455Y0211333D01*
X0444455Y0191333D02*
X0438055Y0191333D01*
X0438055Y0181333D02*
X0444455Y0181333D01*
X0444455Y0171333D02*
X0438055Y0171333D01*
X0441063Y0095667D02*
X0445589Y0091142D01*
X0438518Y0084071D02*
X0433992Y0088596D01*
X0426921Y0081525D02*
X0431447Y0077000D01*
X0313735Y0078133D02*
X0313735Y0084533D01*
X0303735Y0084533D02*
X0303735Y0078133D01*
X0293735Y0078133D02*
X0293735Y0084533D01*
X0231255Y0108133D02*
X0231255Y0114533D01*
X0221255Y0114533D02*
X0221255Y0108133D01*
X0211255Y0108133D02*
X0211255Y0114533D01*
X0211255Y0128133D02*
X0211255Y0134533D01*
X0221255Y0134533D02*
X0221255Y0128133D01*
X0231255Y0128133D02*
X0231255Y0134533D01*
X0231255Y0148133D02*
X0231255Y0154533D01*
X0221255Y0154533D02*
X0221255Y0148133D01*
X0211255Y0148133D02*
X0211255Y0154533D01*
X0211255Y0168133D02*
X0211255Y0174533D01*
X0221255Y0174533D02*
X0221255Y0168133D01*
X0231255Y0168133D02*
X0231255Y0174533D01*
X0206255Y0208133D02*
X0206255Y0214533D01*
X0206255Y0223133D02*
X0206255Y0229533D01*
X0206255Y0238133D02*
X0206255Y0244533D01*
X0196255Y0244533D02*
X0196255Y0238133D01*
X0196255Y0229533D02*
X0196255Y0223133D01*
X0196255Y0214533D02*
X0196255Y0208133D01*
X0186255Y0208133D02*
X0186255Y0214533D01*
X0176255Y0214533D02*
X0176255Y0208133D01*
X0176255Y0223133D02*
X0176255Y0229533D01*
X0186255Y0229533D02*
X0186255Y0223133D01*
X0186255Y0238133D02*
X0186255Y0244533D01*
X0176255Y0244533D02*
X0176255Y0238133D01*
X0166447Y0262000D02*
X0161921Y0266525D01*
X0168992Y0273596D02*
X0173518Y0269071D01*
X0180589Y0276142D02*
X0176063Y0280667D01*
X0201255Y0278133D02*
X0201255Y0284533D01*
X0211255Y0284533D02*
X0211255Y0278133D01*
X0221255Y0278133D02*
X0221255Y0284533D01*
X0231255Y0284533D02*
X0231255Y0278133D01*
X0241255Y0278133D02*
X0241255Y0284533D01*
X0251255Y0284533D02*
X0251255Y0278133D01*
X0293735Y0278133D02*
X0293735Y0284533D01*
X0303735Y0284533D02*
X0303735Y0278133D01*
X0313735Y0278133D02*
X0313735Y0284533D01*
X0164455Y0186333D02*
X0158055Y0186333D01*
X0158055Y0176333D02*
X0164455Y0176333D01*
X0164455Y0166333D02*
X0158055Y0166333D01*
X0166447Y0095667D02*
X0161921Y0091142D01*
X0168992Y0084071D02*
X0173518Y0088596D01*
X0180589Y0081525D02*
X0176063Y0077000D01*
D13*
X0191255Y0098833D03*
X0186255Y0106333D03*
X0196255Y0106333D03*
X0211255Y0096333D03*
X0241255Y0096333D03*
X0426255Y0131333D03*
X0438755Y0126333D03*
X0446255Y0121333D03*
X0446255Y0131333D03*
X0426255Y0161333D03*
D14*
X0297235Y0145979D02*
X0297237Y0146140D01*
X0297243Y0146300D01*
X0297253Y0146461D01*
X0297267Y0146621D01*
X0297285Y0146781D01*
X0297306Y0146940D01*
X0297332Y0147099D01*
X0297362Y0147257D01*
X0297395Y0147414D01*
X0297433Y0147571D01*
X0297474Y0147726D01*
X0297519Y0147880D01*
X0297568Y0148033D01*
X0297621Y0148185D01*
X0297677Y0148336D01*
X0297738Y0148485D01*
X0297801Y0148633D01*
X0297869Y0148779D01*
X0297940Y0148923D01*
X0298014Y0149065D01*
X0298092Y0149206D01*
X0298174Y0149344D01*
X0298259Y0149481D01*
X0298347Y0149615D01*
X0298439Y0149747D01*
X0298534Y0149877D01*
X0298632Y0150005D01*
X0298733Y0150130D01*
X0298837Y0150252D01*
X0298944Y0150372D01*
X0299054Y0150489D01*
X0299167Y0150604D01*
X0299283Y0150715D01*
X0299402Y0150824D01*
X0299523Y0150929D01*
X0299647Y0151032D01*
X0299773Y0151132D01*
X0299901Y0151228D01*
X0300032Y0151321D01*
X0300166Y0151411D01*
X0300301Y0151498D01*
X0300439Y0151581D01*
X0300578Y0151661D01*
X0300720Y0151737D01*
X0300863Y0151810D01*
X0301008Y0151879D01*
X0301155Y0151945D01*
X0301303Y0152007D01*
X0301453Y0152065D01*
X0301604Y0152120D01*
X0301757Y0152171D01*
X0301911Y0152218D01*
X0302066Y0152261D01*
X0302222Y0152300D01*
X0302378Y0152336D01*
X0302536Y0152367D01*
X0302694Y0152395D01*
X0302853Y0152419D01*
X0303013Y0152439D01*
X0303173Y0152455D01*
X0303333Y0152467D01*
X0303494Y0152475D01*
X0303655Y0152479D01*
X0303815Y0152479D01*
X0303976Y0152475D01*
X0304137Y0152467D01*
X0304297Y0152455D01*
X0304457Y0152439D01*
X0304617Y0152419D01*
X0304776Y0152395D01*
X0304934Y0152367D01*
X0305092Y0152336D01*
X0305248Y0152300D01*
X0305404Y0152261D01*
X0305559Y0152218D01*
X0305713Y0152171D01*
X0305866Y0152120D01*
X0306017Y0152065D01*
X0306167Y0152007D01*
X0306315Y0151945D01*
X0306462Y0151879D01*
X0306607Y0151810D01*
X0306750Y0151737D01*
X0306892Y0151661D01*
X0307031Y0151581D01*
X0307169Y0151498D01*
X0307304Y0151411D01*
X0307438Y0151321D01*
X0307569Y0151228D01*
X0307697Y0151132D01*
X0307823Y0151032D01*
X0307947Y0150929D01*
X0308068Y0150824D01*
X0308187Y0150715D01*
X0308303Y0150604D01*
X0308416Y0150489D01*
X0308526Y0150372D01*
X0308633Y0150252D01*
X0308737Y0150130D01*
X0308838Y0150005D01*
X0308936Y0149877D01*
X0309031Y0149747D01*
X0309123Y0149615D01*
X0309211Y0149481D01*
X0309296Y0149344D01*
X0309378Y0149206D01*
X0309456Y0149065D01*
X0309530Y0148923D01*
X0309601Y0148779D01*
X0309669Y0148633D01*
X0309732Y0148485D01*
X0309793Y0148336D01*
X0309849Y0148185D01*
X0309902Y0148033D01*
X0309951Y0147880D01*
X0309996Y0147726D01*
X0310037Y0147571D01*
X0310075Y0147414D01*
X0310108Y0147257D01*
X0310138Y0147099D01*
X0310164Y0146940D01*
X0310185Y0146781D01*
X0310203Y0146621D01*
X0310217Y0146461D01*
X0310227Y0146300D01*
X0310233Y0146140D01*
X0310235Y0145979D01*
X0310233Y0145818D01*
X0310227Y0145658D01*
X0310217Y0145497D01*
X0310203Y0145337D01*
X0310185Y0145177D01*
X0310164Y0145018D01*
X0310138Y0144859D01*
X0310108Y0144701D01*
X0310075Y0144544D01*
X0310037Y0144387D01*
X0309996Y0144232D01*
X0309951Y0144078D01*
X0309902Y0143925D01*
X0309849Y0143773D01*
X0309793Y0143622D01*
X0309732Y0143473D01*
X0309669Y0143325D01*
X0309601Y0143179D01*
X0309530Y0143035D01*
X0309456Y0142893D01*
X0309378Y0142752D01*
X0309296Y0142614D01*
X0309211Y0142477D01*
X0309123Y0142343D01*
X0309031Y0142211D01*
X0308936Y0142081D01*
X0308838Y0141953D01*
X0308737Y0141828D01*
X0308633Y0141706D01*
X0308526Y0141586D01*
X0308416Y0141469D01*
X0308303Y0141354D01*
X0308187Y0141243D01*
X0308068Y0141134D01*
X0307947Y0141029D01*
X0307823Y0140926D01*
X0307697Y0140826D01*
X0307569Y0140730D01*
X0307438Y0140637D01*
X0307304Y0140547D01*
X0307169Y0140460D01*
X0307031Y0140377D01*
X0306892Y0140297D01*
X0306750Y0140221D01*
X0306607Y0140148D01*
X0306462Y0140079D01*
X0306315Y0140013D01*
X0306167Y0139951D01*
X0306017Y0139893D01*
X0305866Y0139838D01*
X0305713Y0139787D01*
X0305559Y0139740D01*
X0305404Y0139697D01*
X0305248Y0139658D01*
X0305092Y0139622D01*
X0304934Y0139591D01*
X0304776Y0139563D01*
X0304617Y0139539D01*
X0304457Y0139519D01*
X0304297Y0139503D01*
X0304137Y0139491D01*
X0303976Y0139483D01*
X0303815Y0139479D01*
X0303655Y0139479D01*
X0303494Y0139483D01*
X0303333Y0139491D01*
X0303173Y0139503D01*
X0303013Y0139519D01*
X0302853Y0139539D01*
X0302694Y0139563D01*
X0302536Y0139591D01*
X0302378Y0139622D01*
X0302222Y0139658D01*
X0302066Y0139697D01*
X0301911Y0139740D01*
X0301757Y0139787D01*
X0301604Y0139838D01*
X0301453Y0139893D01*
X0301303Y0139951D01*
X0301155Y0140013D01*
X0301008Y0140079D01*
X0300863Y0140148D01*
X0300720Y0140221D01*
X0300578Y0140297D01*
X0300439Y0140377D01*
X0300301Y0140460D01*
X0300166Y0140547D01*
X0300032Y0140637D01*
X0299901Y0140730D01*
X0299773Y0140826D01*
X0299647Y0140926D01*
X0299523Y0141029D01*
X0299402Y0141134D01*
X0299283Y0141243D01*
X0299167Y0141354D01*
X0299054Y0141469D01*
X0298944Y0141586D01*
X0298837Y0141706D01*
X0298733Y0141828D01*
X0298632Y0141953D01*
X0298534Y0142081D01*
X0298439Y0142211D01*
X0298347Y0142343D01*
X0298259Y0142477D01*
X0298174Y0142614D01*
X0298092Y0142752D01*
X0298014Y0142893D01*
X0297940Y0143035D01*
X0297869Y0143179D01*
X0297801Y0143325D01*
X0297738Y0143473D01*
X0297677Y0143622D01*
X0297621Y0143773D01*
X0297568Y0143925D01*
X0297519Y0144078D01*
X0297474Y0144232D01*
X0297433Y0144387D01*
X0297395Y0144544D01*
X0297362Y0144701D01*
X0297332Y0144859D01*
X0297306Y0145018D01*
X0297285Y0145177D01*
X0297267Y0145337D01*
X0297253Y0145497D01*
X0297243Y0145658D01*
X0297237Y0145818D01*
X0297235Y0145979D01*
X0297235Y0254247D02*
X0297237Y0254408D01*
X0297243Y0254568D01*
X0297253Y0254729D01*
X0297267Y0254889D01*
X0297285Y0255049D01*
X0297306Y0255208D01*
X0297332Y0255367D01*
X0297362Y0255525D01*
X0297395Y0255682D01*
X0297433Y0255839D01*
X0297474Y0255994D01*
X0297519Y0256148D01*
X0297568Y0256301D01*
X0297621Y0256453D01*
X0297677Y0256604D01*
X0297738Y0256753D01*
X0297801Y0256901D01*
X0297869Y0257047D01*
X0297940Y0257191D01*
X0298014Y0257333D01*
X0298092Y0257474D01*
X0298174Y0257612D01*
X0298259Y0257749D01*
X0298347Y0257883D01*
X0298439Y0258015D01*
X0298534Y0258145D01*
X0298632Y0258273D01*
X0298733Y0258398D01*
X0298837Y0258520D01*
X0298944Y0258640D01*
X0299054Y0258757D01*
X0299167Y0258872D01*
X0299283Y0258983D01*
X0299402Y0259092D01*
X0299523Y0259197D01*
X0299647Y0259300D01*
X0299773Y0259400D01*
X0299901Y0259496D01*
X0300032Y0259589D01*
X0300166Y0259679D01*
X0300301Y0259766D01*
X0300439Y0259849D01*
X0300578Y0259929D01*
X0300720Y0260005D01*
X0300863Y0260078D01*
X0301008Y0260147D01*
X0301155Y0260213D01*
X0301303Y0260275D01*
X0301453Y0260333D01*
X0301604Y0260388D01*
X0301757Y0260439D01*
X0301911Y0260486D01*
X0302066Y0260529D01*
X0302222Y0260568D01*
X0302378Y0260604D01*
X0302536Y0260635D01*
X0302694Y0260663D01*
X0302853Y0260687D01*
X0303013Y0260707D01*
X0303173Y0260723D01*
X0303333Y0260735D01*
X0303494Y0260743D01*
X0303655Y0260747D01*
X0303815Y0260747D01*
X0303976Y0260743D01*
X0304137Y0260735D01*
X0304297Y0260723D01*
X0304457Y0260707D01*
X0304617Y0260687D01*
X0304776Y0260663D01*
X0304934Y0260635D01*
X0305092Y0260604D01*
X0305248Y0260568D01*
X0305404Y0260529D01*
X0305559Y0260486D01*
X0305713Y0260439D01*
X0305866Y0260388D01*
X0306017Y0260333D01*
X0306167Y0260275D01*
X0306315Y0260213D01*
X0306462Y0260147D01*
X0306607Y0260078D01*
X0306750Y0260005D01*
X0306892Y0259929D01*
X0307031Y0259849D01*
X0307169Y0259766D01*
X0307304Y0259679D01*
X0307438Y0259589D01*
X0307569Y0259496D01*
X0307697Y0259400D01*
X0307823Y0259300D01*
X0307947Y0259197D01*
X0308068Y0259092D01*
X0308187Y0258983D01*
X0308303Y0258872D01*
X0308416Y0258757D01*
X0308526Y0258640D01*
X0308633Y0258520D01*
X0308737Y0258398D01*
X0308838Y0258273D01*
X0308936Y0258145D01*
X0309031Y0258015D01*
X0309123Y0257883D01*
X0309211Y0257749D01*
X0309296Y0257612D01*
X0309378Y0257474D01*
X0309456Y0257333D01*
X0309530Y0257191D01*
X0309601Y0257047D01*
X0309669Y0256901D01*
X0309732Y0256753D01*
X0309793Y0256604D01*
X0309849Y0256453D01*
X0309902Y0256301D01*
X0309951Y0256148D01*
X0309996Y0255994D01*
X0310037Y0255839D01*
X0310075Y0255682D01*
X0310108Y0255525D01*
X0310138Y0255367D01*
X0310164Y0255208D01*
X0310185Y0255049D01*
X0310203Y0254889D01*
X0310217Y0254729D01*
X0310227Y0254568D01*
X0310233Y0254408D01*
X0310235Y0254247D01*
X0310233Y0254086D01*
X0310227Y0253926D01*
X0310217Y0253765D01*
X0310203Y0253605D01*
X0310185Y0253445D01*
X0310164Y0253286D01*
X0310138Y0253127D01*
X0310108Y0252969D01*
X0310075Y0252812D01*
X0310037Y0252655D01*
X0309996Y0252500D01*
X0309951Y0252346D01*
X0309902Y0252193D01*
X0309849Y0252041D01*
X0309793Y0251890D01*
X0309732Y0251741D01*
X0309669Y0251593D01*
X0309601Y0251447D01*
X0309530Y0251303D01*
X0309456Y0251161D01*
X0309378Y0251020D01*
X0309296Y0250882D01*
X0309211Y0250745D01*
X0309123Y0250611D01*
X0309031Y0250479D01*
X0308936Y0250349D01*
X0308838Y0250221D01*
X0308737Y0250096D01*
X0308633Y0249974D01*
X0308526Y0249854D01*
X0308416Y0249737D01*
X0308303Y0249622D01*
X0308187Y0249511D01*
X0308068Y0249402D01*
X0307947Y0249297D01*
X0307823Y0249194D01*
X0307697Y0249094D01*
X0307569Y0248998D01*
X0307438Y0248905D01*
X0307304Y0248815D01*
X0307169Y0248728D01*
X0307031Y0248645D01*
X0306892Y0248565D01*
X0306750Y0248489D01*
X0306607Y0248416D01*
X0306462Y0248347D01*
X0306315Y0248281D01*
X0306167Y0248219D01*
X0306017Y0248161D01*
X0305866Y0248106D01*
X0305713Y0248055D01*
X0305559Y0248008D01*
X0305404Y0247965D01*
X0305248Y0247926D01*
X0305092Y0247890D01*
X0304934Y0247859D01*
X0304776Y0247831D01*
X0304617Y0247807D01*
X0304457Y0247787D01*
X0304297Y0247771D01*
X0304137Y0247759D01*
X0303976Y0247751D01*
X0303815Y0247747D01*
X0303655Y0247747D01*
X0303494Y0247751D01*
X0303333Y0247759D01*
X0303173Y0247771D01*
X0303013Y0247787D01*
X0302853Y0247807D01*
X0302694Y0247831D01*
X0302536Y0247859D01*
X0302378Y0247890D01*
X0302222Y0247926D01*
X0302066Y0247965D01*
X0301911Y0248008D01*
X0301757Y0248055D01*
X0301604Y0248106D01*
X0301453Y0248161D01*
X0301303Y0248219D01*
X0301155Y0248281D01*
X0301008Y0248347D01*
X0300863Y0248416D01*
X0300720Y0248489D01*
X0300578Y0248565D01*
X0300439Y0248645D01*
X0300301Y0248728D01*
X0300166Y0248815D01*
X0300032Y0248905D01*
X0299901Y0248998D01*
X0299773Y0249094D01*
X0299647Y0249194D01*
X0299523Y0249297D01*
X0299402Y0249402D01*
X0299283Y0249511D01*
X0299167Y0249622D01*
X0299054Y0249737D01*
X0298944Y0249854D01*
X0298837Y0249974D01*
X0298733Y0250096D01*
X0298632Y0250221D01*
X0298534Y0250349D01*
X0298439Y0250479D01*
X0298347Y0250611D01*
X0298259Y0250745D01*
X0298174Y0250882D01*
X0298092Y0251020D01*
X0298014Y0251161D01*
X0297940Y0251303D01*
X0297869Y0251447D01*
X0297801Y0251593D01*
X0297738Y0251741D01*
X0297677Y0251890D01*
X0297621Y0252041D01*
X0297568Y0252193D01*
X0297519Y0252346D01*
X0297474Y0252500D01*
X0297433Y0252655D01*
X0297395Y0252812D01*
X0297362Y0252969D01*
X0297332Y0253127D01*
X0297306Y0253286D01*
X0297285Y0253445D01*
X0297267Y0253605D01*
X0297253Y0253765D01*
X0297243Y0253926D01*
X0297237Y0254086D01*
X0297235Y0254247D01*
D15*
X0295235Y0254753D02*
X0253855Y0254753D01*
X0253855Y0253155D02*
X0295235Y0253155D01*
X0295235Y0252556D02*
X0296529Y0249432D01*
X0298921Y0247041D01*
X0302045Y0245747D01*
X0303238Y0245747D01*
X0305426Y0245747D01*
X0308550Y0247041D01*
X0310941Y0249432D01*
X0312235Y0252556D01*
X0312235Y0255937D01*
X0310941Y0259062D01*
X0308550Y0261453D01*
X0305426Y0262747D01*
X0302045Y0262747D01*
X0298921Y0261453D01*
X0296529Y0259062D01*
X0296529Y0259062D01*
X0295235Y0255937D01*
X0295235Y0252556D01*
X0295649Y0251556D02*
X0253855Y0251556D01*
X0253855Y0249958D02*
X0296312Y0249958D01*
X0296529Y0249432D02*
X0296529Y0249432D01*
X0297602Y0248359D02*
X0253855Y0248359D01*
X0253855Y0246761D02*
X0299597Y0246761D01*
X0298921Y0247041D02*
X0298921Y0247041D01*
X0305426Y0245747D02*
X0305426Y0245747D01*
X0307874Y0246761D02*
X0373655Y0246761D01*
X0373655Y0248359D02*
X0309869Y0248359D01*
X0310941Y0249432D02*
X0310941Y0249432D01*
X0311159Y0249958D02*
X0373655Y0249958D01*
X0373655Y0251556D02*
X0311821Y0251556D01*
X0312235Y0253155D02*
X0373655Y0253155D01*
X0373655Y0254753D02*
X0312235Y0254753D01*
X0312064Y0256352D02*
X0373655Y0256352D01*
X0373655Y0257950D02*
X0311402Y0257950D01*
X0310941Y0259062D02*
X0310941Y0259062D01*
X0310454Y0259549D02*
X0373655Y0259549D01*
X0373655Y0261147D02*
X0308856Y0261147D01*
X0308550Y0261453D02*
X0308550Y0261453D01*
X0305428Y0262746D02*
X0374026Y0262746D01*
X0374051Y0262806D02*
X0373655Y0261851D01*
X0373655Y0237410D01*
X0370178Y0233933D01*
X0257332Y0233933D01*
X0253855Y0237410D01*
X0253855Y0266851D01*
X0253459Y0267806D01*
X0252728Y0268537D01*
X0247728Y0273537D01*
X0246772Y0273933D01*
X0243981Y0273933D01*
X0244512Y0274320D01*
X0245069Y0274876D01*
X0245531Y0275513D01*
X0245889Y0276214D01*
X0246132Y0276962D01*
X0246255Y0277740D01*
X0246255Y0281133D01*
X0241455Y0281133D01*
X0241455Y0281533D01*
X0246255Y0281533D01*
X0246255Y0284927D01*
X0246132Y0285704D01*
X0245889Y0286453D01*
X0245531Y0287154D01*
X0245069Y0287791D01*
X0244512Y0288347D01*
X0243876Y0288810D01*
X0243174Y0289167D01*
X0242426Y0289410D01*
X0241649Y0289533D01*
X0241455Y0289533D01*
X0241455Y0281533D01*
X0241055Y0281533D01*
X0241055Y0281133D01*
X0236255Y0281133D01*
X0236255Y0277740D01*
X0236378Y0276962D01*
X0236621Y0276214D01*
X0236979Y0275513D01*
X0237441Y0274876D01*
X0237998Y0274320D01*
X0238529Y0273933D01*
X0234126Y0273933D01*
X0235494Y0275301D01*
X0236255Y0277139D01*
X0236255Y0285528D01*
X0235494Y0287366D01*
X0234087Y0288772D01*
X0232250Y0289533D01*
X0230260Y0289533D01*
X0228423Y0288772D01*
X0227016Y0287366D01*
X0226255Y0285528D01*
X0225494Y0287366D01*
X0224087Y0288772D01*
X0222250Y0289533D01*
X0220260Y0289533D01*
X0218423Y0288772D01*
X0217016Y0287366D01*
X0216255Y0285528D01*
X0215494Y0287366D01*
X0214087Y0288772D01*
X0212250Y0289533D01*
X0210260Y0289533D01*
X0208423Y0288772D01*
X0207016Y0287366D01*
X0206255Y0285528D01*
X0206255Y0277139D01*
X0207016Y0275301D01*
X0208423Y0273895D01*
X0210260Y0273133D01*
X0212250Y0273133D01*
X0214087Y0273895D01*
X0215494Y0275301D01*
X0216255Y0277139D01*
X0216255Y0285528D01*
X0216255Y0277139D01*
X0217016Y0275301D01*
X0218423Y0273895D01*
X0220260Y0273133D01*
X0222250Y0273133D01*
X0222549Y0273257D01*
X0222274Y0272982D01*
X0222274Y0269684D01*
X0224606Y0267352D01*
X0227904Y0267352D01*
X0229285Y0268733D01*
X0233025Y0268733D01*
X0232274Y0267982D01*
X0232274Y0264684D01*
X0234606Y0262352D01*
X0236559Y0262352D01*
X0238655Y0260256D01*
X0238655Y0230816D01*
X0239051Y0229861D01*
X0244051Y0224861D01*
X0244051Y0224861D01*
X0244782Y0224129D01*
X0245255Y0223933D01*
X0220738Y0223933D01*
X0219782Y0223537D01*
X0214051Y0217806D01*
X0213655Y0216851D01*
X0213655Y0202410D01*
X0210178Y0198933D01*
X0177332Y0198933D01*
X0168855Y0207410D01*
X0168855Y0246851D01*
X0168459Y0247806D01*
X0165236Y0251029D01*
X0165236Y0252982D01*
X0162904Y0255314D01*
X0159606Y0255314D01*
X0157274Y0252982D01*
X0157274Y0249684D01*
X0159606Y0247352D01*
X0161559Y0247352D01*
X0163655Y0245256D01*
X0163655Y0205816D01*
X0164051Y0204861D01*
X0164782Y0204129D01*
X0174782Y0194129D01*
X0175738Y0193733D01*
X0180255Y0193733D01*
X0179782Y0193537D01*
X0174782Y0188537D01*
X0174051Y0187806D01*
X0173655Y0186851D01*
X0173655Y0169363D01*
X0172274Y0167982D01*
X0172274Y0164684D01*
X0174606Y0162352D01*
X0177904Y0162352D01*
X0180236Y0164684D01*
X0180236Y0167982D01*
X0178855Y0169363D01*
X0178855Y0185256D01*
X0182332Y0188733D01*
X0216772Y0188733D01*
X0217728Y0189129D01*
X0218459Y0189861D01*
X0222728Y0194129D01*
X0223459Y0194861D01*
X0223855Y0195816D01*
X0223855Y0203103D01*
X0224606Y0202352D01*
X0226559Y0202352D01*
X0228655Y0200256D01*
X0228655Y0185816D01*
X0229051Y0184861D01*
X0229782Y0184129D01*
X0238655Y0175256D01*
X0238655Y0135816D01*
X0239051Y0134861D01*
X0239782Y0134129D01*
X0254782Y0119129D01*
X0255738Y0118733D01*
X0366772Y0118733D01*
X0367728Y0119129D01*
X0368459Y0119861D01*
X0373459Y0124861D01*
X0373855Y0125816D01*
X0373855Y0140256D01*
X0383459Y0149861D01*
X0383855Y0150816D01*
X0383855Y0190256D01*
X0387332Y0193733D01*
X0388753Y0193733D01*
X0391153Y0191333D01*
X0388224Y0188404D01*
X0388224Y0184262D01*
X0391153Y0181333D01*
X0388224Y0178404D01*
X0388224Y0174262D01*
X0391153Y0171333D01*
X0388224Y0168404D01*
X0388224Y0164262D01*
X0391153Y0161333D01*
X0388224Y0158404D01*
X0388224Y0156533D01*
X0393023Y0156533D01*
X0393023Y0156133D01*
X0388224Y0156133D01*
X0388224Y0154262D01*
X0391153Y0151333D01*
X0388224Y0148404D01*
X0388224Y0144262D01*
X0391153Y0141333D01*
X0388753Y0138933D01*
X0384285Y0138933D01*
X0382904Y0140314D01*
X0379606Y0140314D01*
X0377274Y0137982D01*
X0377274Y0134684D01*
X0379606Y0132352D01*
X0382904Y0132352D01*
X0384285Y0133733D01*
X0388753Y0133733D01*
X0391153Y0131333D01*
X0388753Y0128933D01*
X0384285Y0128933D01*
X0382904Y0130314D01*
X0379606Y0130314D01*
X0377274Y0127982D01*
X0377274Y0124684D01*
X0379606Y0122352D01*
X0382904Y0122352D01*
X0384285Y0123733D01*
X0388753Y0123733D01*
X0391153Y0121333D01*
X0388753Y0118933D01*
X0384285Y0118933D01*
X0382904Y0120314D01*
X0379606Y0120314D01*
X0377274Y0117982D01*
X0377274Y0114684D01*
X0379606Y0112352D01*
X0382904Y0112352D01*
X0384285Y0113733D01*
X0388753Y0113733D01*
X0391153Y0111333D01*
X0388753Y0108933D01*
X0384285Y0108933D01*
X0382904Y0110314D01*
X0379606Y0110314D01*
X0377274Y0107982D01*
X0377274Y0104684D01*
X0379606Y0102352D01*
X0382904Y0102352D01*
X0384285Y0103733D01*
X0388753Y0103733D01*
X0391153Y0101333D01*
X0388753Y0098933D01*
X0246131Y0098933D01*
X0245918Y0099449D01*
X0244371Y0100996D01*
X0242349Y0101833D01*
X0240161Y0101833D01*
X0238140Y0100996D01*
X0236592Y0099449D01*
X0235755Y0097427D01*
X0235755Y0095239D01*
X0236592Y0093218D01*
X0238140Y0091671D01*
X0240161Y0090833D01*
X0242349Y0090833D01*
X0244371Y0091671D01*
X0245918Y0093218D01*
X0246131Y0093733D01*
X0275255Y0093733D01*
X0274782Y0093537D01*
X0274051Y0092806D01*
X0265178Y0083933D01*
X0194285Y0083933D01*
X0192904Y0085314D01*
X0189606Y0085314D01*
X0187274Y0082982D01*
X0187274Y0079684D01*
X0189606Y0077352D01*
X0192904Y0077352D01*
X0194285Y0078733D01*
X0266772Y0078733D01*
X0267728Y0079129D01*
X0277332Y0088733D01*
X0290864Y0088733D01*
X0289497Y0087366D01*
X0288735Y0085528D01*
X0288735Y0077139D01*
X0289497Y0075301D01*
X0290903Y0073895D01*
X0292741Y0073133D01*
X0294730Y0073133D01*
X0296568Y0073895D01*
X0297974Y0075301D01*
X0298735Y0077139D01*
X0299497Y0075301D01*
X0300903Y0073895D01*
X0302741Y0073133D01*
X0304730Y0073133D01*
X0306568Y0073895D01*
X0307974Y0075301D01*
X0308735Y0077139D01*
X0309497Y0075301D01*
X0310903Y0073895D01*
X0312741Y0073133D01*
X0314730Y0073133D01*
X0316568Y0073895D01*
X0317974Y0075301D01*
X0318735Y0077139D01*
X0318735Y0085528D01*
X0317974Y0087366D01*
X0316606Y0088733D01*
X0320178Y0088733D01*
X0323655Y0085256D01*
X0323655Y0075816D01*
X0324051Y0074861D01*
X0329051Y0069861D01*
X0329782Y0069129D01*
X0330738Y0068733D01*
X0411772Y0068733D01*
X0412728Y0069129D01*
X0417728Y0074129D01*
X0418459Y0074861D01*
X0418855Y0075816D01*
X0418855Y0091851D01*
X0418459Y0092806D01*
X0413459Y0097806D01*
X0412728Y0098537D01*
X0411772Y0098933D01*
X0407695Y0098933D01*
X0405295Y0101333D01*
X0401153Y0101333D01*
X0398224Y0098404D01*
X0398224Y0094262D01*
X0401153Y0091333D01*
X0398224Y0088404D01*
X0398224Y0084262D01*
X0401153Y0081333D01*
X0402578Y0081333D01*
X0400178Y0078933D01*
X0372332Y0078933D01*
X0367728Y0083537D01*
X0366772Y0083933D01*
X0364285Y0083933D01*
X0362904Y0085314D01*
X0359606Y0085314D01*
X0357274Y0082982D01*
X0357274Y0079684D01*
X0359606Y0077352D01*
X0362904Y0077352D01*
X0364285Y0078733D01*
X0365178Y0078733D01*
X0369051Y0074861D01*
X0369782Y0074129D01*
X0370255Y0073933D01*
X0332332Y0073933D01*
X0328855Y0077410D01*
X0328855Y0086851D01*
X0328459Y0087806D01*
X0327728Y0088537D01*
X0322728Y0093537D01*
X0322255Y0093733D01*
X0388753Y0093733D01*
X0391153Y0091333D01*
X0388224Y0088404D01*
X0388224Y0086533D01*
X0393023Y0086533D01*
X0393023Y0086133D01*
X0388224Y0086133D01*
X0388224Y0084262D01*
X0391153Y0081333D01*
X0393024Y0081333D01*
X0393024Y0086133D01*
X0393424Y0086133D01*
X0393424Y0086533D01*
X0398224Y0086533D01*
X0398224Y0088404D01*
X0395295Y0091333D01*
X0393424Y0091333D01*
X0393424Y0086533D01*
X0393024Y0086533D01*
X0393024Y0091333D01*
X0391153Y0091333D01*
X0395295Y0091333D01*
X0398224Y0094262D01*
X0398224Y0098404D01*
X0395295Y0101333D01*
X0391153Y0101333D01*
X0395295Y0101333D01*
X0398224Y0104262D01*
X0401153Y0101333D01*
X0405295Y0101333D01*
X0407695Y0103733D01*
X0420178Y0103733D01*
X0423655Y0100256D01*
X0423655Y0099363D01*
X0422274Y0097982D01*
X0422274Y0094684D01*
X0424606Y0092352D01*
X0427904Y0092352D01*
X0430236Y0094684D01*
X0430236Y0097982D01*
X0428855Y0099363D01*
X0428855Y0101851D01*
X0428459Y0102806D01*
X0427728Y0103537D01*
X0422728Y0108537D01*
X0421772Y0108933D01*
X0407695Y0108933D01*
X0405295Y0111333D01*
X0401153Y0111333D01*
X0398224Y0108404D01*
X0398224Y0104262D01*
X0398224Y0108404D01*
X0395295Y0111333D01*
X0391153Y0111333D01*
X0395295Y0111333D01*
X0398224Y0114262D01*
X0401153Y0111333D01*
X0403024Y0111333D01*
X0403024Y0116133D01*
X0403424Y0116133D01*
X0403424Y0116533D01*
X0408224Y0116533D01*
X0408224Y0118404D01*
X0405295Y0121333D01*
X0403424Y0121333D01*
X0403424Y0116533D01*
X0403024Y0116533D01*
X0403023Y0116533D02*
X0403023Y0116133D01*
X0398224Y0116133D01*
X0398224Y0114262D01*
X0398224Y0118404D01*
X0398224Y0116533D01*
X0403023Y0116533D01*
X0403024Y0116533D02*
X0403024Y0121333D01*
X0401153Y0121333D01*
X0398224Y0118404D01*
X0395295Y0121333D01*
X0391153Y0121333D01*
X0395295Y0121333D01*
X0398224Y0124262D01*
X0401153Y0121333D01*
X0405295Y0121333D01*
X0407695Y0123733D01*
X0411772Y0123733D01*
X0412728Y0124129D01*
X0417728Y0129129D01*
X0418459Y0129861D01*
X0418855Y0130816D01*
X0418855Y0155256D01*
X0421704Y0158106D01*
X0423140Y0156671D01*
X0425161Y0155833D01*
X0427349Y0155833D01*
X0429371Y0156671D01*
X0430918Y0158218D01*
X0431755Y0160239D01*
X0431755Y0162427D01*
X0430918Y0164449D01*
X0429371Y0165996D01*
X0427349Y0166833D01*
X0425161Y0166833D01*
X0423140Y0165996D01*
X0421592Y0164449D01*
X0421379Y0163933D01*
X0420738Y0163933D01*
X0419782Y0163537D01*
X0419051Y0162806D01*
X0414051Y0157806D01*
X0413655Y0156851D01*
X0413655Y0132410D01*
X0410178Y0128933D01*
X0407695Y0128933D01*
X0405295Y0131333D01*
X0401153Y0131333D01*
X0398224Y0128404D01*
X0398224Y0124262D01*
X0398224Y0128404D01*
X0395295Y0131333D01*
X0391153Y0131333D01*
X0395295Y0131333D01*
X0398224Y0134262D01*
X0401153Y0131333D01*
X0403024Y0131333D01*
X0403024Y0136133D01*
X0403424Y0136133D01*
X0403424Y0136533D01*
X0408224Y0136533D01*
X0408224Y0138404D01*
X0405295Y0141333D01*
X0403424Y0141333D01*
X0403424Y0136533D01*
X0403024Y0136533D01*
X0403023Y0136533D02*
X0403023Y0136133D01*
X0398224Y0136133D01*
X0398224Y0134262D01*
X0398224Y0138404D01*
X0398224Y0136533D01*
X0403023Y0136533D01*
X0403024Y0136533D02*
X0403024Y0141333D01*
X0401153Y0141333D01*
X0398224Y0138404D01*
X0395295Y0141333D01*
X0391153Y0141333D01*
X0395295Y0141333D01*
X0398224Y0144262D01*
X0401153Y0141333D01*
X0405295Y0141333D01*
X0408224Y0144262D01*
X0408224Y0148404D01*
X0405295Y0151333D01*
X0401153Y0151333D01*
X0398224Y0148404D01*
X0398224Y0144262D01*
X0398224Y0148404D01*
X0395295Y0151333D01*
X0391153Y0151333D01*
X0393024Y0151333D01*
X0393024Y0156133D01*
X0393424Y0156133D01*
X0393424Y0156533D01*
X0398224Y0156533D01*
X0398224Y0158404D01*
X0398224Y0154262D01*
X0401153Y0151333D01*
X0405295Y0151333D01*
X0408224Y0154262D01*
X0408224Y0158404D01*
X0405295Y0161333D01*
X0401153Y0161333D01*
X0398224Y0158404D01*
X0395295Y0161333D01*
X0393424Y0161333D01*
X0393424Y0156533D01*
X0393024Y0156533D01*
X0393024Y0161333D01*
X0391153Y0161333D01*
X0395295Y0161333D01*
X0398224Y0164262D01*
X0401153Y0161333D01*
X0405295Y0161333D01*
X0408224Y0164262D01*
X0408224Y0168404D01*
X0405295Y0171333D01*
X0401153Y0171333D01*
X0398224Y0168404D01*
X0398224Y0164262D01*
X0398224Y0168404D01*
X0395295Y0171333D01*
X0391153Y0171333D01*
X0395295Y0171333D01*
X0398224Y0174262D01*
X0401153Y0171333D01*
X0405295Y0171333D01*
X0408224Y0174262D01*
X0408224Y0178404D01*
X0405295Y0181333D01*
X0401153Y0181333D01*
X0398224Y0178404D01*
X0398224Y0174262D01*
X0398224Y0178404D01*
X0395295Y0181333D01*
X0391153Y0181333D01*
X0395295Y0181333D01*
X0398224Y0184262D01*
X0401153Y0181333D01*
X0403024Y0181333D01*
X0403024Y0186133D01*
X0403424Y0186133D01*
X0403424Y0186533D01*
X0408224Y0186533D01*
X0408224Y0188404D01*
X0405295Y0191333D01*
X0403424Y0191333D01*
X0403424Y0186533D01*
X0403024Y0186533D01*
X0403023Y0186533D02*
X0403023Y0186133D01*
X0398224Y0186133D01*
X0398224Y0184262D01*
X0398224Y0188404D01*
X0398224Y0186533D01*
X0403023Y0186533D01*
X0403024Y0186533D02*
X0403024Y0191333D01*
X0401153Y0191333D01*
X0398224Y0188404D01*
X0395295Y0191333D01*
X0391153Y0191333D01*
X0395295Y0191333D01*
X0398224Y0194262D01*
X0401153Y0191333D01*
X0405295Y0191333D01*
X0407695Y0193733D01*
X0415178Y0193733D01*
X0418655Y0190256D01*
X0418655Y0175816D01*
X0419051Y0174861D01*
X0422274Y0171637D01*
X0422274Y0169684D01*
X0424606Y0167352D01*
X0427904Y0167352D01*
X0430236Y0169684D01*
X0430236Y0172982D01*
X0427904Y0175314D01*
X0425951Y0175314D01*
X0423855Y0177410D01*
X0423855Y0191851D01*
X0423459Y0192806D01*
X0422728Y0193537D01*
X0417728Y0198537D01*
X0416772Y0198933D01*
X0407695Y0198933D01*
X0405295Y0201333D01*
X0401153Y0201333D01*
X0398224Y0198404D01*
X0398224Y0194262D01*
X0398224Y0198404D01*
X0395295Y0201333D01*
X0391153Y0201333D01*
X0388753Y0198933D01*
X0385738Y0198933D01*
X0384782Y0198537D01*
X0379782Y0193537D01*
X0379051Y0192806D01*
X0378655Y0191851D01*
X0378655Y0152410D01*
X0369782Y0143537D01*
X0369051Y0142806D01*
X0368655Y0141851D01*
X0368655Y0127410D01*
X0365178Y0123933D01*
X0257332Y0123933D01*
X0243855Y0137410D01*
X0243855Y0176851D01*
X0243459Y0177806D01*
X0233855Y0187410D01*
X0233855Y0201851D01*
X0233459Y0202806D01*
X0230236Y0206029D01*
X0230236Y0207982D01*
X0227904Y0210314D01*
X0224606Y0210314D01*
X0223855Y0209563D01*
X0223855Y0210256D01*
X0227332Y0213733D01*
X0388753Y0213733D01*
X0391153Y0211333D01*
X0388224Y0208404D01*
X0388224Y0204262D01*
X0391153Y0201333D01*
X0395295Y0201333D01*
X0398224Y0204262D01*
X0401153Y0201333D01*
X0405295Y0201333D01*
X0407695Y0203733D01*
X0421772Y0203733D01*
X0422728Y0204129D01*
X0432728Y0214129D01*
X0433459Y0214861D01*
X0433855Y0215816D01*
X0433855Y0218462D01*
X0435223Y0217095D01*
X0437060Y0216333D01*
X0445450Y0216333D01*
X0447287Y0217095D01*
X0448694Y0218501D01*
X0449455Y0220339D01*
X0449455Y0222328D01*
X0448694Y0224166D01*
X0447287Y0225572D01*
X0445450Y0226333D01*
X0437060Y0226333D01*
X0435223Y0225572D01*
X0433855Y0224204D01*
X0433855Y0228462D01*
X0435223Y0227095D01*
X0437060Y0226333D01*
X0445450Y0226333D01*
X0447287Y0227095D01*
X0448694Y0228501D01*
X0449455Y0230339D01*
X0449455Y0232328D01*
X0448694Y0234166D01*
X0447287Y0235572D01*
X0445450Y0236333D01*
X0437060Y0236333D01*
X0435223Y0235572D01*
X0433855Y0234204D01*
X0433855Y0238462D01*
X0435223Y0237095D01*
X0437060Y0236333D01*
X0445450Y0236333D01*
X0447287Y0237095D01*
X0448694Y0238501D01*
X0449455Y0240339D01*
X0449455Y0242328D01*
X0448694Y0244166D01*
X0447287Y0245572D01*
X0445450Y0246333D01*
X0437060Y0246333D01*
X0435223Y0245572D01*
X0433855Y0244204D01*
X0433855Y0250256D01*
X0435951Y0252352D01*
X0437904Y0252352D01*
X0440236Y0254684D01*
X0440236Y0257000D01*
X0442058Y0257000D01*
X0443896Y0257761D01*
X0449828Y0263693D01*
X0450589Y0265530D01*
X0450589Y0267520D01*
X0449828Y0269357D01*
X0448421Y0270764D01*
X0446583Y0271525D01*
X0444594Y0271525D01*
X0442757Y0270764D01*
X0436825Y0264832D01*
X0442757Y0270764D01*
X0443518Y0272601D01*
X0443518Y0274591D01*
X0442757Y0276428D01*
X0441350Y0277835D01*
X0439512Y0278596D01*
X0437523Y0278596D01*
X0435686Y0277835D01*
X0429754Y0271903D01*
X0428992Y0270065D01*
X0428992Y0268076D01*
X0429754Y0266238D01*
X0431160Y0264832D01*
X0432998Y0264071D01*
X0434987Y0264071D01*
X0436825Y0264832D01*
X0436063Y0262994D01*
X0436063Y0261005D01*
X0436349Y0260314D01*
X0434606Y0260314D01*
X0432274Y0257982D01*
X0432274Y0256029D01*
X0429051Y0252806D01*
X0428655Y0251851D01*
X0428655Y0242333D01*
X0428459Y0242806D01*
X0427728Y0243537D01*
X0422728Y0248537D01*
X0421772Y0248933D01*
X0407695Y0248933D01*
X0405295Y0251333D01*
X0401153Y0251333D01*
X0398224Y0248404D01*
X0398224Y0244262D01*
X0401153Y0241333D01*
X0398224Y0238404D01*
X0398224Y0234262D01*
X0401153Y0231333D01*
X0398224Y0228404D01*
X0398224Y0224262D01*
X0401153Y0221333D01*
X0398224Y0218404D01*
X0398224Y0216533D01*
X0403023Y0216533D01*
X0403023Y0216133D01*
X0398224Y0216133D01*
X0398224Y0214262D01*
X0401153Y0211333D01*
X0398224Y0208404D01*
X0398224Y0204262D01*
X0398224Y0208404D01*
X0395295Y0211333D01*
X0391153Y0211333D01*
X0395295Y0211333D01*
X0398224Y0214262D01*
X0398224Y0218404D01*
X0395295Y0221333D01*
X0391153Y0221333D01*
X0388753Y0218933D01*
X0382255Y0218933D01*
X0382728Y0219129D01*
X0383459Y0219861D01*
X0387332Y0223733D01*
X0388753Y0223733D01*
X0391153Y0221333D01*
X0395295Y0221333D01*
X0398224Y0224262D01*
X0398224Y0228404D01*
X0395295Y0231333D01*
X0391153Y0231333D01*
X0388753Y0228933D01*
X0385738Y0228933D01*
X0384782Y0228537D01*
X0384051Y0227806D01*
X0380178Y0223933D01*
X0377255Y0223933D01*
X0377728Y0224129D01*
X0382728Y0229129D01*
X0383459Y0229861D01*
X0383855Y0230816D01*
X0383855Y0250256D01*
X0387332Y0253733D01*
X0388753Y0253733D01*
X0391153Y0251333D01*
X0388224Y0248404D01*
X0388224Y0244262D01*
X0391153Y0241333D01*
X0388224Y0238404D01*
X0388224Y0236533D01*
X0393023Y0236533D01*
X0393023Y0236133D01*
X0388224Y0236133D01*
X0388224Y0234262D01*
X0391153Y0231333D01*
X0393024Y0231333D01*
X0393024Y0236133D01*
X0393424Y0236133D01*
X0393424Y0236533D01*
X0398224Y0236533D01*
X0398224Y0238404D01*
X0395295Y0241333D01*
X0393424Y0241333D01*
X0393424Y0236533D01*
X0393024Y0236533D01*
X0393024Y0241333D01*
X0391153Y0241333D01*
X0395295Y0241333D01*
X0398224Y0244262D01*
X0398224Y0248404D01*
X0395295Y0251333D01*
X0391153Y0251333D01*
X0395295Y0251333D01*
X0398224Y0254262D01*
X0401153Y0251333D01*
X0403024Y0251333D01*
X0403024Y0256133D01*
X0403424Y0256133D01*
X0403424Y0256533D01*
X0408224Y0256533D01*
X0408224Y0258404D01*
X0405295Y0261333D01*
X0403424Y0261333D01*
X0403424Y0256533D01*
X0403024Y0256533D01*
X0403023Y0256533D02*
X0403023Y0256133D01*
X0398224Y0256133D01*
X0398224Y0254262D01*
X0398224Y0258404D01*
X0398224Y0256533D01*
X0403023Y0256533D01*
X0403024Y0256533D02*
X0403024Y0261333D01*
X0401153Y0261333D01*
X0398224Y0258404D01*
X0395295Y0261333D01*
X0391153Y0261333D01*
X0388753Y0258933D01*
X0385738Y0258933D01*
X0384782Y0258537D01*
X0384051Y0257806D01*
X0379051Y0252806D01*
X0378855Y0252333D01*
X0378855Y0260256D01*
X0382332Y0263733D01*
X0388753Y0263733D01*
X0391153Y0261333D01*
X0395295Y0261333D01*
X0398224Y0264262D01*
X0401153Y0261333D01*
X0405295Y0261333D01*
X0408224Y0264262D01*
X0408224Y0268404D01*
X0405824Y0270804D01*
X0405824Y0271862D01*
X0407695Y0273733D01*
X0413225Y0273733D01*
X0414606Y0272352D01*
X0417904Y0272352D01*
X0420236Y0274684D01*
X0420236Y0277982D01*
X0417904Y0280314D01*
X0414606Y0280314D01*
X0413225Y0278933D01*
X0407695Y0278933D01*
X0405824Y0280804D01*
X0405824Y0284882D01*
X0405428Y0285838D01*
X0403459Y0287806D01*
X0402728Y0288537D01*
X0401772Y0288933D01*
X0330738Y0288933D01*
X0329782Y0288537D01*
X0326559Y0285314D01*
X0324606Y0285314D01*
X0322274Y0282982D01*
X0322274Y0279684D01*
X0324606Y0277352D01*
X0327904Y0277352D01*
X0330236Y0279684D01*
X0330236Y0281637D01*
X0332332Y0283733D01*
X0400178Y0283733D01*
X0400624Y0283288D01*
X0400624Y0280804D01*
X0398224Y0278404D01*
X0398224Y0274262D01*
X0400624Y0271862D01*
X0400624Y0270804D01*
X0398224Y0268404D01*
X0398224Y0264262D01*
X0398224Y0268404D01*
X0395295Y0271333D01*
X0391153Y0271333D01*
X0388753Y0268933D01*
X0380738Y0268933D01*
X0379782Y0268537D01*
X0379051Y0267806D01*
X0374051Y0262806D01*
X0375589Y0264344D02*
X0253855Y0264344D01*
X0253855Y0262746D02*
X0302042Y0262746D01*
X0298921Y0261453D02*
X0298921Y0261453D01*
X0298615Y0261147D02*
X0253855Y0261147D01*
X0253855Y0259549D02*
X0297017Y0259549D01*
X0296069Y0257950D02*
X0253855Y0257950D01*
X0253855Y0256352D02*
X0295407Y0256352D01*
X0296606Y0273933D02*
X0297974Y0275301D01*
X0298735Y0277139D01*
X0298735Y0285528D01*
X0297974Y0287366D01*
X0296568Y0288772D01*
X0294730Y0289533D01*
X0292741Y0289533D01*
X0290903Y0288772D01*
X0289497Y0287366D01*
X0288735Y0285528D01*
X0288735Y0277139D01*
X0289497Y0275301D01*
X0290864Y0273933D01*
X0269285Y0273933D01*
X0267904Y0275314D01*
X0264606Y0275314D01*
X0262274Y0272982D01*
X0262274Y0269684D01*
X0264606Y0267352D01*
X0267904Y0267352D01*
X0269285Y0268733D01*
X0376772Y0268733D01*
X0377728Y0269129D01*
X0382332Y0273733D01*
X0388753Y0273733D01*
X0391153Y0271333D01*
X0395295Y0271333D01*
X0398224Y0274262D01*
X0398224Y0278404D01*
X0395295Y0281333D01*
X0391153Y0281333D01*
X0388753Y0278933D01*
X0380738Y0278933D01*
X0379782Y0278537D01*
X0379051Y0277806D01*
X0375178Y0273933D01*
X0316606Y0273933D01*
X0317974Y0275301D01*
X0318735Y0277139D01*
X0318735Y0285528D01*
X0317974Y0287366D01*
X0316568Y0288772D01*
X0314730Y0289533D01*
X0312741Y0289533D01*
X0310903Y0288772D01*
X0309497Y0287366D01*
X0308735Y0285528D01*
X0307974Y0287366D01*
X0306568Y0288772D01*
X0304730Y0289533D01*
X0302741Y0289533D01*
X0300903Y0288772D01*
X0299497Y0287366D01*
X0298735Y0285528D01*
X0298735Y0277139D01*
X0299497Y0275301D01*
X0300864Y0273933D01*
X0296606Y0273933D01*
X0296608Y0273935D02*
X0300862Y0273935D01*
X0299400Y0275534D02*
X0298071Y0275534D01*
X0298733Y0277132D02*
X0298738Y0277132D01*
X0298735Y0278731D02*
X0298735Y0278731D01*
X0298735Y0280329D02*
X0298735Y0280329D01*
X0298735Y0281928D02*
X0298735Y0281928D01*
X0298735Y0283526D02*
X0298735Y0283526D01*
X0298735Y0285125D02*
X0298735Y0285125D01*
X0298240Y0286723D02*
X0299231Y0286723D01*
X0300453Y0288322D02*
X0297018Y0288322D01*
X0290453Y0288322D02*
X0254538Y0288322D01*
X0254087Y0288772D02*
X0252250Y0289533D01*
X0250260Y0289533D01*
X0248423Y0288772D01*
X0247016Y0287366D01*
X0246255Y0285528D01*
X0246255Y0277139D01*
X0247016Y0275301D01*
X0248423Y0273895D01*
X0250260Y0273133D01*
X0252250Y0273133D01*
X0254087Y0273895D01*
X0255494Y0275301D01*
X0256255Y0277139D01*
X0256255Y0285528D01*
X0255494Y0287366D01*
X0254087Y0288772D01*
X0255760Y0286723D02*
X0289231Y0286723D01*
X0288735Y0285125D02*
X0256255Y0285125D01*
X0256255Y0283526D02*
X0288735Y0283526D01*
X0288735Y0281928D02*
X0256255Y0281928D01*
X0256255Y0280329D02*
X0288735Y0280329D01*
X0288735Y0278731D02*
X0256255Y0278731D01*
X0256252Y0277132D02*
X0288738Y0277132D01*
X0289400Y0275534D02*
X0255590Y0275534D01*
X0254128Y0273935D02*
X0263227Y0273935D01*
X0262274Y0272337D02*
X0248929Y0272337D01*
X0248382Y0273935D02*
X0243984Y0273935D01*
X0245542Y0275534D02*
X0246920Y0275534D01*
X0246258Y0277132D02*
X0246159Y0277132D01*
X0246255Y0278731D02*
X0246255Y0278731D01*
X0246255Y0280329D02*
X0246255Y0280329D01*
X0246255Y0281928D02*
X0246255Y0281928D01*
X0246255Y0283526D02*
X0246255Y0283526D01*
X0246224Y0285125D02*
X0246255Y0285125D01*
X0246750Y0286723D02*
X0245751Y0286723D01*
X0244538Y0288322D02*
X0247973Y0288322D01*
X0241455Y0288322D02*
X0241055Y0288322D01*
X0241055Y0289533D02*
X0240862Y0289533D01*
X0240084Y0289410D01*
X0239336Y0289167D01*
X0238634Y0288810D01*
X0237998Y0288347D01*
X0237441Y0287791D01*
X0236979Y0287154D01*
X0236621Y0286453D01*
X0236378Y0285704D01*
X0236255Y0284927D01*
X0236255Y0281533D01*
X0241055Y0281533D01*
X0241055Y0289533D01*
X0241055Y0286723D02*
X0241455Y0286723D01*
X0241455Y0285125D02*
X0241055Y0285125D01*
X0241055Y0283526D02*
X0241455Y0283526D01*
X0241455Y0281928D02*
X0241055Y0281928D01*
X0236255Y0281928D02*
X0236255Y0281928D01*
X0236255Y0283526D02*
X0236255Y0283526D01*
X0236255Y0285125D02*
X0236286Y0285125D01*
X0236759Y0286723D02*
X0235760Y0286723D01*
X0234538Y0288322D02*
X0237973Y0288322D01*
X0236255Y0280329D02*
X0236255Y0280329D01*
X0236255Y0278731D02*
X0236255Y0278731D01*
X0236252Y0277132D02*
X0236351Y0277132D01*
X0236968Y0275534D02*
X0235590Y0275534D01*
X0234128Y0273935D02*
X0238527Y0273935D01*
X0236255Y0266333D02*
X0241255Y0261333D01*
X0241255Y0231333D01*
X0246255Y0226333D01*
X0376255Y0226333D01*
X0381255Y0231333D01*
X0381255Y0251333D01*
X0386255Y0256333D01*
X0393224Y0256333D01*
X0398224Y0256352D02*
X0403023Y0256352D01*
X0403424Y0256352D02*
X0432274Y0256352D01*
X0432274Y0257950D02*
X0408224Y0257950D01*
X0408224Y0256133D02*
X0403424Y0256133D01*
X0403424Y0251333D01*
X0405295Y0251333D01*
X0408224Y0254262D01*
X0408224Y0256133D01*
X0408224Y0254753D02*
X0430998Y0254753D01*
X0429399Y0253155D02*
X0407116Y0253155D01*
X0405517Y0251556D02*
X0428655Y0251556D01*
X0428655Y0249958D02*
X0406670Y0249958D01*
X0403424Y0251556D02*
X0403024Y0251556D01*
X0403024Y0253155D02*
X0403424Y0253155D01*
X0403424Y0254753D02*
X0403024Y0254753D01*
X0403024Y0257950D02*
X0403424Y0257950D01*
X0403424Y0259549D02*
X0403024Y0259549D01*
X0403024Y0261147D02*
X0403424Y0261147D01*
X0405481Y0261147D02*
X0436063Y0261147D01*
X0436063Y0262746D02*
X0406707Y0262746D01*
X0408224Y0264344D02*
X0432337Y0264344D01*
X0430049Y0265943D02*
X0408224Y0265943D01*
X0408224Y0267541D02*
X0429214Y0267541D01*
X0428992Y0269140D02*
X0407488Y0269140D01*
X0405890Y0270738D02*
X0429271Y0270738D01*
X0429754Y0271903D02*
X0435686Y0277835D01*
X0436447Y0279673D01*
X0436447Y0281662D01*
X0435686Y0283499D01*
X0434279Y0284906D01*
X0432441Y0285667D01*
X0430452Y0285667D01*
X0428614Y0284906D01*
X0422682Y0278974D01*
X0421921Y0277136D01*
X0421921Y0275147D01*
X0422682Y0273309D01*
X0424089Y0271903D01*
X0425927Y0271142D01*
X0427916Y0271142D01*
X0429754Y0271903D01*
X0430187Y0272337D02*
X0430187Y0272337D01*
X0431786Y0273935D02*
X0431786Y0273935D01*
X0433385Y0275534D02*
X0433385Y0275534D01*
X0434983Y0277132D02*
X0434983Y0277132D01*
X0436057Y0278731D02*
X0459016Y0278731D01*
X0459016Y0280329D02*
X0436447Y0280329D01*
X0436336Y0281928D02*
X0459016Y0281928D01*
X0459016Y0283526D02*
X0435659Y0283526D01*
X0433750Y0285125D02*
X0459016Y0285125D01*
X0459016Y0286723D02*
X0404542Y0286723D01*
X0405723Y0285125D02*
X0429143Y0285125D01*
X0427235Y0283526D02*
X0405824Y0283526D01*
X0405824Y0281928D02*
X0425636Y0281928D01*
X0424038Y0280329D02*
X0406299Y0280329D01*
X0403224Y0276333D02*
X0403224Y0284365D01*
X0401255Y0286333D01*
X0331255Y0286333D01*
X0326255Y0281333D01*
X0323227Y0278731D02*
X0318735Y0278731D01*
X0318735Y0280329D02*
X0322274Y0280329D01*
X0322274Y0281928D02*
X0318735Y0281928D01*
X0318735Y0283526D02*
X0322818Y0283526D01*
X0324417Y0285125D02*
X0318735Y0285125D01*
X0318240Y0286723D02*
X0327968Y0286723D01*
X0329567Y0288322D02*
X0317018Y0288322D01*
X0310453Y0288322D02*
X0307018Y0288322D01*
X0308240Y0286723D02*
X0309231Y0286723D01*
X0308735Y0285528D02*
X0308735Y0277139D01*
X0308735Y0285528D01*
X0308735Y0285125D02*
X0308735Y0285125D01*
X0308735Y0283526D02*
X0308735Y0283526D01*
X0308735Y0281928D02*
X0308735Y0281928D01*
X0308735Y0280329D02*
X0308735Y0280329D01*
X0308735Y0278731D02*
X0308735Y0278731D01*
X0308735Y0277139D02*
X0307974Y0275301D01*
X0306606Y0273933D01*
X0310864Y0273933D01*
X0309497Y0275301D01*
X0308735Y0277139D01*
X0308733Y0277132D02*
X0308738Y0277132D01*
X0309400Y0275534D02*
X0308071Y0275534D01*
X0306608Y0273935D02*
X0310862Y0273935D01*
X0316608Y0273935D02*
X0375180Y0273935D01*
X0376779Y0275534D02*
X0318071Y0275534D01*
X0318733Y0277132D02*
X0378377Y0277132D01*
X0380249Y0278731D02*
X0329283Y0278731D01*
X0330236Y0280329D02*
X0390149Y0280329D01*
X0393224Y0276333D02*
X0381255Y0276333D01*
X0376255Y0271333D01*
X0266255Y0271333D01*
X0269283Y0273935D02*
X0290862Y0273935D01*
X0268093Y0267541D02*
X0378786Y0267541D01*
X0377738Y0269140D02*
X0388959Y0269140D01*
X0390558Y0270738D02*
X0379337Y0270738D01*
X0380936Y0272337D02*
X0390149Y0272337D01*
X0395890Y0270738D02*
X0400558Y0270738D01*
X0400149Y0272337D02*
X0396298Y0272337D01*
X0397897Y0273935D02*
X0398551Y0273935D01*
X0398224Y0275534D02*
X0398224Y0275534D01*
X0398224Y0277132D02*
X0398224Y0277132D01*
X0398550Y0278731D02*
X0397897Y0278731D01*
X0396299Y0280329D02*
X0400149Y0280329D01*
X0400624Y0281928D02*
X0330527Y0281928D01*
X0332125Y0283526D02*
X0400385Y0283526D01*
X0403224Y0276333D02*
X0416255Y0276333D01*
X0419487Y0273935D02*
X0422423Y0273935D01*
X0421921Y0275534D02*
X0420236Y0275534D01*
X0420236Y0277132D02*
X0421921Y0277132D01*
X0422582Y0278731D02*
X0419488Y0278731D01*
X0423655Y0272337D02*
X0406298Y0272337D01*
X0403224Y0276333D02*
X0403224Y0266333D01*
X0399740Y0262746D02*
X0396707Y0262746D01*
X0395481Y0261147D02*
X0400966Y0261147D01*
X0399368Y0259549D02*
X0397079Y0259549D01*
X0398224Y0257950D02*
X0398224Y0257950D01*
X0398224Y0254753D02*
X0398224Y0254753D01*
X0399331Y0253155D02*
X0397116Y0253155D01*
X0395517Y0251556D02*
X0400930Y0251556D01*
X0399777Y0249958D02*
X0396670Y0249958D01*
X0398224Y0248359D02*
X0398224Y0248359D01*
X0398224Y0246761D02*
X0398224Y0246761D01*
X0398224Y0245162D02*
X0398224Y0245162D01*
X0398922Y0243564D02*
X0397525Y0243564D01*
X0395926Y0241965D02*
X0400521Y0241965D01*
X0401153Y0241333D02*
X0405295Y0241333D01*
X0407695Y0238933D01*
X0415833Y0238933D01*
X0415923Y0238963D01*
X0416347Y0238933D01*
X0416772Y0238933D01*
X0416860Y0238897D01*
X0416955Y0238890D01*
X0417335Y0238700D01*
X0417728Y0238537D01*
X0417795Y0238470D01*
X0417880Y0238428D01*
X0418159Y0238106D01*
X0418459Y0237806D01*
X0418496Y0237718D01*
X0418558Y0237646D01*
X0418692Y0237243D01*
X0418855Y0236851D01*
X0418855Y0236755D01*
X0422669Y0225314D01*
X0422904Y0225314D01*
X0425236Y0222982D01*
X0425236Y0219684D01*
X0422904Y0217352D01*
X0419606Y0217352D01*
X0417274Y0219684D01*
X0417274Y0222982D01*
X0417792Y0223500D01*
X0414381Y0233733D01*
X0407695Y0233733D01*
X0405295Y0231333D01*
X0407695Y0228933D01*
X0408225Y0228933D01*
X0409606Y0230314D01*
X0412904Y0230314D01*
X0415236Y0227982D01*
X0415236Y0224684D01*
X0412904Y0222352D01*
X0409606Y0222352D01*
X0408225Y0223733D01*
X0407695Y0223733D01*
X0405295Y0221333D01*
X0403424Y0221333D01*
X0403424Y0216533D01*
X0408224Y0216533D01*
X0408224Y0218404D01*
X0405295Y0221333D01*
X0401153Y0221333D01*
X0403024Y0221333D01*
X0403024Y0216533D01*
X0403424Y0216533D01*
X0403424Y0216133D01*
X0408224Y0216133D01*
X0408224Y0214262D01*
X0405295Y0211333D01*
X0401153Y0211333D01*
X0403024Y0211333D01*
X0403024Y0216133D01*
X0403424Y0216133D01*
X0403424Y0211333D01*
X0405295Y0211333D01*
X0407695Y0208933D01*
X0420178Y0208933D01*
X0428655Y0217410D01*
X0428655Y0228103D01*
X0427904Y0227352D01*
X0424606Y0227352D01*
X0422274Y0229684D01*
X0422274Y0232982D01*
X0423655Y0234363D01*
X0423655Y0240256D01*
X0420178Y0243733D01*
X0407695Y0243733D01*
X0405295Y0241333D01*
X0401153Y0241333D01*
X0400186Y0240367D02*
X0396261Y0240367D01*
X0397860Y0238768D02*
X0398587Y0238768D01*
X0398224Y0237170D02*
X0398224Y0237170D01*
X0398224Y0236133D02*
X0393424Y0236133D01*
X0393424Y0231333D01*
X0395295Y0231333D01*
X0398224Y0234262D01*
X0398224Y0236133D01*
X0398224Y0235571D02*
X0398224Y0235571D01*
X0398513Y0233973D02*
X0397934Y0233973D01*
X0396335Y0232374D02*
X0400112Y0232374D01*
X0401153Y0231333D02*
X0405295Y0231333D01*
X0401153Y0231333D01*
X0400595Y0230776D02*
X0395852Y0230776D01*
X0397451Y0229177D02*
X0398996Y0229177D01*
X0398224Y0227579D02*
X0398224Y0227579D01*
X0398224Y0225980D02*
X0398224Y0225980D01*
X0398224Y0224381D02*
X0398224Y0224381D01*
X0399703Y0222783D02*
X0396744Y0222783D01*
X0395443Y0221184D02*
X0401004Y0221184D01*
X0403024Y0221184D02*
X0403424Y0221184D01*
X0403424Y0219586D02*
X0403024Y0219586D01*
X0403024Y0217987D02*
X0403424Y0217987D01*
X0403424Y0216389D02*
X0427634Y0216389D01*
X0428655Y0217987D02*
X0423539Y0217987D01*
X0425138Y0219586D02*
X0428655Y0219586D01*
X0428655Y0221184D02*
X0425236Y0221184D01*
X0425236Y0222783D02*
X0428655Y0222783D01*
X0428655Y0224381D02*
X0423837Y0224381D01*
X0422447Y0225980D02*
X0428655Y0225980D01*
X0428655Y0227579D02*
X0428130Y0227579D01*
X0424380Y0227579D02*
X0421914Y0227579D01*
X0421381Y0229177D02*
X0422781Y0229177D01*
X0422274Y0230776D02*
X0420848Y0230776D01*
X0420315Y0232374D02*
X0422274Y0232374D01*
X0423264Y0233973D02*
X0419783Y0233973D01*
X0419250Y0235571D02*
X0423655Y0235571D01*
X0423655Y0237170D02*
X0418723Y0237170D01*
X0417199Y0238768D02*
X0423655Y0238768D01*
X0423545Y0240367D02*
X0406261Y0240367D01*
X0405926Y0241965D02*
X0421946Y0241965D01*
X0420348Y0243564D02*
X0407525Y0243564D01*
X0403224Y0246333D02*
X0421255Y0246333D01*
X0426255Y0241333D01*
X0426255Y0231333D01*
X0416433Y0227579D02*
X0415236Y0227579D01*
X0415236Y0225980D02*
X0416966Y0225980D01*
X0417498Y0224381D02*
X0414933Y0224381D01*
X0413335Y0222783D02*
X0417274Y0222783D01*
X0417274Y0221184D02*
X0405443Y0221184D01*
X0406744Y0222783D02*
X0409175Y0222783D01*
X0407042Y0219586D02*
X0417372Y0219586D01*
X0418971Y0217987D02*
X0408224Y0217987D01*
X0408224Y0214790D02*
X0426035Y0214790D01*
X0424437Y0213192D02*
X0407153Y0213192D01*
X0405555Y0211593D02*
X0422838Y0211593D01*
X0421240Y0209995D02*
X0406633Y0209995D01*
X0403424Y0211593D02*
X0403024Y0211593D01*
X0403024Y0213192D02*
X0403424Y0213192D01*
X0403424Y0214790D02*
X0403024Y0214790D01*
X0403023Y0216389D02*
X0398224Y0216389D01*
X0398224Y0217987D02*
X0398224Y0217987D01*
X0399405Y0219586D02*
X0397042Y0219586D01*
X0398224Y0214790D02*
X0398224Y0214790D01*
X0397153Y0213192D02*
X0399294Y0213192D01*
X0400892Y0211593D02*
X0395555Y0211593D01*
X0396633Y0209995D02*
X0399814Y0209995D01*
X0398224Y0208396D02*
X0398224Y0208396D01*
X0398224Y0206798D02*
X0398224Y0206798D01*
X0398224Y0205199D02*
X0398224Y0205199D01*
X0397562Y0203601D02*
X0398885Y0203601D01*
X0400484Y0202002D02*
X0395964Y0202002D01*
X0396224Y0200404D02*
X0400223Y0200404D01*
X0398624Y0198805D02*
X0397823Y0198805D01*
X0398224Y0197207D02*
X0398224Y0197207D01*
X0398224Y0195608D02*
X0398224Y0195608D01*
X0397971Y0194010D02*
X0398476Y0194010D01*
X0400075Y0192411D02*
X0396373Y0192411D01*
X0395815Y0190813D02*
X0400632Y0190813D01*
X0399033Y0189214D02*
X0397414Y0189214D01*
X0398224Y0187616D02*
X0398224Y0187616D01*
X0398224Y0186017D02*
X0398224Y0186017D01*
X0398224Y0184419D02*
X0398224Y0184419D01*
X0396781Y0182820D02*
X0399666Y0182820D01*
X0401041Y0181222D02*
X0395406Y0181222D01*
X0397005Y0179623D02*
X0399442Y0179623D01*
X0398224Y0178025D02*
X0398224Y0178025D01*
X0398224Y0176426D02*
X0398224Y0176426D01*
X0398224Y0174828D02*
X0398224Y0174828D01*
X0399257Y0173229D02*
X0397190Y0173229D01*
X0395592Y0171631D02*
X0400855Y0171631D01*
X0399851Y0170032D02*
X0396596Y0170032D01*
X0398194Y0168434D02*
X0398253Y0168434D01*
X0398224Y0166835D02*
X0398224Y0166835D01*
X0398224Y0165237D02*
X0398224Y0165237D01*
X0397599Y0163638D02*
X0398848Y0163638D01*
X0400446Y0162040D02*
X0396001Y0162040D01*
X0396187Y0160441D02*
X0400260Y0160441D01*
X0398662Y0158843D02*
X0397785Y0158843D01*
X0398224Y0157244D02*
X0398224Y0157244D01*
X0398224Y0156133D02*
X0393424Y0156133D01*
X0393424Y0151333D01*
X0395295Y0151333D01*
X0398224Y0154262D01*
X0398224Y0156133D01*
X0398224Y0155645D02*
X0398224Y0155645D01*
X0398008Y0154047D02*
X0398439Y0154047D01*
X0400037Y0152448D02*
X0396410Y0152448D01*
X0395778Y0150850D02*
X0400669Y0150850D01*
X0399071Y0149251D02*
X0397376Y0149251D01*
X0398224Y0147653D02*
X0398224Y0147653D01*
X0398224Y0146054D02*
X0398224Y0146054D01*
X0398224Y0144456D02*
X0398224Y0144456D01*
X0399628Y0142857D02*
X0396819Y0142857D01*
X0395369Y0141259D02*
X0401078Y0141259D01*
X0403024Y0141259D02*
X0403424Y0141259D01*
X0403424Y0139660D02*
X0403024Y0139660D01*
X0403024Y0138062D02*
X0403424Y0138062D01*
X0403424Y0136463D02*
X0413655Y0136463D01*
X0413655Y0134865D02*
X0408224Y0134865D01*
X0408224Y0134262D02*
X0408224Y0136133D01*
X0403424Y0136133D01*
X0403424Y0131333D01*
X0405295Y0131333D01*
X0408224Y0134262D01*
X0407228Y0133266D02*
X0413655Y0133266D01*
X0412913Y0131668D02*
X0405629Y0131668D01*
X0406559Y0130069D02*
X0411314Y0130069D01*
X0411255Y0126333D02*
X0416255Y0131333D01*
X0416255Y0156333D01*
X0421255Y0161333D01*
X0426255Y0161333D01*
X0422380Y0165237D02*
X0408224Y0165237D01*
X0408224Y0166835D02*
X0435849Y0166835D01*
X0435223Y0167095D02*
X0437060Y0166333D01*
X0445450Y0166333D01*
X0447287Y0167095D01*
X0448694Y0168501D01*
X0449455Y0170339D01*
X0449455Y0172328D01*
X0448694Y0174166D01*
X0447287Y0175572D01*
X0445450Y0176333D01*
X0437060Y0176333D01*
X0435223Y0175572D01*
X0433816Y0174166D01*
X0433055Y0172328D01*
X0433055Y0170339D01*
X0433816Y0168501D01*
X0435223Y0167095D01*
X0433884Y0168434D02*
X0428985Y0168434D01*
X0430236Y0170032D02*
X0433182Y0170032D01*
X0433055Y0171631D02*
X0430236Y0171631D01*
X0429989Y0173229D02*
X0433428Y0173229D01*
X0434478Y0174828D02*
X0428391Y0174828D01*
X0424839Y0176426D02*
X0436836Y0176426D01*
X0437060Y0176333D02*
X0445450Y0176333D01*
X0447287Y0177095D01*
X0448694Y0178501D01*
X0449455Y0180339D01*
X0449455Y0182328D01*
X0448694Y0184166D01*
X0447287Y0185572D01*
X0445450Y0186333D01*
X0437060Y0186333D01*
X0435223Y0185572D01*
X0433816Y0184166D01*
X0433055Y0182328D01*
X0433055Y0180339D01*
X0433816Y0178501D01*
X0435223Y0177095D01*
X0437060Y0176333D01*
X0434293Y0178025D02*
X0423855Y0178025D01*
X0423855Y0179623D02*
X0433351Y0179623D01*
X0433055Y0181222D02*
X0423855Y0181222D01*
X0423855Y0182820D02*
X0433259Y0182820D01*
X0434069Y0184419D02*
X0423855Y0184419D01*
X0423855Y0186017D02*
X0436297Y0186017D01*
X0437060Y0186333D02*
X0445450Y0186333D01*
X0447287Y0187095D01*
X0448694Y0188501D01*
X0449455Y0190339D01*
X0449455Y0192328D01*
X0448694Y0194166D01*
X0447287Y0195572D01*
X0445450Y0196333D01*
X0437060Y0196333D01*
X0435223Y0195572D01*
X0433816Y0194166D01*
X0433055Y0192328D01*
X0433055Y0190339D01*
X0433816Y0188501D01*
X0435223Y0187095D01*
X0437060Y0186333D01*
X0434702Y0187616D02*
X0423855Y0187616D01*
X0423855Y0189214D02*
X0433521Y0189214D01*
X0433055Y0190813D02*
X0423855Y0190813D01*
X0423623Y0192411D02*
X0433090Y0192411D01*
X0433752Y0194010D02*
X0422256Y0194010D01*
X0420657Y0195608D02*
X0435310Y0195608D01*
X0447200Y0195608D02*
X0459016Y0195608D01*
X0459016Y0194010D02*
X0448758Y0194010D01*
X0449421Y0192411D02*
X0459016Y0192411D01*
X0459016Y0190813D02*
X0449455Y0190813D01*
X0448989Y0189214D02*
X0459016Y0189214D01*
X0459016Y0187616D02*
X0447809Y0187616D01*
X0446213Y0186017D02*
X0459016Y0186017D01*
X0459016Y0184419D02*
X0448441Y0184419D01*
X0449251Y0182820D02*
X0459016Y0182820D01*
X0459016Y0181222D02*
X0449455Y0181222D01*
X0449159Y0179623D02*
X0459016Y0179623D01*
X0459016Y0178025D02*
X0448217Y0178025D01*
X0445674Y0176426D02*
X0459016Y0176426D01*
X0459016Y0174828D02*
X0448032Y0174828D01*
X0449082Y0173229D02*
X0459016Y0173229D01*
X0459016Y0171631D02*
X0449455Y0171631D01*
X0449328Y0170032D02*
X0459016Y0170032D01*
X0459016Y0168434D02*
X0448626Y0168434D01*
X0446661Y0166835D02*
X0459016Y0166835D01*
X0459016Y0165237D02*
X0430130Y0165237D01*
X0431254Y0163638D02*
X0459016Y0163638D01*
X0459016Y0162040D02*
X0431755Y0162040D01*
X0431755Y0160441D02*
X0459016Y0160441D01*
X0459016Y0158843D02*
X0431176Y0158843D01*
X0429944Y0157244D02*
X0459016Y0157244D01*
X0459016Y0155645D02*
X0419244Y0155645D01*
X0418855Y0154047D02*
X0459016Y0154047D01*
X0459016Y0152448D02*
X0418855Y0152448D01*
X0418855Y0150850D02*
X0459016Y0150850D01*
X0459016Y0149251D02*
X0418855Y0149251D01*
X0418855Y0147653D02*
X0459016Y0147653D01*
X0459016Y0146054D02*
X0418855Y0146054D01*
X0418855Y0144456D02*
X0459016Y0144456D01*
X0459016Y0142857D02*
X0418855Y0142857D01*
X0418855Y0141259D02*
X0459016Y0141259D01*
X0459016Y0139660D02*
X0418855Y0139660D01*
X0418855Y0138062D02*
X0459016Y0138062D01*
X0459016Y0136463D02*
X0448242Y0136463D01*
X0447349Y0136833D02*
X0449371Y0135996D01*
X0450918Y0134449D01*
X0451755Y0132427D01*
X0451755Y0130239D01*
X0450918Y0128218D01*
X0449371Y0126671D01*
X0448556Y0126333D01*
X0449138Y0126037D01*
X0449838Y0125528D01*
X0450450Y0124916D01*
X0450959Y0124216D01*
X0451352Y0123445D01*
X0451620Y0122621D01*
X0451755Y0121766D01*
X0451755Y0121333D01*
X0446255Y0121333D01*
X0446255Y0121333D01*
X0446255Y0115833D01*
X0446688Y0115833D01*
X0447543Y0115969D01*
X0448366Y0116236D01*
X0449138Y0116629D01*
X0449838Y0117138D01*
X0450450Y0117750D01*
X0450959Y0118451D01*
X0451352Y0119222D01*
X0451620Y0120045D01*
X0451755Y0120900D01*
X0451755Y0121333D01*
X0446255Y0121333D01*
X0446255Y0115833D01*
X0445822Y0115833D01*
X0444967Y0115969D01*
X0444144Y0116236D01*
X0443372Y0116629D01*
X0442672Y0117138D01*
X0442060Y0117750D01*
X0441551Y0118451D01*
X0441158Y0119222D01*
X0440891Y0120045D01*
X0440755Y0120900D01*
X0440755Y0121209D01*
X0439849Y0120833D01*
X0437661Y0120833D01*
X0435640Y0121671D01*
X0434092Y0123218D01*
X0433255Y0125239D01*
X0433255Y0127427D01*
X0434092Y0129449D01*
X0435640Y0130996D01*
X0437661Y0131833D01*
X0439849Y0131833D01*
X0440755Y0131458D01*
X0440755Y0132427D01*
X0441592Y0134449D01*
X0443140Y0135996D01*
X0445161Y0136833D01*
X0447349Y0136833D01*
X0444268Y0136463D02*
X0428242Y0136463D01*
X0427349Y0136833D02*
X0425161Y0136833D01*
X0423140Y0135996D01*
X0421592Y0134449D01*
X0420755Y0132427D01*
X0420755Y0130239D01*
X0421592Y0128218D01*
X0423140Y0126671D01*
X0425161Y0125833D01*
X0427349Y0125833D01*
X0429371Y0126671D01*
X0430918Y0128218D01*
X0431755Y0130239D01*
X0431755Y0132427D01*
X0430918Y0134449D01*
X0429371Y0135996D01*
X0427349Y0136833D01*
X0424268Y0136463D02*
X0418855Y0136463D01*
X0418855Y0134865D02*
X0422008Y0134865D01*
X0421103Y0133266D02*
X0418855Y0133266D01*
X0418855Y0131668D02*
X0420755Y0131668D01*
X0420825Y0130069D02*
X0418546Y0130069D01*
X0417728Y0129129D02*
X0417728Y0129129D01*
X0417069Y0128471D02*
X0421488Y0128471D01*
X0422938Y0126872D02*
X0415471Y0126872D01*
X0413872Y0125274D02*
X0433255Y0125274D01*
X0433255Y0126872D02*
X0429572Y0126872D01*
X0431023Y0128471D02*
X0433687Y0128471D01*
X0434713Y0130069D02*
X0431685Y0130069D01*
X0431755Y0131668D02*
X0437262Y0131668D01*
X0440249Y0131668D02*
X0440755Y0131668D01*
X0441103Y0133266D02*
X0431408Y0133266D01*
X0430502Y0134865D02*
X0442008Y0134865D01*
X0450502Y0134865D02*
X0459016Y0134865D01*
X0459016Y0133266D02*
X0451408Y0133266D01*
X0451755Y0131668D02*
X0459016Y0131668D01*
X0459016Y0130069D02*
X0451685Y0130069D01*
X0451023Y0128471D02*
X0459016Y0128471D01*
X0459016Y0126872D02*
X0449572Y0126872D01*
X0450093Y0125274D02*
X0459016Y0125274D01*
X0459016Y0123675D02*
X0451235Y0123675D01*
X0451706Y0122077D02*
X0459016Y0122077D01*
X0459016Y0120478D02*
X0451688Y0120478D01*
X0451178Y0118880D02*
X0459016Y0118880D01*
X0459016Y0117281D02*
X0449981Y0117281D01*
X0446255Y0117281D02*
X0446255Y0117281D01*
X0446255Y0118880D02*
X0446255Y0118880D01*
X0446255Y0120478D02*
X0446255Y0120478D01*
X0446255Y0121333D02*
X0446255Y0121333D01*
X0440822Y0120478D02*
X0406150Y0120478D01*
X0406038Y0122077D02*
X0435233Y0122077D01*
X0433903Y0123675D02*
X0407637Y0123675D01*
X0411255Y0126333D02*
X0403224Y0126333D01*
X0399889Y0130069D02*
X0396559Y0130069D01*
X0395629Y0131668D02*
X0400818Y0131668D01*
X0403024Y0131668D02*
X0403424Y0131668D01*
X0403424Y0133266D02*
X0403024Y0133266D01*
X0403024Y0134865D02*
X0403424Y0134865D01*
X0403023Y0136463D02*
X0398224Y0136463D01*
X0398224Y0134865D02*
X0398224Y0134865D01*
X0397228Y0133266D02*
X0399220Y0133266D01*
X0398290Y0128471D02*
X0398157Y0128471D01*
X0398224Y0126872D02*
X0398224Y0126872D01*
X0398224Y0125274D02*
X0398224Y0125274D01*
X0397637Y0123675D02*
X0398811Y0123675D01*
X0400409Y0122077D02*
X0396038Y0122077D01*
X0396150Y0120478D02*
X0400297Y0120478D01*
X0398699Y0118880D02*
X0397748Y0118880D01*
X0398224Y0117281D02*
X0398224Y0117281D01*
X0398224Y0115683D02*
X0398224Y0115683D01*
X0398045Y0114084D02*
X0398402Y0114084D01*
X0400000Y0112486D02*
X0396447Y0112486D01*
X0395741Y0110887D02*
X0400706Y0110887D01*
X0399108Y0109289D02*
X0397339Y0109289D01*
X0398224Y0107690D02*
X0398224Y0107690D01*
X0398224Y0106092D02*
X0398224Y0106092D01*
X0398224Y0104493D02*
X0398224Y0104493D01*
X0399591Y0102895D02*
X0396856Y0102895D01*
X0395332Y0101296D02*
X0401115Y0101296D01*
X0399517Y0099698D02*
X0396930Y0099698D01*
X0398224Y0098099D02*
X0398224Y0098099D01*
X0398224Y0096501D02*
X0398224Y0096501D01*
X0398224Y0094902D02*
X0398224Y0094902D01*
X0397265Y0093304D02*
X0399182Y0093304D01*
X0400781Y0091705D02*
X0395666Y0091705D01*
X0396521Y0090107D02*
X0399926Y0090107D01*
X0401153Y0091333D02*
X0405295Y0091333D01*
X0408224Y0088404D01*
X0408224Y0085010D01*
X0408459Y0084775D01*
X0408855Y0083819D01*
X0408855Y0080816D01*
X0408459Y0079861D01*
X0407728Y0079129D01*
X0407728Y0079129D01*
X0403459Y0074861D01*
X0403459Y0074861D01*
X0402728Y0074129D01*
X0402255Y0073933D01*
X0410178Y0073933D01*
X0413655Y0077410D01*
X0413655Y0090256D01*
X0410178Y0093733D01*
X0407695Y0093733D01*
X0405295Y0091333D01*
X0401153Y0091333D01*
X0398327Y0088508D02*
X0398120Y0088508D01*
X0398224Y0086910D02*
X0398224Y0086910D01*
X0398224Y0086133D02*
X0393424Y0086133D01*
X0393424Y0081333D01*
X0395295Y0081333D01*
X0398224Y0084262D01*
X0398224Y0086133D01*
X0398224Y0085311D02*
X0398224Y0085311D01*
X0397674Y0083712D02*
X0398773Y0083712D01*
X0400372Y0082114D02*
X0396075Y0082114D01*
X0393424Y0082114D02*
X0393024Y0082114D01*
X0393024Y0083712D02*
X0393424Y0083712D01*
X0393424Y0085311D02*
X0393024Y0085311D01*
X0393024Y0086910D02*
X0393424Y0086910D01*
X0393424Y0088508D02*
X0393024Y0088508D01*
X0393024Y0090107D02*
X0393424Y0090107D01*
X0390781Y0091705D02*
X0324560Y0091705D01*
X0322962Y0093304D02*
X0389182Y0093304D01*
X0389926Y0090107D02*
X0326159Y0090107D01*
X0327757Y0088508D02*
X0388327Y0088508D01*
X0388224Y0086910D02*
X0328831Y0086910D01*
X0328855Y0085311D02*
X0359603Y0085311D01*
X0358004Y0083712D02*
X0328855Y0083712D01*
X0328855Y0082114D02*
X0357274Y0082114D01*
X0357274Y0080515D02*
X0328855Y0080515D01*
X0328855Y0078917D02*
X0358041Y0078917D01*
X0361255Y0081333D02*
X0366255Y0081333D01*
X0371255Y0076333D01*
X0401255Y0076333D01*
X0406255Y0081333D01*
X0406255Y0083302D01*
X0403224Y0086333D01*
X0406521Y0090107D02*
X0413655Y0090107D01*
X0413655Y0088508D02*
X0408120Y0088508D01*
X0408224Y0086910D02*
X0413655Y0086910D01*
X0413655Y0085311D02*
X0408224Y0085311D01*
X0408855Y0083712D02*
X0413655Y0083712D01*
X0413655Y0082114D02*
X0408855Y0082114D01*
X0408730Y0080515D02*
X0413655Y0080515D01*
X0413655Y0078917D02*
X0407516Y0078917D01*
X0405917Y0077318D02*
X0413563Y0077318D01*
X0411965Y0075720D02*
X0404319Y0075720D01*
X0402709Y0074121D02*
X0410366Y0074121D01*
X0411255Y0071333D02*
X0416255Y0076333D01*
X0416255Y0091333D01*
X0411255Y0096333D01*
X0403224Y0096333D01*
X0406930Y0099698D02*
X0423655Y0099698D01*
X0422615Y0101296D02*
X0405332Y0101296D01*
X0406856Y0102895D02*
X0421017Y0102895D01*
X0421255Y0106333D02*
X0426255Y0101333D01*
X0426255Y0096333D01*
X0422274Y0096501D02*
X0414765Y0096501D01*
X0413166Y0098099D02*
X0422391Y0098099D01*
X0422274Y0094902D02*
X0416363Y0094902D01*
X0417962Y0093304D02*
X0423655Y0093304D01*
X0418855Y0091705D02*
X0430030Y0091705D01*
X0429754Y0091428D02*
X0428992Y0089591D01*
X0428992Y0087601D01*
X0429754Y0085764D01*
X0435686Y0079832D01*
X0437523Y0079071D01*
X0439512Y0079071D01*
X0441350Y0079832D01*
X0442757Y0081238D01*
X0443518Y0083076D01*
X0443518Y0085065D01*
X0442757Y0086903D01*
X0444594Y0086142D01*
X0446583Y0086142D01*
X0448421Y0086903D01*
X0449828Y0088309D01*
X0450589Y0090147D01*
X0450589Y0092136D01*
X0449828Y0093974D01*
X0443896Y0099906D01*
X0442058Y0100667D01*
X0440069Y0100667D01*
X0438231Y0099906D01*
X0436825Y0098499D01*
X0436063Y0096662D01*
X0436063Y0094673D01*
X0436825Y0092835D01*
X0442757Y0086903D01*
X0436825Y0092835D01*
X0434987Y0093596D01*
X0432998Y0093596D01*
X0431160Y0092835D01*
X0429754Y0091428D01*
X0429206Y0090107D02*
X0418855Y0090107D01*
X0418855Y0088508D02*
X0428992Y0088508D01*
X0429279Y0086910D02*
X0418855Y0086910D01*
X0418855Y0085311D02*
X0423636Y0085311D01*
X0424089Y0085764D02*
X0422682Y0084357D01*
X0421921Y0082520D01*
X0421921Y0080530D01*
X0422682Y0078693D01*
X0428614Y0072761D01*
X0430452Y0072000D01*
X0432441Y0072000D01*
X0434279Y0072761D01*
X0435686Y0074167D01*
X0436447Y0076005D01*
X0436447Y0077994D01*
X0435686Y0079832D01*
X0429754Y0085764D01*
X0427916Y0086525D01*
X0425927Y0086525D01*
X0424089Y0085764D01*
X0422415Y0083712D02*
X0418855Y0083712D01*
X0418855Y0082114D02*
X0421921Y0082114D01*
X0421927Y0080515D02*
X0418855Y0080515D01*
X0418855Y0078917D02*
X0422590Y0078917D01*
X0424057Y0077318D02*
X0418855Y0077318D01*
X0418815Y0075720D02*
X0425655Y0075720D01*
X0427254Y0074121D02*
X0417720Y0074121D01*
X0416122Y0072523D02*
X0429189Y0072523D01*
X0433705Y0072523D02*
X0459016Y0072523D01*
X0459016Y0074121D02*
X0435640Y0074121D01*
X0436329Y0075720D02*
X0459016Y0075720D01*
X0459016Y0077318D02*
X0436447Y0077318D01*
X0436064Y0078917D02*
X0459016Y0078917D01*
X0459016Y0080515D02*
X0442034Y0080515D01*
X0443119Y0082114D02*
X0459016Y0082114D01*
X0459016Y0083712D02*
X0443518Y0083712D01*
X0443416Y0085311D02*
X0459016Y0085311D01*
X0459016Y0086910D02*
X0448428Y0086910D01*
X0449910Y0088508D02*
X0459016Y0088508D01*
X0459016Y0090107D02*
X0450572Y0090107D01*
X0450589Y0091705D02*
X0459016Y0091705D01*
X0459016Y0093304D02*
X0450105Y0093304D01*
X0448900Y0094902D02*
X0459016Y0094902D01*
X0459016Y0096501D02*
X0447301Y0096501D01*
X0445702Y0098099D02*
X0459016Y0098099D01*
X0459016Y0099698D02*
X0444104Y0099698D01*
X0438023Y0099698D02*
X0428855Y0099698D01*
X0428855Y0101296D02*
X0459016Y0101296D01*
X0459016Y0102895D02*
X0428371Y0102895D01*
X0426772Y0104493D02*
X0459016Y0104493D01*
X0459016Y0106092D02*
X0425174Y0106092D01*
X0423575Y0107690D02*
X0459016Y0107690D01*
X0459016Y0109289D02*
X0407339Y0109289D01*
X0405741Y0110887D02*
X0459016Y0110887D01*
X0459016Y0112486D02*
X0406447Y0112486D01*
X0405295Y0111333D02*
X0408224Y0114262D01*
X0408224Y0116133D01*
X0403424Y0116133D01*
X0403424Y0111333D01*
X0405295Y0111333D01*
X0403424Y0112486D02*
X0403024Y0112486D01*
X0403024Y0114084D02*
X0403424Y0114084D01*
X0403424Y0115683D02*
X0403024Y0115683D01*
X0403024Y0117281D02*
X0403424Y0117281D01*
X0403424Y0118880D02*
X0403024Y0118880D01*
X0403024Y0120478D02*
X0403424Y0120478D01*
X0407748Y0118880D02*
X0441332Y0118880D01*
X0442529Y0117281D02*
X0408224Y0117281D01*
X0408224Y0115683D02*
X0459016Y0115683D01*
X0459016Y0114084D02*
X0408045Y0114084D01*
X0403224Y0106333D02*
X0421255Y0106333D01*
X0430119Y0098099D02*
X0436659Y0098099D01*
X0436063Y0096501D02*
X0430236Y0096501D01*
X0430236Y0094902D02*
X0436063Y0094902D01*
X0435693Y0093304D02*
X0436630Y0093304D01*
X0432292Y0093304D02*
X0428855Y0093304D01*
X0430206Y0085311D02*
X0430206Y0085311D01*
X0431805Y0083712D02*
X0431805Y0083712D01*
X0433403Y0082114D02*
X0433403Y0082114D01*
X0435002Y0080515D02*
X0435002Y0080515D01*
X0414523Y0070924D02*
X0459016Y0070924D01*
X0459016Y0069326D02*
X0412925Y0069326D01*
X0411255Y0071333D02*
X0331255Y0071333D01*
X0326255Y0076333D01*
X0326255Y0086333D01*
X0321255Y0091333D01*
X0276255Y0091333D01*
X0266255Y0081333D01*
X0191255Y0081333D01*
X0188041Y0078917D02*
X0184921Y0078917D01*
X0184828Y0078693D02*
X0185589Y0080530D01*
X0185589Y0082520D01*
X0184828Y0084357D01*
X0183421Y0085764D01*
X0181583Y0086525D01*
X0179594Y0086525D01*
X0177757Y0085764D01*
X0171825Y0079832D01*
X0177757Y0085764D01*
X0178518Y0087601D01*
X0178518Y0089591D01*
X0177757Y0091428D01*
X0176350Y0092835D01*
X0174512Y0093596D01*
X0172523Y0093596D01*
X0170686Y0092835D01*
X0164754Y0086903D01*
X0163992Y0085065D01*
X0163992Y0083076D01*
X0164754Y0081238D01*
X0166160Y0079832D01*
X0167998Y0079071D01*
X0169987Y0079071D01*
X0171825Y0079832D01*
X0171063Y0077994D01*
X0171063Y0076005D01*
X0171825Y0074167D01*
X0173231Y0072761D01*
X0175069Y0072000D01*
X0177058Y0072000D01*
X0178896Y0072761D01*
X0184828Y0078693D01*
X0183453Y0077318D02*
X0288735Y0077318D01*
X0288735Y0078917D02*
X0267216Y0078917D01*
X0269114Y0080515D02*
X0288735Y0080515D01*
X0288735Y0082114D02*
X0270713Y0082114D01*
X0272311Y0083712D02*
X0288735Y0083712D01*
X0288735Y0085311D02*
X0273910Y0085311D01*
X0275508Y0086910D02*
X0289308Y0086910D01*
X0290639Y0088508D02*
X0277107Y0088508D01*
X0272950Y0091705D02*
X0244405Y0091705D01*
X0245953Y0093304D02*
X0274548Y0093304D01*
X0271351Y0090107D02*
X0178304Y0090107D01*
X0178518Y0088508D02*
X0269753Y0088508D01*
X0268154Y0086910D02*
X0178231Y0086910D01*
X0177304Y0085311D02*
X0177304Y0085311D01*
X0175705Y0083712D02*
X0175705Y0083712D01*
X0174107Y0082114D02*
X0174107Y0082114D01*
X0172508Y0080515D02*
X0172508Y0080515D01*
X0171446Y0078917D02*
X0151255Y0078917D01*
X0151255Y0080515D02*
X0165476Y0080515D01*
X0164391Y0082114D02*
X0151255Y0082114D01*
X0151255Y0083712D02*
X0163992Y0083712D01*
X0164094Y0085311D02*
X0151255Y0085311D01*
X0151255Y0086910D02*
X0159082Y0086910D01*
X0159089Y0086903D02*
X0160927Y0086142D01*
X0162916Y0086142D01*
X0164754Y0086903D01*
X0170686Y0092835D01*
X0171447Y0094673D01*
X0171447Y0096662D01*
X0170686Y0098499D01*
X0169279Y0099906D01*
X0167441Y0100667D01*
X0165452Y0100667D01*
X0163614Y0099906D01*
X0157682Y0093974D01*
X0156921Y0092136D01*
X0156921Y0090147D01*
X0157682Y0088309D01*
X0159089Y0086903D01*
X0157600Y0088508D02*
X0151255Y0088508D01*
X0151255Y0090107D02*
X0156938Y0090107D01*
X0156921Y0091705D02*
X0151255Y0091705D01*
X0151255Y0093304D02*
X0157405Y0093304D01*
X0158611Y0094902D02*
X0151255Y0094902D01*
X0151255Y0096501D02*
X0160209Y0096501D01*
X0161808Y0098099D02*
X0151255Y0098099D01*
X0151255Y0099698D02*
X0163406Y0099698D01*
X0169487Y0099698D02*
X0185755Y0099698D01*
X0185755Y0099927D02*
X0185755Y0097739D01*
X0186592Y0095718D01*
X0188140Y0094171D01*
X0190161Y0093333D01*
X0192349Y0093333D01*
X0194371Y0094171D01*
X0195918Y0095718D01*
X0196755Y0097739D01*
X0196755Y0099927D01*
X0196380Y0100833D01*
X0196688Y0100833D01*
X0197543Y0100969D01*
X0198366Y0101236D01*
X0199138Y0101629D01*
X0199838Y0102138D01*
X0200450Y0102750D01*
X0200959Y0103451D01*
X0201352Y0104222D01*
X0201620Y0105045D01*
X0201755Y0105900D01*
X0201755Y0106333D01*
X0196255Y0106333D01*
X0196255Y0106333D01*
X0201755Y0106333D01*
X0201755Y0106766D01*
X0201620Y0107621D01*
X0201352Y0108445D01*
X0200959Y0109216D01*
X0200450Y0109916D01*
X0199838Y0110528D01*
X0199138Y0111037D01*
X0198366Y0111430D01*
X0197543Y0111698D01*
X0196688Y0111833D01*
X0196255Y0111833D01*
X0195822Y0111833D01*
X0194967Y0111698D01*
X0194144Y0111430D01*
X0193372Y0111037D01*
X0192672Y0110528D01*
X0192060Y0109916D01*
X0191551Y0109216D01*
X0191255Y0108635D01*
X0190918Y0109449D01*
X0189371Y0110996D01*
X0187349Y0111833D01*
X0185161Y0111833D01*
X0183140Y0110996D01*
X0181592Y0109449D01*
X0180755Y0107427D01*
X0180755Y0105239D01*
X0181592Y0103218D01*
X0183140Y0101671D01*
X0185161Y0100833D01*
X0186130Y0100833D01*
X0185755Y0099927D01*
X0185755Y0098099D02*
X0170851Y0098099D01*
X0171447Y0096501D02*
X0186268Y0096501D01*
X0187408Y0094902D02*
X0171447Y0094902D01*
X0171817Y0093304D02*
X0170880Y0093304D01*
X0169556Y0091705D02*
X0169556Y0091705D01*
X0167957Y0090107D02*
X0167957Y0090107D01*
X0166359Y0088508D02*
X0166359Y0088508D01*
X0164760Y0086910D02*
X0164760Y0086910D01*
X0175219Y0093304D02*
X0206557Y0093304D01*
X0206592Y0093218D02*
X0205755Y0095239D01*
X0205755Y0097427D01*
X0206592Y0099449D01*
X0208140Y0100996D01*
X0210161Y0101833D01*
X0212349Y0101833D01*
X0214371Y0100996D01*
X0215918Y0099449D01*
X0216755Y0097427D01*
X0216755Y0095239D01*
X0215918Y0093218D01*
X0214371Y0091671D01*
X0212349Y0090833D01*
X0210161Y0090833D01*
X0208140Y0091671D01*
X0206592Y0093218D01*
X0205895Y0094902D02*
X0195102Y0094902D01*
X0196242Y0096501D02*
X0205755Y0096501D01*
X0206033Y0098099D02*
X0196755Y0098099D01*
X0196755Y0099698D02*
X0206841Y0099698D01*
X0208864Y0101296D02*
X0198484Y0101296D01*
X0200555Y0102895D02*
X0379064Y0102895D01*
X0377465Y0104493D02*
X0234686Y0104493D01*
X0234087Y0103895D02*
X0235494Y0105301D01*
X0236255Y0107139D01*
X0236255Y0115528D01*
X0235494Y0117366D01*
X0234087Y0118772D01*
X0232250Y0119533D01*
X0230260Y0119533D01*
X0228423Y0118772D01*
X0227016Y0117366D01*
X0226255Y0115528D01*
X0225494Y0117366D01*
X0224087Y0118772D01*
X0222250Y0119533D01*
X0220260Y0119533D01*
X0218423Y0118772D01*
X0217016Y0117366D01*
X0216255Y0115528D01*
X0216255Y0107139D01*
X0217016Y0105301D01*
X0218423Y0103895D01*
X0220260Y0103133D01*
X0222250Y0103133D01*
X0224087Y0103895D01*
X0225494Y0105301D01*
X0226255Y0107139D01*
X0226255Y0115528D01*
X0226255Y0107139D01*
X0227016Y0105301D01*
X0228423Y0103895D01*
X0230260Y0103133D01*
X0232250Y0103133D01*
X0234087Y0103895D01*
X0235821Y0106092D02*
X0377274Y0106092D01*
X0377274Y0107690D02*
X0236255Y0107690D01*
X0236255Y0109289D02*
X0378580Y0109289D01*
X0379473Y0112486D02*
X0236255Y0112486D01*
X0236255Y0114084D02*
X0377874Y0114084D01*
X0377274Y0115683D02*
X0236191Y0115683D01*
X0235529Y0117281D02*
X0377274Y0117281D01*
X0378171Y0118880D02*
X0367126Y0118880D01*
X0369077Y0120478D02*
X0390297Y0120478D01*
X0390409Y0122077D02*
X0370675Y0122077D01*
X0372274Y0123675D02*
X0378283Y0123675D01*
X0377274Y0125274D02*
X0373630Y0125274D01*
X0373855Y0126872D02*
X0377274Y0126872D01*
X0377762Y0128471D02*
X0373855Y0128471D01*
X0373855Y0130069D02*
X0379361Y0130069D01*
X0378692Y0133266D02*
X0373855Y0133266D01*
X0373855Y0131668D02*
X0390818Y0131668D01*
X0389889Y0130069D02*
X0383149Y0130069D01*
X0383818Y0133266D02*
X0389220Y0133266D01*
X0393224Y0136333D02*
X0381255Y0136333D01*
X0377274Y0136463D02*
X0373855Y0136463D01*
X0373855Y0134865D02*
X0377274Y0134865D01*
X0377353Y0138062D02*
X0373855Y0138062D01*
X0373855Y0139660D02*
X0378952Y0139660D01*
X0376456Y0142857D02*
X0389628Y0142857D01*
X0388224Y0144456D02*
X0378055Y0144456D01*
X0379653Y0146054D02*
X0388224Y0146054D01*
X0388224Y0147653D02*
X0381252Y0147653D01*
X0382850Y0149251D02*
X0389071Y0149251D01*
X0390669Y0150850D02*
X0383855Y0150850D01*
X0383855Y0152448D02*
X0390037Y0152448D01*
X0388439Y0154047D02*
X0383855Y0154047D01*
X0383855Y0155645D02*
X0388224Y0155645D01*
X0388224Y0157244D02*
X0383855Y0157244D01*
X0383855Y0158843D02*
X0388662Y0158843D01*
X0390260Y0160441D02*
X0383855Y0160441D01*
X0383855Y0162040D02*
X0390446Y0162040D01*
X0388848Y0163638D02*
X0383855Y0163638D01*
X0383855Y0165237D02*
X0388224Y0165237D01*
X0388224Y0166835D02*
X0383855Y0166835D01*
X0383855Y0168434D02*
X0388253Y0168434D01*
X0389851Y0170032D02*
X0383855Y0170032D01*
X0383855Y0171631D02*
X0390855Y0171631D01*
X0389257Y0173229D02*
X0383855Y0173229D01*
X0383855Y0174828D02*
X0388224Y0174828D01*
X0388224Y0176426D02*
X0383855Y0176426D01*
X0383855Y0178025D02*
X0388224Y0178025D01*
X0389442Y0179623D02*
X0383855Y0179623D01*
X0383855Y0181222D02*
X0391041Y0181222D01*
X0389666Y0182820D02*
X0383855Y0182820D01*
X0383855Y0184419D02*
X0388224Y0184419D01*
X0388224Y0186017D02*
X0383855Y0186017D01*
X0383855Y0187616D02*
X0388224Y0187616D01*
X0389033Y0189214D02*
X0383855Y0189214D01*
X0384411Y0190813D02*
X0390632Y0190813D01*
X0390075Y0192411D02*
X0386010Y0192411D01*
X0386255Y0196333D02*
X0381255Y0191333D01*
X0381255Y0151333D01*
X0371255Y0141333D01*
X0371255Y0126333D01*
X0366255Y0121333D01*
X0256255Y0121333D01*
X0241255Y0136333D01*
X0241255Y0176333D01*
X0231255Y0186333D01*
X0231255Y0201333D01*
X0226255Y0206333D01*
X0230236Y0206798D02*
X0388224Y0206798D01*
X0388224Y0208396D02*
X0229822Y0208396D01*
X0228224Y0209995D02*
X0389814Y0209995D01*
X0390892Y0211593D02*
X0225192Y0211593D01*
X0224287Y0209995D02*
X0223855Y0209995D01*
X0221255Y0211333D02*
X0221255Y0196333D01*
X0216255Y0191333D01*
X0181255Y0191333D01*
X0176255Y0186333D01*
X0176255Y0166333D01*
X0173320Y0163638D02*
X0168751Y0163638D01*
X0168694Y0163501D02*
X0169455Y0165339D01*
X0169455Y0167328D01*
X0168694Y0169166D01*
X0167287Y0170572D01*
X0165450Y0171333D01*
X0157060Y0171333D01*
X0155223Y0170572D01*
X0153816Y0169166D01*
X0153055Y0167328D01*
X0153055Y0165339D01*
X0153816Y0163501D01*
X0155223Y0162095D01*
X0157060Y0161333D01*
X0165450Y0161333D01*
X0167287Y0162095D01*
X0168694Y0163501D01*
X0169413Y0165237D02*
X0172274Y0165237D01*
X0172274Y0166835D02*
X0169455Y0166835D01*
X0168997Y0168434D02*
X0172725Y0168434D01*
X0173655Y0170032D02*
X0167827Y0170032D01*
X0167287Y0172095D02*
X0165450Y0171333D01*
X0157060Y0171333D01*
X0155223Y0172095D01*
X0153816Y0173501D01*
X0153055Y0175339D01*
X0153055Y0177328D01*
X0153816Y0179166D01*
X0155223Y0180572D01*
X0157060Y0181333D01*
X0165450Y0181333D01*
X0167287Y0180572D01*
X0168694Y0179166D01*
X0169455Y0177328D01*
X0169455Y0175339D01*
X0168694Y0173501D01*
X0167287Y0172095D01*
X0166167Y0171631D02*
X0173655Y0171631D01*
X0173655Y0173229D02*
X0168422Y0173229D01*
X0169243Y0174828D02*
X0173655Y0174828D01*
X0173655Y0176426D02*
X0169455Y0176426D01*
X0169166Y0178025D02*
X0173655Y0178025D01*
X0173655Y0179623D02*
X0168236Y0179623D01*
X0167287Y0182095D02*
X0168694Y0183501D01*
X0169455Y0185339D01*
X0169455Y0187328D01*
X0168694Y0189166D01*
X0167287Y0190572D01*
X0165450Y0191333D01*
X0157060Y0191333D01*
X0155223Y0190572D01*
X0153816Y0189166D01*
X0153055Y0187328D01*
X0153055Y0185339D01*
X0153816Y0183501D01*
X0155223Y0182095D01*
X0157060Y0181333D01*
X0165450Y0181333D01*
X0167287Y0182095D01*
X0168013Y0182820D02*
X0173655Y0182820D01*
X0173655Y0181222D02*
X0165719Y0181222D01*
X0169074Y0184419D02*
X0173655Y0184419D01*
X0173655Y0186017D02*
X0169455Y0186017D01*
X0169336Y0187616D02*
X0173972Y0187616D01*
X0175459Y0189214D02*
X0168645Y0189214D01*
X0166706Y0190813D02*
X0177058Y0190813D01*
X0178656Y0192411D02*
X0151255Y0192411D01*
X0151255Y0190813D02*
X0155804Y0190813D01*
X0153865Y0189214D02*
X0151255Y0189214D01*
X0151255Y0187616D02*
X0153174Y0187616D01*
X0153055Y0186017D02*
X0151255Y0186017D01*
X0151255Y0184419D02*
X0153436Y0184419D01*
X0154497Y0182820D02*
X0151255Y0182820D01*
X0151255Y0181222D02*
X0156791Y0181222D01*
X0154274Y0179623D02*
X0151255Y0179623D01*
X0151255Y0178025D02*
X0153344Y0178025D01*
X0153055Y0176426D02*
X0151255Y0176426D01*
X0151255Y0174828D02*
X0153267Y0174828D01*
X0154088Y0173229D02*
X0151255Y0173229D01*
X0151255Y0171631D02*
X0156343Y0171631D01*
X0154683Y0170032D02*
X0151255Y0170032D01*
X0151255Y0168434D02*
X0153513Y0168434D01*
X0153055Y0166835D02*
X0151255Y0166835D01*
X0151255Y0165237D02*
X0153097Y0165237D01*
X0153760Y0163638D02*
X0151255Y0163638D01*
X0151255Y0162040D02*
X0155356Y0162040D01*
X0151255Y0160441D02*
X0238655Y0160441D01*
X0238655Y0158843D02*
X0233917Y0158843D01*
X0234087Y0158772D02*
X0232250Y0159533D01*
X0230260Y0159533D01*
X0228423Y0158772D01*
X0227016Y0157366D01*
X0226255Y0155528D01*
X0226255Y0147139D01*
X0227016Y0145301D01*
X0228423Y0143895D01*
X0230260Y0143133D01*
X0232250Y0143133D01*
X0234087Y0143895D01*
X0235494Y0145301D01*
X0236255Y0147139D01*
X0236255Y0155528D01*
X0235494Y0157366D01*
X0234087Y0158772D01*
X0235544Y0157244D02*
X0238655Y0157244D01*
X0238655Y0155645D02*
X0236206Y0155645D01*
X0236255Y0154047D02*
X0238655Y0154047D01*
X0238655Y0152448D02*
X0236255Y0152448D01*
X0236255Y0150850D02*
X0238655Y0150850D01*
X0238655Y0149251D02*
X0236255Y0149251D01*
X0236255Y0147653D02*
X0238655Y0147653D01*
X0238655Y0146054D02*
X0235806Y0146054D01*
X0234649Y0144456D02*
X0238655Y0144456D01*
X0238655Y0142857D02*
X0151255Y0142857D01*
X0151255Y0141259D02*
X0238655Y0141259D01*
X0238655Y0139660D02*
X0151255Y0139660D01*
X0151255Y0138062D02*
X0207713Y0138062D01*
X0207441Y0137791D02*
X0206979Y0137154D01*
X0206621Y0136453D01*
X0206378Y0135704D01*
X0206255Y0134927D01*
X0206255Y0131533D01*
X0211055Y0131533D01*
X0211055Y0131133D01*
X0211455Y0131133D01*
X0211455Y0123133D01*
X0211649Y0123133D01*
X0212426Y0123256D01*
X0213174Y0123500D01*
X0213876Y0123857D01*
X0214512Y0124320D01*
X0215069Y0124876D01*
X0215531Y0125513D01*
X0215889Y0126214D01*
X0216132Y0126962D01*
X0216255Y0127740D01*
X0216255Y0131133D01*
X0211455Y0131133D01*
X0211455Y0131533D01*
X0216255Y0131533D01*
X0216255Y0134927D01*
X0216132Y0135704D01*
X0215889Y0136453D01*
X0215531Y0137154D01*
X0215069Y0137791D01*
X0214512Y0138347D01*
X0213876Y0138810D01*
X0213174Y0139167D01*
X0212426Y0139410D01*
X0211649Y0139533D01*
X0211455Y0139533D01*
X0211455Y0131533D01*
X0211055Y0131533D01*
X0211055Y0139533D01*
X0210862Y0139533D01*
X0210084Y0139410D01*
X0209336Y0139167D01*
X0208634Y0138810D01*
X0207998Y0138347D01*
X0207441Y0137791D01*
X0206627Y0136463D02*
X0151255Y0136463D01*
X0151255Y0134865D02*
X0206255Y0134865D01*
X0206255Y0133266D02*
X0151255Y0133266D01*
X0151255Y0131668D02*
X0206255Y0131668D01*
X0206255Y0131133D02*
X0206255Y0127740D01*
X0206378Y0126962D01*
X0206621Y0126214D01*
X0206979Y0125513D01*
X0207441Y0124876D01*
X0207998Y0124320D01*
X0208634Y0123857D01*
X0209336Y0123500D01*
X0210084Y0123256D01*
X0210862Y0123133D01*
X0211055Y0123133D01*
X0211055Y0131133D01*
X0206255Y0131133D01*
X0206255Y0130069D02*
X0151255Y0130069D01*
X0151255Y0128471D02*
X0206255Y0128471D01*
X0206407Y0126872D02*
X0151255Y0126872D01*
X0151255Y0125274D02*
X0207152Y0125274D01*
X0208991Y0123675D02*
X0151255Y0123675D01*
X0151255Y0122077D02*
X0251835Y0122077D01*
X0253433Y0120478D02*
X0151255Y0120478D01*
X0151255Y0118880D02*
X0208772Y0118880D01*
X0208634Y0118810D02*
X0207998Y0118347D01*
X0207441Y0117791D01*
X0206979Y0117154D01*
X0206621Y0116453D01*
X0206378Y0115704D01*
X0206255Y0114927D01*
X0206255Y0111533D01*
X0211055Y0111533D01*
X0211055Y0111133D01*
X0211455Y0111133D01*
X0211455Y0103133D01*
X0211649Y0103133D01*
X0212426Y0103256D01*
X0213174Y0103500D01*
X0213876Y0103857D01*
X0214512Y0104320D01*
X0215069Y0104876D01*
X0215531Y0105513D01*
X0215889Y0106214D01*
X0216132Y0106962D01*
X0216255Y0107740D01*
X0216255Y0111133D01*
X0211455Y0111133D01*
X0211455Y0111533D01*
X0216255Y0111533D01*
X0216255Y0114927D01*
X0216132Y0115704D01*
X0215889Y0116453D01*
X0215531Y0117154D01*
X0215069Y0117791D01*
X0214512Y0118347D01*
X0213876Y0118810D01*
X0213174Y0119167D01*
X0212426Y0119410D01*
X0211649Y0119533D01*
X0211455Y0119533D01*
X0211455Y0111533D01*
X0211055Y0111533D01*
X0211055Y0119533D01*
X0210862Y0119533D01*
X0210084Y0119410D01*
X0209336Y0119167D01*
X0208634Y0118810D01*
X0207071Y0117281D02*
X0151255Y0117281D01*
X0151255Y0115683D02*
X0206375Y0115683D01*
X0206255Y0114084D02*
X0151255Y0114084D01*
X0151255Y0112486D02*
X0206255Y0112486D01*
X0206255Y0111133D02*
X0206255Y0107740D01*
X0206378Y0106962D01*
X0206621Y0106214D01*
X0206979Y0105513D01*
X0207441Y0104876D01*
X0207998Y0104320D01*
X0208634Y0103857D01*
X0209336Y0103500D01*
X0210084Y0103256D01*
X0210862Y0103133D01*
X0211055Y0103133D01*
X0211055Y0111133D01*
X0206255Y0111133D01*
X0206255Y0110887D02*
X0199344Y0110887D01*
X0200906Y0109289D02*
X0206255Y0109289D01*
X0206263Y0107690D02*
X0201597Y0107690D01*
X0201755Y0106092D02*
X0206684Y0106092D01*
X0207824Y0104493D02*
X0201440Y0104493D01*
X0196255Y0106333D02*
X0196255Y0111833D01*
X0196255Y0106333D01*
X0196255Y0106333D01*
X0196255Y0107690D02*
X0196255Y0107690D01*
X0196255Y0109289D02*
X0196255Y0109289D01*
X0196255Y0110887D02*
X0196255Y0110887D01*
X0193166Y0110887D02*
X0189479Y0110887D01*
X0190984Y0109289D02*
X0191604Y0109289D01*
X0183031Y0110887D02*
X0151255Y0110887D01*
X0151255Y0109289D02*
X0181526Y0109289D01*
X0180864Y0107690D02*
X0151255Y0107690D01*
X0151255Y0106092D02*
X0180755Y0106092D01*
X0181064Y0104493D02*
X0151255Y0104493D01*
X0151255Y0102895D02*
X0181916Y0102895D01*
X0184044Y0101296D02*
X0151255Y0101296D01*
X0177480Y0091705D02*
X0208105Y0091705D01*
X0214405Y0091705D02*
X0238105Y0091705D01*
X0236557Y0093304D02*
X0215953Y0093304D01*
X0216615Y0094902D02*
X0235895Y0094902D01*
X0235755Y0096501D02*
X0216755Y0096501D01*
X0216477Y0098099D02*
X0236033Y0098099D01*
X0236841Y0099698D02*
X0215669Y0099698D01*
X0213646Y0101296D02*
X0238864Y0101296D01*
X0243646Y0101296D02*
X0391115Y0101296D01*
X0389591Y0102895D02*
X0383446Y0102895D01*
X0381255Y0106333D02*
X0393224Y0106333D01*
X0389108Y0109289D02*
X0383930Y0109289D01*
X0383038Y0112486D02*
X0390000Y0112486D01*
X0390706Y0110887D02*
X0236255Y0110887D01*
X0233828Y0118880D02*
X0255384Y0118880D01*
X0255992Y0125274D02*
X0366519Y0125274D01*
X0368117Y0126872D02*
X0254393Y0126872D01*
X0252795Y0128471D02*
X0368655Y0128471D01*
X0368655Y0130069D02*
X0251196Y0130069D01*
X0249598Y0131668D02*
X0368655Y0131668D01*
X0368655Y0133266D02*
X0247999Y0133266D01*
X0246400Y0134865D02*
X0368655Y0134865D01*
X0368655Y0136463D02*
X0244802Y0136463D01*
X0243855Y0138062D02*
X0300637Y0138062D01*
X0302045Y0137479D02*
X0298921Y0138773D01*
X0298921Y0138773D01*
X0298921Y0138773D01*
X0296529Y0141164D01*
X0296529Y0141164D01*
X0295235Y0144288D01*
X0295235Y0147670D01*
X0296529Y0150794D01*
X0298921Y0153185D01*
X0298921Y0153185D01*
X0302045Y0154479D01*
X0305426Y0154479D01*
X0308550Y0153185D01*
X0308550Y0153185D01*
X0310941Y0150794D01*
X0310941Y0150794D01*
X0312235Y0147670D01*
X0312235Y0144288D01*
X0310941Y0141164D01*
X0310941Y0141164D01*
X0308550Y0138773D01*
X0308550Y0138773D01*
X0305426Y0137479D01*
X0303238Y0137479D01*
X0302045Y0137479D01*
X0298033Y0139660D02*
X0243855Y0139660D01*
X0243855Y0141259D02*
X0296490Y0141259D01*
X0295828Y0142857D02*
X0243855Y0142857D01*
X0243855Y0144456D02*
X0295235Y0144456D01*
X0295235Y0146054D02*
X0243855Y0146054D01*
X0243855Y0147653D02*
X0295235Y0147653D01*
X0295891Y0149251D02*
X0243855Y0149251D01*
X0243855Y0150850D02*
X0296586Y0150850D01*
X0298184Y0152448D02*
X0243855Y0152448D01*
X0243855Y0154047D02*
X0301002Y0154047D01*
X0306469Y0154047D02*
X0378655Y0154047D01*
X0378655Y0155645D02*
X0243855Y0155645D01*
X0243855Y0157244D02*
X0378655Y0157244D01*
X0378655Y0158843D02*
X0243855Y0158843D01*
X0243855Y0160441D02*
X0378655Y0160441D01*
X0378655Y0162040D02*
X0243855Y0162040D01*
X0243855Y0163638D02*
X0378655Y0163638D01*
X0378655Y0165237D02*
X0243855Y0165237D01*
X0243855Y0166835D02*
X0378655Y0166835D01*
X0378655Y0168434D02*
X0243855Y0168434D01*
X0243855Y0170032D02*
X0378655Y0170032D01*
X0378655Y0171631D02*
X0243855Y0171631D01*
X0243855Y0173229D02*
X0378655Y0173229D01*
X0378655Y0174828D02*
X0243855Y0174828D01*
X0243855Y0176426D02*
X0378655Y0176426D01*
X0378655Y0178025D02*
X0243241Y0178025D01*
X0241642Y0179623D02*
X0378655Y0179623D01*
X0378655Y0181222D02*
X0240044Y0181222D01*
X0238445Y0182820D02*
X0378655Y0182820D01*
X0378655Y0184419D02*
X0236847Y0184419D01*
X0235248Y0186017D02*
X0378655Y0186017D01*
X0378655Y0187616D02*
X0233855Y0187616D01*
X0233855Y0189214D02*
X0378655Y0189214D01*
X0378655Y0190813D02*
X0233855Y0190813D01*
X0233855Y0192411D02*
X0378887Y0192411D01*
X0380255Y0194010D02*
X0233855Y0194010D01*
X0233855Y0195608D02*
X0381853Y0195608D01*
X0383452Y0197207D02*
X0233855Y0197207D01*
X0233855Y0198805D02*
X0385429Y0198805D01*
X0386255Y0196333D02*
X0393224Y0196333D01*
X0390223Y0200404D02*
X0233855Y0200404D01*
X0233792Y0202002D02*
X0390484Y0202002D01*
X0388885Y0203601D02*
X0232664Y0203601D01*
X0231066Y0205199D02*
X0388224Y0205199D01*
X0389294Y0213192D02*
X0226791Y0213192D01*
X0226255Y0216333D02*
X0221255Y0211333D01*
X0216255Y0216333D02*
X0221255Y0221333D01*
X0381255Y0221333D01*
X0386255Y0226333D01*
X0393224Y0226333D01*
X0389703Y0222783D02*
X0386382Y0222783D01*
X0384783Y0221184D02*
X0391004Y0221184D01*
X0389405Y0219586D02*
X0383185Y0219586D01*
X0380626Y0224381D02*
X0377980Y0224381D01*
X0379579Y0225980D02*
X0382225Y0225980D01*
X0381177Y0227579D02*
X0383823Y0227579D01*
X0384051Y0227806D02*
X0384051Y0227806D01*
X0382776Y0229177D02*
X0388996Y0229177D01*
X0390595Y0230776D02*
X0383838Y0230776D01*
X0383855Y0232374D02*
X0390112Y0232374D01*
X0388513Y0233973D02*
X0383855Y0233973D01*
X0383855Y0235571D02*
X0388224Y0235571D01*
X0388224Y0237170D02*
X0383855Y0237170D01*
X0383855Y0238768D02*
X0388587Y0238768D01*
X0390186Y0240367D02*
X0383855Y0240367D01*
X0383855Y0241965D02*
X0390521Y0241965D01*
X0388922Y0243564D02*
X0383855Y0243564D01*
X0383855Y0245162D02*
X0388224Y0245162D01*
X0388224Y0246761D02*
X0383855Y0246761D01*
X0383855Y0248359D02*
X0388224Y0248359D01*
X0389777Y0249958D02*
X0383855Y0249958D01*
X0385155Y0251556D02*
X0390930Y0251556D01*
X0389331Y0253155D02*
X0386753Y0253155D01*
X0382597Y0256352D02*
X0378855Y0256352D01*
X0378855Y0257950D02*
X0384195Y0257950D01*
X0380998Y0254753D02*
X0378855Y0254753D01*
X0378855Y0253155D02*
X0379399Y0253155D01*
X0378855Y0259549D02*
X0389368Y0259549D01*
X0390966Y0261147D02*
X0379746Y0261147D01*
X0381344Y0262746D02*
X0389740Y0262746D01*
X0393224Y0266333D02*
X0381255Y0266333D01*
X0376255Y0261333D01*
X0376255Y0236333D01*
X0371255Y0231333D01*
X0256255Y0231333D01*
X0251255Y0236333D01*
X0251255Y0266333D01*
X0246255Y0271333D01*
X0226255Y0271333D01*
X0222274Y0270738D02*
X0178239Y0270738D01*
X0178518Y0270065D02*
X0177757Y0271903D01*
X0179594Y0271142D01*
X0181583Y0271142D01*
X0183421Y0271903D01*
X0184828Y0273309D01*
X0185589Y0275147D01*
X0185589Y0277136D01*
X0184828Y0278974D01*
X0178896Y0284906D01*
X0177058Y0285667D01*
X0175069Y0285667D01*
X0173231Y0284906D01*
X0171825Y0283499D01*
X0171063Y0281662D01*
X0171063Y0279673D01*
X0171825Y0277835D01*
X0177757Y0271903D01*
X0171825Y0277835D01*
X0169987Y0278596D01*
X0167998Y0278596D01*
X0166160Y0277835D01*
X0164754Y0276428D01*
X0163992Y0274591D01*
X0163992Y0272601D01*
X0164754Y0270764D01*
X0170686Y0264832D01*
X0172523Y0264071D01*
X0174512Y0264071D01*
X0176350Y0264832D01*
X0177757Y0266238D01*
X0178518Y0268076D01*
X0178518Y0270065D01*
X0178518Y0269140D02*
X0222818Y0269140D01*
X0224417Y0267541D02*
X0178296Y0267541D01*
X0177461Y0265943D02*
X0232274Y0265943D01*
X0232274Y0267541D02*
X0228093Y0267541D01*
X0232614Y0264344D02*
X0175173Y0264344D01*
X0171863Y0264344D02*
X0170887Y0264344D01*
X0170686Y0264832D02*
X0171447Y0262994D01*
X0171447Y0261005D01*
X0170686Y0259167D01*
X0169279Y0257761D01*
X0167441Y0257000D01*
X0165452Y0257000D01*
X0163614Y0257761D01*
X0157682Y0263693D01*
X0156921Y0265530D01*
X0156921Y0267520D01*
X0157682Y0269357D01*
X0159089Y0270764D01*
X0160927Y0271525D01*
X0162916Y0271525D01*
X0164754Y0270764D01*
X0170686Y0264832D01*
X0169575Y0265943D02*
X0169575Y0265943D01*
X0167976Y0267541D02*
X0167976Y0267541D01*
X0166378Y0269140D02*
X0166377Y0269140D01*
X0164779Y0270738D02*
X0164779Y0270738D01*
X0164102Y0272337D02*
X0151255Y0272337D01*
X0151255Y0273935D02*
X0163992Y0273935D01*
X0164383Y0275534D02*
X0151255Y0275534D01*
X0151255Y0277132D02*
X0165458Y0277132D01*
X0171453Y0278731D02*
X0151255Y0278731D01*
X0151255Y0280329D02*
X0171063Y0280329D01*
X0171174Y0281928D02*
X0151255Y0281928D01*
X0151255Y0283526D02*
X0171852Y0283526D01*
X0173760Y0285125D02*
X0151255Y0285125D01*
X0151255Y0286723D02*
X0196750Y0286723D01*
X0197016Y0287366D02*
X0196255Y0285528D01*
X0196255Y0277139D01*
X0197016Y0275301D01*
X0198423Y0273895D01*
X0200260Y0273133D01*
X0202250Y0273133D01*
X0204087Y0273895D01*
X0205494Y0275301D01*
X0206255Y0277139D01*
X0206255Y0285528D01*
X0205494Y0287366D01*
X0204087Y0288772D01*
X0202250Y0289533D01*
X0200260Y0289533D01*
X0198423Y0288772D01*
X0197016Y0287366D01*
X0197973Y0288322D02*
X0151255Y0288322D01*
X0151255Y0289920D02*
X0459016Y0289920D01*
X0459016Y0288322D02*
X0402943Y0288322D01*
X0398959Y0269140D02*
X0397488Y0269140D01*
X0398224Y0267541D02*
X0398224Y0267541D01*
X0398224Y0265943D02*
X0398224Y0265943D01*
X0398224Y0264344D02*
X0398224Y0264344D01*
X0407079Y0259549D02*
X0433840Y0259549D01*
X0436255Y0256333D02*
X0431255Y0251333D01*
X0431255Y0216333D01*
X0421255Y0206333D01*
X0403224Y0206333D01*
X0405964Y0202002D02*
X0459016Y0202002D01*
X0459016Y0200404D02*
X0406224Y0200404D01*
X0407562Y0203601D02*
X0459016Y0203601D01*
X0459016Y0205199D02*
X0423798Y0205199D01*
X0425397Y0206798D02*
X0435943Y0206798D01*
X0436136Y0206700D02*
X0436884Y0206456D01*
X0437662Y0206333D01*
X0441055Y0206333D01*
X0441055Y0211133D01*
X0441455Y0211133D01*
X0441455Y0206333D01*
X0444849Y0206333D01*
X0445626Y0206456D01*
X0446374Y0206700D01*
X0447076Y0207057D01*
X0447712Y0207520D01*
X0448269Y0208076D01*
X0448731Y0208713D01*
X0449089Y0209414D01*
X0449332Y0210162D01*
X0449455Y0210940D01*
X0449455Y0211133D01*
X0441455Y0211133D01*
X0441455Y0211533D01*
X0449455Y0211533D01*
X0449455Y0211727D01*
X0449332Y0212504D01*
X0449089Y0213253D01*
X0448731Y0213954D01*
X0448269Y0214591D01*
X0447712Y0215147D01*
X0447076Y0215610D01*
X0446374Y0215967D01*
X0445626Y0216210D01*
X0444849Y0216333D01*
X0441455Y0216333D01*
X0441455Y0211533D01*
X0441055Y0211533D01*
X0441055Y0211133D01*
X0433055Y0211133D01*
X0433055Y0210940D01*
X0433178Y0210162D01*
X0433421Y0209414D01*
X0433779Y0208713D01*
X0434241Y0208076D01*
X0434798Y0207520D01*
X0435434Y0207057D01*
X0436136Y0206700D01*
X0434009Y0208396D02*
X0426995Y0208396D01*
X0428594Y0209995D02*
X0433233Y0209995D01*
X0433055Y0211533D02*
X0441055Y0211533D01*
X0441055Y0216333D01*
X0437662Y0216333D01*
X0436884Y0216210D01*
X0436136Y0215967D01*
X0435434Y0215610D01*
X0434798Y0215147D01*
X0434241Y0214591D01*
X0433779Y0213954D01*
X0433421Y0213253D01*
X0433178Y0212504D01*
X0433055Y0211727D01*
X0433055Y0211533D01*
X0433055Y0211593D02*
X0430192Y0211593D01*
X0431791Y0213192D02*
X0433402Y0213192D01*
X0433389Y0214790D02*
X0434441Y0214790D01*
X0433855Y0216389D02*
X0436926Y0216389D01*
X0434330Y0217987D02*
X0433855Y0217987D01*
X0441055Y0214790D02*
X0441455Y0214790D01*
X0441455Y0213192D02*
X0441055Y0213192D01*
X0441055Y0211593D02*
X0441455Y0211593D01*
X0441455Y0209995D02*
X0441055Y0209995D01*
X0441055Y0208396D02*
X0441455Y0208396D01*
X0441455Y0206798D02*
X0441055Y0206798D01*
X0446567Y0206798D02*
X0459016Y0206798D01*
X0459016Y0208396D02*
X0448502Y0208396D01*
X0449277Y0209995D02*
X0459016Y0209995D01*
X0459016Y0211593D02*
X0449455Y0211593D01*
X0449108Y0213192D02*
X0459016Y0213192D01*
X0459016Y0214790D02*
X0448069Y0214790D01*
X0445584Y0216389D02*
X0459016Y0216389D01*
X0459016Y0217987D02*
X0448180Y0217987D01*
X0449143Y0219586D02*
X0459016Y0219586D01*
X0459016Y0221184D02*
X0449455Y0221184D01*
X0449267Y0222783D02*
X0459016Y0222783D01*
X0459016Y0224381D02*
X0448478Y0224381D01*
X0446303Y0225980D02*
X0459016Y0225980D01*
X0459016Y0227579D02*
X0447771Y0227579D01*
X0448974Y0229177D02*
X0459016Y0229177D01*
X0459016Y0230776D02*
X0449455Y0230776D01*
X0449436Y0232374D02*
X0459016Y0232374D01*
X0459016Y0233973D02*
X0448774Y0233973D01*
X0447288Y0235571D02*
X0459016Y0235571D01*
X0459016Y0237170D02*
X0447362Y0237170D01*
X0448804Y0238768D02*
X0459016Y0238768D01*
X0459016Y0240367D02*
X0449455Y0240367D01*
X0449455Y0241965D02*
X0459016Y0241965D01*
X0459016Y0243564D02*
X0448943Y0243564D01*
X0447697Y0245162D02*
X0459016Y0245162D01*
X0459016Y0246761D02*
X0433855Y0246761D01*
X0433855Y0248359D02*
X0459016Y0248359D01*
X0459016Y0249958D02*
X0433855Y0249958D01*
X0435155Y0251556D02*
X0459016Y0251556D01*
X0459016Y0253155D02*
X0438707Y0253155D01*
X0440236Y0254753D02*
X0459016Y0254753D01*
X0459016Y0256352D02*
X0440236Y0256352D01*
X0444085Y0257950D02*
X0459016Y0257950D01*
X0459016Y0259549D02*
X0445684Y0259549D01*
X0447282Y0261147D02*
X0459016Y0261147D01*
X0459016Y0262746D02*
X0448881Y0262746D01*
X0450098Y0264344D02*
X0459016Y0264344D01*
X0459016Y0265943D02*
X0450589Y0265943D01*
X0450580Y0267541D02*
X0459016Y0267541D01*
X0459016Y0269140D02*
X0449918Y0269140D01*
X0448447Y0270738D02*
X0459016Y0270738D01*
X0459016Y0272337D02*
X0443408Y0272337D01*
X0443518Y0273935D02*
X0459016Y0273935D01*
X0459016Y0275534D02*
X0443127Y0275534D01*
X0442053Y0277132D02*
X0459016Y0277132D01*
X0442731Y0270738D02*
X0442731Y0270738D01*
X0441133Y0269140D02*
X0441133Y0269140D01*
X0439534Y0267541D02*
X0439534Y0267541D01*
X0437936Y0265943D02*
X0437936Y0265943D01*
X0436623Y0264344D02*
X0435648Y0264344D01*
X0428655Y0248359D02*
X0422906Y0248359D01*
X0424505Y0246761D02*
X0428655Y0246761D01*
X0428655Y0245162D02*
X0426103Y0245162D01*
X0427702Y0243564D02*
X0428655Y0243564D01*
X0433855Y0245162D02*
X0434813Y0245162D01*
X0435148Y0237170D02*
X0433855Y0237170D01*
X0433855Y0235571D02*
X0435222Y0235571D01*
X0434739Y0227579D02*
X0433855Y0227579D01*
X0433855Y0225980D02*
X0436208Y0225980D01*
X0434032Y0224381D02*
X0433855Y0224381D01*
X0421255Y0221333D02*
X0416255Y0236333D01*
X0403224Y0236333D01*
X0406335Y0232374D02*
X0414834Y0232374D01*
X0415367Y0230776D02*
X0405852Y0230776D01*
X0407451Y0229177D02*
X0408469Y0229177D01*
X0411255Y0226333D02*
X0403224Y0226333D01*
X0414041Y0229177D02*
X0415900Y0229177D01*
X0393424Y0232374D02*
X0393024Y0232374D01*
X0393024Y0233973D02*
X0393424Y0233973D01*
X0393424Y0235571D02*
X0393024Y0235571D01*
X0393024Y0237170D02*
X0393424Y0237170D01*
X0393424Y0238768D02*
X0393024Y0238768D01*
X0393024Y0240367D02*
X0393424Y0240367D01*
X0373655Y0240367D02*
X0253855Y0240367D01*
X0253855Y0241965D02*
X0373655Y0241965D01*
X0373655Y0243564D02*
X0253855Y0243564D01*
X0253855Y0245162D02*
X0373655Y0245162D01*
X0373655Y0238768D02*
X0253855Y0238768D01*
X0254096Y0237170D02*
X0373414Y0237170D01*
X0371816Y0235571D02*
X0255694Y0235571D01*
X0257293Y0233973D02*
X0370217Y0233973D01*
X0393224Y0216333D02*
X0226255Y0216333D01*
X0219028Y0222783D02*
X0211255Y0222783D01*
X0211255Y0222139D02*
X0211255Y0230528D01*
X0210494Y0232366D01*
X0209087Y0233772D01*
X0208940Y0233833D01*
X0209087Y0233895D01*
X0210494Y0235301D01*
X0211255Y0237139D01*
X0211255Y0245528D01*
X0210494Y0247366D01*
X0209087Y0248772D01*
X0207250Y0249533D01*
X0205260Y0249533D01*
X0203423Y0248772D01*
X0202016Y0247366D01*
X0201255Y0245528D01*
X0201255Y0237139D01*
X0202016Y0235301D01*
X0203423Y0233895D01*
X0203571Y0233833D01*
X0203423Y0233772D01*
X0202016Y0232366D01*
X0201255Y0230528D01*
X0201255Y0222139D01*
X0202016Y0220301D01*
X0203423Y0218895D01*
X0203571Y0218833D01*
X0203423Y0218772D01*
X0202016Y0217366D01*
X0201255Y0215528D01*
X0201255Y0207139D01*
X0202016Y0205301D01*
X0203423Y0203895D01*
X0205260Y0203133D01*
X0207250Y0203133D01*
X0209087Y0203895D01*
X0210494Y0205301D01*
X0211255Y0207139D01*
X0211255Y0215528D01*
X0210494Y0217366D01*
X0209087Y0218772D01*
X0208940Y0218833D01*
X0209087Y0218895D01*
X0210494Y0220301D01*
X0211255Y0222139D01*
X0210860Y0221184D02*
X0217429Y0221184D01*
X0215831Y0219586D02*
X0209779Y0219586D01*
X0209872Y0217987D02*
X0214232Y0217987D01*
X0213655Y0216389D02*
X0210898Y0216389D01*
X0211255Y0214790D02*
X0213655Y0214790D01*
X0213655Y0213192D02*
X0211255Y0213192D01*
X0211255Y0211593D02*
X0213655Y0211593D01*
X0213655Y0209995D02*
X0211255Y0209995D01*
X0211255Y0208396D02*
X0213655Y0208396D01*
X0213655Y0206798D02*
X0211114Y0206798D01*
X0210392Y0205199D02*
X0213655Y0205199D01*
X0213655Y0203601D02*
X0208378Y0203601D01*
X0204132Y0203601D02*
X0198378Y0203601D01*
X0199087Y0203895D02*
X0200494Y0205301D01*
X0201255Y0207139D01*
X0201255Y0215528D01*
X0200494Y0217366D01*
X0199087Y0218772D01*
X0198940Y0218833D01*
X0199087Y0218895D01*
X0200494Y0220301D01*
X0201255Y0222139D01*
X0201255Y0230528D01*
X0200494Y0232366D01*
X0199087Y0233772D01*
X0198940Y0233833D01*
X0199087Y0233895D01*
X0200494Y0235301D01*
X0201255Y0237139D01*
X0201255Y0245528D01*
X0200494Y0247366D01*
X0199087Y0248772D01*
X0197250Y0249533D01*
X0195260Y0249533D01*
X0193423Y0248772D01*
X0192016Y0247366D01*
X0191255Y0245528D01*
X0190494Y0247366D01*
X0189087Y0248772D01*
X0187250Y0249533D01*
X0185260Y0249533D01*
X0183423Y0248772D01*
X0182016Y0247366D01*
X0181255Y0245528D01*
X0181255Y0237139D01*
X0182016Y0235301D01*
X0183423Y0233895D01*
X0183571Y0233833D01*
X0183423Y0233772D01*
X0182016Y0232366D01*
X0181255Y0230528D01*
X0181255Y0222139D01*
X0182016Y0220301D01*
X0183423Y0218895D01*
X0183571Y0218833D01*
X0183423Y0218772D01*
X0182016Y0217366D01*
X0181255Y0215528D01*
X0181255Y0207139D01*
X0182016Y0205301D01*
X0183423Y0203895D01*
X0185260Y0203133D01*
X0187250Y0203133D01*
X0189087Y0203895D01*
X0190494Y0205301D01*
X0191255Y0207139D01*
X0191255Y0215528D01*
X0190494Y0217366D01*
X0189087Y0218772D01*
X0188940Y0218833D01*
X0189087Y0218895D01*
X0190494Y0220301D01*
X0191255Y0222139D01*
X0191255Y0230528D01*
X0190494Y0232366D01*
X0189087Y0233772D01*
X0188940Y0233833D01*
X0189087Y0233895D01*
X0190494Y0235301D01*
X0191255Y0237139D01*
X0191255Y0245528D01*
X0191255Y0237139D01*
X0192016Y0235301D01*
X0193423Y0233895D01*
X0193571Y0233833D01*
X0193423Y0233772D01*
X0192016Y0232366D01*
X0191255Y0230528D01*
X0191255Y0222139D01*
X0192016Y0220301D01*
X0193423Y0218895D01*
X0193571Y0218833D01*
X0193423Y0218772D01*
X0192016Y0217366D01*
X0191255Y0215528D01*
X0191255Y0207139D01*
X0192016Y0205301D01*
X0193423Y0203895D01*
X0195260Y0203133D01*
X0197250Y0203133D01*
X0199087Y0203895D01*
X0200392Y0205199D02*
X0202118Y0205199D01*
X0201396Y0206798D02*
X0201114Y0206798D01*
X0201255Y0208396D02*
X0201255Y0208396D01*
X0201255Y0209995D02*
X0201255Y0209995D01*
X0201255Y0211593D02*
X0201255Y0211593D01*
X0201255Y0213192D02*
X0201255Y0213192D01*
X0201255Y0214790D02*
X0201255Y0214790D01*
X0200898Y0216389D02*
X0201612Y0216389D01*
X0202638Y0217987D02*
X0199872Y0217987D01*
X0199779Y0219586D02*
X0202731Y0219586D01*
X0201650Y0221184D02*
X0200860Y0221184D01*
X0201255Y0222783D02*
X0201255Y0222783D01*
X0201255Y0224381D02*
X0201255Y0224381D01*
X0201255Y0225980D02*
X0201255Y0225980D01*
X0201255Y0227579D02*
X0201255Y0227579D01*
X0201255Y0229177D02*
X0201255Y0229177D01*
X0201152Y0230776D02*
X0201358Y0230776D01*
X0202025Y0232374D02*
X0200485Y0232374D01*
X0199165Y0233973D02*
X0203345Y0233973D01*
X0201904Y0235571D02*
X0200606Y0235571D01*
X0201255Y0237170D02*
X0201255Y0237170D01*
X0201255Y0238768D02*
X0201255Y0238768D01*
X0201255Y0240367D02*
X0201255Y0240367D01*
X0201255Y0241965D02*
X0201255Y0241965D01*
X0201255Y0243564D02*
X0201255Y0243564D01*
X0201255Y0245162D02*
X0201255Y0245162D01*
X0200744Y0246761D02*
X0201766Y0246761D01*
X0203010Y0248359D02*
X0199500Y0248359D01*
X0193010Y0248359D02*
X0189500Y0248359D01*
X0190744Y0246761D02*
X0191766Y0246761D01*
X0191255Y0245162D02*
X0191255Y0245162D01*
X0191255Y0243564D02*
X0191255Y0243564D01*
X0191255Y0241965D02*
X0191255Y0241965D01*
X0191255Y0240367D02*
X0191255Y0240367D01*
X0191255Y0238768D02*
X0191255Y0238768D01*
X0191255Y0237170D02*
X0191255Y0237170D01*
X0190606Y0235571D02*
X0191904Y0235571D01*
X0193345Y0233973D02*
X0189165Y0233973D01*
X0190485Y0232374D02*
X0192025Y0232374D01*
X0191358Y0230776D02*
X0191152Y0230776D01*
X0191255Y0229177D02*
X0191255Y0229177D01*
X0191255Y0227579D02*
X0191255Y0227579D01*
X0191255Y0225980D02*
X0191255Y0225980D01*
X0191255Y0224381D02*
X0191255Y0224381D01*
X0191255Y0222783D02*
X0191255Y0222783D01*
X0190860Y0221184D02*
X0191650Y0221184D01*
X0192731Y0219586D02*
X0189779Y0219586D01*
X0189872Y0217987D02*
X0192638Y0217987D01*
X0191612Y0216389D02*
X0190898Y0216389D01*
X0191255Y0214790D02*
X0191255Y0214790D01*
X0191255Y0213192D02*
X0191255Y0213192D01*
X0191255Y0211593D02*
X0191255Y0211593D01*
X0191255Y0209995D02*
X0191255Y0209995D01*
X0191255Y0208396D02*
X0191255Y0208396D01*
X0191114Y0206798D02*
X0191396Y0206798D01*
X0192118Y0205199D02*
X0190392Y0205199D01*
X0188378Y0203601D02*
X0194132Y0203601D01*
X0184132Y0203601D02*
X0178373Y0203601D01*
X0178174Y0203500D02*
X0178876Y0203857D01*
X0179512Y0204320D01*
X0180069Y0204876D01*
X0180531Y0205513D01*
X0180889Y0206214D01*
X0181132Y0206962D01*
X0181255Y0207740D01*
X0181255Y0211133D01*
X0176455Y0211133D01*
X0176455Y0203133D01*
X0176649Y0203133D01*
X0177426Y0203256D01*
X0178174Y0203500D01*
X0176455Y0203601D02*
X0176055Y0203601D01*
X0176055Y0203133D02*
X0176055Y0211133D01*
X0176455Y0211133D01*
X0176455Y0211533D01*
X0181255Y0211533D01*
X0181255Y0214927D01*
X0181132Y0215704D01*
X0180889Y0216453D01*
X0180531Y0217154D01*
X0180069Y0217791D01*
X0179512Y0218347D01*
X0178876Y0218810D01*
X0178829Y0218833D01*
X0178876Y0218857D01*
X0179512Y0219320D01*
X0180069Y0219876D01*
X0180531Y0220513D01*
X0180889Y0221214D01*
X0181132Y0221962D01*
X0181255Y0222740D01*
X0181255Y0226133D01*
X0176455Y0226133D01*
X0176455Y0219533D01*
X0176455Y0211533D01*
X0176055Y0211533D01*
X0176055Y0211133D01*
X0171255Y0211133D01*
X0171255Y0207740D01*
X0171378Y0206962D01*
X0171621Y0206214D01*
X0171979Y0205513D01*
X0172441Y0204876D01*
X0172998Y0204320D01*
X0173634Y0203857D01*
X0174336Y0203500D01*
X0175084Y0203256D01*
X0175862Y0203133D01*
X0176055Y0203133D01*
X0174137Y0203601D02*
X0172664Y0203601D01*
X0172206Y0205199D02*
X0171066Y0205199D01*
X0171432Y0206798D02*
X0169467Y0206798D01*
X0168855Y0208396D02*
X0171255Y0208396D01*
X0171255Y0209995D02*
X0168855Y0209995D01*
X0168855Y0211593D02*
X0171255Y0211593D01*
X0171255Y0211533D02*
X0176055Y0211533D01*
X0176055Y0226133D01*
X0176455Y0226133D01*
X0176455Y0226533D01*
X0181255Y0226533D01*
X0181255Y0229927D01*
X0181132Y0230704D01*
X0180889Y0231453D01*
X0180531Y0232154D01*
X0180069Y0232791D01*
X0179512Y0233347D01*
X0178876Y0233810D01*
X0178829Y0233833D01*
X0178876Y0233857D01*
X0179512Y0234320D01*
X0180069Y0234876D01*
X0180531Y0235513D01*
X0180889Y0236214D01*
X0181132Y0236962D01*
X0181255Y0237740D01*
X0181255Y0241133D01*
X0176455Y0241133D01*
X0176455Y0226533D01*
X0176055Y0226533D01*
X0176055Y0226133D01*
X0171255Y0226133D01*
X0171255Y0222740D01*
X0171378Y0221962D01*
X0171621Y0221214D01*
X0171979Y0220513D01*
X0172441Y0219876D01*
X0172998Y0219320D01*
X0173634Y0218857D01*
X0173681Y0218833D01*
X0173634Y0218810D01*
X0172998Y0218347D01*
X0172441Y0217791D01*
X0171979Y0217154D01*
X0171621Y0216453D01*
X0171378Y0215704D01*
X0171255Y0214927D01*
X0171255Y0211533D01*
X0171255Y0213192D02*
X0168855Y0213192D01*
X0168855Y0214790D02*
X0171255Y0214790D01*
X0171601Y0216389D02*
X0168855Y0216389D01*
X0168855Y0217987D02*
X0172638Y0217987D01*
X0172731Y0219586D02*
X0168855Y0219586D01*
X0168855Y0221184D02*
X0171636Y0221184D01*
X0171255Y0222783D02*
X0168855Y0222783D01*
X0168855Y0224381D02*
X0171255Y0224381D01*
X0171255Y0225980D02*
X0168855Y0225980D01*
X0168855Y0227579D02*
X0171255Y0227579D01*
X0171255Y0226533D02*
X0176055Y0226533D01*
X0176055Y0234533D01*
X0176055Y0241133D01*
X0176455Y0241133D01*
X0176455Y0241533D01*
X0181255Y0241533D01*
X0181255Y0244927D01*
X0181132Y0245704D01*
X0180889Y0246453D01*
X0180531Y0247154D01*
X0180069Y0247791D01*
X0179512Y0248347D01*
X0178876Y0248810D01*
X0178174Y0249167D01*
X0177426Y0249410D01*
X0176649Y0249533D01*
X0176455Y0249533D01*
X0176455Y0241533D01*
X0176055Y0241533D01*
X0176055Y0241133D01*
X0171255Y0241133D01*
X0171255Y0237740D01*
X0171378Y0236962D01*
X0171621Y0236214D01*
X0171979Y0235513D01*
X0172441Y0234876D01*
X0172998Y0234320D01*
X0173634Y0233857D01*
X0173681Y0233833D01*
X0173634Y0233810D01*
X0172998Y0233347D01*
X0172441Y0232791D01*
X0171979Y0232154D01*
X0171621Y0231453D01*
X0171378Y0230704D01*
X0171255Y0229927D01*
X0171255Y0226533D01*
X0171255Y0229177D02*
X0168855Y0229177D01*
X0168855Y0230776D02*
X0171401Y0230776D01*
X0172139Y0232374D02*
X0168855Y0232374D01*
X0168855Y0233973D02*
X0173475Y0233973D01*
X0171949Y0235571D02*
X0168855Y0235571D01*
X0168855Y0237170D02*
X0171345Y0237170D01*
X0171255Y0238768D02*
X0168855Y0238768D01*
X0168855Y0240367D02*
X0171255Y0240367D01*
X0171255Y0241533D02*
X0176055Y0241533D01*
X0176055Y0249533D01*
X0175862Y0249533D01*
X0175084Y0249410D01*
X0174336Y0249167D01*
X0173634Y0248810D01*
X0172998Y0248347D01*
X0172441Y0247791D01*
X0171979Y0247154D01*
X0171621Y0246453D01*
X0171378Y0245704D01*
X0171255Y0244927D01*
X0171255Y0241533D01*
X0171255Y0241965D02*
X0168855Y0241965D01*
X0168855Y0243564D02*
X0171255Y0243564D01*
X0171292Y0245162D02*
X0168855Y0245162D01*
X0168855Y0246761D02*
X0171778Y0246761D01*
X0173014Y0248359D02*
X0167906Y0248359D01*
X0166308Y0249958D02*
X0238655Y0249958D01*
X0238655Y0251556D02*
X0165236Y0251556D01*
X0165064Y0253155D02*
X0238655Y0253155D01*
X0238655Y0254753D02*
X0163465Y0254753D01*
X0163425Y0257950D02*
X0151255Y0257950D01*
X0151255Y0256352D02*
X0238655Y0256352D01*
X0238655Y0257950D02*
X0169468Y0257950D01*
X0170844Y0259549D02*
X0238655Y0259549D01*
X0237764Y0261147D02*
X0171447Y0261147D01*
X0171447Y0262746D02*
X0234213Y0262746D01*
X0222274Y0272337D02*
X0183855Y0272337D01*
X0185087Y0273935D02*
X0198382Y0273935D01*
X0196920Y0275534D02*
X0185589Y0275534D01*
X0185589Y0277132D02*
X0196258Y0277132D01*
X0196255Y0278731D02*
X0184928Y0278731D01*
X0183472Y0280329D02*
X0196255Y0280329D01*
X0196255Y0281928D02*
X0181874Y0281928D01*
X0180275Y0283526D02*
X0196255Y0283526D01*
X0196255Y0285125D02*
X0178367Y0285125D01*
X0159064Y0270738D02*
X0151255Y0270738D01*
X0151255Y0269140D02*
X0157592Y0269140D01*
X0156930Y0267541D02*
X0151255Y0267541D01*
X0151255Y0265943D02*
X0156921Y0265943D01*
X0157413Y0264344D02*
X0151255Y0264344D01*
X0151255Y0262746D02*
X0158629Y0262746D01*
X0160228Y0261147D02*
X0151255Y0261147D01*
X0151255Y0259549D02*
X0161826Y0259549D01*
X0159045Y0254753D02*
X0151255Y0254753D01*
X0151255Y0253155D02*
X0157446Y0253155D01*
X0157274Y0251556D02*
X0151255Y0251556D01*
X0151255Y0249958D02*
X0157274Y0249958D01*
X0158599Y0248359D02*
X0151255Y0248359D01*
X0151255Y0246761D02*
X0162151Y0246761D01*
X0163655Y0245162D02*
X0151255Y0245162D01*
X0151255Y0243564D02*
X0163655Y0243564D01*
X0163655Y0241965D02*
X0151255Y0241965D01*
X0151255Y0240367D02*
X0163655Y0240367D01*
X0163655Y0238768D02*
X0151255Y0238768D01*
X0151255Y0237170D02*
X0163655Y0237170D01*
X0163655Y0235571D02*
X0151255Y0235571D01*
X0151255Y0233973D02*
X0163655Y0233973D01*
X0163655Y0232374D02*
X0151255Y0232374D01*
X0151255Y0230776D02*
X0163655Y0230776D01*
X0163655Y0229177D02*
X0151255Y0229177D01*
X0151255Y0227579D02*
X0163655Y0227579D01*
X0163655Y0225980D02*
X0151255Y0225980D01*
X0151255Y0224381D02*
X0163655Y0224381D01*
X0163655Y0222783D02*
X0151255Y0222783D01*
X0151255Y0221184D02*
X0163655Y0221184D01*
X0163655Y0219586D02*
X0151255Y0219586D01*
X0151255Y0217987D02*
X0163655Y0217987D01*
X0163655Y0216389D02*
X0151255Y0216389D01*
X0151255Y0214790D02*
X0163655Y0214790D01*
X0163655Y0213192D02*
X0151255Y0213192D01*
X0151255Y0211593D02*
X0163655Y0211593D01*
X0163655Y0209995D02*
X0151255Y0209995D01*
X0151255Y0208396D02*
X0163655Y0208396D01*
X0163655Y0206798D02*
X0151255Y0206798D01*
X0151255Y0205199D02*
X0163911Y0205199D01*
X0165311Y0203601D02*
X0151255Y0203601D01*
X0151255Y0202002D02*
X0166909Y0202002D01*
X0168508Y0200404D02*
X0151255Y0200404D01*
X0151255Y0198805D02*
X0170106Y0198805D01*
X0171705Y0197207D02*
X0151255Y0197207D01*
X0151255Y0195608D02*
X0173303Y0195608D01*
X0175071Y0194010D02*
X0151255Y0194010D01*
X0166255Y0206333D02*
X0166255Y0246333D01*
X0161255Y0251333D01*
X0176055Y0248359D02*
X0176455Y0248359D01*
X0176455Y0246761D02*
X0176055Y0246761D01*
X0176055Y0245162D02*
X0176455Y0245162D01*
X0176455Y0243564D02*
X0176055Y0243564D01*
X0176055Y0241965D02*
X0176455Y0241965D01*
X0176455Y0240367D02*
X0176055Y0240367D01*
X0176055Y0238768D02*
X0176455Y0238768D01*
X0176455Y0237170D02*
X0176055Y0237170D01*
X0176055Y0235571D02*
X0176455Y0235571D01*
X0176455Y0233973D02*
X0176055Y0233973D01*
X0176055Y0232374D02*
X0176455Y0232374D01*
X0176455Y0230776D02*
X0176055Y0230776D01*
X0176055Y0229177D02*
X0176455Y0229177D01*
X0176455Y0227579D02*
X0176055Y0227579D01*
X0176055Y0225980D02*
X0176455Y0225980D01*
X0176455Y0224381D02*
X0176055Y0224381D01*
X0176055Y0222783D02*
X0176455Y0222783D01*
X0176455Y0221184D02*
X0176055Y0221184D01*
X0176055Y0219586D02*
X0176455Y0219586D01*
X0176455Y0217987D02*
X0176055Y0217987D01*
X0176055Y0216389D02*
X0176455Y0216389D01*
X0176455Y0214790D02*
X0176055Y0214790D01*
X0176055Y0213192D02*
X0176455Y0213192D01*
X0176455Y0211593D02*
X0176055Y0211593D01*
X0176055Y0209995D02*
X0176455Y0209995D01*
X0176455Y0208396D02*
X0176055Y0208396D01*
X0176055Y0206798D02*
X0176455Y0206798D01*
X0176455Y0205199D02*
X0176055Y0205199D01*
X0174263Y0202002D02*
X0213247Y0202002D01*
X0211649Y0200404D02*
X0175862Y0200404D01*
X0176255Y0196333D02*
X0166255Y0206333D01*
X0180304Y0205199D02*
X0182118Y0205199D01*
X0181396Y0206798D02*
X0181078Y0206798D01*
X0181255Y0208396D02*
X0181255Y0208396D01*
X0181255Y0209995D02*
X0181255Y0209995D01*
X0181255Y0211593D02*
X0181255Y0211593D01*
X0181255Y0213192D02*
X0181255Y0213192D01*
X0181255Y0214790D02*
X0181255Y0214790D01*
X0180909Y0216389D02*
X0181612Y0216389D01*
X0182638Y0217987D02*
X0179872Y0217987D01*
X0179779Y0219586D02*
X0182731Y0219586D01*
X0181650Y0221184D02*
X0180874Y0221184D01*
X0181255Y0222783D02*
X0181255Y0222783D01*
X0181255Y0224381D02*
X0181255Y0224381D01*
X0181255Y0225980D02*
X0181255Y0225980D01*
X0181255Y0227579D02*
X0181255Y0227579D01*
X0181255Y0229177D02*
X0181255Y0229177D01*
X0181358Y0230776D02*
X0181109Y0230776D01*
X0180372Y0232374D02*
X0182025Y0232374D01*
X0183345Y0233973D02*
X0179035Y0233973D01*
X0180561Y0235571D02*
X0181904Y0235571D01*
X0181255Y0237170D02*
X0181165Y0237170D01*
X0181255Y0238768D02*
X0181255Y0238768D01*
X0181255Y0240367D02*
X0181255Y0240367D01*
X0181255Y0241965D02*
X0181255Y0241965D01*
X0181255Y0243564D02*
X0181255Y0243564D01*
X0181218Y0245162D02*
X0181255Y0245162D01*
X0181766Y0246761D02*
X0180732Y0246761D01*
X0179496Y0248359D02*
X0183010Y0248359D01*
X0209500Y0248359D02*
X0238655Y0248359D01*
X0238655Y0246761D02*
X0210744Y0246761D01*
X0211255Y0245162D02*
X0238655Y0245162D01*
X0238655Y0243564D02*
X0211255Y0243564D01*
X0211255Y0241965D02*
X0238655Y0241965D01*
X0238655Y0240367D02*
X0211255Y0240367D01*
X0211255Y0238768D02*
X0238655Y0238768D01*
X0238655Y0237170D02*
X0211255Y0237170D01*
X0210606Y0235571D02*
X0238655Y0235571D01*
X0238655Y0233973D02*
X0209165Y0233973D01*
X0210485Y0232374D02*
X0238655Y0232374D01*
X0238672Y0230776D02*
X0211152Y0230776D01*
X0211255Y0229177D02*
X0239734Y0229177D01*
X0241333Y0227579D02*
X0211255Y0227579D01*
X0211255Y0225980D02*
X0242931Y0225980D01*
X0244530Y0224381D02*
X0211255Y0224381D01*
X0216255Y0216333D02*
X0216255Y0201333D01*
X0211255Y0196333D01*
X0176255Y0196333D01*
X0181214Y0187616D02*
X0228655Y0187616D01*
X0228655Y0189214D02*
X0217813Y0189214D01*
X0219411Y0190813D02*
X0228655Y0190813D01*
X0228655Y0192411D02*
X0221010Y0192411D01*
X0222608Y0194010D02*
X0228655Y0194010D01*
X0228655Y0195608D02*
X0223769Y0195608D01*
X0223855Y0197207D02*
X0228655Y0197207D01*
X0228655Y0198805D02*
X0223855Y0198805D01*
X0223855Y0200404D02*
X0228508Y0200404D01*
X0226909Y0202002D02*
X0223855Y0202002D01*
X0228655Y0186017D02*
X0179616Y0186017D01*
X0178855Y0184419D02*
X0229493Y0184419D01*
X0231091Y0182820D02*
X0178855Y0182820D01*
X0178855Y0181222D02*
X0232690Y0181222D01*
X0232250Y0179533D02*
X0230260Y0179533D01*
X0228423Y0178772D01*
X0227016Y0177366D01*
X0226255Y0175528D01*
X0225494Y0177366D01*
X0224087Y0178772D01*
X0222250Y0179533D01*
X0220260Y0179533D01*
X0218423Y0178772D01*
X0217016Y0177366D01*
X0216255Y0175528D01*
X0216255Y0167139D01*
X0217016Y0165301D01*
X0218423Y0163895D01*
X0220260Y0163133D01*
X0222250Y0163133D01*
X0224087Y0163895D01*
X0225494Y0165301D01*
X0226255Y0167139D01*
X0226255Y0175528D01*
X0226255Y0167139D01*
X0227016Y0165301D01*
X0228423Y0163895D01*
X0230260Y0163133D01*
X0232250Y0163133D01*
X0234087Y0163895D01*
X0235494Y0165301D01*
X0236255Y0167139D01*
X0236255Y0175528D01*
X0235494Y0177366D01*
X0234087Y0178772D01*
X0232250Y0179533D01*
X0234288Y0179623D02*
X0178855Y0179623D01*
X0178855Y0178025D02*
X0207675Y0178025D01*
X0207441Y0177791D02*
X0206979Y0177154D01*
X0206621Y0176453D01*
X0206378Y0175704D01*
X0206255Y0174927D01*
X0206255Y0171533D01*
X0211055Y0171533D01*
X0211055Y0171133D01*
X0211455Y0171133D01*
X0211455Y0163133D01*
X0211649Y0163133D01*
X0212426Y0163256D01*
X0213174Y0163500D01*
X0213876Y0163857D01*
X0214512Y0164320D01*
X0215069Y0164876D01*
X0215531Y0165513D01*
X0215889Y0166214D01*
X0216132Y0166962D01*
X0216255Y0167740D01*
X0216255Y0171133D01*
X0211455Y0171133D01*
X0211455Y0171533D01*
X0216255Y0171533D01*
X0216255Y0174927D01*
X0216132Y0175704D01*
X0215889Y0176453D01*
X0215531Y0177154D01*
X0215069Y0177791D01*
X0214512Y0178347D01*
X0213876Y0178810D01*
X0213174Y0179167D01*
X0212426Y0179410D01*
X0211649Y0179533D01*
X0211455Y0179533D01*
X0211455Y0171533D01*
X0211055Y0171533D01*
X0211055Y0179533D01*
X0210862Y0179533D01*
X0210084Y0179410D01*
X0209336Y0179167D01*
X0208634Y0178810D01*
X0207998Y0178347D01*
X0207441Y0177791D01*
X0206613Y0176426D02*
X0178855Y0176426D01*
X0178855Y0174828D02*
X0206255Y0174828D01*
X0206255Y0173229D02*
X0178855Y0173229D01*
X0178855Y0171631D02*
X0206255Y0171631D01*
X0206255Y0171133D02*
X0206255Y0167740D01*
X0206378Y0166962D01*
X0206621Y0166214D01*
X0206979Y0165513D01*
X0207441Y0164876D01*
X0207998Y0164320D01*
X0208634Y0163857D01*
X0209336Y0163500D01*
X0210084Y0163256D01*
X0210862Y0163133D01*
X0211055Y0163133D01*
X0211055Y0171133D01*
X0206255Y0171133D01*
X0206255Y0170032D02*
X0178855Y0170032D01*
X0179785Y0168434D02*
X0206255Y0168434D01*
X0206420Y0166835D02*
X0180236Y0166835D01*
X0180236Y0165237D02*
X0207179Y0165237D01*
X0209064Y0163638D02*
X0179190Y0163638D01*
X0167155Y0162040D02*
X0238655Y0162040D01*
X0238655Y0163638D02*
X0233468Y0163638D01*
X0235429Y0165237D02*
X0238655Y0165237D01*
X0238655Y0166835D02*
X0236129Y0166835D01*
X0236255Y0168434D02*
X0238655Y0168434D01*
X0238655Y0170032D02*
X0236255Y0170032D01*
X0236255Y0171631D02*
X0238655Y0171631D01*
X0238655Y0173229D02*
X0236255Y0173229D01*
X0236255Y0174828D02*
X0238655Y0174828D01*
X0237485Y0176426D02*
X0235883Y0176426D01*
X0235887Y0178025D02*
X0234835Y0178025D01*
X0227675Y0178025D02*
X0224835Y0178025D01*
X0225883Y0176426D02*
X0226627Y0176426D01*
X0226255Y0174828D02*
X0226255Y0174828D01*
X0226255Y0173229D02*
X0226255Y0173229D01*
X0226255Y0171631D02*
X0226255Y0171631D01*
X0226255Y0170032D02*
X0226255Y0170032D01*
X0226255Y0168434D02*
X0226255Y0168434D01*
X0226129Y0166835D02*
X0226381Y0166835D01*
X0227081Y0165237D02*
X0225429Y0165237D01*
X0223468Y0163638D02*
X0229042Y0163638D01*
X0228593Y0158843D02*
X0223917Y0158843D01*
X0224087Y0158772D02*
X0222250Y0159533D01*
X0220260Y0159533D01*
X0218423Y0158772D01*
X0217016Y0157366D01*
X0216255Y0155528D01*
X0216255Y0147139D01*
X0217016Y0145301D01*
X0218423Y0143895D01*
X0220260Y0143133D01*
X0222250Y0143133D01*
X0224087Y0143895D01*
X0225494Y0145301D01*
X0226255Y0147139D01*
X0226255Y0155528D01*
X0225494Y0157366D01*
X0224087Y0158772D01*
X0225544Y0157244D02*
X0226966Y0157244D01*
X0226304Y0155645D02*
X0226206Y0155645D01*
X0226255Y0154047D02*
X0226255Y0154047D01*
X0226255Y0152448D02*
X0226255Y0152448D01*
X0226255Y0150850D02*
X0226255Y0150850D01*
X0226255Y0149251D02*
X0226255Y0149251D01*
X0226255Y0147653D02*
X0226255Y0147653D01*
X0225806Y0146054D02*
X0226704Y0146054D01*
X0227861Y0144456D02*
X0224649Y0144456D01*
X0222250Y0139533D02*
X0220260Y0139533D01*
X0218423Y0138772D01*
X0217016Y0137366D01*
X0216255Y0135528D01*
X0216255Y0127139D01*
X0217016Y0125301D01*
X0218423Y0123895D01*
X0220260Y0123133D01*
X0222250Y0123133D01*
X0224087Y0123895D01*
X0225494Y0125301D01*
X0226255Y0127139D01*
X0227016Y0125301D01*
X0228423Y0123895D01*
X0230260Y0123133D01*
X0232250Y0123133D01*
X0234087Y0123895D01*
X0235494Y0125301D01*
X0236255Y0127139D01*
X0236255Y0135528D01*
X0235494Y0137366D01*
X0234087Y0138772D01*
X0232250Y0139533D01*
X0230260Y0139533D01*
X0228423Y0138772D01*
X0227016Y0137366D01*
X0226255Y0135528D01*
X0226255Y0127139D01*
X0226255Y0135528D01*
X0225494Y0137366D01*
X0224087Y0138772D01*
X0222250Y0139533D01*
X0224798Y0138062D02*
X0227713Y0138062D01*
X0226643Y0136463D02*
X0225868Y0136463D01*
X0226255Y0134865D02*
X0226255Y0134865D01*
X0226255Y0133266D02*
X0226255Y0133266D01*
X0226255Y0131668D02*
X0226255Y0131668D01*
X0226255Y0130069D02*
X0226255Y0130069D01*
X0226255Y0128471D02*
X0226255Y0128471D01*
X0226145Y0126872D02*
X0226365Y0126872D01*
X0227044Y0125274D02*
X0225467Y0125274D01*
X0223558Y0123675D02*
X0228952Y0123675D01*
X0233558Y0123675D02*
X0250236Y0123675D01*
X0248638Y0125274D02*
X0235467Y0125274D01*
X0236145Y0126872D02*
X0247039Y0126872D01*
X0245441Y0128471D02*
X0236255Y0128471D01*
X0236255Y0130069D02*
X0243842Y0130069D01*
X0242244Y0131668D02*
X0236255Y0131668D01*
X0236255Y0133266D02*
X0240645Y0133266D01*
X0239049Y0134865D02*
X0236255Y0134865D01*
X0235868Y0136463D02*
X0238655Y0136463D01*
X0238655Y0138062D02*
X0234798Y0138062D01*
X0217713Y0138062D02*
X0214798Y0138062D01*
X0215883Y0136463D02*
X0216643Y0136463D01*
X0216255Y0134865D02*
X0216255Y0134865D01*
X0216255Y0133266D02*
X0216255Y0133266D01*
X0216255Y0131668D02*
X0216255Y0131668D01*
X0216255Y0130069D02*
X0216255Y0130069D01*
X0216255Y0128471D02*
X0216255Y0128471D01*
X0216365Y0126872D02*
X0216103Y0126872D01*
X0215358Y0125274D02*
X0217044Y0125274D01*
X0218952Y0123675D02*
X0213519Y0123675D01*
X0211455Y0123675D02*
X0211055Y0123675D01*
X0211055Y0125274D02*
X0211455Y0125274D01*
X0211455Y0126872D02*
X0211055Y0126872D01*
X0211055Y0128471D02*
X0211455Y0128471D01*
X0211455Y0130069D02*
X0211055Y0130069D01*
X0211055Y0131668D02*
X0211455Y0131668D01*
X0211455Y0133266D02*
X0211055Y0133266D01*
X0211055Y0134865D02*
X0211455Y0134865D01*
X0211455Y0136463D02*
X0211055Y0136463D01*
X0211055Y0138062D02*
X0211455Y0138062D01*
X0211455Y0143133D02*
X0211649Y0143133D01*
X0212426Y0143256D01*
X0213174Y0143500D01*
X0213876Y0143857D01*
X0214512Y0144320D01*
X0215069Y0144876D01*
X0215531Y0145513D01*
X0215889Y0146214D01*
X0216132Y0146962D01*
X0216255Y0147740D01*
X0216255Y0151133D01*
X0211455Y0151133D01*
X0211455Y0143133D01*
X0211055Y0143133D02*
X0211055Y0151133D01*
X0211455Y0151133D01*
X0211455Y0151533D01*
X0216255Y0151533D01*
X0216255Y0154927D01*
X0216132Y0155704D01*
X0215889Y0156453D01*
X0215531Y0157154D01*
X0215069Y0157791D01*
X0214512Y0158347D01*
X0213876Y0158810D01*
X0213174Y0159167D01*
X0212426Y0159410D01*
X0211649Y0159533D01*
X0211455Y0159533D01*
X0211455Y0151533D01*
X0211055Y0151533D01*
X0211055Y0151133D01*
X0206255Y0151133D01*
X0206255Y0147740D01*
X0206378Y0146962D01*
X0206621Y0146214D01*
X0206979Y0145513D01*
X0207441Y0144876D01*
X0207998Y0144320D01*
X0208634Y0143857D01*
X0209336Y0143500D01*
X0210084Y0143256D01*
X0210862Y0143133D01*
X0211055Y0143133D01*
X0211055Y0144456D02*
X0211455Y0144456D01*
X0211455Y0146054D02*
X0211055Y0146054D01*
X0211055Y0147653D02*
X0211455Y0147653D01*
X0211455Y0149251D02*
X0211055Y0149251D01*
X0211055Y0150850D02*
X0211455Y0150850D01*
X0211055Y0151533D02*
X0206255Y0151533D01*
X0206255Y0154927D01*
X0206378Y0155704D01*
X0206621Y0156453D01*
X0206979Y0157154D01*
X0207441Y0157791D01*
X0207998Y0158347D01*
X0208634Y0158810D01*
X0209336Y0159167D01*
X0210084Y0159410D01*
X0210862Y0159533D01*
X0211055Y0159533D01*
X0211055Y0151533D01*
X0211055Y0152448D02*
X0211455Y0152448D01*
X0211455Y0154047D02*
X0211055Y0154047D01*
X0211055Y0155645D02*
X0211455Y0155645D01*
X0211455Y0157244D02*
X0211055Y0157244D01*
X0211055Y0158843D02*
X0211455Y0158843D01*
X0213811Y0158843D02*
X0218593Y0158843D01*
X0216966Y0157244D02*
X0215466Y0157244D01*
X0216141Y0155645D02*
X0216304Y0155645D01*
X0216255Y0154047D02*
X0216255Y0154047D01*
X0216255Y0152448D02*
X0216255Y0152448D01*
X0216255Y0150850D02*
X0216255Y0150850D01*
X0216255Y0149251D02*
X0216255Y0149251D01*
X0216241Y0147653D02*
X0216255Y0147653D01*
X0215807Y0146054D02*
X0216704Y0146054D01*
X0217861Y0144456D02*
X0214649Y0144456D01*
X0207861Y0144456D02*
X0151255Y0144456D01*
X0151255Y0146054D02*
X0206703Y0146054D01*
X0206269Y0147653D02*
X0151255Y0147653D01*
X0151255Y0149251D02*
X0206255Y0149251D01*
X0206255Y0150850D02*
X0151255Y0150850D01*
X0151255Y0152448D02*
X0206255Y0152448D01*
X0206255Y0154047D02*
X0151255Y0154047D01*
X0151255Y0155645D02*
X0206369Y0155645D01*
X0207044Y0157244D02*
X0151255Y0157244D01*
X0151255Y0158843D02*
X0208699Y0158843D01*
X0211055Y0163638D02*
X0211455Y0163638D01*
X0211455Y0165237D02*
X0211055Y0165237D01*
X0211055Y0166835D02*
X0211455Y0166835D01*
X0211455Y0168434D02*
X0211055Y0168434D01*
X0211055Y0170032D02*
X0211455Y0170032D01*
X0211455Y0171631D02*
X0211055Y0171631D01*
X0211055Y0173229D02*
X0211455Y0173229D01*
X0211455Y0174828D02*
X0211055Y0174828D01*
X0211055Y0176426D02*
X0211455Y0176426D01*
X0211455Y0178025D02*
X0211055Y0178025D01*
X0214835Y0178025D02*
X0217675Y0178025D01*
X0216627Y0176426D02*
X0215897Y0176426D01*
X0216255Y0174828D02*
X0216255Y0174828D01*
X0216255Y0173229D02*
X0216255Y0173229D01*
X0216255Y0171631D02*
X0216255Y0171631D01*
X0216255Y0170032D02*
X0216255Y0170032D01*
X0216255Y0168434D02*
X0216255Y0168434D01*
X0216381Y0166835D02*
X0216091Y0166835D01*
X0215331Y0165237D02*
X0217081Y0165237D01*
X0219042Y0163638D02*
X0213446Y0163638D01*
X0213738Y0118880D02*
X0218683Y0118880D01*
X0216981Y0117281D02*
X0215439Y0117281D01*
X0216135Y0115683D02*
X0216319Y0115683D01*
X0216255Y0114084D02*
X0216255Y0114084D01*
X0216255Y0112486D02*
X0216255Y0112486D01*
X0216255Y0110887D02*
X0216255Y0110887D01*
X0216255Y0109289D02*
X0216255Y0109289D01*
X0216247Y0107690D02*
X0216255Y0107690D01*
X0215826Y0106092D02*
X0216689Y0106092D01*
X0217824Y0104493D02*
X0214686Y0104493D01*
X0211455Y0104493D02*
X0211055Y0104493D01*
X0211055Y0106092D02*
X0211455Y0106092D01*
X0211455Y0107690D02*
X0211055Y0107690D01*
X0211055Y0109289D02*
X0211455Y0109289D01*
X0211455Y0110887D02*
X0211055Y0110887D01*
X0211055Y0112486D02*
X0211455Y0112486D01*
X0211455Y0114084D02*
X0211055Y0114084D01*
X0211055Y0115683D02*
X0211455Y0115683D01*
X0211455Y0117281D02*
X0211055Y0117281D01*
X0211055Y0118880D02*
X0211455Y0118880D01*
X0223828Y0118880D02*
X0228683Y0118880D01*
X0226981Y0117281D02*
X0225529Y0117281D01*
X0226191Y0115683D02*
X0226319Y0115683D01*
X0226255Y0114084D02*
X0226255Y0114084D01*
X0226255Y0112486D02*
X0226255Y0112486D01*
X0226255Y0110887D02*
X0226255Y0110887D01*
X0226255Y0109289D02*
X0226255Y0109289D01*
X0226255Y0107690D02*
X0226255Y0107690D01*
X0225821Y0106092D02*
X0226689Y0106092D01*
X0227824Y0104493D02*
X0224686Y0104493D01*
X0241255Y0096333D02*
X0393224Y0096333D01*
X0389517Y0099698D02*
X0245669Y0099698D01*
X0266556Y0085311D02*
X0192908Y0085311D01*
X0189603Y0085311D02*
X0183874Y0085311D01*
X0185095Y0083712D02*
X0188004Y0083712D01*
X0187274Y0082114D02*
X0185589Y0082114D01*
X0185583Y0080515D02*
X0187274Y0080515D01*
X0181855Y0075720D02*
X0289323Y0075720D01*
X0290676Y0074121D02*
X0180256Y0074121D01*
X0178322Y0072523D02*
X0326389Y0072523D01*
X0327987Y0070924D02*
X0151255Y0070924D01*
X0151255Y0069326D02*
X0329586Y0069326D01*
X0332144Y0074121D02*
X0369801Y0074121D01*
X0368192Y0075720D02*
X0330545Y0075720D01*
X0328947Y0077318D02*
X0366593Y0077318D01*
X0370750Y0080515D02*
X0401760Y0080515D01*
X0390372Y0082114D02*
X0369151Y0082114D01*
X0367305Y0083712D02*
X0388773Y0083712D01*
X0388224Y0085311D02*
X0362908Y0085311D01*
X0323655Y0083712D02*
X0318735Y0083712D01*
X0318735Y0082114D02*
X0323655Y0082114D01*
X0323655Y0080515D02*
X0318735Y0080515D01*
X0318735Y0078917D02*
X0323655Y0078917D01*
X0323655Y0077318D02*
X0318735Y0077318D01*
X0318148Y0075720D02*
X0323695Y0075720D01*
X0324790Y0074121D02*
X0316795Y0074121D01*
X0310676Y0074121D02*
X0306795Y0074121D01*
X0308148Y0075720D02*
X0309323Y0075720D01*
X0308735Y0077139D02*
X0308735Y0085528D01*
X0307974Y0087366D01*
X0306606Y0088733D01*
X0310864Y0088733D01*
X0309497Y0087366D01*
X0308735Y0085528D01*
X0308735Y0077139D01*
X0308735Y0077318D02*
X0308735Y0077318D01*
X0308735Y0078917D02*
X0308735Y0078917D01*
X0308735Y0080515D02*
X0308735Y0080515D01*
X0308735Y0082114D02*
X0308735Y0082114D01*
X0308735Y0083712D02*
X0308735Y0083712D01*
X0308735Y0085311D02*
X0308735Y0085311D01*
X0308163Y0086910D02*
X0309308Y0086910D01*
X0310639Y0088508D02*
X0306832Y0088508D01*
X0300864Y0088733D02*
X0299497Y0087366D01*
X0298735Y0085528D01*
X0297974Y0087366D01*
X0296606Y0088733D01*
X0300864Y0088733D01*
X0300639Y0088508D02*
X0296832Y0088508D01*
X0298163Y0086910D02*
X0299308Y0086910D01*
X0298735Y0085528D02*
X0298735Y0077139D01*
X0298735Y0085528D01*
X0298735Y0085311D02*
X0298735Y0085311D01*
X0298735Y0083712D02*
X0298735Y0083712D01*
X0298735Y0082114D02*
X0298735Y0082114D01*
X0298735Y0080515D02*
X0298735Y0080515D01*
X0298735Y0078917D02*
X0298735Y0078917D01*
X0298735Y0077318D02*
X0298735Y0077318D01*
X0298148Y0075720D02*
X0299323Y0075720D01*
X0300676Y0074121D02*
X0296795Y0074121D01*
X0318735Y0085311D02*
X0323600Y0085311D01*
X0322002Y0086910D02*
X0318163Y0086910D01*
X0316832Y0088508D02*
X0320403Y0088508D01*
X0381255Y0116333D02*
X0393224Y0116333D01*
X0388811Y0123675D02*
X0384227Y0123675D01*
X0381255Y0126333D02*
X0393224Y0126333D01*
X0398224Y0138062D02*
X0398224Y0138062D01*
X0396968Y0139660D02*
X0399480Y0139660D01*
X0391078Y0141259D02*
X0374858Y0141259D01*
X0370701Y0144456D02*
X0312235Y0144456D01*
X0312235Y0146054D02*
X0372299Y0146054D01*
X0373898Y0147653D02*
X0312235Y0147653D01*
X0311580Y0149251D02*
X0375496Y0149251D01*
X0377095Y0150850D02*
X0310885Y0150850D01*
X0309287Y0152448D02*
X0378655Y0152448D01*
X0369102Y0142857D02*
X0311643Y0142857D01*
X0310981Y0141259D02*
X0368655Y0141259D01*
X0368655Y0139660D02*
X0309438Y0139660D01*
X0306833Y0138062D02*
X0368655Y0138062D01*
X0383558Y0139660D02*
X0389480Y0139660D01*
X0393024Y0152448D02*
X0393424Y0152448D01*
X0393424Y0154047D02*
X0393024Y0154047D01*
X0393024Y0155645D02*
X0393424Y0155645D01*
X0393424Y0157244D02*
X0393024Y0157244D01*
X0393024Y0158843D02*
X0393424Y0158843D01*
X0393424Y0160441D02*
X0393024Y0160441D01*
X0406001Y0162040D02*
X0418284Y0162040D01*
X0416686Y0160441D02*
X0406187Y0160441D01*
X0407785Y0158843D02*
X0415087Y0158843D01*
X0413818Y0157244D02*
X0408224Y0157244D01*
X0408224Y0155645D02*
X0413655Y0155645D01*
X0413655Y0154047D02*
X0408008Y0154047D01*
X0406410Y0152448D02*
X0413655Y0152448D01*
X0413655Y0150850D02*
X0405778Y0150850D01*
X0407376Y0149251D02*
X0413655Y0149251D01*
X0413655Y0147653D02*
X0408224Y0147653D01*
X0408224Y0146054D02*
X0413655Y0146054D01*
X0413655Y0144456D02*
X0408224Y0144456D01*
X0406819Y0142857D02*
X0413655Y0142857D01*
X0413655Y0141259D02*
X0405369Y0141259D01*
X0406968Y0139660D02*
X0413655Y0139660D01*
X0413655Y0138062D02*
X0408224Y0138062D01*
X0420843Y0157244D02*
X0422566Y0157244D01*
X0420025Y0163638D02*
X0407599Y0163638D01*
X0408194Y0168434D02*
X0423525Y0168434D01*
X0422274Y0170032D02*
X0406596Y0170032D01*
X0405592Y0171631D02*
X0422274Y0171631D01*
X0420682Y0173229D02*
X0407190Y0173229D01*
X0408224Y0174828D02*
X0419084Y0174828D01*
X0418655Y0176426D02*
X0408224Y0176426D01*
X0408224Y0178025D02*
X0418655Y0178025D01*
X0418655Y0179623D02*
X0407005Y0179623D01*
X0405406Y0181222D02*
X0418655Y0181222D01*
X0418655Y0182820D02*
X0406781Y0182820D01*
X0408224Y0184262D02*
X0405295Y0181333D01*
X0403424Y0181333D01*
X0403424Y0186133D01*
X0408224Y0186133D01*
X0408224Y0184262D01*
X0408224Y0184419D02*
X0418655Y0184419D01*
X0418655Y0186017D02*
X0408224Y0186017D01*
X0408224Y0187616D02*
X0418655Y0187616D01*
X0418655Y0189214D02*
X0407414Y0189214D01*
X0405815Y0190813D02*
X0418099Y0190813D01*
X0416500Y0192411D02*
X0406373Y0192411D01*
X0403424Y0190813D02*
X0403024Y0190813D01*
X0403024Y0189214D02*
X0403424Y0189214D01*
X0403424Y0187616D02*
X0403024Y0187616D01*
X0403024Y0186017D02*
X0403424Y0186017D01*
X0403424Y0184419D02*
X0403024Y0184419D01*
X0403024Y0182820D02*
X0403424Y0182820D01*
X0403224Y0196333D02*
X0416255Y0196333D01*
X0421255Y0191333D01*
X0421255Y0176333D01*
X0426255Y0171333D01*
X0419059Y0197207D02*
X0459016Y0197207D01*
X0459016Y0198805D02*
X0417081Y0198805D01*
X0377188Y0265943D02*
X0253855Y0265943D01*
X0253569Y0267541D02*
X0264417Y0267541D01*
X0262818Y0269140D02*
X0252126Y0269140D01*
X0250527Y0270738D02*
X0262274Y0270738D01*
X0227011Y0275314D02*
X0225499Y0275314D01*
X0226255Y0277139D01*
X0226255Y0285528D01*
X0226255Y0277139D01*
X0227011Y0275314D01*
X0226920Y0275534D02*
X0225590Y0275534D01*
X0226252Y0277132D02*
X0226258Y0277132D01*
X0226255Y0278731D02*
X0226255Y0278731D01*
X0226255Y0280329D02*
X0226255Y0280329D01*
X0226255Y0281928D02*
X0226255Y0281928D01*
X0226255Y0283526D02*
X0226255Y0283526D01*
X0226255Y0285125D02*
X0226255Y0285125D01*
X0225760Y0286723D02*
X0226750Y0286723D01*
X0227973Y0288322D02*
X0224538Y0288322D01*
X0217973Y0288322D02*
X0214538Y0288322D01*
X0215760Y0286723D02*
X0216750Y0286723D01*
X0216255Y0285125D02*
X0216255Y0285125D01*
X0216255Y0283526D02*
X0216255Y0283526D01*
X0216255Y0281928D02*
X0216255Y0281928D01*
X0216255Y0280329D02*
X0216255Y0280329D01*
X0216255Y0278731D02*
X0216255Y0278731D01*
X0216252Y0277132D02*
X0216258Y0277132D01*
X0216920Y0275534D02*
X0215590Y0275534D01*
X0214128Y0273935D02*
X0218382Y0273935D01*
X0208382Y0273935D02*
X0204128Y0273935D01*
X0205590Y0275534D02*
X0206920Y0275534D01*
X0206258Y0277132D02*
X0206252Y0277132D01*
X0206255Y0278731D02*
X0206255Y0278731D01*
X0206255Y0280329D02*
X0206255Y0280329D01*
X0206255Y0281928D02*
X0206255Y0281928D01*
X0206255Y0283526D02*
X0206255Y0283526D01*
X0206255Y0285125D02*
X0206255Y0285125D01*
X0205760Y0286723D02*
X0206750Y0286723D01*
X0207973Y0288322D02*
X0204538Y0288322D01*
X0151255Y0291519D02*
X0459016Y0291519D01*
X0459016Y0293117D02*
X0151255Y0293117D01*
X0151255Y0294716D02*
X0459016Y0294716D01*
X0459016Y0295354D02*
X0459016Y0066333D01*
X0151255Y0066333D01*
X0151255Y0295354D01*
X0459016Y0295354D01*
X0410608Y0093304D02*
X0407265Y0093304D01*
X0405666Y0091705D02*
X0412206Y0091705D01*
X0459016Y0067727D02*
X0151255Y0067727D01*
X0151255Y0072523D02*
X0173805Y0072523D01*
X0171870Y0074121D02*
X0151255Y0074121D01*
X0151255Y0075720D02*
X0171181Y0075720D01*
X0171063Y0077318D02*
X0151255Y0077318D01*
D16*
X0191255Y0081333D03*
X0176255Y0166333D03*
X0226255Y0206333D03*
X0161255Y0251333D03*
X0226255Y0271333D03*
X0236255Y0266333D03*
X0266255Y0271333D03*
X0326255Y0281333D03*
X0411255Y0226333D03*
X0421255Y0221333D03*
X0426255Y0231333D03*
X0436255Y0256333D03*
X0416255Y0276333D03*
X0426255Y0171333D03*
X0381255Y0136333D03*
X0381255Y0126333D03*
X0381255Y0116333D03*
X0381255Y0106333D03*
X0361255Y0081333D03*
X0426255Y0096333D03*
M02*
