G75*
%MOIN*%
%OFA0B0*%
%FSLAX25Y25*%
%IPPOS*%
%LPD*%
%AMOC8*
5,1,8,0,0,1.08239X$1,22.5*
%
%ADD10C,0.00800*%
%ADD11C,0.00600*%
%ADD12C,0.00400*%
%ADD13C,0.00500*%
%ADD14C,0.00000*%
D10*
X0146255Y0061333D02*
X0461216Y0061333D01*
X0461216Y0297554D01*
X0146255Y0297554D01*
X0146255Y0061333D01*
X0180803Y0107333D02*
X0182382Y0107333D01*
X0190128Y0107333D02*
X0192382Y0107333D01*
X0183009Y0112833D02*
X0182854Y0112631D01*
X0182704Y0112426D01*
X0182558Y0112217D01*
X0182418Y0112004D01*
X0182283Y0111788D01*
X0182154Y0111569D01*
X0182030Y0111347D01*
X0181911Y0111122D01*
X0181798Y0110894D01*
X0181690Y0110664D01*
X0181588Y0110431D01*
X0181491Y0110195D01*
X0181400Y0109957D01*
X0181315Y0109718D01*
X0181236Y0109476D01*
X0181163Y0109232D01*
X0181096Y0108987D01*
X0181034Y0108740D01*
X0180979Y0108491D01*
X0180930Y0108241D01*
X0180887Y0107991D01*
X0180850Y0107739D01*
X0180819Y0107486D01*
X0180794Y0107233D01*
X0180775Y0106979D01*
X0180762Y0106725D01*
X0180756Y0106471D01*
X0180756Y0106216D01*
X0180762Y0105962D01*
X0180774Y0105707D01*
X0180792Y0105454D01*
X0180816Y0105200D01*
X0180847Y0104948D01*
X0180883Y0104696D01*
X0180926Y0104445D01*
X0180975Y0104195D01*
X0181030Y0103947D01*
X0181091Y0103700D01*
X0181157Y0103454D01*
X0181230Y0103210D01*
X0181309Y0102968D01*
X0181393Y0102728D01*
X0181484Y0102490D01*
X0181580Y0102254D01*
X0181681Y0102021D01*
X0181789Y0101790D01*
X0181901Y0101562D01*
X0182020Y0101337D01*
X0182144Y0101115D01*
X0182273Y0100895D01*
X0182407Y0100679D01*
X0182547Y0100466D01*
X0182692Y0100257D01*
X0182841Y0100051D01*
X0182996Y0099849D01*
X0183156Y0099651D01*
X0183320Y0099457D01*
X0183489Y0099266D01*
X0183662Y0099080D01*
X0183840Y0098898D01*
X0184023Y0098721D01*
X0184209Y0098548D01*
X0184400Y0098379D01*
X0184595Y0098215D01*
X0184794Y0098056D01*
X0184996Y0097902D01*
X0185202Y0097753D01*
X0185412Y0097609D01*
X0185625Y0097470D01*
X0185842Y0097336D01*
X0186061Y0097207D01*
X0186284Y0097084D01*
X0186510Y0096967D01*
X0186738Y0096854D01*
X0186969Y0096748D01*
X0187203Y0096647D01*
X0187439Y0096551D01*
X0187677Y0096462D01*
X0187917Y0096378D01*
X0188159Y0096300D01*
X0194351Y0096300D02*
X0194593Y0096378D01*
X0194833Y0096461D01*
X0195071Y0096551D01*
X0195307Y0096646D01*
X0195541Y0096748D01*
X0195772Y0096854D01*
X0196000Y0096966D01*
X0196226Y0097084D01*
X0196449Y0097207D01*
X0196668Y0097336D01*
X0196885Y0097470D01*
X0197098Y0097609D01*
X0197308Y0097753D01*
X0197514Y0097902D01*
X0197716Y0098056D01*
X0197915Y0098215D01*
X0198110Y0098379D01*
X0198300Y0098548D01*
X0198487Y0098721D01*
X0198669Y0098898D01*
X0198847Y0099080D01*
X0199021Y0099266D01*
X0199190Y0099457D01*
X0199354Y0099651D01*
X0199514Y0099849D01*
X0199669Y0100051D01*
X0199818Y0100257D01*
X0199963Y0100466D01*
X0200103Y0100679D01*
X0200237Y0100895D01*
X0200366Y0101114D01*
X0200490Y0101337D01*
X0200608Y0101562D01*
X0200721Y0101790D01*
X0200829Y0102021D01*
X0200930Y0102254D01*
X0201026Y0102490D01*
X0201117Y0102728D01*
X0201201Y0102968D01*
X0201280Y0103210D01*
X0201353Y0103454D01*
X0201419Y0103699D01*
X0201480Y0103946D01*
X0201535Y0104195D01*
X0201584Y0104445D01*
X0201627Y0104696D01*
X0201663Y0104947D01*
X0201694Y0105200D01*
X0201718Y0105453D01*
X0201736Y0105707D01*
X0201748Y0105961D01*
X0201754Y0106216D01*
X0201754Y0106470D01*
X0201748Y0106725D01*
X0201735Y0106979D01*
X0201716Y0107233D01*
X0201691Y0107486D01*
X0201660Y0107739D01*
X0201623Y0107990D01*
X0201580Y0108241D01*
X0201531Y0108491D01*
X0201476Y0108739D01*
X0201414Y0108986D01*
X0201347Y0109232D01*
X0201274Y0109475D01*
X0201195Y0109717D01*
X0201110Y0109957D01*
X0201019Y0110195D01*
X0200922Y0110431D01*
X0200820Y0110664D01*
X0200713Y0110894D01*
X0200599Y0111122D01*
X0200480Y0111347D01*
X0200356Y0111569D01*
X0200227Y0111788D01*
X0200092Y0112004D01*
X0199952Y0112217D01*
X0199807Y0112426D01*
X0199656Y0112631D01*
X0199501Y0112833D01*
X0183009Y0112833D01*
X0200128Y0107333D02*
X0201707Y0107333D01*
X0216255Y0099333D02*
X0216255Y0096333D01*
X0215255Y0096333D01*
X0216255Y0096333D02*
X0216255Y0093333D01*
X0236255Y0093333D01*
X0236255Y0096333D01*
X0237255Y0096333D01*
X0236255Y0096333D02*
X0236255Y0099333D01*
X0216255Y0099333D01*
X0423255Y0136333D02*
X0426255Y0136333D01*
X0426255Y0135333D01*
X0426255Y0136333D02*
X0429255Y0136333D01*
X0429255Y0156333D01*
X0426255Y0156333D01*
X0426255Y0157333D01*
X0426255Y0156333D02*
X0423255Y0156333D01*
X0423255Y0136333D01*
X0447255Y0136786D02*
X0447255Y0135206D01*
X0452755Y0134579D02*
X0452755Y0118087D01*
X0447255Y0117460D02*
X0447255Y0115881D01*
X0447255Y0125206D02*
X0447255Y0127460D01*
X0452755Y0134579D02*
X0452553Y0134734D01*
X0452348Y0134884D01*
X0452139Y0135030D01*
X0451926Y0135170D01*
X0451710Y0135305D01*
X0451491Y0135434D01*
X0451269Y0135558D01*
X0451044Y0135677D01*
X0450816Y0135790D01*
X0450586Y0135898D01*
X0450353Y0136000D01*
X0450117Y0136097D01*
X0449879Y0136188D01*
X0449640Y0136273D01*
X0449398Y0136352D01*
X0449154Y0136425D01*
X0448909Y0136492D01*
X0448662Y0136554D01*
X0448413Y0136609D01*
X0448163Y0136658D01*
X0447913Y0136701D01*
X0447661Y0136738D01*
X0447408Y0136769D01*
X0447155Y0136794D01*
X0446901Y0136813D01*
X0446647Y0136826D01*
X0446393Y0136832D01*
X0446138Y0136832D01*
X0445884Y0136826D01*
X0445629Y0136814D01*
X0445376Y0136796D01*
X0445122Y0136772D01*
X0444870Y0136741D01*
X0444618Y0136705D01*
X0444367Y0136662D01*
X0444117Y0136613D01*
X0443869Y0136558D01*
X0443622Y0136497D01*
X0443376Y0136431D01*
X0443132Y0136358D01*
X0442890Y0136279D01*
X0442650Y0136195D01*
X0442412Y0136104D01*
X0442176Y0136008D01*
X0441943Y0135907D01*
X0441712Y0135799D01*
X0441484Y0135687D01*
X0441259Y0135568D01*
X0441037Y0135444D01*
X0440817Y0135315D01*
X0440601Y0135181D01*
X0440388Y0135041D01*
X0440179Y0134896D01*
X0439973Y0134747D01*
X0439771Y0134592D01*
X0439573Y0134432D01*
X0439379Y0134268D01*
X0439188Y0134099D01*
X0439002Y0133926D01*
X0438820Y0133748D01*
X0438643Y0133565D01*
X0438470Y0133379D01*
X0438301Y0133188D01*
X0438137Y0132993D01*
X0437978Y0132794D01*
X0437824Y0132592D01*
X0437675Y0132386D01*
X0437531Y0132176D01*
X0437392Y0131963D01*
X0437258Y0131746D01*
X0437129Y0131527D01*
X0437006Y0131304D01*
X0436889Y0131078D01*
X0436776Y0130850D01*
X0436670Y0130619D01*
X0436569Y0130385D01*
X0436473Y0130149D01*
X0436384Y0129911D01*
X0436300Y0129671D01*
X0436222Y0129429D01*
X0436222Y0123237D02*
X0436300Y0122995D01*
X0436383Y0122755D01*
X0436473Y0122517D01*
X0436568Y0122281D01*
X0436670Y0122047D01*
X0436776Y0121816D01*
X0436888Y0121588D01*
X0437006Y0121362D01*
X0437129Y0121139D01*
X0437258Y0120920D01*
X0437392Y0120703D01*
X0437531Y0120490D01*
X0437675Y0120280D01*
X0437824Y0120074D01*
X0437978Y0119872D01*
X0438137Y0119673D01*
X0438301Y0119478D01*
X0438470Y0119288D01*
X0438643Y0119101D01*
X0438820Y0118919D01*
X0439002Y0118741D01*
X0439188Y0118567D01*
X0439379Y0118398D01*
X0439573Y0118234D01*
X0439771Y0118074D01*
X0439973Y0117919D01*
X0440179Y0117770D01*
X0440388Y0117625D01*
X0440601Y0117485D01*
X0440817Y0117351D01*
X0441036Y0117222D01*
X0441259Y0117098D01*
X0441484Y0116980D01*
X0441712Y0116867D01*
X0441943Y0116759D01*
X0442176Y0116658D01*
X0442412Y0116562D01*
X0442650Y0116471D01*
X0442890Y0116387D01*
X0443132Y0116308D01*
X0443376Y0116235D01*
X0443621Y0116169D01*
X0443868Y0116108D01*
X0444117Y0116053D01*
X0444367Y0116004D01*
X0444618Y0115961D01*
X0444869Y0115925D01*
X0445122Y0115894D01*
X0445375Y0115870D01*
X0445629Y0115852D01*
X0445883Y0115840D01*
X0446138Y0115834D01*
X0446392Y0115834D01*
X0446647Y0115840D01*
X0446901Y0115853D01*
X0447155Y0115872D01*
X0447408Y0115897D01*
X0447661Y0115928D01*
X0447912Y0115965D01*
X0448163Y0116008D01*
X0448413Y0116057D01*
X0448661Y0116112D01*
X0448908Y0116174D01*
X0449154Y0116241D01*
X0449397Y0116314D01*
X0449639Y0116393D01*
X0449879Y0116478D01*
X0450117Y0116569D01*
X0450353Y0116666D01*
X0450586Y0116768D01*
X0450816Y0116875D01*
X0451044Y0116989D01*
X0451269Y0117108D01*
X0451491Y0117232D01*
X0451710Y0117361D01*
X0451926Y0117496D01*
X0452139Y0117636D01*
X0452348Y0117781D01*
X0452553Y0117932D01*
X0452755Y0118087D01*
D11*
X0445094Y0098708D02*
X0441558Y0098708D01*
X0438023Y0095172D01*
X0438023Y0091637D01*
X0441558Y0088101D01*
X0445094Y0088101D01*
X0448629Y0091637D01*
X0448629Y0095172D01*
X0445094Y0098708D01*
X0438023Y0091637D02*
X0434487Y0091637D01*
X0430952Y0088101D01*
X0430952Y0084566D01*
X0434487Y0081030D01*
X0438023Y0081030D01*
X0441558Y0084566D01*
X0441558Y0088101D01*
X0434487Y0081030D02*
X0434487Y0077494D01*
X0430952Y0073959D01*
X0427416Y0073959D01*
X0423881Y0077494D01*
X0423881Y0081030D01*
X0427416Y0084566D01*
X0430952Y0084566D01*
X0408224Y0083833D02*
X0405724Y0081333D01*
X0390724Y0081333D01*
X0388224Y0083833D01*
X0388224Y0088833D01*
X0390724Y0091333D01*
X0405724Y0091333D01*
X0408224Y0088833D01*
X0408224Y0083833D01*
X0405724Y0091333D02*
X0408224Y0093833D01*
X0408224Y0098833D01*
X0405724Y0101333D01*
X0390724Y0101333D01*
X0388224Y0103833D01*
X0388224Y0108833D01*
X0390724Y0111333D01*
X0405724Y0111333D01*
X0408224Y0108833D01*
X0408224Y0103833D01*
X0405724Y0101333D01*
X0405724Y0111333D02*
X0408224Y0113833D01*
X0408224Y0118833D01*
X0405724Y0121333D01*
X0390724Y0121333D01*
X0388224Y0123833D01*
X0388224Y0128833D01*
X0390724Y0131333D01*
X0405724Y0131333D01*
X0408224Y0128833D01*
X0408224Y0123833D01*
X0405724Y0121333D01*
X0405724Y0131333D02*
X0408224Y0133833D01*
X0408224Y0138833D01*
X0405724Y0141333D01*
X0390724Y0141333D01*
X0388224Y0143833D01*
X0388224Y0148833D01*
X0390724Y0151333D01*
X0405724Y0151333D01*
X0408224Y0148833D01*
X0408224Y0143833D01*
X0405724Y0141333D01*
X0405724Y0151333D02*
X0408224Y0153833D01*
X0408224Y0158833D01*
X0405724Y0161333D01*
X0390724Y0161333D01*
X0388224Y0163833D01*
X0388224Y0168833D01*
X0390724Y0171333D01*
X0405724Y0171333D01*
X0408224Y0168833D01*
X0408224Y0163833D01*
X0405724Y0161333D01*
X0405724Y0171333D02*
X0408224Y0173833D01*
X0408224Y0178833D01*
X0405724Y0181333D01*
X0390724Y0181333D01*
X0388224Y0183833D01*
X0388224Y0188833D01*
X0390724Y0191333D01*
X0405724Y0191333D01*
X0408224Y0188833D01*
X0408224Y0183833D01*
X0405724Y0181333D01*
X0405724Y0191333D02*
X0408224Y0193833D01*
X0408224Y0198833D01*
X0405724Y0201333D01*
X0390724Y0201333D01*
X0388224Y0203833D01*
X0388224Y0208833D01*
X0390724Y0211333D01*
X0405724Y0211333D01*
X0408224Y0208833D01*
X0408224Y0203833D01*
X0405724Y0201333D01*
X0405724Y0211333D02*
X0408224Y0213833D01*
X0408224Y0218833D01*
X0405724Y0221333D01*
X0390724Y0221333D01*
X0388224Y0218833D01*
X0388224Y0213833D01*
X0390724Y0211333D01*
X0390724Y0201333D02*
X0388224Y0198833D01*
X0388224Y0193833D01*
X0390724Y0191333D01*
X0390724Y0181333D02*
X0388224Y0178833D01*
X0388224Y0173833D01*
X0390724Y0171333D01*
X0390724Y0161333D02*
X0388224Y0158833D01*
X0388224Y0153833D01*
X0390724Y0151333D01*
X0390724Y0141333D02*
X0388224Y0138833D01*
X0388224Y0133833D01*
X0390724Y0131333D01*
X0390724Y0121333D02*
X0388224Y0118833D01*
X0388224Y0113833D01*
X0390724Y0111333D01*
X0390724Y0101333D02*
X0388224Y0098833D01*
X0388224Y0093833D01*
X0390724Y0091333D01*
X0376686Y0096971D02*
X0372416Y0092701D01*
X0372416Y0091633D01*
X0370241Y0091633D02*
X0365971Y0091633D01*
X0368106Y0091633D02*
X0368106Y0098039D01*
X0365971Y0095904D01*
X0363795Y0096971D02*
X0359525Y0092701D01*
X0360593Y0091633D01*
X0362728Y0091633D01*
X0363795Y0092701D01*
X0363795Y0096971D01*
X0362728Y0098039D01*
X0360593Y0098039D01*
X0359525Y0096971D01*
X0359525Y0092701D01*
X0357350Y0091633D02*
X0353080Y0091633D01*
X0357350Y0095904D01*
X0357350Y0096971D01*
X0356282Y0098039D01*
X0354147Y0098039D01*
X0353080Y0096971D01*
X0353312Y0102498D02*
X0352245Y0102498D01*
X0353312Y0102498D02*
X0354380Y0103566D01*
X0354380Y0108904D01*
X0350109Y0108904D02*
X0350109Y0105701D01*
X0351177Y0104633D01*
X0354380Y0104633D01*
X0347948Y0104633D02*
X0346880Y0105701D01*
X0346880Y0109971D01*
X0345812Y0108904D02*
X0347948Y0108904D01*
X0343637Y0107836D02*
X0343637Y0106768D01*
X0339367Y0106768D01*
X0339367Y0105701D02*
X0339367Y0107836D01*
X0340434Y0108904D01*
X0342570Y0108904D01*
X0343637Y0107836D01*
X0342570Y0104633D02*
X0340434Y0104633D01*
X0339367Y0105701D01*
X0337205Y0104633D02*
X0335070Y0104633D01*
X0336137Y0104633D02*
X0336137Y0108904D01*
X0335070Y0108904D01*
X0332895Y0108904D02*
X0329692Y0108904D01*
X0328624Y0107836D01*
X0328624Y0105701D01*
X0329692Y0104633D01*
X0332895Y0104633D01*
X0326449Y0105701D02*
X0326449Y0107836D01*
X0325382Y0108904D01*
X0323246Y0108904D01*
X0322179Y0107836D01*
X0322179Y0105701D01*
X0323246Y0104633D01*
X0325382Y0104633D01*
X0326449Y0105701D01*
X0320004Y0105701D02*
X0318936Y0104633D01*
X0316801Y0104633D01*
X0315733Y0105701D01*
X0316801Y0107836D02*
X0318936Y0107836D01*
X0320004Y0106768D01*
X0320004Y0105701D01*
X0316801Y0107836D02*
X0315733Y0108904D01*
X0315733Y0109971D01*
X0316801Y0111039D01*
X0318936Y0111039D01*
X0320004Y0109971D01*
X0318690Y0098039D02*
X0320825Y0095904D01*
X0320825Y0091633D01*
X0323001Y0091633D02*
X0323001Y0098039D01*
X0326203Y0098039D01*
X0327271Y0096971D01*
X0327271Y0094836D01*
X0326203Y0093768D01*
X0323001Y0093768D01*
X0320825Y0094836D02*
X0316555Y0094836D01*
X0316555Y0095904D02*
X0318690Y0098039D01*
X0316555Y0095904D02*
X0316555Y0091633D01*
X0316235Y0086333D02*
X0311235Y0086333D01*
X0308735Y0083833D01*
X0308735Y0078833D01*
X0311235Y0076333D01*
X0316235Y0076333D01*
X0318735Y0078833D01*
X0318735Y0083833D01*
X0316235Y0086333D01*
X0308735Y0083833D02*
X0306235Y0086333D01*
X0301235Y0086333D01*
X0298735Y0083833D01*
X0298735Y0078833D01*
X0301235Y0076333D01*
X0306235Y0076333D01*
X0308735Y0078833D01*
X0298735Y0078833D02*
X0296235Y0076333D01*
X0291235Y0076333D01*
X0288735Y0078833D01*
X0288735Y0083833D01*
X0291235Y0086333D01*
X0296235Y0086333D01*
X0298735Y0083833D01*
X0284830Y0091633D02*
X0280560Y0091633D01*
X0282695Y0091633D02*
X0282695Y0098039D01*
X0280560Y0095904D01*
X0278405Y0092701D02*
X0278405Y0091633D01*
X0277337Y0091633D01*
X0277337Y0092701D01*
X0278405Y0092701D01*
X0275162Y0091633D02*
X0270892Y0091633D01*
X0273027Y0091633D02*
X0273027Y0098039D01*
X0270892Y0095904D01*
X0268716Y0098039D02*
X0268716Y0093768D01*
X0266581Y0091633D01*
X0264446Y0093768D01*
X0264446Y0098039D01*
X0262271Y0098039D02*
X0258001Y0098039D01*
X0258001Y0091633D01*
X0262271Y0091633D01*
X0260136Y0094836D02*
X0258001Y0094836D01*
X0255825Y0094836D02*
X0254758Y0093768D01*
X0251555Y0093768D01*
X0251555Y0091633D02*
X0251555Y0098039D01*
X0254758Y0098039D01*
X0255825Y0096971D01*
X0255825Y0094836D01*
X0253690Y0093768D02*
X0255825Y0091633D01*
X0255562Y0104633D02*
X0255562Y0111039D01*
X0253427Y0111039D02*
X0257697Y0111039D01*
X0260940Y0108904D02*
X0263075Y0108904D01*
X0264143Y0107836D01*
X0264143Y0104633D01*
X0260940Y0104633D01*
X0259872Y0105701D01*
X0260940Y0106768D01*
X0264143Y0106768D01*
X0266318Y0104633D02*
X0266318Y0108904D01*
X0267385Y0108904D01*
X0268453Y0107836D01*
X0269521Y0108904D01*
X0270588Y0107836D01*
X0270588Y0104633D01*
X0268453Y0104633D02*
X0268453Y0107836D01*
X0272763Y0108904D02*
X0272763Y0102498D01*
X0272763Y0104633D02*
X0275966Y0104633D01*
X0277034Y0105701D01*
X0277034Y0107836D01*
X0275966Y0108904D01*
X0272763Y0108904D01*
X0279209Y0105701D02*
X0280276Y0106768D01*
X0283479Y0106768D01*
X0283479Y0107836D02*
X0283479Y0104633D01*
X0280276Y0104633D01*
X0279209Y0105701D01*
X0280276Y0108904D02*
X0282412Y0108904D01*
X0283479Y0107836D01*
X0292100Y0104633D02*
X0294235Y0104633D01*
X0293167Y0104633D02*
X0293167Y0111039D01*
X0292100Y0111039D02*
X0294235Y0111039D01*
X0296397Y0107836D02*
X0297464Y0108904D01*
X0299600Y0108904D01*
X0300667Y0107836D01*
X0300667Y0105701D01*
X0299600Y0104633D01*
X0297464Y0104633D01*
X0296397Y0105701D01*
X0296397Y0107836D01*
X0302842Y0111039D02*
X0307113Y0111039D01*
X0304978Y0111039D02*
X0304978Y0104633D01*
X0329446Y0098039D02*
X0329446Y0091633D01*
X0329446Y0093768D02*
X0332649Y0093768D01*
X0333716Y0094836D01*
X0333716Y0096971D01*
X0332649Y0098039D01*
X0329446Y0098039D01*
X0331581Y0093768D02*
X0333716Y0091633D01*
X0335892Y0091633D02*
X0338027Y0091633D01*
X0336959Y0091633D02*
X0336959Y0098039D01*
X0335892Y0098039D02*
X0338027Y0098039D01*
X0340189Y0098039D02*
X0340189Y0091633D01*
X0344459Y0091633D01*
X0336137Y0111039D02*
X0336137Y0112106D01*
X0372416Y0098039D02*
X0376686Y0098039D01*
X0376686Y0096971D01*
X0424052Y0139768D02*
X0427455Y0139768D01*
X0427455Y0140902D02*
X0427455Y0138633D01*
X0425186Y0138633D02*
X0424052Y0139768D01*
X0424052Y0142316D02*
X0427455Y0142316D01*
X0426321Y0142316D02*
X0424052Y0144585D01*
X0425754Y0142884D02*
X0427455Y0144585D01*
X0438742Y0142704D02*
X0438742Y0139367D01*
X0439576Y0138533D01*
X0441244Y0138533D01*
X0442078Y0139367D01*
X0442078Y0142704D01*
X0441244Y0143538D01*
X0439576Y0143538D01*
X0438742Y0142704D01*
X0440410Y0140201D02*
X0442078Y0138533D01*
X0443899Y0138533D02*
X0447235Y0138533D01*
X0445567Y0138533D02*
X0445567Y0143538D01*
X0443899Y0141870D01*
X0443755Y0166333D02*
X0438755Y0166333D01*
X0436255Y0168833D01*
X0436255Y0173833D01*
X0438755Y0176333D01*
X0436255Y0178833D01*
X0436255Y0183833D01*
X0438755Y0186333D01*
X0436255Y0188833D01*
X0436255Y0193833D01*
X0438755Y0196333D01*
X0443755Y0196333D01*
X0446255Y0193833D01*
X0446255Y0188833D01*
X0443755Y0186333D01*
X0446255Y0183833D01*
X0446255Y0178833D01*
X0443755Y0176333D01*
X0446255Y0173833D01*
X0446255Y0168833D01*
X0443755Y0166333D01*
X0443755Y0176333D02*
X0438755Y0176333D01*
X0438755Y0186333D02*
X0443755Y0186333D01*
X0443755Y0206333D02*
X0438755Y0206333D01*
X0436255Y0208833D01*
X0436255Y0213833D01*
X0438755Y0216333D01*
X0436255Y0218833D01*
X0436255Y0223833D01*
X0438755Y0226333D01*
X0436255Y0228833D01*
X0436255Y0233833D01*
X0438755Y0236333D01*
X0436255Y0238833D01*
X0436255Y0243833D01*
X0438755Y0246333D01*
X0443755Y0246333D01*
X0446255Y0243833D01*
X0446255Y0238833D01*
X0443755Y0236333D01*
X0446255Y0233833D01*
X0446255Y0228833D01*
X0443755Y0226333D01*
X0438755Y0226333D01*
X0443755Y0226333D02*
X0446255Y0223833D01*
X0446255Y0218833D01*
X0443755Y0216333D01*
X0446255Y0213833D01*
X0446255Y0208833D01*
X0443755Y0206333D01*
X0443755Y0216333D02*
X0438755Y0216333D01*
X0438755Y0236333D02*
X0443755Y0236333D01*
X0445094Y0258959D02*
X0441558Y0258959D01*
X0438023Y0262494D01*
X0438023Y0266030D01*
X0434487Y0266030D01*
X0430952Y0269566D01*
X0430952Y0273101D01*
X0427416Y0273101D01*
X0423881Y0276637D01*
X0423881Y0280172D01*
X0427416Y0283708D01*
X0430952Y0283708D01*
X0434487Y0280172D01*
X0434487Y0276637D01*
X0438023Y0276637D01*
X0441558Y0273101D01*
X0441558Y0269566D01*
X0445094Y0269566D01*
X0448629Y0266030D01*
X0448629Y0262494D01*
X0445094Y0258959D01*
X0438023Y0266030D02*
X0441558Y0269566D01*
X0434487Y0276637D02*
X0430952Y0273101D01*
X0408224Y0273833D02*
X0405724Y0271333D01*
X0390724Y0271333D01*
X0388224Y0268833D01*
X0388224Y0263833D01*
X0390724Y0261333D01*
X0405724Y0261333D01*
X0408224Y0258833D01*
X0408224Y0253833D01*
X0405724Y0251333D01*
X0390724Y0251333D01*
X0388224Y0248833D01*
X0388224Y0243833D01*
X0390724Y0241333D01*
X0405724Y0241333D01*
X0408224Y0238833D01*
X0408224Y0233833D01*
X0405724Y0231333D01*
X0390724Y0231333D01*
X0388224Y0228833D01*
X0388224Y0223833D01*
X0390724Y0221333D01*
X0390724Y0231333D02*
X0388224Y0233833D01*
X0388224Y0238833D01*
X0390724Y0241333D01*
X0390724Y0251333D02*
X0388224Y0253833D01*
X0388224Y0258833D01*
X0390724Y0261333D01*
X0390724Y0271333D02*
X0388224Y0273833D01*
X0388224Y0278833D01*
X0390724Y0281333D01*
X0405724Y0281333D01*
X0408224Y0278833D01*
X0408224Y0273833D01*
X0405724Y0271333D02*
X0408224Y0268833D01*
X0408224Y0263833D01*
X0405724Y0261333D01*
X0405724Y0251333D02*
X0408224Y0248833D01*
X0408224Y0243833D01*
X0405724Y0241333D01*
X0405724Y0231333D02*
X0408224Y0228833D01*
X0408224Y0223833D01*
X0405724Y0221333D01*
X0318735Y0278833D02*
X0318735Y0283833D01*
X0316235Y0286333D01*
X0311235Y0286333D01*
X0308735Y0283833D01*
X0306235Y0286333D01*
X0301235Y0286333D01*
X0298735Y0283833D01*
X0296235Y0286333D01*
X0291235Y0286333D01*
X0288735Y0283833D01*
X0288735Y0278833D01*
X0291235Y0276333D01*
X0296235Y0276333D01*
X0298735Y0278833D01*
X0298735Y0283833D01*
X0308735Y0283833D02*
X0308735Y0278833D01*
X0306235Y0276333D01*
X0301235Y0276333D01*
X0298735Y0278833D01*
X0308735Y0278833D02*
X0311235Y0276333D01*
X0316235Y0276333D01*
X0318735Y0278833D01*
X0261255Y0278833D02*
X0258755Y0276333D01*
X0253755Y0276333D01*
X0251255Y0278833D01*
X0248755Y0276333D01*
X0243755Y0276333D01*
X0241255Y0278833D01*
X0238755Y0276333D01*
X0233755Y0276333D01*
X0231255Y0278833D01*
X0228755Y0276333D01*
X0223755Y0276333D01*
X0221255Y0278833D01*
X0218755Y0276333D01*
X0213755Y0276333D01*
X0211255Y0278833D01*
X0208755Y0276333D01*
X0203755Y0276333D01*
X0201255Y0278833D01*
X0198755Y0276333D01*
X0193755Y0276333D01*
X0191255Y0278833D01*
X0191255Y0283833D01*
X0193755Y0286333D01*
X0198755Y0286333D01*
X0201255Y0283833D01*
X0203755Y0286333D01*
X0208755Y0286333D01*
X0211255Y0283833D01*
X0211255Y0278833D01*
X0212246Y0273838D02*
X0211411Y0273004D01*
X0211411Y0269667D01*
X0212246Y0268833D01*
X0213914Y0268833D01*
X0214748Y0269667D01*
X0214748Y0273004D01*
X0213914Y0273838D01*
X0212246Y0273838D01*
X0209591Y0273004D02*
X0208757Y0273838D01*
X0207089Y0273838D01*
X0206255Y0273004D01*
X0206255Y0269667D01*
X0207089Y0268833D01*
X0208757Y0268833D01*
X0209591Y0269667D01*
X0216568Y0268833D02*
X0216568Y0273838D01*
X0218236Y0272170D01*
X0219904Y0273838D01*
X0219904Y0268833D01*
X0221724Y0268833D02*
X0221724Y0273838D01*
X0224226Y0273838D01*
X0225060Y0273004D01*
X0225060Y0271335D01*
X0224226Y0270501D01*
X0221724Y0270501D01*
X0226881Y0271335D02*
X0230217Y0271335D01*
X0230217Y0272170D02*
X0230217Y0268833D01*
X0232037Y0269667D02*
X0232871Y0268833D01*
X0234539Y0268833D01*
X0235373Y0269667D01*
X0235373Y0270501D01*
X0234539Y0271335D01*
X0232871Y0271335D01*
X0232037Y0272170D01*
X0232037Y0273004D01*
X0232871Y0273838D01*
X0234539Y0273838D01*
X0235373Y0273004D01*
X0237193Y0273004D02*
X0237193Y0272170D01*
X0238027Y0271335D01*
X0239696Y0271335D01*
X0240530Y0270501D01*
X0240530Y0269667D01*
X0239696Y0268833D01*
X0238027Y0268833D01*
X0237193Y0269667D01*
X0237193Y0273004D02*
X0238027Y0273838D01*
X0239696Y0273838D01*
X0240530Y0273004D01*
X0241255Y0278833D02*
X0241255Y0283833D01*
X0238755Y0286333D01*
X0233755Y0286333D01*
X0231255Y0283833D01*
X0231255Y0278833D01*
X0228549Y0273838D02*
X0230217Y0272170D01*
X0228549Y0273838D02*
X0226881Y0272170D01*
X0226881Y0268833D01*
X0221255Y0278833D02*
X0221255Y0283833D01*
X0223755Y0286333D01*
X0228755Y0286333D01*
X0231255Y0283833D01*
X0221255Y0283833D02*
X0218755Y0286333D01*
X0213755Y0286333D01*
X0211255Y0283833D01*
X0201255Y0283833D02*
X0201255Y0278833D01*
X0183629Y0280172D02*
X0183629Y0276637D01*
X0180094Y0273101D01*
X0176558Y0273101D01*
X0176558Y0269566D01*
X0173023Y0266030D01*
X0169487Y0266030D01*
X0169487Y0262494D01*
X0165952Y0258959D01*
X0162416Y0258959D01*
X0158881Y0262494D01*
X0158881Y0266030D01*
X0162416Y0269566D01*
X0165952Y0269566D01*
X0165952Y0273101D01*
X0169487Y0276637D01*
X0173023Y0276637D01*
X0173023Y0280172D01*
X0176558Y0283708D01*
X0180094Y0283708D01*
X0183629Y0280172D01*
X0176558Y0273101D02*
X0173023Y0276637D01*
X0165952Y0269566D02*
X0169487Y0266030D01*
X0173755Y0226333D02*
X0178755Y0226333D01*
X0181255Y0223833D01*
X0183755Y0226333D01*
X0188755Y0226333D01*
X0191255Y0223833D01*
X0193755Y0226333D01*
X0198755Y0226333D01*
X0201255Y0223833D01*
X0203755Y0226333D01*
X0208755Y0226333D01*
X0211255Y0223833D01*
X0211255Y0218833D01*
X0208755Y0216333D01*
X0203755Y0216333D01*
X0201255Y0218833D01*
X0198755Y0216333D01*
X0193755Y0216333D01*
X0191255Y0218833D01*
X0191255Y0223833D01*
X0191255Y0218833D02*
X0188755Y0216333D01*
X0183755Y0216333D01*
X0181255Y0218833D01*
X0178755Y0216333D01*
X0173755Y0216333D01*
X0171255Y0218833D01*
X0171255Y0223833D01*
X0173755Y0226333D01*
X0181255Y0223833D02*
X0181255Y0218833D01*
X0178755Y0211333D02*
X0173755Y0211333D01*
X0171255Y0208833D01*
X0171255Y0203833D01*
X0173755Y0201333D01*
X0178755Y0201333D01*
X0181255Y0203833D01*
X0181255Y0208833D01*
X0178755Y0211333D01*
X0181255Y0208833D02*
X0183755Y0211333D01*
X0188755Y0211333D01*
X0191255Y0208833D01*
X0193755Y0211333D01*
X0198755Y0211333D01*
X0201255Y0208833D01*
X0203755Y0211333D01*
X0208755Y0211333D01*
X0211255Y0208833D01*
X0211255Y0203833D01*
X0208755Y0201333D01*
X0203755Y0201333D01*
X0201255Y0203833D01*
X0198755Y0201333D01*
X0193755Y0201333D01*
X0191255Y0203833D01*
X0191255Y0208833D01*
X0191255Y0203833D02*
X0188755Y0201333D01*
X0183755Y0201333D01*
X0181255Y0203833D01*
X0201255Y0203833D02*
X0201255Y0208833D01*
X0201255Y0218833D02*
X0201255Y0223833D01*
X0166255Y0188833D02*
X0163755Y0191333D01*
X0158755Y0191333D01*
X0156255Y0188833D01*
X0156255Y0183833D01*
X0158755Y0181333D01*
X0156255Y0178833D01*
X0156255Y0173833D01*
X0158755Y0171333D01*
X0156255Y0168833D01*
X0156255Y0163833D01*
X0158755Y0161333D01*
X0163755Y0161333D01*
X0166255Y0163833D01*
X0166255Y0168833D01*
X0163755Y0171333D01*
X0158755Y0171333D01*
X0163755Y0171333D02*
X0166255Y0173833D01*
X0166255Y0178833D01*
X0163755Y0181333D01*
X0158755Y0181333D01*
X0163755Y0181333D02*
X0166255Y0183833D01*
X0166255Y0188833D01*
X0206255Y0173833D02*
X0206255Y0168833D01*
X0208755Y0166333D01*
X0213755Y0166333D01*
X0216255Y0168833D01*
X0218755Y0166333D01*
X0223755Y0166333D01*
X0226255Y0168833D01*
X0228755Y0166333D01*
X0233755Y0166333D01*
X0236255Y0168833D01*
X0236255Y0173833D01*
X0233755Y0176333D01*
X0228755Y0176333D01*
X0226255Y0173833D01*
X0226255Y0168833D01*
X0226255Y0173833D02*
X0223755Y0176333D01*
X0218755Y0176333D01*
X0216255Y0173833D01*
X0216255Y0168833D01*
X0216255Y0173833D02*
X0213755Y0176333D01*
X0208755Y0176333D01*
X0206255Y0173833D01*
X0208755Y0156333D02*
X0206255Y0153833D01*
X0206255Y0148833D01*
X0208755Y0146333D01*
X0213755Y0146333D01*
X0216255Y0148833D01*
X0218755Y0146333D01*
X0223755Y0146333D01*
X0226255Y0148833D01*
X0228755Y0146333D01*
X0233755Y0146333D01*
X0236255Y0148833D01*
X0236255Y0153833D01*
X0233755Y0156333D01*
X0228755Y0156333D01*
X0226255Y0153833D01*
X0226255Y0148833D01*
X0226255Y0153833D02*
X0223755Y0156333D01*
X0218755Y0156333D01*
X0216255Y0153833D01*
X0216255Y0148833D01*
X0216255Y0153833D02*
X0213755Y0156333D01*
X0208755Y0156333D01*
X0208755Y0136333D02*
X0206255Y0133833D01*
X0206255Y0128833D01*
X0208755Y0126333D01*
X0213755Y0126333D01*
X0216255Y0128833D01*
X0218755Y0126333D01*
X0223755Y0126333D01*
X0226255Y0128833D01*
X0228755Y0126333D01*
X0233755Y0126333D01*
X0236255Y0128833D01*
X0236255Y0133833D01*
X0233755Y0136333D01*
X0228755Y0136333D01*
X0226255Y0133833D01*
X0226255Y0128833D01*
X0226255Y0133833D02*
X0223755Y0136333D01*
X0218755Y0136333D01*
X0216255Y0133833D01*
X0216255Y0128833D01*
X0216255Y0133833D02*
X0213755Y0136333D01*
X0208755Y0136333D01*
X0208755Y0116333D02*
X0206255Y0113833D01*
X0206255Y0108833D01*
X0208755Y0106333D01*
X0213755Y0106333D01*
X0216255Y0108833D01*
X0218755Y0106333D01*
X0223755Y0106333D01*
X0226255Y0108833D01*
X0228755Y0106333D01*
X0233755Y0106333D01*
X0236255Y0108833D01*
X0236255Y0113833D01*
X0233755Y0116333D01*
X0228755Y0116333D01*
X0226255Y0113833D01*
X0226255Y0108833D01*
X0226255Y0113833D02*
X0223755Y0116333D01*
X0218755Y0116333D01*
X0216255Y0113833D01*
X0216255Y0108833D01*
X0216255Y0113833D02*
X0213755Y0116333D01*
X0208755Y0116333D01*
X0192235Y0116870D02*
X0191401Y0116035D01*
X0192235Y0115201D01*
X0192235Y0114367D01*
X0191401Y0113533D01*
X0189733Y0113533D01*
X0188899Y0114367D01*
X0187078Y0114367D02*
X0186244Y0113533D01*
X0184576Y0113533D01*
X0183742Y0114367D01*
X0183742Y0117704D01*
X0184576Y0118538D01*
X0186244Y0118538D01*
X0187078Y0117704D01*
X0187078Y0114367D01*
X0187078Y0113533D02*
X0185410Y0115201D01*
X0188899Y0117704D02*
X0189733Y0118538D01*
X0191401Y0118538D01*
X0192235Y0117704D01*
X0192235Y0116870D01*
X0191401Y0116035D02*
X0190567Y0116035D01*
X0169487Y0095172D02*
X0165952Y0098708D01*
X0162416Y0098708D01*
X0158881Y0095172D01*
X0158881Y0091637D01*
X0162416Y0088101D01*
X0165952Y0088101D01*
X0165952Y0084566D01*
X0169487Y0081030D01*
X0173023Y0081030D01*
X0173023Y0077494D01*
X0176558Y0073959D01*
X0180094Y0073959D01*
X0183629Y0077494D01*
X0183629Y0081030D01*
X0180094Y0084566D01*
X0176558Y0084566D01*
X0173023Y0081030D01*
X0176558Y0084566D02*
X0176558Y0088101D01*
X0173023Y0091637D01*
X0169487Y0091637D01*
X0165952Y0088101D01*
X0169487Y0091637D02*
X0169487Y0095172D01*
X0218555Y0095133D02*
X0220824Y0095133D01*
X0219689Y0095133D02*
X0219689Y0098536D01*
X0218555Y0097402D01*
X0222238Y0098536D02*
X0222238Y0095133D01*
X0222238Y0096268D02*
X0224507Y0098536D01*
X0222805Y0096835D02*
X0224507Y0095133D01*
X0251255Y0278833D02*
X0251255Y0283833D01*
X0253755Y0286333D01*
X0258755Y0286333D01*
X0261255Y0283833D01*
X0261255Y0278833D01*
X0251255Y0283833D02*
X0248755Y0286333D01*
X0243755Y0286333D01*
X0241255Y0283833D01*
D12*
X0411455Y0231738D02*
X0414925Y0231738D01*
X0416611Y0231738D02*
X0420081Y0226533D01*
X0416611Y0226533D02*
X0420081Y0231738D01*
X0422479Y0236533D02*
X0421611Y0237401D01*
X0422479Y0236533D02*
X0424214Y0236533D01*
X0425081Y0237401D01*
X0425081Y0239136D01*
X0424214Y0240003D01*
X0423346Y0240003D01*
X0421611Y0239136D01*
X0421611Y0241738D01*
X0425081Y0241738D01*
X0426768Y0241738D02*
X0426768Y0238268D01*
X0428503Y0236533D01*
X0430237Y0238268D01*
X0430237Y0241738D01*
X0426924Y0231738D02*
X0430394Y0229136D01*
X0426924Y0226533D01*
X0430394Y0221738D02*
X0426924Y0219136D01*
X0430394Y0216533D01*
X0429370Y0211738D02*
X0426768Y0211738D01*
X0426768Y0206533D01*
X0429370Y0206533D01*
X0430237Y0207401D01*
X0430237Y0210870D01*
X0429370Y0211738D01*
X0425081Y0211738D02*
X0425081Y0206533D01*
X0421611Y0211738D01*
X0421611Y0206533D01*
X0419925Y0207401D02*
X0419925Y0209136D01*
X0418190Y0209136D01*
X0419925Y0210870D02*
X0419057Y0211738D01*
X0417322Y0211738D01*
X0416455Y0210870D01*
X0416455Y0207401D01*
X0417322Y0206533D01*
X0419057Y0206533D01*
X0419925Y0207401D01*
X0420081Y0216533D02*
X0416611Y0221738D01*
X0414925Y0220870D02*
X0414925Y0219136D01*
X0414057Y0218268D01*
X0411455Y0218268D01*
X0411455Y0216533D02*
X0411455Y0221738D01*
X0414057Y0221738D01*
X0414925Y0220870D01*
X0413190Y0218268D02*
X0414925Y0216533D01*
X0416611Y0216533D02*
X0420081Y0221738D01*
X0413190Y0226533D02*
X0413190Y0231738D01*
X0418190Y0237401D02*
X0418190Y0240870D01*
X0416455Y0239136D02*
X0419925Y0239136D01*
X0431142Y0156138D02*
X0433744Y0156138D01*
X0434612Y0155270D01*
X0434612Y0153536D01*
X0433744Y0152668D01*
X0431142Y0152668D01*
X0431142Y0150933D02*
X0431142Y0156138D01*
X0432877Y0152668D02*
X0434612Y0150933D01*
X0436299Y0150933D02*
X0439768Y0150933D01*
X0438033Y0150933D02*
X0438033Y0156138D01*
X0436299Y0154403D01*
X0275241Y0071738D02*
X0271771Y0071738D01*
X0273506Y0071738D02*
X0273506Y0066533D01*
X0270084Y0067401D02*
X0270084Y0069136D01*
X0269217Y0070003D01*
X0267482Y0070003D01*
X0266615Y0069136D01*
X0266615Y0067401D01*
X0267482Y0066533D01*
X0269217Y0066533D01*
X0270084Y0067401D01*
X0264912Y0066533D02*
X0263177Y0066533D01*
X0264044Y0066533D02*
X0264044Y0071738D01*
X0263177Y0071738D02*
X0264912Y0071738D01*
X0261490Y0069136D02*
X0260623Y0070003D01*
X0258888Y0070003D01*
X0258888Y0068268D02*
X0261490Y0068268D01*
X0261490Y0069136D02*
X0261490Y0066533D01*
X0258888Y0066533D01*
X0258021Y0067401D01*
X0258888Y0068268D01*
X0256334Y0067401D02*
X0255466Y0066533D01*
X0252864Y0066533D01*
X0251177Y0066533D02*
X0251177Y0069136D01*
X0250310Y0070003D01*
X0249443Y0069136D01*
X0249443Y0066533D01*
X0247708Y0066533D02*
X0247708Y0070003D01*
X0248575Y0070003D01*
X0249443Y0069136D01*
X0246021Y0069136D02*
X0246021Y0066533D01*
X0243419Y0066533D01*
X0242551Y0067401D01*
X0243419Y0068268D01*
X0246021Y0068268D01*
X0246021Y0069136D02*
X0245154Y0070003D01*
X0243419Y0070003D01*
X0240865Y0071738D02*
X0237395Y0071738D01*
X0235708Y0071738D02*
X0232239Y0066533D01*
X0230552Y0066533D02*
X0230552Y0069136D01*
X0229684Y0070003D01*
X0228817Y0069136D01*
X0228817Y0066533D01*
X0227082Y0066533D02*
X0227082Y0070003D01*
X0227950Y0070003D01*
X0228817Y0069136D01*
X0225395Y0069136D02*
X0224528Y0070003D01*
X0222793Y0070003D01*
X0221926Y0069136D01*
X0221926Y0067401D01*
X0222793Y0066533D01*
X0224528Y0066533D01*
X0225395Y0067401D01*
X0225395Y0069136D01*
X0220239Y0070003D02*
X0217637Y0070003D01*
X0216769Y0069136D01*
X0216769Y0067401D01*
X0217637Y0066533D01*
X0220239Y0066533D01*
X0215059Y0066533D02*
X0215059Y0067401D01*
X0214191Y0067401D01*
X0214191Y0066533D01*
X0215059Y0066533D01*
X0212504Y0067401D02*
X0212504Y0069136D01*
X0211637Y0070003D01*
X0209035Y0070003D01*
X0207348Y0070003D02*
X0207348Y0066533D01*
X0204746Y0066533D01*
X0203878Y0067401D01*
X0203878Y0070003D01*
X0202192Y0069136D02*
X0198722Y0069136D01*
X0197019Y0070003D02*
X0195284Y0070003D01*
X0196152Y0070870D02*
X0196152Y0067401D01*
X0197019Y0066533D01*
X0198722Y0066533D02*
X0198722Y0071738D01*
X0202192Y0071738D02*
X0202192Y0066533D01*
X0193582Y0066533D02*
X0191847Y0066533D01*
X0192714Y0066533D02*
X0192714Y0070003D01*
X0191847Y0070003D01*
X0190160Y0070870D02*
X0189293Y0071738D01*
X0187558Y0071738D01*
X0186690Y0070870D01*
X0186690Y0067401D01*
X0187558Y0066533D01*
X0189293Y0066533D01*
X0190160Y0067401D01*
X0190160Y0069136D01*
X0188425Y0069136D01*
X0185004Y0071738D02*
X0181534Y0066533D01*
X0176378Y0066533D02*
X0179847Y0071738D01*
X0174667Y0070003D02*
X0174667Y0069136D01*
X0173799Y0069136D01*
X0173799Y0070003D01*
X0174667Y0070003D01*
X0172113Y0070003D02*
X0169510Y0070003D01*
X0168643Y0069136D01*
X0169510Y0068268D01*
X0171245Y0068268D01*
X0172113Y0067401D01*
X0171245Y0066533D01*
X0168643Y0066533D01*
X0166956Y0067401D02*
X0166089Y0066533D01*
X0163487Y0066533D01*
X0161784Y0066533D02*
X0160916Y0067401D01*
X0160916Y0070870D01*
X0160049Y0070003D02*
X0161784Y0070003D01*
X0163487Y0070003D02*
X0166089Y0070003D01*
X0166956Y0069136D01*
X0166956Y0067401D01*
X0163487Y0064799D02*
X0163487Y0070003D01*
X0158346Y0070003D02*
X0156611Y0070003D01*
X0157479Y0070870D02*
X0157479Y0067401D01*
X0158346Y0066533D01*
X0154925Y0066533D02*
X0154925Y0069136D01*
X0154057Y0070003D01*
X0152322Y0070003D01*
X0151455Y0069136D01*
X0151455Y0071738D02*
X0151455Y0066533D01*
X0173799Y0066533D02*
X0173799Y0067401D01*
X0174667Y0067401D01*
X0174667Y0066533D01*
X0173799Y0066533D01*
X0192714Y0071738D02*
X0192714Y0072605D01*
X0209035Y0071738D02*
X0209035Y0066533D01*
X0211637Y0066533D01*
X0212504Y0067401D01*
X0221455Y0086533D02*
X0221455Y0091738D01*
X0224057Y0091738D01*
X0224925Y0090870D01*
X0224925Y0089136D01*
X0224057Y0088268D01*
X0221455Y0088268D01*
X0223190Y0088268D02*
X0224925Y0086533D01*
X0226611Y0087401D02*
X0227479Y0086533D01*
X0229214Y0086533D01*
X0230081Y0087401D01*
X0230081Y0089136D01*
X0229214Y0090003D01*
X0228346Y0090003D01*
X0226611Y0089136D01*
X0226611Y0091738D01*
X0230081Y0091738D01*
X0239130Y0071738D02*
X0239130Y0066533D01*
X0252864Y0064799D02*
X0252864Y0070003D01*
X0255466Y0070003D01*
X0256334Y0069136D01*
X0256334Y0067401D01*
D13*
X0293685Y0093783D02*
X0293685Y0098287D01*
X0295937Y0098287D01*
X0296688Y0097537D01*
X0296688Y0096035D01*
X0295937Y0095285D01*
X0293685Y0095285D01*
X0295187Y0095285D02*
X0296688Y0093783D01*
X0298289Y0093783D02*
X0301292Y0093783D01*
X0302893Y0093783D02*
X0302893Y0096786D01*
X0304395Y0098287D01*
X0305896Y0096786D01*
X0305896Y0093783D01*
X0307497Y0093783D02*
X0307497Y0098287D01*
X0309749Y0098287D01*
X0310500Y0097537D01*
X0310500Y0096035D01*
X0309749Y0095285D01*
X0307497Y0095285D01*
X0308998Y0095285D02*
X0310500Y0093783D01*
X0305896Y0096035D02*
X0302893Y0096035D01*
X0301292Y0098287D02*
X0298289Y0098287D01*
X0298289Y0093783D01*
X0298289Y0096035D02*
X0299791Y0096035D01*
X0230693Y0119534D02*
X0229942Y0118783D01*
X0228441Y0118783D01*
X0227690Y0119534D01*
X0228441Y0121035D02*
X0230693Y0121035D01*
X0230693Y0119534D02*
X0230693Y0122537D01*
X0229942Y0123287D01*
X0228441Y0123287D01*
X0227690Y0122537D01*
X0227690Y0121786D01*
X0228441Y0121035D01*
X0226089Y0118783D02*
X0223086Y0118783D01*
X0224587Y0118783D02*
X0224587Y0123287D01*
X0223086Y0121786D01*
X0221485Y0122537D02*
X0220734Y0123287D01*
X0219233Y0123287D01*
X0218482Y0122537D01*
X0218482Y0119534D01*
X0219233Y0118783D01*
X0220734Y0118783D01*
X0221485Y0119534D01*
X0221485Y0122537D01*
X0216914Y0123287D02*
X0215413Y0123287D01*
X0216164Y0123287D02*
X0216164Y0118783D01*
X0216914Y0118783D02*
X0215413Y0118783D01*
X0213812Y0121035D02*
X0213061Y0120285D01*
X0210809Y0120285D01*
X0210809Y0118783D02*
X0210809Y0123287D01*
X0213061Y0123287D01*
X0213812Y0122537D01*
X0213812Y0121035D01*
X0209208Y0121035D02*
X0207706Y0121035D01*
X0209208Y0121035D02*
X0209208Y0119534D01*
X0208457Y0118783D01*
X0206956Y0118783D01*
X0206205Y0119534D01*
X0206205Y0122537D01*
X0206956Y0123287D01*
X0208457Y0123287D01*
X0209208Y0122537D01*
X0208457Y0138783D02*
X0206956Y0138783D01*
X0206205Y0139534D01*
X0206205Y0142537D01*
X0206956Y0143287D01*
X0208457Y0143287D01*
X0209208Y0142537D01*
X0209208Y0141035D02*
X0207706Y0141035D01*
X0209208Y0141035D02*
X0209208Y0139534D01*
X0208457Y0138783D01*
X0210809Y0138783D02*
X0210809Y0143287D01*
X0213061Y0143287D01*
X0213812Y0142537D01*
X0213812Y0141035D01*
X0213061Y0140285D01*
X0210809Y0140285D01*
X0215413Y0138783D02*
X0216914Y0138783D01*
X0216164Y0138783D02*
X0216164Y0143287D01*
X0216914Y0143287D02*
X0215413Y0143287D01*
X0218482Y0142537D02*
X0218482Y0139534D01*
X0219233Y0138783D01*
X0220734Y0138783D01*
X0221485Y0139534D01*
X0221485Y0142537D01*
X0220734Y0143287D01*
X0219233Y0143287D01*
X0218482Y0142537D01*
X0223086Y0141786D02*
X0224587Y0143287D01*
X0224587Y0138783D01*
X0223086Y0138783D02*
X0226089Y0138783D01*
X0227690Y0139534D02*
X0228441Y0138783D01*
X0229942Y0138783D01*
X0230693Y0139534D01*
X0230693Y0140285D01*
X0229942Y0141035D01*
X0229191Y0141035D01*
X0229942Y0141035D02*
X0230693Y0141786D01*
X0230693Y0142537D01*
X0229942Y0143287D01*
X0228441Y0143287D01*
X0227690Y0142537D01*
X0225338Y0158783D02*
X0223837Y0158783D01*
X0223086Y0159534D01*
X0223086Y0161035D01*
X0225338Y0161035D01*
X0226089Y0160285D01*
X0226089Y0159534D01*
X0225338Y0158783D01*
X0223086Y0161035D02*
X0224587Y0162537D01*
X0226089Y0163287D01*
X0221485Y0162537D02*
X0221485Y0159534D01*
X0220734Y0158783D01*
X0219233Y0158783D01*
X0218482Y0159534D01*
X0218482Y0162537D01*
X0219233Y0163287D01*
X0220734Y0163287D01*
X0221485Y0162537D01*
X0216914Y0163287D02*
X0215413Y0163287D01*
X0216164Y0163287D02*
X0216164Y0158783D01*
X0216914Y0158783D02*
X0215413Y0158783D01*
X0213812Y0161035D02*
X0213061Y0160285D01*
X0210809Y0160285D01*
X0210809Y0158783D02*
X0210809Y0163287D01*
X0213061Y0163287D01*
X0213812Y0162537D01*
X0213812Y0161035D01*
X0209208Y0161035D02*
X0209208Y0159534D01*
X0208457Y0158783D01*
X0206956Y0158783D01*
X0206205Y0159534D01*
X0206205Y0162537D01*
X0206956Y0163287D01*
X0208457Y0163287D01*
X0209208Y0162537D01*
X0209208Y0161035D02*
X0207706Y0161035D01*
X0206956Y0178783D02*
X0208457Y0178783D01*
X0209208Y0179534D01*
X0209208Y0181035D01*
X0207706Y0181035D01*
X0206205Y0179534D02*
X0206956Y0178783D01*
X0206205Y0179534D02*
X0206205Y0182537D01*
X0206956Y0183287D01*
X0208457Y0183287D01*
X0209208Y0182537D01*
X0210809Y0183287D02*
X0210809Y0178783D01*
X0210809Y0180285D02*
X0213061Y0180285D01*
X0213812Y0181035D01*
X0213812Y0182537D01*
X0213061Y0183287D01*
X0210809Y0183287D01*
X0215413Y0183287D02*
X0216914Y0183287D01*
X0216164Y0183287D02*
X0216164Y0178783D01*
X0216914Y0178783D02*
X0215413Y0178783D01*
X0218482Y0179534D02*
X0219233Y0178783D01*
X0220734Y0178783D01*
X0221485Y0179534D01*
X0221485Y0182537D01*
X0220734Y0183287D01*
X0219233Y0183287D01*
X0218482Y0182537D01*
X0218482Y0179534D01*
X0223086Y0179534D02*
X0223837Y0178783D01*
X0225338Y0178783D01*
X0226089Y0179534D01*
X0226089Y0181035D01*
X0225338Y0181786D01*
X0224587Y0181786D01*
X0223086Y0181035D01*
X0223086Y0183287D01*
X0226089Y0183287D01*
X0227597Y0203633D02*
X0230600Y0203633D01*
X0232201Y0204383D02*
X0235204Y0207386D01*
X0235204Y0208137D01*
X0234453Y0208887D01*
X0232952Y0208887D01*
X0232201Y0208137D01*
X0232201Y0204383D02*
X0235204Y0204383D01*
X0225996Y0205134D02*
X0225245Y0204383D01*
X0223744Y0204383D01*
X0222993Y0205134D01*
X0222993Y0208137D01*
X0223744Y0208887D01*
X0225245Y0208887D01*
X0225996Y0208137D01*
X0221392Y0208137D02*
X0220641Y0208887D01*
X0219140Y0208887D01*
X0218389Y0208137D01*
X0216821Y0208887D02*
X0215320Y0208887D01*
X0216071Y0208887D02*
X0216071Y0204383D01*
X0216821Y0204383D02*
X0215320Y0204383D01*
X0218389Y0204383D02*
X0221392Y0207386D01*
X0221392Y0208137D01*
X0221392Y0204383D02*
X0218389Y0204383D01*
X0218389Y0219383D02*
X0221392Y0222386D01*
X0221392Y0223137D01*
X0220641Y0223887D01*
X0219140Y0223887D01*
X0218389Y0223137D01*
X0216821Y0223887D02*
X0215320Y0223887D01*
X0216071Y0223887D02*
X0216071Y0219383D01*
X0216821Y0219383D02*
X0215320Y0219383D01*
X0218389Y0219383D02*
X0221392Y0219383D01*
X0222993Y0220134D02*
X0223744Y0219383D01*
X0225245Y0219383D01*
X0225996Y0220134D01*
X0227597Y0218633D02*
X0230600Y0218633D01*
X0232201Y0220134D02*
X0232952Y0219383D01*
X0234453Y0219383D01*
X0235204Y0220134D01*
X0235204Y0220885D01*
X0234453Y0221635D01*
X0233702Y0221635D01*
X0234453Y0221635D02*
X0235204Y0222386D01*
X0235204Y0223137D01*
X0234453Y0223887D01*
X0232952Y0223887D01*
X0232201Y0223137D01*
X0225996Y0223137D02*
X0225245Y0223887D01*
X0223744Y0223887D01*
X0222993Y0223137D01*
X0222993Y0220134D01*
X0173205Y0183781D02*
X0168701Y0183781D01*
X0168701Y0185282D02*
X0168701Y0182279D01*
X0168701Y0180678D02*
X0168701Y0177675D01*
X0173205Y0177675D01*
X0173205Y0176074D02*
X0173205Y0173072D01*
X0168701Y0173072D01*
X0168701Y0176074D01*
X0170953Y0174573D02*
X0170953Y0173072D01*
X0173205Y0171470D02*
X0173205Y0168468D01*
X0168701Y0168468D01*
X0170953Y0177675D02*
X0170953Y0179177D01*
X0261300Y0158099D02*
X0261300Y0156514D01*
X0261617Y0156198D01*
X0262251Y0156198D01*
X0262568Y0156514D01*
X0262568Y0158099D01*
X0263510Y0157782D02*
X0263827Y0158099D01*
X0264461Y0158099D01*
X0264778Y0157782D01*
X0264461Y0157148D02*
X0263827Y0157148D01*
X0263510Y0157465D01*
X0263510Y0157782D01*
X0264144Y0158416D02*
X0264144Y0155881D01*
X0263827Y0156198D02*
X0264461Y0156198D01*
X0264778Y0156514D01*
X0264778Y0156831D01*
X0264461Y0157148D01*
X0263510Y0156514D02*
X0263827Y0156198D01*
X0265720Y0156198D02*
X0266988Y0157465D01*
X0266988Y0157782D01*
X0266671Y0158099D01*
X0266037Y0158099D01*
X0265720Y0157782D01*
X0265720Y0156198D02*
X0266988Y0156198D01*
X0347915Y0156514D02*
X0348232Y0156198D01*
X0348865Y0156198D01*
X0349182Y0156514D01*
X0349182Y0158099D01*
X0350125Y0157782D02*
X0350441Y0158099D01*
X0351075Y0158099D01*
X0351392Y0157782D01*
X0351075Y0157148D02*
X0350441Y0157148D01*
X0350125Y0157465D01*
X0350125Y0157782D01*
X0350758Y0158416D02*
X0350758Y0155881D01*
X0350441Y0156198D02*
X0351075Y0156198D01*
X0351392Y0156514D01*
X0351392Y0156831D01*
X0351075Y0157148D01*
X0350125Y0156514D02*
X0350441Y0156198D01*
X0352334Y0156514D02*
X0352651Y0156198D01*
X0353285Y0156198D01*
X0353602Y0156514D01*
X0353602Y0157148D01*
X0353285Y0157465D01*
X0352968Y0157465D01*
X0352334Y0157148D01*
X0352334Y0158099D01*
X0353602Y0158099D01*
X0347915Y0158099D02*
X0347915Y0156514D01*
X0429301Y0171283D02*
X0429301Y0173535D01*
X0430052Y0174286D01*
X0431553Y0174286D01*
X0432304Y0173535D01*
X0432304Y0171283D01*
X0433805Y0171283D02*
X0429301Y0171283D01*
X0432304Y0172785D02*
X0433805Y0174286D01*
X0433805Y0175887D02*
X0433805Y0177389D01*
X0433805Y0176638D02*
X0429301Y0176638D01*
X0429301Y0175887D02*
X0429301Y0177389D01*
X0430052Y0178957D02*
X0433054Y0178957D01*
X0433805Y0179707D01*
X0433805Y0181208D01*
X0433054Y0181959D01*
X0431553Y0181959D01*
X0431553Y0180458D01*
X0430052Y0181959D02*
X0429301Y0181208D01*
X0429301Y0179707D01*
X0430052Y0178957D01*
X0429301Y0183560D02*
X0433805Y0183560D01*
X0431553Y0183560D02*
X0431553Y0186563D01*
X0429301Y0186563D02*
X0433805Y0186563D01*
X0433805Y0189666D02*
X0429301Y0189666D01*
X0429301Y0191167D02*
X0429301Y0188164D01*
X0448701Y0209656D02*
X0448701Y0212658D01*
X0448701Y0211157D02*
X0453205Y0211157D01*
X0452454Y0214260D02*
X0453205Y0215010D01*
X0453205Y0216512D01*
X0452454Y0217262D01*
X0449452Y0217262D01*
X0448701Y0216512D01*
X0448701Y0215010D01*
X0449452Y0214260D01*
X0452454Y0214260D01*
X0453956Y0218864D02*
X0453956Y0221866D01*
X0453205Y0223468D02*
X0448701Y0223468D01*
X0450203Y0224969D01*
X0448701Y0226470D01*
X0453205Y0226470D01*
X0453205Y0228071D02*
X0448701Y0228071D01*
X0448701Y0230323D01*
X0449452Y0231074D01*
X0450203Y0231074D01*
X0450953Y0230323D01*
X0450953Y0228071D01*
X0453205Y0228071D02*
X0453205Y0230323D01*
X0452454Y0231074D01*
X0451704Y0231074D01*
X0450953Y0230323D01*
X0449452Y0232675D02*
X0452454Y0232675D01*
X0453205Y0233426D01*
X0453205Y0234927D01*
X0452454Y0235678D01*
X0449452Y0235678D01*
X0448701Y0234927D01*
X0448701Y0233426D01*
X0449452Y0232675D01*
X0448701Y0237279D02*
X0448701Y0240282D01*
X0448701Y0238781D02*
X0453205Y0238781D01*
X0441607Y0249082D02*
X0444791Y0252266D01*
X0443730Y0253328D02*
X0445853Y0251205D01*
X0442597Y0254460D02*
X0439413Y0251276D01*
X0441005Y0252868D02*
X0438882Y0254991D01*
X0437750Y0256124D02*
X0436688Y0257185D01*
X0437750Y0256124D02*
X0436688Y0255062D01*
X0435626Y0255062D01*
X0434565Y0256124D01*
X0434565Y0257185D01*
X0436688Y0259308D01*
X0437750Y0259308D01*
X0438811Y0258247D01*
X0438811Y0257185D01*
X0440474Y0256584D02*
X0437290Y0253399D01*
X0432925Y0257763D02*
X0431864Y0258825D01*
X0432395Y0258294D02*
X0435579Y0261479D01*
X0435049Y0262009D02*
X0436110Y0260948D01*
X0433385Y0262611D02*
X0432324Y0261549D01*
X0431262Y0261549D01*
X0429670Y0263142D01*
X0430731Y0262080D02*
X0430731Y0259957D01*
X0428608Y0262080D02*
X0431793Y0265265D01*
X0433385Y0263672D01*
X0433385Y0262611D01*
X0430661Y0266397D02*
X0428538Y0268520D01*
X0429599Y0267459D02*
X0426414Y0264274D01*
X0424221Y0266468D02*
X0427405Y0269653D01*
X0425282Y0271776D02*
X0424221Y0266468D01*
X0422097Y0268591D02*
X0425282Y0271776D01*
X0423619Y0272377D02*
X0423619Y0273439D01*
X0422557Y0274500D01*
X0421496Y0274500D01*
X0419373Y0272377D01*
X0419373Y0271316D01*
X0420434Y0270254D01*
X0421496Y0270254D01*
X0423619Y0272377D01*
X0420364Y0275633D02*
X0419302Y0274571D01*
X0418240Y0274571D01*
X0416648Y0276164D01*
X0415587Y0275102D02*
X0418771Y0278287D01*
X0420364Y0276694D01*
X0420364Y0275633D01*
X0417710Y0275102D02*
X0417710Y0272979D01*
X0417639Y0279419D02*
X0415516Y0281542D01*
X0412331Y0278357D01*
X0413923Y0279950D02*
X0414985Y0278888D01*
X0353602Y0259511D02*
X0352334Y0259511D01*
X0353285Y0260461D01*
X0353285Y0258560D01*
X0351392Y0258877D02*
X0351392Y0259194D01*
X0351075Y0259511D01*
X0350441Y0259511D01*
X0350125Y0259827D01*
X0350125Y0260144D01*
X0350441Y0260461D01*
X0351075Y0260461D01*
X0351392Y0260144D01*
X0350758Y0260778D02*
X0350758Y0258243D01*
X0350441Y0258560D02*
X0351075Y0258560D01*
X0351392Y0258877D01*
X0350441Y0258560D02*
X0350125Y0258877D01*
X0349182Y0258877D02*
X0349182Y0260461D01*
X0347915Y0260461D02*
X0347915Y0258877D01*
X0348232Y0258560D01*
X0348865Y0258560D01*
X0349182Y0258877D01*
X0316183Y0269383D02*
X0316183Y0273887D01*
X0317684Y0273887D02*
X0314681Y0273887D01*
X0313080Y0273887D02*
X0313080Y0269383D01*
X0310077Y0273887D01*
X0310077Y0269383D01*
X0308476Y0270134D02*
X0308476Y0273137D01*
X0307725Y0273887D01*
X0306224Y0273887D01*
X0305474Y0273137D01*
X0305474Y0270134D01*
X0306224Y0269383D01*
X0307725Y0269383D01*
X0308476Y0270134D01*
X0303872Y0269383D02*
X0302371Y0270885D01*
X0303122Y0270885D02*
X0300870Y0270885D01*
X0300870Y0269383D02*
X0300870Y0273887D01*
X0303122Y0273887D01*
X0303872Y0273137D01*
X0303872Y0271635D01*
X0303122Y0270885D01*
X0299268Y0273887D02*
X0296266Y0273887D01*
X0296266Y0269383D01*
X0296266Y0271635D02*
X0297767Y0271635D01*
X0266988Y0258560D02*
X0265720Y0258560D01*
X0266354Y0258560D02*
X0266354Y0260461D01*
X0265720Y0259827D01*
X0264778Y0260144D02*
X0264461Y0260461D01*
X0263827Y0260461D01*
X0263510Y0260144D01*
X0263510Y0259827D01*
X0263827Y0259511D01*
X0264461Y0259511D01*
X0264778Y0259194D01*
X0264778Y0258877D01*
X0264461Y0258560D01*
X0263827Y0258560D01*
X0263510Y0258877D01*
X0264144Y0258243D02*
X0264144Y0260778D01*
X0262568Y0260461D02*
X0262568Y0258877D01*
X0262251Y0258560D01*
X0261617Y0258560D01*
X0261300Y0258877D01*
X0261300Y0260461D01*
X0193506Y0276685D02*
X0190322Y0279870D01*
X0191383Y0280931D02*
X0189260Y0278808D01*
X0188128Y0277676D02*
X0186005Y0275553D01*
X0189189Y0272368D01*
X0188057Y0271236D02*
X0185934Y0269112D01*
X0182749Y0272297D01*
X0184872Y0274420D01*
X0185403Y0271766D02*
X0184342Y0270705D01*
X0184802Y0267980D02*
X0182679Y0265857D01*
X0179494Y0269042D01*
X0178362Y0267909D02*
X0176238Y0265786D01*
X0177300Y0266848D02*
X0180485Y0263663D01*
X0178291Y0261469D02*
X0175106Y0264654D01*
X0172983Y0262531D02*
X0178291Y0261469D01*
X0176168Y0259346D02*
X0172983Y0262531D01*
X0172381Y0260868D02*
X0171320Y0260868D01*
X0170258Y0259806D01*
X0170258Y0258744D01*
X0172381Y0256621D01*
X0173443Y0256621D01*
X0174504Y0257683D01*
X0174504Y0258744D01*
X0172381Y0260868D01*
X0169126Y0257612D02*
X0170187Y0256551D01*
X0170187Y0255489D01*
X0168595Y0253897D01*
X0169657Y0254958D02*
X0171780Y0254958D01*
X0169657Y0252835D02*
X0166472Y0256020D01*
X0168064Y0257612D01*
X0169126Y0257612D01*
X0165340Y0254887D02*
X0163217Y0252764D01*
X0166401Y0249580D01*
X0164809Y0251172D02*
X0165870Y0252234D01*
X0187597Y0273960D02*
X0188659Y0275022D01*
X0169066Y0105428D02*
X0170658Y0103836D01*
X0170658Y0102774D01*
X0169597Y0101712D01*
X0168535Y0101712D01*
X0166943Y0103305D01*
X0168004Y0102243D02*
X0168004Y0100120D01*
X0169137Y0098988D02*
X0171260Y0096865D01*
X0172392Y0095732D02*
X0174515Y0097855D01*
X0176638Y0097855D01*
X0176638Y0095732D01*
X0174515Y0093609D01*
X0175647Y0092477D02*
X0178832Y0095661D01*
X0180424Y0094069D01*
X0180424Y0093008D01*
X0179363Y0091946D01*
X0178301Y0091946D01*
X0176709Y0093538D01*
X0177771Y0092477D02*
X0177771Y0090354D01*
X0178903Y0089221D02*
X0181026Y0087098D01*
X0182158Y0085966D02*
X0184281Y0083843D01*
X0185414Y0082710D02*
X0188598Y0085895D01*
X0190722Y0083772D01*
X0191854Y0082640D02*
X0193977Y0080516D01*
X0192916Y0081578D02*
X0189731Y0078393D01*
X0188068Y0083241D02*
X0187006Y0084303D01*
X0187466Y0087027D02*
X0185343Y0089151D01*
X0182158Y0085966D01*
X0183751Y0087558D02*
X0184812Y0086497D01*
X0182088Y0092406D02*
X0178903Y0089221D01*
X0176107Y0095201D02*
X0173984Y0097325D01*
X0174444Y0100049D02*
X0172321Y0102172D01*
X0169137Y0098988D01*
X0170729Y0100580D02*
X0171790Y0099519D01*
X0165881Y0102243D02*
X0169066Y0105428D01*
X0392693Y0072865D02*
X0393444Y0072115D01*
X0394195Y0072115D01*
X0394945Y0072865D01*
X0394945Y0076619D01*
X0394195Y0076619D02*
X0395696Y0076619D01*
X0397297Y0076619D02*
X0399549Y0076619D01*
X0400300Y0075868D01*
X0400300Y0074367D01*
X0399549Y0073616D01*
X0397297Y0073616D01*
X0397297Y0072115D02*
X0397297Y0076619D01*
X0401901Y0075868D02*
X0402652Y0076619D01*
X0404153Y0076619D01*
X0404904Y0075868D01*
X0404904Y0075117D01*
X0401901Y0072115D01*
X0404904Y0072115D01*
X0417160Y0084144D02*
X0418753Y0085736D01*
X0419814Y0085736D01*
X0420876Y0084675D01*
X0420876Y0083613D01*
X0419284Y0082021D01*
X0420345Y0083082D02*
X0422468Y0083082D01*
X0423601Y0084215D02*
X0425724Y0086338D01*
X0426856Y0087470D02*
X0424733Y0089593D01*
X0424733Y0091716D01*
X0426856Y0091716D01*
X0428979Y0089593D01*
X0430112Y0090726D02*
X0426927Y0093910D01*
X0428519Y0095503D01*
X0429581Y0095503D01*
X0430642Y0094441D01*
X0430642Y0093380D01*
X0429050Y0091787D01*
X0430112Y0092849D02*
X0432235Y0092849D01*
X0433367Y0093981D02*
X0430182Y0097166D01*
X0431775Y0098758D01*
X0432836Y0098758D01*
X0433898Y0097697D01*
X0433898Y0096635D01*
X0432305Y0095043D01*
X0433367Y0096104D02*
X0435490Y0096104D01*
X0436622Y0097237D02*
X0437684Y0098298D01*
X0437153Y0097767D02*
X0433969Y0100952D01*
X0433438Y0100421D02*
X0434499Y0101483D01*
X0436139Y0102061D02*
X0438262Y0099938D01*
X0439324Y0099938D01*
X0440385Y0100999D01*
X0440385Y0102061D01*
X0439324Y0103122D01*
X0438262Y0102061D01*
X0438262Y0104184D02*
X0437200Y0104184D01*
X0436139Y0103122D01*
X0436139Y0102061D01*
X0438864Y0105847D02*
X0442048Y0102662D01*
X0440456Y0104255D02*
X0442579Y0106378D01*
X0440987Y0107970D02*
X0444171Y0104786D01*
X0446365Y0106979D02*
X0443181Y0110164D01*
X0442119Y0109103D02*
X0444242Y0111226D01*
X0427387Y0091186D02*
X0425264Y0089063D01*
X0422539Y0089523D02*
X0420416Y0087399D01*
X0423601Y0084215D01*
X0422008Y0085807D02*
X0423070Y0086869D01*
X0420345Y0080959D02*
X0417160Y0084144D01*
D14*
X0344479Y0147948D02*
X0344481Y0148109D01*
X0344487Y0148269D01*
X0344497Y0148430D01*
X0344511Y0148590D01*
X0344529Y0148750D01*
X0344550Y0148909D01*
X0344576Y0149068D01*
X0344606Y0149226D01*
X0344639Y0149383D01*
X0344677Y0149540D01*
X0344718Y0149695D01*
X0344763Y0149849D01*
X0344812Y0150002D01*
X0344865Y0150154D01*
X0344921Y0150305D01*
X0344982Y0150454D01*
X0345045Y0150602D01*
X0345113Y0150748D01*
X0345184Y0150892D01*
X0345258Y0151034D01*
X0345336Y0151175D01*
X0345418Y0151313D01*
X0345503Y0151450D01*
X0345591Y0151584D01*
X0345683Y0151716D01*
X0345778Y0151846D01*
X0345876Y0151974D01*
X0345977Y0152099D01*
X0346081Y0152221D01*
X0346188Y0152341D01*
X0346298Y0152458D01*
X0346411Y0152573D01*
X0346527Y0152684D01*
X0346646Y0152793D01*
X0346767Y0152898D01*
X0346891Y0153001D01*
X0347017Y0153101D01*
X0347145Y0153197D01*
X0347276Y0153290D01*
X0347410Y0153380D01*
X0347545Y0153467D01*
X0347683Y0153550D01*
X0347822Y0153630D01*
X0347964Y0153706D01*
X0348107Y0153779D01*
X0348252Y0153848D01*
X0348399Y0153914D01*
X0348547Y0153976D01*
X0348697Y0154034D01*
X0348848Y0154089D01*
X0349001Y0154140D01*
X0349155Y0154187D01*
X0349310Y0154230D01*
X0349466Y0154269D01*
X0349622Y0154305D01*
X0349780Y0154336D01*
X0349938Y0154364D01*
X0350097Y0154388D01*
X0350257Y0154408D01*
X0350417Y0154424D01*
X0350577Y0154436D01*
X0350738Y0154444D01*
X0350899Y0154448D01*
X0351059Y0154448D01*
X0351220Y0154444D01*
X0351381Y0154436D01*
X0351541Y0154424D01*
X0351701Y0154408D01*
X0351861Y0154388D01*
X0352020Y0154364D01*
X0352178Y0154336D01*
X0352336Y0154305D01*
X0352492Y0154269D01*
X0352648Y0154230D01*
X0352803Y0154187D01*
X0352957Y0154140D01*
X0353110Y0154089D01*
X0353261Y0154034D01*
X0353411Y0153976D01*
X0353559Y0153914D01*
X0353706Y0153848D01*
X0353851Y0153779D01*
X0353994Y0153706D01*
X0354136Y0153630D01*
X0354275Y0153550D01*
X0354413Y0153467D01*
X0354548Y0153380D01*
X0354682Y0153290D01*
X0354813Y0153197D01*
X0354941Y0153101D01*
X0355067Y0153001D01*
X0355191Y0152898D01*
X0355312Y0152793D01*
X0355431Y0152684D01*
X0355547Y0152573D01*
X0355660Y0152458D01*
X0355770Y0152341D01*
X0355877Y0152221D01*
X0355981Y0152099D01*
X0356082Y0151974D01*
X0356180Y0151846D01*
X0356275Y0151716D01*
X0356367Y0151584D01*
X0356455Y0151450D01*
X0356540Y0151313D01*
X0356622Y0151175D01*
X0356700Y0151034D01*
X0356774Y0150892D01*
X0356845Y0150748D01*
X0356913Y0150602D01*
X0356976Y0150454D01*
X0357037Y0150305D01*
X0357093Y0150154D01*
X0357146Y0150002D01*
X0357195Y0149849D01*
X0357240Y0149695D01*
X0357281Y0149540D01*
X0357319Y0149383D01*
X0357352Y0149226D01*
X0357382Y0149068D01*
X0357408Y0148909D01*
X0357429Y0148750D01*
X0357447Y0148590D01*
X0357461Y0148430D01*
X0357471Y0148269D01*
X0357477Y0148109D01*
X0357479Y0147948D01*
X0357477Y0147787D01*
X0357471Y0147627D01*
X0357461Y0147466D01*
X0357447Y0147306D01*
X0357429Y0147146D01*
X0357408Y0146987D01*
X0357382Y0146828D01*
X0357352Y0146670D01*
X0357319Y0146513D01*
X0357281Y0146356D01*
X0357240Y0146201D01*
X0357195Y0146047D01*
X0357146Y0145894D01*
X0357093Y0145742D01*
X0357037Y0145591D01*
X0356976Y0145442D01*
X0356913Y0145294D01*
X0356845Y0145148D01*
X0356774Y0145004D01*
X0356700Y0144862D01*
X0356622Y0144721D01*
X0356540Y0144583D01*
X0356455Y0144446D01*
X0356367Y0144312D01*
X0356275Y0144180D01*
X0356180Y0144050D01*
X0356082Y0143922D01*
X0355981Y0143797D01*
X0355877Y0143675D01*
X0355770Y0143555D01*
X0355660Y0143438D01*
X0355547Y0143323D01*
X0355431Y0143212D01*
X0355312Y0143103D01*
X0355191Y0142998D01*
X0355067Y0142895D01*
X0354941Y0142795D01*
X0354813Y0142699D01*
X0354682Y0142606D01*
X0354548Y0142516D01*
X0354413Y0142429D01*
X0354275Y0142346D01*
X0354136Y0142266D01*
X0353994Y0142190D01*
X0353851Y0142117D01*
X0353706Y0142048D01*
X0353559Y0141982D01*
X0353411Y0141920D01*
X0353261Y0141862D01*
X0353110Y0141807D01*
X0352957Y0141756D01*
X0352803Y0141709D01*
X0352648Y0141666D01*
X0352492Y0141627D01*
X0352336Y0141591D01*
X0352178Y0141560D01*
X0352020Y0141532D01*
X0351861Y0141508D01*
X0351701Y0141488D01*
X0351541Y0141472D01*
X0351381Y0141460D01*
X0351220Y0141452D01*
X0351059Y0141448D01*
X0350899Y0141448D01*
X0350738Y0141452D01*
X0350577Y0141460D01*
X0350417Y0141472D01*
X0350257Y0141488D01*
X0350097Y0141508D01*
X0349938Y0141532D01*
X0349780Y0141560D01*
X0349622Y0141591D01*
X0349466Y0141627D01*
X0349310Y0141666D01*
X0349155Y0141709D01*
X0349001Y0141756D01*
X0348848Y0141807D01*
X0348697Y0141862D01*
X0348547Y0141920D01*
X0348399Y0141982D01*
X0348252Y0142048D01*
X0348107Y0142117D01*
X0347964Y0142190D01*
X0347822Y0142266D01*
X0347683Y0142346D01*
X0347545Y0142429D01*
X0347410Y0142516D01*
X0347276Y0142606D01*
X0347145Y0142699D01*
X0347017Y0142795D01*
X0346891Y0142895D01*
X0346767Y0142998D01*
X0346646Y0143103D01*
X0346527Y0143212D01*
X0346411Y0143323D01*
X0346298Y0143438D01*
X0346188Y0143555D01*
X0346081Y0143675D01*
X0345977Y0143797D01*
X0345876Y0143922D01*
X0345778Y0144050D01*
X0345683Y0144180D01*
X0345591Y0144312D01*
X0345503Y0144446D01*
X0345418Y0144583D01*
X0345336Y0144721D01*
X0345258Y0144862D01*
X0345184Y0145004D01*
X0345113Y0145148D01*
X0345045Y0145294D01*
X0344982Y0145442D01*
X0344921Y0145591D01*
X0344865Y0145742D01*
X0344812Y0145894D01*
X0344763Y0146047D01*
X0344718Y0146201D01*
X0344677Y0146356D01*
X0344639Y0146513D01*
X0344606Y0146670D01*
X0344576Y0146828D01*
X0344550Y0146987D01*
X0344529Y0147146D01*
X0344511Y0147306D01*
X0344497Y0147466D01*
X0344487Y0147627D01*
X0344481Y0147787D01*
X0344479Y0147948D01*
X0257865Y0147948D02*
X0257867Y0148109D01*
X0257873Y0148269D01*
X0257883Y0148430D01*
X0257897Y0148590D01*
X0257915Y0148750D01*
X0257936Y0148909D01*
X0257962Y0149068D01*
X0257992Y0149226D01*
X0258025Y0149383D01*
X0258063Y0149540D01*
X0258104Y0149695D01*
X0258149Y0149849D01*
X0258198Y0150002D01*
X0258251Y0150154D01*
X0258307Y0150305D01*
X0258368Y0150454D01*
X0258431Y0150602D01*
X0258499Y0150748D01*
X0258570Y0150892D01*
X0258644Y0151034D01*
X0258722Y0151175D01*
X0258804Y0151313D01*
X0258889Y0151450D01*
X0258977Y0151584D01*
X0259069Y0151716D01*
X0259164Y0151846D01*
X0259262Y0151974D01*
X0259363Y0152099D01*
X0259467Y0152221D01*
X0259574Y0152341D01*
X0259684Y0152458D01*
X0259797Y0152573D01*
X0259913Y0152684D01*
X0260032Y0152793D01*
X0260153Y0152898D01*
X0260277Y0153001D01*
X0260403Y0153101D01*
X0260531Y0153197D01*
X0260662Y0153290D01*
X0260796Y0153380D01*
X0260931Y0153467D01*
X0261069Y0153550D01*
X0261208Y0153630D01*
X0261350Y0153706D01*
X0261493Y0153779D01*
X0261638Y0153848D01*
X0261785Y0153914D01*
X0261933Y0153976D01*
X0262083Y0154034D01*
X0262234Y0154089D01*
X0262387Y0154140D01*
X0262541Y0154187D01*
X0262696Y0154230D01*
X0262852Y0154269D01*
X0263008Y0154305D01*
X0263166Y0154336D01*
X0263324Y0154364D01*
X0263483Y0154388D01*
X0263643Y0154408D01*
X0263803Y0154424D01*
X0263963Y0154436D01*
X0264124Y0154444D01*
X0264285Y0154448D01*
X0264445Y0154448D01*
X0264606Y0154444D01*
X0264767Y0154436D01*
X0264927Y0154424D01*
X0265087Y0154408D01*
X0265247Y0154388D01*
X0265406Y0154364D01*
X0265564Y0154336D01*
X0265722Y0154305D01*
X0265878Y0154269D01*
X0266034Y0154230D01*
X0266189Y0154187D01*
X0266343Y0154140D01*
X0266496Y0154089D01*
X0266647Y0154034D01*
X0266797Y0153976D01*
X0266945Y0153914D01*
X0267092Y0153848D01*
X0267237Y0153779D01*
X0267380Y0153706D01*
X0267522Y0153630D01*
X0267661Y0153550D01*
X0267799Y0153467D01*
X0267934Y0153380D01*
X0268068Y0153290D01*
X0268199Y0153197D01*
X0268327Y0153101D01*
X0268453Y0153001D01*
X0268577Y0152898D01*
X0268698Y0152793D01*
X0268817Y0152684D01*
X0268933Y0152573D01*
X0269046Y0152458D01*
X0269156Y0152341D01*
X0269263Y0152221D01*
X0269367Y0152099D01*
X0269468Y0151974D01*
X0269566Y0151846D01*
X0269661Y0151716D01*
X0269753Y0151584D01*
X0269841Y0151450D01*
X0269926Y0151313D01*
X0270008Y0151175D01*
X0270086Y0151034D01*
X0270160Y0150892D01*
X0270231Y0150748D01*
X0270299Y0150602D01*
X0270362Y0150454D01*
X0270423Y0150305D01*
X0270479Y0150154D01*
X0270532Y0150002D01*
X0270581Y0149849D01*
X0270626Y0149695D01*
X0270667Y0149540D01*
X0270705Y0149383D01*
X0270738Y0149226D01*
X0270768Y0149068D01*
X0270794Y0148909D01*
X0270815Y0148750D01*
X0270833Y0148590D01*
X0270847Y0148430D01*
X0270857Y0148269D01*
X0270863Y0148109D01*
X0270865Y0147948D01*
X0270863Y0147787D01*
X0270857Y0147627D01*
X0270847Y0147466D01*
X0270833Y0147306D01*
X0270815Y0147146D01*
X0270794Y0146987D01*
X0270768Y0146828D01*
X0270738Y0146670D01*
X0270705Y0146513D01*
X0270667Y0146356D01*
X0270626Y0146201D01*
X0270581Y0146047D01*
X0270532Y0145894D01*
X0270479Y0145742D01*
X0270423Y0145591D01*
X0270362Y0145442D01*
X0270299Y0145294D01*
X0270231Y0145148D01*
X0270160Y0145004D01*
X0270086Y0144862D01*
X0270008Y0144721D01*
X0269926Y0144583D01*
X0269841Y0144446D01*
X0269753Y0144312D01*
X0269661Y0144180D01*
X0269566Y0144050D01*
X0269468Y0143922D01*
X0269367Y0143797D01*
X0269263Y0143675D01*
X0269156Y0143555D01*
X0269046Y0143438D01*
X0268933Y0143323D01*
X0268817Y0143212D01*
X0268698Y0143103D01*
X0268577Y0142998D01*
X0268453Y0142895D01*
X0268327Y0142795D01*
X0268199Y0142699D01*
X0268068Y0142606D01*
X0267934Y0142516D01*
X0267799Y0142429D01*
X0267661Y0142346D01*
X0267522Y0142266D01*
X0267380Y0142190D01*
X0267237Y0142117D01*
X0267092Y0142048D01*
X0266945Y0141982D01*
X0266797Y0141920D01*
X0266647Y0141862D01*
X0266496Y0141807D01*
X0266343Y0141756D01*
X0266189Y0141709D01*
X0266034Y0141666D01*
X0265878Y0141627D01*
X0265722Y0141591D01*
X0265564Y0141560D01*
X0265406Y0141532D01*
X0265247Y0141508D01*
X0265087Y0141488D01*
X0264927Y0141472D01*
X0264767Y0141460D01*
X0264606Y0141452D01*
X0264445Y0141448D01*
X0264285Y0141448D01*
X0264124Y0141452D01*
X0263963Y0141460D01*
X0263803Y0141472D01*
X0263643Y0141488D01*
X0263483Y0141508D01*
X0263324Y0141532D01*
X0263166Y0141560D01*
X0263008Y0141591D01*
X0262852Y0141627D01*
X0262696Y0141666D01*
X0262541Y0141709D01*
X0262387Y0141756D01*
X0262234Y0141807D01*
X0262083Y0141862D01*
X0261933Y0141920D01*
X0261785Y0141982D01*
X0261638Y0142048D01*
X0261493Y0142117D01*
X0261350Y0142190D01*
X0261208Y0142266D01*
X0261069Y0142346D01*
X0260931Y0142429D01*
X0260796Y0142516D01*
X0260662Y0142606D01*
X0260531Y0142699D01*
X0260403Y0142795D01*
X0260277Y0142895D01*
X0260153Y0142998D01*
X0260032Y0143103D01*
X0259913Y0143212D01*
X0259797Y0143323D01*
X0259684Y0143438D01*
X0259574Y0143555D01*
X0259467Y0143675D01*
X0259363Y0143797D01*
X0259262Y0143922D01*
X0259164Y0144050D01*
X0259069Y0144180D01*
X0258977Y0144312D01*
X0258889Y0144446D01*
X0258804Y0144583D01*
X0258722Y0144721D01*
X0258644Y0144862D01*
X0258570Y0145004D01*
X0258499Y0145148D01*
X0258431Y0145294D01*
X0258368Y0145442D01*
X0258307Y0145591D01*
X0258251Y0145742D01*
X0258198Y0145894D01*
X0258149Y0146047D01*
X0258104Y0146201D01*
X0258063Y0146356D01*
X0258025Y0146513D01*
X0257992Y0146670D01*
X0257962Y0146828D01*
X0257936Y0146987D01*
X0257915Y0147146D01*
X0257897Y0147306D01*
X0257883Y0147466D01*
X0257873Y0147627D01*
X0257867Y0147787D01*
X0257865Y0147948D01*
X0257865Y0250310D02*
X0257867Y0250471D01*
X0257873Y0250631D01*
X0257883Y0250792D01*
X0257897Y0250952D01*
X0257915Y0251112D01*
X0257936Y0251271D01*
X0257962Y0251430D01*
X0257992Y0251588D01*
X0258025Y0251745D01*
X0258063Y0251902D01*
X0258104Y0252057D01*
X0258149Y0252211D01*
X0258198Y0252364D01*
X0258251Y0252516D01*
X0258307Y0252667D01*
X0258368Y0252816D01*
X0258431Y0252964D01*
X0258499Y0253110D01*
X0258570Y0253254D01*
X0258644Y0253396D01*
X0258722Y0253537D01*
X0258804Y0253675D01*
X0258889Y0253812D01*
X0258977Y0253946D01*
X0259069Y0254078D01*
X0259164Y0254208D01*
X0259262Y0254336D01*
X0259363Y0254461D01*
X0259467Y0254583D01*
X0259574Y0254703D01*
X0259684Y0254820D01*
X0259797Y0254935D01*
X0259913Y0255046D01*
X0260032Y0255155D01*
X0260153Y0255260D01*
X0260277Y0255363D01*
X0260403Y0255463D01*
X0260531Y0255559D01*
X0260662Y0255652D01*
X0260796Y0255742D01*
X0260931Y0255829D01*
X0261069Y0255912D01*
X0261208Y0255992D01*
X0261350Y0256068D01*
X0261493Y0256141D01*
X0261638Y0256210D01*
X0261785Y0256276D01*
X0261933Y0256338D01*
X0262083Y0256396D01*
X0262234Y0256451D01*
X0262387Y0256502D01*
X0262541Y0256549D01*
X0262696Y0256592D01*
X0262852Y0256631D01*
X0263008Y0256667D01*
X0263166Y0256698D01*
X0263324Y0256726D01*
X0263483Y0256750D01*
X0263643Y0256770D01*
X0263803Y0256786D01*
X0263963Y0256798D01*
X0264124Y0256806D01*
X0264285Y0256810D01*
X0264445Y0256810D01*
X0264606Y0256806D01*
X0264767Y0256798D01*
X0264927Y0256786D01*
X0265087Y0256770D01*
X0265247Y0256750D01*
X0265406Y0256726D01*
X0265564Y0256698D01*
X0265722Y0256667D01*
X0265878Y0256631D01*
X0266034Y0256592D01*
X0266189Y0256549D01*
X0266343Y0256502D01*
X0266496Y0256451D01*
X0266647Y0256396D01*
X0266797Y0256338D01*
X0266945Y0256276D01*
X0267092Y0256210D01*
X0267237Y0256141D01*
X0267380Y0256068D01*
X0267522Y0255992D01*
X0267661Y0255912D01*
X0267799Y0255829D01*
X0267934Y0255742D01*
X0268068Y0255652D01*
X0268199Y0255559D01*
X0268327Y0255463D01*
X0268453Y0255363D01*
X0268577Y0255260D01*
X0268698Y0255155D01*
X0268817Y0255046D01*
X0268933Y0254935D01*
X0269046Y0254820D01*
X0269156Y0254703D01*
X0269263Y0254583D01*
X0269367Y0254461D01*
X0269468Y0254336D01*
X0269566Y0254208D01*
X0269661Y0254078D01*
X0269753Y0253946D01*
X0269841Y0253812D01*
X0269926Y0253675D01*
X0270008Y0253537D01*
X0270086Y0253396D01*
X0270160Y0253254D01*
X0270231Y0253110D01*
X0270299Y0252964D01*
X0270362Y0252816D01*
X0270423Y0252667D01*
X0270479Y0252516D01*
X0270532Y0252364D01*
X0270581Y0252211D01*
X0270626Y0252057D01*
X0270667Y0251902D01*
X0270705Y0251745D01*
X0270738Y0251588D01*
X0270768Y0251430D01*
X0270794Y0251271D01*
X0270815Y0251112D01*
X0270833Y0250952D01*
X0270847Y0250792D01*
X0270857Y0250631D01*
X0270863Y0250471D01*
X0270865Y0250310D01*
X0270863Y0250149D01*
X0270857Y0249989D01*
X0270847Y0249828D01*
X0270833Y0249668D01*
X0270815Y0249508D01*
X0270794Y0249349D01*
X0270768Y0249190D01*
X0270738Y0249032D01*
X0270705Y0248875D01*
X0270667Y0248718D01*
X0270626Y0248563D01*
X0270581Y0248409D01*
X0270532Y0248256D01*
X0270479Y0248104D01*
X0270423Y0247953D01*
X0270362Y0247804D01*
X0270299Y0247656D01*
X0270231Y0247510D01*
X0270160Y0247366D01*
X0270086Y0247224D01*
X0270008Y0247083D01*
X0269926Y0246945D01*
X0269841Y0246808D01*
X0269753Y0246674D01*
X0269661Y0246542D01*
X0269566Y0246412D01*
X0269468Y0246284D01*
X0269367Y0246159D01*
X0269263Y0246037D01*
X0269156Y0245917D01*
X0269046Y0245800D01*
X0268933Y0245685D01*
X0268817Y0245574D01*
X0268698Y0245465D01*
X0268577Y0245360D01*
X0268453Y0245257D01*
X0268327Y0245157D01*
X0268199Y0245061D01*
X0268068Y0244968D01*
X0267934Y0244878D01*
X0267799Y0244791D01*
X0267661Y0244708D01*
X0267522Y0244628D01*
X0267380Y0244552D01*
X0267237Y0244479D01*
X0267092Y0244410D01*
X0266945Y0244344D01*
X0266797Y0244282D01*
X0266647Y0244224D01*
X0266496Y0244169D01*
X0266343Y0244118D01*
X0266189Y0244071D01*
X0266034Y0244028D01*
X0265878Y0243989D01*
X0265722Y0243953D01*
X0265564Y0243922D01*
X0265406Y0243894D01*
X0265247Y0243870D01*
X0265087Y0243850D01*
X0264927Y0243834D01*
X0264767Y0243822D01*
X0264606Y0243814D01*
X0264445Y0243810D01*
X0264285Y0243810D01*
X0264124Y0243814D01*
X0263963Y0243822D01*
X0263803Y0243834D01*
X0263643Y0243850D01*
X0263483Y0243870D01*
X0263324Y0243894D01*
X0263166Y0243922D01*
X0263008Y0243953D01*
X0262852Y0243989D01*
X0262696Y0244028D01*
X0262541Y0244071D01*
X0262387Y0244118D01*
X0262234Y0244169D01*
X0262083Y0244224D01*
X0261933Y0244282D01*
X0261785Y0244344D01*
X0261638Y0244410D01*
X0261493Y0244479D01*
X0261350Y0244552D01*
X0261208Y0244628D01*
X0261069Y0244708D01*
X0260931Y0244791D01*
X0260796Y0244878D01*
X0260662Y0244968D01*
X0260531Y0245061D01*
X0260403Y0245157D01*
X0260277Y0245257D01*
X0260153Y0245360D01*
X0260032Y0245465D01*
X0259913Y0245574D01*
X0259797Y0245685D01*
X0259684Y0245800D01*
X0259574Y0245917D01*
X0259467Y0246037D01*
X0259363Y0246159D01*
X0259262Y0246284D01*
X0259164Y0246412D01*
X0259069Y0246542D01*
X0258977Y0246674D01*
X0258889Y0246808D01*
X0258804Y0246945D01*
X0258722Y0247083D01*
X0258644Y0247224D01*
X0258570Y0247366D01*
X0258499Y0247510D01*
X0258431Y0247656D01*
X0258368Y0247804D01*
X0258307Y0247953D01*
X0258251Y0248104D01*
X0258198Y0248256D01*
X0258149Y0248409D01*
X0258104Y0248563D01*
X0258063Y0248718D01*
X0258025Y0248875D01*
X0257992Y0249032D01*
X0257962Y0249190D01*
X0257936Y0249349D01*
X0257915Y0249508D01*
X0257897Y0249668D01*
X0257883Y0249828D01*
X0257873Y0249989D01*
X0257867Y0250149D01*
X0257865Y0250310D01*
X0344479Y0250310D02*
X0344481Y0250471D01*
X0344487Y0250631D01*
X0344497Y0250792D01*
X0344511Y0250952D01*
X0344529Y0251112D01*
X0344550Y0251271D01*
X0344576Y0251430D01*
X0344606Y0251588D01*
X0344639Y0251745D01*
X0344677Y0251902D01*
X0344718Y0252057D01*
X0344763Y0252211D01*
X0344812Y0252364D01*
X0344865Y0252516D01*
X0344921Y0252667D01*
X0344982Y0252816D01*
X0345045Y0252964D01*
X0345113Y0253110D01*
X0345184Y0253254D01*
X0345258Y0253396D01*
X0345336Y0253537D01*
X0345418Y0253675D01*
X0345503Y0253812D01*
X0345591Y0253946D01*
X0345683Y0254078D01*
X0345778Y0254208D01*
X0345876Y0254336D01*
X0345977Y0254461D01*
X0346081Y0254583D01*
X0346188Y0254703D01*
X0346298Y0254820D01*
X0346411Y0254935D01*
X0346527Y0255046D01*
X0346646Y0255155D01*
X0346767Y0255260D01*
X0346891Y0255363D01*
X0347017Y0255463D01*
X0347145Y0255559D01*
X0347276Y0255652D01*
X0347410Y0255742D01*
X0347545Y0255829D01*
X0347683Y0255912D01*
X0347822Y0255992D01*
X0347964Y0256068D01*
X0348107Y0256141D01*
X0348252Y0256210D01*
X0348399Y0256276D01*
X0348547Y0256338D01*
X0348697Y0256396D01*
X0348848Y0256451D01*
X0349001Y0256502D01*
X0349155Y0256549D01*
X0349310Y0256592D01*
X0349466Y0256631D01*
X0349622Y0256667D01*
X0349780Y0256698D01*
X0349938Y0256726D01*
X0350097Y0256750D01*
X0350257Y0256770D01*
X0350417Y0256786D01*
X0350577Y0256798D01*
X0350738Y0256806D01*
X0350899Y0256810D01*
X0351059Y0256810D01*
X0351220Y0256806D01*
X0351381Y0256798D01*
X0351541Y0256786D01*
X0351701Y0256770D01*
X0351861Y0256750D01*
X0352020Y0256726D01*
X0352178Y0256698D01*
X0352336Y0256667D01*
X0352492Y0256631D01*
X0352648Y0256592D01*
X0352803Y0256549D01*
X0352957Y0256502D01*
X0353110Y0256451D01*
X0353261Y0256396D01*
X0353411Y0256338D01*
X0353559Y0256276D01*
X0353706Y0256210D01*
X0353851Y0256141D01*
X0353994Y0256068D01*
X0354136Y0255992D01*
X0354275Y0255912D01*
X0354413Y0255829D01*
X0354548Y0255742D01*
X0354682Y0255652D01*
X0354813Y0255559D01*
X0354941Y0255463D01*
X0355067Y0255363D01*
X0355191Y0255260D01*
X0355312Y0255155D01*
X0355431Y0255046D01*
X0355547Y0254935D01*
X0355660Y0254820D01*
X0355770Y0254703D01*
X0355877Y0254583D01*
X0355981Y0254461D01*
X0356082Y0254336D01*
X0356180Y0254208D01*
X0356275Y0254078D01*
X0356367Y0253946D01*
X0356455Y0253812D01*
X0356540Y0253675D01*
X0356622Y0253537D01*
X0356700Y0253396D01*
X0356774Y0253254D01*
X0356845Y0253110D01*
X0356913Y0252964D01*
X0356976Y0252816D01*
X0357037Y0252667D01*
X0357093Y0252516D01*
X0357146Y0252364D01*
X0357195Y0252211D01*
X0357240Y0252057D01*
X0357281Y0251902D01*
X0357319Y0251745D01*
X0357352Y0251588D01*
X0357382Y0251430D01*
X0357408Y0251271D01*
X0357429Y0251112D01*
X0357447Y0250952D01*
X0357461Y0250792D01*
X0357471Y0250631D01*
X0357477Y0250471D01*
X0357479Y0250310D01*
X0357477Y0250149D01*
X0357471Y0249989D01*
X0357461Y0249828D01*
X0357447Y0249668D01*
X0357429Y0249508D01*
X0357408Y0249349D01*
X0357382Y0249190D01*
X0357352Y0249032D01*
X0357319Y0248875D01*
X0357281Y0248718D01*
X0357240Y0248563D01*
X0357195Y0248409D01*
X0357146Y0248256D01*
X0357093Y0248104D01*
X0357037Y0247953D01*
X0356976Y0247804D01*
X0356913Y0247656D01*
X0356845Y0247510D01*
X0356774Y0247366D01*
X0356700Y0247224D01*
X0356622Y0247083D01*
X0356540Y0246945D01*
X0356455Y0246808D01*
X0356367Y0246674D01*
X0356275Y0246542D01*
X0356180Y0246412D01*
X0356082Y0246284D01*
X0355981Y0246159D01*
X0355877Y0246037D01*
X0355770Y0245917D01*
X0355660Y0245800D01*
X0355547Y0245685D01*
X0355431Y0245574D01*
X0355312Y0245465D01*
X0355191Y0245360D01*
X0355067Y0245257D01*
X0354941Y0245157D01*
X0354813Y0245061D01*
X0354682Y0244968D01*
X0354548Y0244878D01*
X0354413Y0244791D01*
X0354275Y0244708D01*
X0354136Y0244628D01*
X0353994Y0244552D01*
X0353851Y0244479D01*
X0353706Y0244410D01*
X0353559Y0244344D01*
X0353411Y0244282D01*
X0353261Y0244224D01*
X0353110Y0244169D01*
X0352957Y0244118D01*
X0352803Y0244071D01*
X0352648Y0244028D01*
X0352492Y0243989D01*
X0352336Y0243953D01*
X0352178Y0243922D01*
X0352020Y0243894D01*
X0351861Y0243870D01*
X0351701Y0243850D01*
X0351541Y0243834D01*
X0351381Y0243822D01*
X0351220Y0243814D01*
X0351059Y0243810D01*
X0350899Y0243810D01*
X0350738Y0243814D01*
X0350577Y0243822D01*
X0350417Y0243834D01*
X0350257Y0243850D01*
X0350097Y0243870D01*
X0349938Y0243894D01*
X0349780Y0243922D01*
X0349622Y0243953D01*
X0349466Y0243989D01*
X0349310Y0244028D01*
X0349155Y0244071D01*
X0349001Y0244118D01*
X0348848Y0244169D01*
X0348697Y0244224D01*
X0348547Y0244282D01*
X0348399Y0244344D01*
X0348252Y0244410D01*
X0348107Y0244479D01*
X0347964Y0244552D01*
X0347822Y0244628D01*
X0347683Y0244708D01*
X0347545Y0244791D01*
X0347410Y0244878D01*
X0347276Y0244968D01*
X0347145Y0245061D01*
X0347017Y0245157D01*
X0346891Y0245257D01*
X0346767Y0245360D01*
X0346646Y0245465D01*
X0346527Y0245574D01*
X0346411Y0245685D01*
X0346298Y0245800D01*
X0346188Y0245917D01*
X0346081Y0246037D01*
X0345977Y0246159D01*
X0345876Y0246284D01*
X0345778Y0246412D01*
X0345683Y0246542D01*
X0345591Y0246674D01*
X0345503Y0246808D01*
X0345418Y0246945D01*
X0345336Y0247083D01*
X0345258Y0247224D01*
X0345184Y0247366D01*
X0345113Y0247510D01*
X0345045Y0247656D01*
X0344982Y0247804D01*
X0344921Y0247953D01*
X0344865Y0248104D01*
X0344812Y0248256D01*
X0344763Y0248409D01*
X0344718Y0248563D01*
X0344677Y0248718D01*
X0344639Y0248875D01*
X0344606Y0249032D01*
X0344576Y0249190D01*
X0344550Y0249349D01*
X0344529Y0249508D01*
X0344511Y0249668D01*
X0344497Y0249828D01*
X0344487Y0249989D01*
X0344481Y0250149D01*
X0344479Y0250310D01*
M02*
