%
M48
M72
T01C0.02362
T02C0.03200
T03C0.03543
T04C0.04000
T05C0.13000
%
T01
X426255Y96333
X381255Y106333
X381255Y116333
X381255Y126333
X381255Y136333
X426255Y171333
X421255Y221333
X411255Y226333
X426255Y231333
X436255Y256333
X416255Y276333
X326255Y281333
X266255Y271333
X236255Y266333
X226255Y271333
X161255Y251333
X226255Y206333
X176255Y166333
X191255Y81333
X361255Y81333
T02
X446255Y121333
X438755Y126333
X446255Y131333
X196255Y106333
X191255Y98833
X186255Y106333
T03
X426255Y131333
X426255Y161333
X241255Y96333
X211255Y96333
T04
X429184Y79262
X436255Y86333
X443326Y93404
X403224Y96333
X403224Y86333
X393224Y86333
X393224Y96333
X393224Y106333
X403224Y106333
X403224Y116333
X403224Y126333
X393224Y126333
X393224Y116333
X393224Y136333
X403224Y136333
X403224Y146333
X403224Y156333
X393224Y156333
X393224Y146333
X393224Y166333
X403224Y166333
X403224Y176333
X403224Y186333
X393224Y186333
X393224Y176333
X393224Y196333
X403224Y196333
X403224Y206333
X403224Y216333
X393224Y216333
X393224Y206333
X393224Y226333
X403224Y226333
X403224Y236333
X393224Y236333
X393224Y246333
X403224Y246333
X403224Y256333
X393224Y256333
X393224Y266333
X403224Y266333
X403224Y276333
X393224Y276333
X429184Y278404
X436255Y271333
X443326Y264262
X441255Y241333
X441255Y231333
X441255Y221333
X441255Y211333
X441255Y191333
X441255Y181333
X441255Y171333
X313735Y81333
X303735Y81333
X293735Y81333
X231255Y111333
X221255Y111333
X211255Y111333
X211255Y131333
X221255Y131333
X231255Y131333
X231255Y151333
X221255Y151333
X211255Y151333
X211255Y171333
X221255Y171333
X231255Y171333
X206255Y211333
X196255Y211333
X186255Y211333
X176255Y211333
X176255Y226333
X186255Y226333
X196255Y226333
X206255Y226333
X206255Y241333
X196255Y241333
X186255Y241333
X176255Y241333
X164184Y264262
X171255Y271333
X178326Y278404
X201255Y281333
X211255Y281333
X221255Y281333
X231255Y281333
X241255Y281333
X251255Y281333
X293735Y281333
X303735Y281333
X313735Y281333
X161255Y186333
X161255Y176333
X161255Y166333
X164184Y93404
X171255Y86333
X178326Y79262
T05
X303735Y145979
X303735Y254247
M30
