G75*
%MOIN*%
%OFA0B0*%
%FSLAX25Y25*%
%IPPOS*%
%LPD*%
%AMOC8*
5,1,8,0,0,1.08239X$1,22.5*
%
%ADD10C,0.00800*%
%ADD11OC8,0.07200*%
%ADD12C,0.07200*%
%ADD13C,0.04000*%
%ADD14C,0.04123*%
%ADD15C,0.00000*%
%ADD16C,0.13800*%
%ADD17OC8,0.05162*%
D10*
X0146255Y0061333D02*
X0461216Y0061333D01*
X0461216Y0297554D01*
X0146255Y0297554D01*
X0146255Y0061333D01*
D11*
X0393224Y0086333D03*
X0403224Y0086333D03*
X0403224Y0096333D03*
X0393224Y0096333D03*
X0393224Y0106333D03*
X0403224Y0106333D03*
X0403224Y0116333D03*
X0403224Y0126333D03*
X0393224Y0126333D03*
X0393224Y0116333D03*
X0393224Y0136333D03*
X0403224Y0136333D03*
X0403224Y0146333D03*
X0403224Y0156333D03*
X0393224Y0156333D03*
X0393224Y0146333D03*
X0393224Y0166333D03*
X0403224Y0166333D03*
X0403224Y0176333D03*
X0403224Y0186333D03*
X0393224Y0186333D03*
X0393224Y0176333D03*
X0393224Y0196333D03*
X0403224Y0196333D03*
X0403224Y0206333D03*
X0403224Y0216333D03*
X0393224Y0216333D03*
X0393224Y0206333D03*
X0393224Y0226333D03*
X0403224Y0226333D03*
X0403224Y0236333D03*
X0393224Y0236333D03*
X0393224Y0246333D03*
X0403224Y0246333D03*
X0403224Y0256333D03*
X0393224Y0256333D03*
X0393224Y0266333D03*
X0403224Y0266333D03*
X0403224Y0276333D03*
X0393224Y0276333D03*
D12*
X0426921Y0276142D02*
X0431447Y0280667D01*
X0438518Y0273596D02*
X0433992Y0269071D01*
X0441063Y0262000D02*
X0445589Y0266525D01*
X0444455Y0241333D02*
X0438055Y0241333D01*
X0438055Y0231333D02*
X0444455Y0231333D01*
X0444455Y0221333D02*
X0438055Y0221333D01*
X0438055Y0211333D02*
X0444455Y0211333D01*
X0444455Y0191333D02*
X0438055Y0191333D01*
X0438055Y0181333D02*
X0444455Y0181333D01*
X0444455Y0171333D02*
X0438055Y0171333D01*
X0441063Y0095667D02*
X0445589Y0091142D01*
X0438518Y0084071D02*
X0433992Y0088596D01*
X0426921Y0081525D02*
X0431447Y0077000D01*
X0313735Y0078133D02*
X0313735Y0084533D01*
X0303735Y0084533D02*
X0303735Y0078133D01*
X0293735Y0078133D02*
X0293735Y0084533D01*
X0231255Y0108133D02*
X0231255Y0114533D01*
X0221255Y0114533D02*
X0221255Y0108133D01*
X0211255Y0108133D02*
X0211255Y0114533D01*
X0211255Y0128133D02*
X0211255Y0134533D01*
X0221255Y0134533D02*
X0221255Y0128133D01*
X0231255Y0128133D02*
X0231255Y0134533D01*
X0231255Y0148133D02*
X0231255Y0154533D01*
X0221255Y0154533D02*
X0221255Y0148133D01*
X0211255Y0148133D02*
X0211255Y0154533D01*
X0211255Y0168133D02*
X0211255Y0174533D01*
X0221255Y0174533D02*
X0221255Y0168133D01*
X0231255Y0168133D02*
X0231255Y0174533D01*
X0206255Y0208133D02*
X0206255Y0214533D01*
X0206255Y0223133D02*
X0206255Y0229533D01*
X0206255Y0238133D02*
X0206255Y0244533D01*
X0196255Y0244533D02*
X0196255Y0238133D01*
X0196255Y0229533D02*
X0196255Y0223133D01*
X0196255Y0214533D02*
X0196255Y0208133D01*
X0186255Y0208133D02*
X0186255Y0214533D01*
X0176255Y0214533D02*
X0176255Y0208133D01*
X0176255Y0223133D02*
X0176255Y0229533D01*
X0186255Y0229533D02*
X0186255Y0223133D01*
X0186255Y0238133D02*
X0186255Y0244533D01*
X0176255Y0244533D02*
X0176255Y0238133D01*
X0166447Y0262000D02*
X0161921Y0266525D01*
X0168992Y0273596D02*
X0173518Y0269071D01*
X0180589Y0276142D02*
X0176063Y0280667D01*
X0201255Y0278133D02*
X0201255Y0284533D01*
X0211255Y0284533D02*
X0211255Y0278133D01*
X0221255Y0278133D02*
X0221255Y0284533D01*
X0231255Y0284533D02*
X0231255Y0278133D01*
X0241255Y0278133D02*
X0241255Y0284533D01*
X0251255Y0284533D02*
X0251255Y0278133D01*
X0293735Y0278133D02*
X0293735Y0284533D01*
X0303735Y0284533D02*
X0303735Y0278133D01*
X0313735Y0278133D02*
X0313735Y0284533D01*
X0164455Y0186333D02*
X0158055Y0186333D01*
X0158055Y0176333D02*
X0164455Y0176333D01*
X0164455Y0166333D02*
X0158055Y0166333D01*
X0166447Y0095667D02*
X0161921Y0091142D01*
X0168992Y0084071D02*
X0173518Y0088596D01*
X0180589Y0081525D02*
X0176063Y0077000D01*
D13*
X0191255Y0098833D03*
X0186255Y0106333D03*
X0196255Y0106333D03*
X0211255Y0096333D03*
X0426255Y0131333D03*
X0438755Y0126333D03*
X0446255Y0121333D03*
X0446255Y0131333D03*
D14*
X0426255Y0161333D03*
X0241255Y0096333D03*
D15*
X0297235Y0145979D02*
X0297237Y0146140D01*
X0297243Y0146300D01*
X0297253Y0146461D01*
X0297267Y0146621D01*
X0297285Y0146781D01*
X0297306Y0146940D01*
X0297332Y0147099D01*
X0297362Y0147257D01*
X0297395Y0147414D01*
X0297433Y0147571D01*
X0297474Y0147726D01*
X0297519Y0147880D01*
X0297568Y0148033D01*
X0297621Y0148185D01*
X0297677Y0148336D01*
X0297738Y0148485D01*
X0297801Y0148633D01*
X0297869Y0148779D01*
X0297940Y0148923D01*
X0298014Y0149065D01*
X0298092Y0149206D01*
X0298174Y0149344D01*
X0298259Y0149481D01*
X0298347Y0149615D01*
X0298439Y0149747D01*
X0298534Y0149877D01*
X0298632Y0150005D01*
X0298733Y0150130D01*
X0298837Y0150252D01*
X0298944Y0150372D01*
X0299054Y0150489D01*
X0299167Y0150604D01*
X0299283Y0150715D01*
X0299402Y0150824D01*
X0299523Y0150929D01*
X0299647Y0151032D01*
X0299773Y0151132D01*
X0299901Y0151228D01*
X0300032Y0151321D01*
X0300166Y0151411D01*
X0300301Y0151498D01*
X0300439Y0151581D01*
X0300578Y0151661D01*
X0300720Y0151737D01*
X0300863Y0151810D01*
X0301008Y0151879D01*
X0301155Y0151945D01*
X0301303Y0152007D01*
X0301453Y0152065D01*
X0301604Y0152120D01*
X0301757Y0152171D01*
X0301911Y0152218D01*
X0302066Y0152261D01*
X0302222Y0152300D01*
X0302378Y0152336D01*
X0302536Y0152367D01*
X0302694Y0152395D01*
X0302853Y0152419D01*
X0303013Y0152439D01*
X0303173Y0152455D01*
X0303333Y0152467D01*
X0303494Y0152475D01*
X0303655Y0152479D01*
X0303815Y0152479D01*
X0303976Y0152475D01*
X0304137Y0152467D01*
X0304297Y0152455D01*
X0304457Y0152439D01*
X0304617Y0152419D01*
X0304776Y0152395D01*
X0304934Y0152367D01*
X0305092Y0152336D01*
X0305248Y0152300D01*
X0305404Y0152261D01*
X0305559Y0152218D01*
X0305713Y0152171D01*
X0305866Y0152120D01*
X0306017Y0152065D01*
X0306167Y0152007D01*
X0306315Y0151945D01*
X0306462Y0151879D01*
X0306607Y0151810D01*
X0306750Y0151737D01*
X0306892Y0151661D01*
X0307031Y0151581D01*
X0307169Y0151498D01*
X0307304Y0151411D01*
X0307438Y0151321D01*
X0307569Y0151228D01*
X0307697Y0151132D01*
X0307823Y0151032D01*
X0307947Y0150929D01*
X0308068Y0150824D01*
X0308187Y0150715D01*
X0308303Y0150604D01*
X0308416Y0150489D01*
X0308526Y0150372D01*
X0308633Y0150252D01*
X0308737Y0150130D01*
X0308838Y0150005D01*
X0308936Y0149877D01*
X0309031Y0149747D01*
X0309123Y0149615D01*
X0309211Y0149481D01*
X0309296Y0149344D01*
X0309378Y0149206D01*
X0309456Y0149065D01*
X0309530Y0148923D01*
X0309601Y0148779D01*
X0309669Y0148633D01*
X0309732Y0148485D01*
X0309793Y0148336D01*
X0309849Y0148185D01*
X0309902Y0148033D01*
X0309951Y0147880D01*
X0309996Y0147726D01*
X0310037Y0147571D01*
X0310075Y0147414D01*
X0310108Y0147257D01*
X0310138Y0147099D01*
X0310164Y0146940D01*
X0310185Y0146781D01*
X0310203Y0146621D01*
X0310217Y0146461D01*
X0310227Y0146300D01*
X0310233Y0146140D01*
X0310235Y0145979D01*
X0310233Y0145818D01*
X0310227Y0145658D01*
X0310217Y0145497D01*
X0310203Y0145337D01*
X0310185Y0145177D01*
X0310164Y0145018D01*
X0310138Y0144859D01*
X0310108Y0144701D01*
X0310075Y0144544D01*
X0310037Y0144387D01*
X0309996Y0144232D01*
X0309951Y0144078D01*
X0309902Y0143925D01*
X0309849Y0143773D01*
X0309793Y0143622D01*
X0309732Y0143473D01*
X0309669Y0143325D01*
X0309601Y0143179D01*
X0309530Y0143035D01*
X0309456Y0142893D01*
X0309378Y0142752D01*
X0309296Y0142614D01*
X0309211Y0142477D01*
X0309123Y0142343D01*
X0309031Y0142211D01*
X0308936Y0142081D01*
X0308838Y0141953D01*
X0308737Y0141828D01*
X0308633Y0141706D01*
X0308526Y0141586D01*
X0308416Y0141469D01*
X0308303Y0141354D01*
X0308187Y0141243D01*
X0308068Y0141134D01*
X0307947Y0141029D01*
X0307823Y0140926D01*
X0307697Y0140826D01*
X0307569Y0140730D01*
X0307438Y0140637D01*
X0307304Y0140547D01*
X0307169Y0140460D01*
X0307031Y0140377D01*
X0306892Y0140297D01*
X0306750Y0140221D01*
X0306607Y0140148D01*
X0306462Y0140079D01*
X0306315Y0140013D01*
X0306167Y0139951D01*
X0306017Y0139893D01*
X0305866Y0139838D01*
X0305713Y0139787D01*
X0305559Y0139740D01*
X0305404Y0139697D01*
X0305248Y0139658D01*
X0305092Y0139622D01*
X0304934Y0139591D01*
X0304776Y0139563D01*
X0304617Y0139539D01*
X0304457Y0139519D01*
X0304297Y0139503D01*
X0304137Y0139491D01*
X0303976Y0139483D01*
X0303815Y0139479D01*
X0303655Y0139479D01*
X0303494Y0139483D01*
X0303333Y0139491D01*
X0303173Y0139503D01*
X0303013Y0139519D01*
X0302853Y0139539D01*
X0302694Y0139563D01*
X0302536Y0139591D01*
X0302378Y0139622D01*
X0302222Y0139658D01*
X0302066Y0139697D01*
X0301911Y0139740D01*
X0301757Y0139787D01*
X0301604Y0139838D01*
X0301453Y0139893D01*
X0301303Y0139951D01*
X0301155Y0140013D01*
X0301008Y0140079D01*
X0300863Y0140148D01*
X0300720Y0140221D01*
X0300578Y0140297D01*
X0300439Y0140377D01*
X0300301Y0140460D01*
X0300166Y0140547D01*
X0300032Y0140637D01*
X0299901Y0140730D01*
X0299773Y0140826D01*
X0299647Y0140926D01*
X0299523Y0141029D01*
X0299402Y0141134D01*
X0299283Y0141243D01*
X0299167Y0141354D01*
X0299054Y0141469D01*
X0298944Y0141586D01*
X0298837Y0141706D01*
X0298733Y0141828D01*
X0298632Y0141953D01*
X0298534Y0142081D01*
X0298439Y0142211D01*
X0298347Y0142343D01*
X0298259Y0142477D01*
X0298174Y0142614D01*
X0298092Y0142752D01*
X0298014Y0142893D01*
X0297940Y0143035D01*
X0297869Y0143179D01*
X0297801Y0143325D01*
X0297738Y0143473D01*
X0297677Y0143622D01*
X0297621Y0143773D01*
X0297568Y0143925D01*
X0297519Y0144078D01*
X0297474Y0144232D01*
X0297433Y0144387D01*
X0297395Y0144544D01*
X0297362Y0144701D01*
X0297332Y0144859D01*
X0297306Y0145018D01*
X0297285Y0145177D01*
X0297267Y0145337D01*
X0297253Y0145497D01*
X0297243Y0145658D01*
X0297237Y0145818D01*
X0297235Y0145979D01*
X0297235Y0254247D02*
X0297237Y0254408D01*
X0297243Y0254568D01*
X0297253Y0254729D01*
X0297267Y0254889D01*
X0297285Y0255049D01*
X0297306Y0255208D01*
X0297332Y0255367D01*
X0297362Y0255525D01*
X0297395Y0255682D01*
X0297433Y0255839D01*
X0297474Y0255994D01*
X0297519Y0256148D01*
X0297568Y0256301D01*
X0297621Y0256453D01*
X0297677Y0256604D01*
X0297738Y0256753D01*
X0297801Y0256901D01*
X0297869Y0257047D01*
X0297940Y0257191D01*
X0298014Y0257333D01*
X0298092Y0257474D01*
X0298174Y0257612D01*
X0298259Y0257749D01*
X0298347Y0257883D01*
X0298439Y0258015D01*
X0298534Y0258145D01*
X0298632Y0258273D01*
X0298733Y0258398D01*
X0298837Y0258520D01*
X0298944Y0258640D01*
X0299054Y0258757D01*
X0299167Y0258872D01*
X0299283Y0258983D01*
X0299402Y0259092D01*
X0299523Y0259197D01*
X0299647Y0259300D01*
X0299773Y0259400D01*
X0299901Y0259496D01*
X0300032Y0259589D01*
X0300166Y0259679D01*
X0300301Y0259766D01*
X0300439Y0259849D01*
X0300578Y0259929D01*
X0300720Y0260005D01*
X0300863Y0260078D01*
X0301008Y0260147D01*
X0301155Y0260213D01*
X0301303Y0260275D01*
X0301453Y0260333D01*
X0301604Y0260388D01*
X0301757Y0260439D01*
X0301911Y0260486D01*
X0302066Y0260529D01*
X0302222Y0260568D01*
X0302378Y0260604D01*
X0302536Y0260635D01*
X0302694Y0260663D01*
X0302853Y0260687D01*
X0303013Y0260707D01*
X0303173Y0260723D01*
X0303333Y0260735D01*
X0303494Y0260743D01*
X0303655Y0260747D01*
X0303815Y0260747D01*
X0303976Y0260743D01*
X0304137Y0260735D01*
X0304297Y0260723D01*
X0304457Y0260707D01*
X0304617Y0260687D01*
X0304776Y0260663D01*
X0304934Y0260635D01*
X0305092Y0260604D01*
X0305248Y0260568D01*
X0305404Y0260529D01*
X0305559Y0260486D01*
X0305713Y0260439D01*
X0305866Y0260388D01*
X0306017Y0260333D01*
X0306167Y0260275D01*
X0306315Y0260213D01*
X0306462Y0260147D01*
X0306607Y0260078D01*
X0306750Y0260005D01*
X0306892Y0259929D01*
X0307031Y0259849D01*
X0307169Y0259766D01*
X0307304Y0259679D01*
X0307438Y0259589D01*
X0307569Y0259496D01*
X0307697Y0259400D01*
X0307823Y0259300D01*
X0307947Y0259197D01*
X0308068Y0259092D01*
X0308187Y0258983D01*
X0308303Y0258872D01*
X0308416Y0258757D01*
X0308526Y0258640D01*
X0308633Y0258520D01*
X0308737Y0258398D01*
X0308838Y0258273D01*
X0308936Y0258145D01*
X0309031Y0258015D01*
X0309123Y0257883D01*
X0309211Y0257749D01*
X0309296Y0257612D01*
X0309378Y0257474D01*
X0309456Y0257333D01*
X0309530Y0257191D01*
X0309601Y0257047D01*
X0309669Y0256901D01*
X0309732Y0256753D01*
X0309793Y0256604D01*
X0309849Y0256453D01*
X0309902Y0256301D01*
X0309951Y0256148D01*
X0309996Y0255994D01*
X0310037Y0255839D01*
X0310075Y0255682D01*
X0310108Y0255525D01*
X0310138Y0255367D01*
X0310164Y0255208D01*
X0310185Y0255049D01*
X0310203Y0254889D01*
X0310217Y0254729D01*
X0310227Y0254568D01*
X0310233Y0254408D01*
X0310235Y0254247D01*
X0310233Y0254086D01*
X0310227Y0253926D01*
X0310217Y0253765D01*
X0310203Y0253605D01*
X0310185Y0253445D01*
X0310164Y0253286D01*
X0310138Y0253127D01*
X0310108Y0252969D01*
X0310075Y0252812D01*
X0310037Y0252655D01*
X0309996Y0252500D01*
X0309951Y0252346D01*
X0309902Y0252193D01*
X0309849Y0252041D01*
X0309793Y0251890D01*
X0309732Y0251741D01*
X0309669Y0251593D01*
X0309601Y0251447D01*
X0309530Y0251303D01*
X0309456Y0251161D01*
X0309378Y0251020D01*
X0309296Y0250882D01*
X0309211Y0250745D01*
X0309123Y0250611D01*
X0309031Y0250479D01*
X0308936Y0250349D01*
X0308838Y0250221D01*
X0308737Y0250096D01*
X0308633Y0249974D01*
X0308526Y0249854D01*
X0308416Y0249737D01*
X0308303Y0249622D01*
X0308187Y0249511D01*
X0308068Y0249402D01*
X0307947Y0249297D01*
X0307823Y0249194D01*
X0307697Y0249094D01*
X0307569Y0248998D01*
X0307438Y0248905D01*
X0307304Y0248815D01*
X0307169Y0248728D01*
X0307031Y0248645D01*
X0306892Y0248565D01*
X0306750Y0248489D01*
X0306607Y0248416D01*
X0306462Y0248347D01*
X0306315Y0248281D01*
X0306167Y0248219D01*
X0306017Y0248161D01*
X0305866Y0248106D01*
X0305713Y0248055D01*
X0305559Y0248008D01*
X0305404Y0247965D01*
X0305248Y0247926D01*
X0305092Y0247890D01*
X0304934Y0247859D01*
X0304776Y0247831D01*
X0304617Y0247807D01*
X0304457Y0247787D01*
X0304297Y0247771D01*
X0304137Y0247759D01*
X0303976Y0247751D01*
X0303815Y0247747D01*
X0303655Y0247747D01*
X0303494Y0247751D01*
X0303333Y0247759D01*
X0303173Y0247771D01*
X0303013Y0247787D01*
X0302853Y0247807D01*
X0302694Y0247831D01*
X0302536Y0247859D01*
X0302378Y0247890D01*
X0302222Y0247926D01*
X0302066Y0247965D01*
X0301911Y0248008D01*
X0301757Y0248055D01*
X0301604Y0248106D01*
X0301453Y0248161D01*
X0301303Y0248219D01*
X0301155Y0248281D01*
X0301008Y0248347D01*
X0300863Y0248416D01*
X0300720Y0248489D01*
X0300578Y0248565D01*
X0300439Y0248645D01*
X0300301Y0248728D01*
X0300166Y0248815D01*
X0300032Y0248905D01*
X0299901Y0248998D01*
X0299773Y0249094D01*
X0299647Y0249194D01*
X0299523Y0249297D01*
X0299402Y0249402D01*
X0299283Y0249511D01*
X0299167Y0249622D01*
X0299054Y0249737D01*
X0298944Y0249854D01*
X0298837Y0249974D01*
X0298733Y0250096D01*
X0298632Y0250221D01*
X0298534Y0250349D01*
X0298439Y0250479D01*
X0298347Y0250611D01*
X0298259Y0250745D01*
X0298174Y0250882D01*
X0298092Y0251020D01*
X0298014Y0251161D01*
X0297940Y0251303D01*
X0297869Y0251447D01*
X0297801Y0251593D01*
X0297738Y0251741D01*
X0297677Y0251890D01*
X0297621Y0252041D01*
X0297568Y0252193D01*
X0297519Y0252346D01*
X0297474Y0252500D01*
X0297433Y0252655D01*
X0297395Y0252812D01*
X0297362Y0252969D01*
X0297332Y0253127D01*
X0297306Y0253286D01*
X0297285Y0253445D01*
X0297267Y0253605D01*
X0297253Y0253765D01*
X0297243Y0253926D01*
X0297237Y0254086D01*
X0297235Y0254247D01*
D16*
X0303735Y0254247D03*
X0303735Y0145979D03*
D17*
X0381255Y0136333D03*
X0381255Y0126333D03*
X0381255Y0116333D03*
X0381255Y0106333D03*
X0361255Y0081333D03*
X0426255Y0096333D03*
X0426255Y0171333D03*
X0421255Y0221333D03*
X0411255Y0226333D03*
X0426255Y0231333D03*
X0436255Y0256333D03*
X0416255Y0276333D03*
X0326255Y0281333D03*
X0266255Y0271333D03*
X0236255Y0266333D03*
X0226255Y0271333D03*
X0161255Y0251333D03*
X0226255Y0206333D03*
X0176255Y0166333D03*
X0191255Y0081333D03*
M02*
