G75*
%MOIN*%
%OFA0B0*%
%FSLAX25Y25*%
%IPPOS*%
%LPD*%
%AMOC8*
5,1,8,0,0,1.08239X$1,22.5*
%
%ADD10OC8,0.06400*%
%ADD11C,0.06400*%
%ADD12C,0.07400*%
%ADD13C,0.01575*%
%ADD14C,0.01600*%
%ADD15OC8,0.04362*%
D10*
X0393224Y0086333D03*
X0403224Y0086333D03*
X0403224Y0096333D03*
X0393224Y0096333D03*
X0393224Y0106333D03*
X0403224Y0106333D03*
X0403224Y0116333D03*
X0403224Y0126333D03*
X0393224Y0126333D03*
X0393224Y0116333D03*
X0393224Y0136333D03*
X0403224Y0136333D03*
X0403224Y0146333D03*
X0403224Y0156333D03*
X0393224Y0156333D03*
X0393224Y0146333D03*
X0393224Y0166333D03*
X0403224Y0166333D03*
X0403224Y0176333D03*
X0403224Y0186333D03*
X0393224Y0186333D03*
X0393224Y0176333D03*
X0393224Y0196333D03*
X0403224Y0196333D03*
X0403224Y0206333D03*
X0403224Y0216333D03*
X0393224Y0216333D03*
X0393224Y0206333D03*
X0393224Y0226333D03*
X0403224Y0226333D03*
X0403224Y0236333D03*
X0393224Y0236333D03*
X0393224Y0246333D03*
X0403224Y0246333D03*
X0403224Y0256333D03*
X0393224Y0256333D03*
X0393224Y0266333D03*
X0403224Y0266333D03*
X0403224Y0276333D03*
X0393224Y0276333D03*
D11*
X0426921Y0276142D02*
X0431447Y0280667D01*
X0438518Y0273596D02*
X0433992Y0269071D01*
X0441063Y0262000D02*
X0445589Y0266525D01*
X0444455Y0241333D02*
X0438055Y0241333D01*
X0438055Y0231333D02*
X0444455Y0231333D01*
X0444455Y0221333D02*
X0438055Y0221333D01*
X0438055Y0211333D02*
X0444455Y0211333D01*
X0444455Y0191333D02*
X0438055Y0191333D01*
X0438055Y0181333D02*
X0444455Y0181333D01*
X0444455Y0171333D02*
X0438055Y0171333D01*
X0441063Y0095667D02*
X0445589Y0091142D01*
X0438518Y0084071D02*
X0433992Y0088596D01*
X0426921Y0081525D02*
X0431447Y0077000D01*
X0313735Y0078133D02*
X0313735Y0084533D01*
X0303735Y0084533D02*
X0303735Y0078133D01*
X0293735Y0078133D02*
X0293735Y0084533D01*
X0231255Y0108133D02*
X0231255Y0114533D01*
X0221255Y0114533D02*
X0221255Y0108133D01*
X0211255Y0108133D02*
X0211255Y0114533D01*
X0211255Y0128133D02*
X0211255Y0134533D01*
X0221255Y0134533D02*
X0221255Y0128133D01*
X0231255Y0128133D02*
X0231255Y0134533D01*
X0231255Y0148133D02*
X0231255Y0154533D01*
X0221255Y0154533D02*
X0221255Y0148133D01*
X0211255Y0148133D02*
X0211255Y0154533D01*
X0211255Y0168133D02*
X0211255Y0174533D01*
X0221255Y0174533D02*
X0221255Y0168133D01*
X0231255Y0168133D02*
X0231255Y0174533D01*
X0206255Y0208133D02*
X0206255Y0214533D01*
X0206255Y0223133D02*
X0206255Y0229533D01*
X0206255Y0238133D02*
X0206255Y0244533D01*
X0196255Y0244533D02*
X0196255Y0238133D01*
X0196255Y0229533D02*
X0196255Y0223133D01*
X0196255Y0214533D02*
X0196255Y0208133D01*
X0186255Y0208133D02*
X0186255Y0214533D01*
X0176255Y0214533D02*
X0176255Y0208133D01*
X0176255Y0223133D02*
X0176255Y0229533D01*
X0186255Y0229533D02*
X0186255Y0223133D01*
X0186255Y0238133D02*
X0186255Y0244533D01*
X0176255Y0244533D02*
X0176255Y0238133D01*
X0166447Y0262000D02*
X0161921Y0266525D01*
X0168992Y0273596D02*
X0173518Y0269071D01*
X0180589Y0276142D02*
X0176063Y0280667D01*
X0201255Y0278133D02*
X0201255Y0284533D01*
X0211255Y0284533D02*
X0211255Y0278133D01*
X0221255Y0278133D02*
X0221255Y0284533D01*
X0231255Y0284533D02*
X0231255Y0278133D01*
X0241255Y0278133D02*
X0241255Y0284533D01*
X0251255Y0284533D02*
X0251255Y0278133D01*
X0293735Y0278133D02*
X0293735Y0284533D01*
X0303735Y0284533D02*
X0303735Y0278133D01*
X0313735Y0278133D02*
X0313735Y0284533D01*
X0164455Y0186333D02*
X0158055Y0186333D01*
X0158055Y0176333D02*
X0164455Y0176333D01*
X0164455Y0166333D02*
X0158055Y0166333D01*
X0166447Y0095667D02*
X0161921Y0091142D01*
X0168992Y0084071D02*
X0173518Y0088596D01*
X0180589Y0081525D02*
X0176063Y0077000D01*
D12*
X0191255Y0098833D03*
X0186255Y0106333D03*
X0196255Y0106333D03*
X0211255Y0096333D03*
X0241255Y0096333D03*
X0426255Y0131333D03*
X0438755Y0126333D03*
X0446255Y0121333D03*
X0446255Y0131333D03*
X0426255Y0161333D03*
D13*
X0211255Y0151333D02*
X0211255Y0131333D01*
X0211255Y0111333D01*
X0211255Y0151333D02*
X0211255Y0171333D01*
X0176255Y0211333D02*
X0176255Y0226333D01*
D14*
X0151255Y0082656D02*
X0151255Y0066333D01*
X0459016Y0066333D01*
X0459016Y0295354D01*
X0151255Y0295354D01*
X0151255Y0275010D01*
X0159051Y0282806D01*
X0169782Y0293537D01*
X0170738Y0293933D01*
X0271772Y0293933D01*
X0272728Y0293537D01*
X0277728Y0288537D01*
X0278459Y0287806D01*
X0278855Y0286851D01*
X0278855Y0277410D01*
X0282332Y0273933D01*
X0290864Y0273933D01*
X0289497Y0275301D01*
X0288735Y0277139D01*
X0288735Y0283103D01*
X0288655Y0283296D01*
X0288655Y0286851D01*
X0289051Y0287806D01*
X0289782Y0288537D01*
X0294051Y0292806D01*
X0294051Y0292806D01*
X0294782Y0293537D01*
X0295738Y0293933D01*
X0406772Y0293933D01*
X0407728Y0293537D01*
X0408459Y0292806D01*
X0408459Y0292806D01*
X0413459Y0287806D01*
X0413855Y0286851D01*
X0413855Y0279563D01*
X0414606Y0280314D01*
X0417904Y0280314D01*
X0419285Y0278933D01*
X0422666Y0278933D01*
X0422682Y0278974D01*
X0428614Y0284906D01*
X0430452Y0285667D01*
X0432441Y0285667D01*
X0434279Y0284906D01*
X0435686Y0283499D01*
X0436447Y0281662D01*
X0436447Y0279673D01*
X0435686Y0277835D01*
X0429754Y0271903D01*
X0428992Y0270065D01*
X0428992Y0268076D01*
X0429754Y0266238D01*
X0431160Y0264832D01*
X0432998Y0264071D01*
X0434987Y0264071D01*
X0436825Y0264832D01*
X0442757Y0270764D01*
X0444594Y0271525D01*
X0446583Y0271525D01*
X0448421Y0270764D01*
X0449828Y0269357D01*
X0450589Y0267520D01*
X0450589Y0265530D01*
X0449828Y0263693D01*
X0443896Y0257761D01*
X0442058Y0257000D01*
X0440236Y0257000D01*
X0440236Y0254684D01*
X0437904Y0252352D01*
X0434606Y0252352D01*
X0432274Y0254684D01*
X0432274Y0257982D01*
X0434606Y0260314D01*
X0435701Y0260314D01*
X0436160Y0260773D01*
X0436063Y0261005D01*
X0436063Y0262994D01*
X0436825Y0264832D01*
X0442757Y0270764D01*
X0443518Y0272601D01*
X0443518Y0274591D01*
X0443422Y0274823D01*
X0447332Y0278733D01*
X0450178Y0278733D01*
X0453655Y0275256D01*
X0453655Y0237333D01*
X0453459Y0237806D01*
X0449455Y0241810D01*
X0449455Y0242328D01*
X0448694Y0244166D01*
X0447287Y0245572D01*
X0445450Y0246333D01*
X0437060Y0246333D01*
X0435223Y0245572D01*
X0433816Y0244166D01*
X0433720Y0243933D01*
X0432332Y0243933D01*
X0428855Y0247410D01*
X0428855Y0271531D01*
X0429754Y0271903D01*
X0435686Y0277835D01*
X0437523Y0278596D01*
X0439512Y0278596D01*
X0439745Y0278500D01*
X0444051Y0282806D01*
X0444782Y0283537D01*
X0445738Y0283933D01*
X0451772Y0283933D01*
X0452728Y0283537D01*
X0457728Y0278537D01*
X0458459Y0277806D01*
X0458855Y0276851D01*
X0458855Y0185816D01*
X0458459Y0184861D01*
X0454932Y0181333D01*
X0458459Y0177806D01*
X0458855Y0176851D01*
X0458855Y0140816D01*
X0458459Y0139861D01*
X0457728Y0139129D01*
X0452309Y0133711D01*
X0452728Y0133537D01*
X0457728Y0128537D01*
X0458459Y0127806D01*
X0458855Y0126851D01*
X0458855Y0085816D01*
X0458459Y0084861D01*
X0453459Y0079861D01*
X0452728Y0079129D01*
X0451772Y0078733D01*
X0443855Y0078733D01*
X0443855Y0075816D01*
X0443459Y0074861D01*
X0442728Y0074129D01*
X0442728Y0074129D01*
X0437728Y0069129D01*
X0436772Y0068733D01*
X0310738Y0068733D01*
X0309782Y0069129D01*
X0309051Y0069861D01*
X0309051Y0069861D01*
X0305471Y0073440D01*
X0304730Y0073133D01*
X0302741Y0073133D01*
X0300903Y0073895D01*
X0299497Y0075301D01*
X0298735Y0077139D01*
X0298735Y0085528D01*
X0297974Y0087366D01*
X0296568Y0088772D01*
X0294730Y0089533D01*
X0292741Y0089533D01*
X0290903Y0088772D01*
X0289497Y0087366D01*
X0288735Y0085528D01*
X0288735Y0083933D01*
X0227332Y0083933D01*
X0223855Y0087410D01*
X0223855Y0103798D01*
X0224087Y0103895D01*
X0225494Y0105301D01*
X0226255Y0107139D01*
X0227016Y0105301D01*
X0228423Y0103895D01*
X0230260Y0103133D01*
X0232250Y0103133D01*
X0234087Y0103895D01*
X0235494Y0105301D01*
X0236255Y0107139D01*
X0236255Y0108733D01*
X0241772Y0108733D01*
X0242728Y0109129D01*
X0247332Y0113733D01*
X0355178Y0113733D01*
X0364782Y0104129D01*
X0365738Y0103733D01*
X0378225Y0103733D01*
X0379606Y0102352D01*
X0382904Y0102352D01*
X0385236Y0104684D01*
X0385236Y0107982D01*
X0382904Y0110314D01*
X0379606Y0110314D01*
X0378225Y0108933D01*
X0367332Y0108933D01*
X0357728Y0118537D01*
X0357255Y0118733D01*
X0375178Y0118733D01*
X0377274Y0116637D01*
X0377274Y0114684D01*
X0379606Y0112352D01*
X0382904Y0112352D01*
X0385236Y0114684D01*
X0385236Y0117982D01*
X0382904Y0120314D01*
X0380951Y0120314D01*
X0378459Y0122806D01*
X0377728Y0123537D01*
X0377255Y0123733D01*
X0378225Y0123733D01*
X0379606Y0122352D01*
X0382904Y0122352D01*
X0385236Y0124684D01*
X0385236Y0127982D01*
X0382904Y0130314D01*
X0379606Y0130314D01*
X0378225Y0128933D01*
X0372255Y0128933D01*
X0372728Y0129129D01*
X0377332Y0133733D01*
X0378225Y0133733D01*
X0379606Y0132352D01*
X0382904Y0132352D01*
X0385236Y0134684D01*
X0385236Y0137982D01*
X0382904Y0140314D01*
X0379606Y0140314D01*
X0378225Y0138933D01*
X0375738Y0138933D01*
X0374782Y0138537D01*
X0374051Y0137806D01*
X0370178Y0133933D01*
X0252332Y0133933D01*
X0248855Y0137410D01*
X0248855Y0166851D01*
X0248459Y0167806D01*
X0247728Y0168537D01*
X0242728Y0173537D01*
X0241772Y0173933D01*
X0236255Y0173933D01*
X0236255Y0175528D01*
X0235494Y0177366D01*
X0234087Y0178772D01*
X0232250Y0179533D01*
X0230260Y0179533D01*
X0228423Y0178772D01*
X0227016Y0177366D01*
X0226255Y0175528D01*
X0226255Y0167139D01*
X0227016Y0165301D01*
X0228423Y0163895D01*
X0230260Y0163133D01*
X0232250Y0163133D01*
X0234087Y0163895D01*
X0235494Y0165301D01*
X0236255Y0167139D01*
X0236255Y0168733D01*
X0240178Y0168733D01*
X0243655Y0165256D01*
X0243655Y0147333D01*
X0243459Y0147806D01*
X0237728Y0153537D01*
X0236772Y0153933D01*
X0236255Y0153933D01*
X0236255Y0155528D01*
X0235494Y0157366D01*
X0234087Y0158772D01*
X0232250Y0159533D01*
X0230260Y0159533D01*
X0228423Y0158772D01*
X0227016Y0157366D01*
X0226255Y0155528D01*
X0226255Y0147139D01*
X0227016Y0145301D01*
X0228423Y0143895D01*
X0230260Y0143133D01*
X0232250Y0143133D01*
X0234087Y0143895D01*
X0235494Y0145301D01*
X0236255Y0147139D01*
X0236255Y0147656D01*
X0238655Y0145256D01*
X0238655Y0132610D01*
X0238459Y0132806D01*
X0237728Y0133537D01*
X0236772Y0133933D01*
X0236255Y0133933D01*
X0236255Y0135528D01*
X0235494Y0137366D01*
X0234087Y0138772D01*
X0232250Y0139533D01*
X0230260Y0139533D01*
X0228423Y0138772D01*
X0227016Y0137366D01*
X0226255Y0135528D01*
X0226255Y0127139D01*
X0227016Y0125301D01*
X0228423Y0123895D01*
X0230260Y0123133D01*
X0232250Y0123133D01*
X0234087Y0123895D01*
X0235494Y0125301D01*
X0236255Y0127139D01*
X0236255Y0127656D01*
X0244782Y0119129D01*
X0245496Y0118833D01*
X0244782Y0118537D01*
X0244051Y0117806D01*
X0240178Y0113933D01*
X0236255Y0113933D01*
X0236255Y0115528D01*
X0235494Y0117366D01*
X0234087Y0118772D01*
X0232250Y0119533D01*
X0230260Y0119533D01*
X0228423Y0118772D01*
X0227016Y0117366D01*
X0226255Y0115528D01*
X0226255Y0107139D01*
X0226255Y0115528D01*
X0225494Y0117366D01*
X0224087Y0118772D01*
X0223855Y0118868D01*
X0223855Y0123798D01*
X0224087Y0123895D01*
X0225494Y0125301D01*
X0226255Y0127139D01*
X0226255Y0135528D01*
X0225494Y0137366D01*
X0224087Y0138772D01*
X0223855Y0138868D01*
X0223855Y0143798D01*
X0224087Y0143895D01*
X0225494Y0145301D01*
X0226255Y0147139D01*
X0226255Y0155528D01*
X0225494Y0157366D01*
X0224087Y0158772D01*
X0223855Y0158868D01*
X0223855Y0163798D01*
X0224087Y0163895D01*
X0225494Y0165301D01*
X0226255Y0167139D01*
X0226255Y0175528D01*
X0225494Y0177366D01*
X0224087Y0178772D01*
X0223855Y0178868D01*
X0223855Y0193733D01*
X0231772Y0193733D01*
X0232728Y0194129D01*
X0233459Y0194861D01*
X0237728Y0199129D01*
X0238459Y0199861D01*
X0238855Y0200816D01*
X0238855Y0230256D01*
X0242332Y0233733D01*
X0321772Y0233733D01*
X0322728Y0234129D01*
X0327728Y0239129D01*
X0328459Y0239861D01*
X0328855Y0240816D01*
X0328855Y0278303D01*
X0330236Y0279684D01*
X0330236Y0282982D01*
X0327904Y0285314D01*
X0324606Y0285314D01*
X0323225Y0283933D01*
X0318735Y0283933D01*
X0318735Y0285528D01*
X0317974Y0287366D01*
X0316606Y0288733D01*
X0405178Y0288733D01*
X0408655Y0285256D01*
X0408655Y0229363D01*
X0407960Y0228668D01*
X0405295Y0231333D01*
X0401153Y0231333D01*
X0398224Y0228404D01*
X0398224Y0224262D01*
X0401153Y0221333D01*
X0398224Y0218404D01*
X0398224Y0216533D01*
X0403023Y0216533D01*
X0403023Y0216133D01*
X0398224Y0216133D01*
X0398224Y0214262D01*
X0401153Y0211333D01*
X0398224Y0208404D01*
X0398224Y0204262D01*
X0401153Y0201333D01*
X0398224Y0198404D01*
X0398224Y0194262D01*
X0401153Y0191333D01*
X0398224Y0188404D01*
X0398224Y0186533D01*
X0403023Y0186533D01*
X0403023Y0186133D01*
X0398224Y0186133D01*
X0398224Y0184262D01*
X0401153Y0181333D01*
X0398224Y0178404D01*
X0398224Y0174262D01*
X0401153Y0171333D01*
X0398224Y0168404D01*
X0398224Y0164262D01*
X0401153Y0161333D01*
X0398224Y0158404D01*
X0398224Y0154262D01*
X0401153Y0151333D01*
X0398224Y0148404D01*
X0398224Y0144262D01*
X0401153Y0141333D01*
X0398224Y0138404D01*
X0398224Y0136533D01*
X0403023Y0136533D01*
X0403023Y0136133D01*
X0398224Y0136133D01*
X0398224Y0134262D01*
X0401153Y0131333D01*
X0398224Y0128404D01*
X0398224Y0124262D01*
X0401153Y0121333D01*
X0398224Y0118404D01*
X0398224Y0116533D01*
X0403023Y0116533D01*
X0403023Y0116133D01*
X0398224Y0116133D01*
X0398224Y0114262D01*
X0401153Y0111333D01*
X0398224Y0108404D01*
X0398224Y0104262D01*
X0401153Y0101333D01*
X0398224Y0098404D01*
X0398224Y0094262D01*
X0401153Y0091333D01*
X0398224Y0088404D01*
X0398224Y0084262D01*
X0401153Y0081333D01*
X0405295Y0081333D01*
X0408224Y0084262D01*
X0408224Y0088404D01*
X0405295Y0091333D01*
X0401153Y0091333D01*
X0405295Y0091333D01*
X0408224Y0094262D01*
X0408224Y0098404D01*
X0405295Y0101333D01*
X0401153Y0101333D01*
X0405295Y0101333D01*
X0408224Y0104262D01*
X0408224Y0108404D01*
X0405295Y0111333D01*
X0401153Y0111333D01*
X0403024Y0111333D01*
X0403024Y0116133D01*
X0403424Y0116133D01*
X0403424Y0116533D01*
X0408224Y0116533D01*
X0408224Y0118404D01*
X0405295Y0121333D01*
X0403424Y0121333D01*
X0403424Y0116533D01*
X0403024Y0116533D01*
X0403024Y0121333D01*
X0401153Y0121333D01*
X0405295Y0121333D01*
X0408224Y0124262D01*
X0408224Y0128404D01*
X0405295Y0131333D01*
X0401153Y0131333D01*
X0403024Y0131333D01*
X0403024Y0136133D01*
X0403424Y0136133D01*
X0403424Y0136533D01*
X0408224Y0136533D01*
X0408224Y0138404D01*
X0405295Y0141333D01*
X0403424Y0141333D01*
X0403424Y0136533D01*
X0403024Y0136533D01*
X0403024Y0141333D01*
X0401153Y0141333D01*
X0405295Y0141333D01*
X0408224Y0144262D01*
X0408224Y0148404D01*
X0405295Y0151333D01*
X0401153Y0151333D01*
X0405295Y0151333D01*
X0408224Y0154262D01*
X0408224Y0158404D01*
X0405295Y0161333D01*
X0401153Y0161333D01*
X0405295Y0161333D01*
X0408224Y0164262D01*
X0408224Y0168404D01*
X0405295Y0171333D01*
X0401153Y0171333D01*
X0405295Y0171333D01*
X0408224Y0174262D01*
X0408224Y0178404D01*
X0405295Y0181333D01*
X0401153Y0181333D01*
X0403024Y0181333D01*
X0403024Y0186133D01*
X0403424Y0186133D01*
X0403424Y0186533D01*
X0408224Y0186533D01*
X0408224Y0188404D01*
X0405295Y0191333D01*
X0403424Y0191333D01*
X0403424Y0186533D01*
X0403024Y0186533D01*
X0403024Y0191333D01*
X0401153Y0191333D01*
X0405295Y0191333D01*
X0408224Y0194262D01*
X0408224Y0198404D01*
X0405295Y0201333D01*
X0401153Y0201333D01*
X0405295Y0201333D01*
X0408224Y0204262D01*
X0408224Y0208404D01*
X0405295Y0211333D01*
X0401153Y0211333D01*
X0403024Y0211333D01*
X0403024Y0216133D01*
X0403424Y0216133D01*
X0403424Y0216533D01*
X0408224Y0216533D01*
X0408224Y0218404D01*
X0405295Y0221333D01*
X0403424Y0221333D01*
X0403424Y0216533D01*
X0403024Y0216533D01*
X0403024Y0221333D01*
X0401153Y0221333D01*
X0405295Y0221333D01*
X0407960Y0223998D01*
X0409606Y0222352D01*
X0412904Y0222352D01*
X0415236Y0224684D01*
X0415236Y0227982D01*
X0413855Y0229363D01*
X0413855Y0273103D01*
X0414606Y0272352D01*
X0417904Y0272352D01*
X0419285Y0273733D01*
X0422507Y0273733D01*
X0422682Y0273309D01*
X0423655Y0272337D01*
X0413855Y0272337D01*
X0413855Y0270738D02*
X0423655Y0270738D01*
X0423655Y0269140D02*
X0413855Y0269140D01*
X0413855Y0267541D02*
X0423655Y0267541D01*
X0423655Y0265943D02*
X0413855Y0265943D01*
X0413855Y0264344D02*
X0423655Y0264344D01*
X0423655Y0262746D02*
X0413855Y0262746D01*
X0413855Y0261147D02*
X0423655Y0261147D01*
X0423655Y0259549D02*
X0413855Y0259549D01*
X0413855Y0257950D02*
X0423655Y0257950D01*
X0423655Y0256352D02*
X0413855Y0256352D01*
X0413855Y0254753D02*
X0423655Y0254753D01*
X0423655Y0253155D02*
X0413855Y0253155D01*
X0413855Y0251556D02*
X0423655Y0251556D01*
X0423655Y0249958D02*
X0413855Y0249958D01*
X0413855Y0248359D02*
X0423655Y0248359D01*
X0423655Y0246761D02*
X0413855Y0246761D01*
X0413855Y0245162D02*
X0423926Y0245162D01*
X0424051Y0244861D02*
X0424782Y0244129D01*
X0429782Y0239129D01*
X0430738Y0238733D01*
X0433720Y0238733D01*
X0433816Y0238501D01*
X0435223Y0237095D01*
X0437060Y0236333D01*
X0435223Y0235572D01*
X0433816Y0234166D01*
X0433720Y0233933D01*
X0429285Y0233933D01*
X0427904Y0235314D01*
X0424606Y0235314D01*
X0422274Y0232982D01*
X0422274Y0229684D01*
X0424606Y0227352D01*
X0427904Y0227352D01*
X0429285Y0228733D01*
X0433720Y0228733D01*
X0433816Y0228501D01*
X0435223Y0227095D01*
X0437060Y0226333D01*
X0435223Y0225572D01*
X0433816Y0224166D01*
X0433720Y0223933D01*
X0424285Y0223933D01*
X0422904Y0225314D01*
X0419606Y0225314D01*
X0417274Y0222982D01*
X0417274Y0219684D01*
X0419606Y0217352D01*
X0422904Y0217352D01*
X0424285Y0218733D01*
X0433720Y0218733D01*
X0433816Y0218501D01*
X0435223Y0217095D01*
X0437060Y0216333D01*
X0445450Y0216333D01*
X0447287Y0217095D01*
X0448655Y0218462D01*
X0448655Y0214059D01*
X0448269Y0214591D01*
X0447712Y0215147D01*
X0447076Y0215610D01*
X0446374Y0215967D01*
X0445626Y0216210D01*
X0444849Y0216333D01*
X0441455Y0216333D01*
X0441455Y0211533D01*
X0441055Y0211533D01*
X0441055Y0211133D01*
X0441455Y0211133D01*
X0441455Y0206333D01*
X0444849Y0206333D01*
X0445626Y0206456D01*
X0446374Y0206700D01*
X0447076Y0207057D01*
X0447712Y0207520D01*
X0448269Y0208076D01*
X0448655Y0208608D01*
X0448655Y0207410D01*
X0439051Y0197806D01*
X0438655Y0196851D01*
X0438655Y0196333D01*
X0437060Y0196333D01*
X0435223Y0195572D01*
X0433816Y0194166D01*
X0433720Y0193933D01*
X0420738Y0193933D01*
X0419782Y0193537D01*
X0419051Y0192806D01*
X0414782Y0188537D01*
X0414051Y0187806D01*
X0413655Y0186851D01*
X0413655Y0115816D01*
X0414051Y0114861D01*
X0419051Y0109861D01*
X0419782Y0109129D01*
X0420738Y0108733D01*
X0430178Y0108733D01*
X0438779Y0100133D01*
X0438231Y0099906D01*
X0436825Y0098499D01*
X0436063Y0096662D01*
X0436063Y0094673D01*
X0436825Y0092835D01*
X0442757Y0086903D01*
X0444594Y0086142D01*
X0446583Y0086142D01*
X0448421Y0086903D01*
X0449828Y0088309D01*
X0450589Y0090147D01*
X0450589Y0092136D01*
X0449828Y0093974D01*
X0445926Y0097875D01*
X0445926Y0099779D01*
X0445530Y0100735D01*
X0432728Y0113537D01*
X0431772Y0113933D01*
X0422332Y0113933D01*
X0418855Y0117410D01*
X0418855Y0185256D01*
X0422332Y0188733D01*
X0433720Y0188733D01*
X0433816Y0188501D01*
X0435223Y0187095D01*
X0437060Y0186333D01*
X0435223Y0185572D01*
X0433816Y0184166D01*
X0433055Y0182328D01*
X0433055Y0180339D01*
X0433816Y0178501D01*
X0435223Y0177095D01*
X0437060Y0176333D01*
X0435223Y0175572D01*
X0433816Y0174166D01*
X0433720Y0173933D01*
X0429285Y0173933D01*
X0427904Y0175314D01*
X0424606Y0175314D01*
X0422274Y0172982D01*
X0422274Y0169684D01*
X0424606Y0167352D01*
X0427904Y0167352D01*
X0429285Y0168733D01*
X0433720Y0168733D01*
X0433816Y0168501D01*
X0435223Y0167095D01*
X0437060Y0166333D01*
X0445450Y0166333D01*
X0447287Y0167095D01*
X0448694Y0168501D01*
X0449455Y0170339D01*
X0449455Y0172328D01*
X0448694Y0174166D01*
X0447287Y0175572D01*
X0445450Y0176333D01*
X0437060Y0176333D01*
X0445450Y0176333D01*
X0447287Y0177095D01*
X0448694Y0178501D01*
X0448790Y0178733D01*
X0450178Y0178733D01*
X0453655Y0175256D01*
X0453655Y0142410D01*
X0447865Y0136620D01*
X0447349Y0136833D01*
X0445161Y0136833D01*
X0443140Y0135996D01*
X0441592Y0134449D01*
X0440755Y0132427D01*
X0440755Y0131458D01*
X0439849Y0131833D01*
X0437661Y0131833D01*
X0437146Y0131620D01*
X0435228Y0133537D01*
X0434272Y0133933D01*
X0431131Y0133933D01*
X0430918Y0134449D01*
X0429371Y0135996D01*
X0427349Y0136833D01*
X0425161Y0136833D01*
X0423140Y0135996D01*
X0421592Y0134449D01*
X0420755Y0132427D01*
X0420755Y0130239D01*
X0421592Y0128218D01*
X0423140Y0126671D01*
X0425161Y0125833D01*
X0427349Y0125833D01*
X0429371Y0126671D01*
X0430918Y0128218D01*
X0431131Y0128733D01*
X0432678Y0128733D01*
X0433469Y0127943D01*
X0433255Y0127427D01*
X0433255Y0125239D01*
X0434092Y0123218D01*
X0435640Y0121671D01*
X0437661Y0120833D01*
X0439849Y0120833D01*
X0440755Y0121209D01*
X0440755Y0120900D01*
X0440891Y0120045D01*
X0441158Y0119222D01*
X0441551Y0118451D01*
X0442060Y0117750D01*
X0442672Y0117138D01*
X0443372Y0116629D01*
X0444144Y0116236D01*
X0444967Y0115969D01*
X0445822Y0115833D01*
X0446255Y0115833D01*
X0446688Y0115833D01*
X0447543Y0115969D01*
X0448366Y0116236D01*
X0449138Y0116629D01*
X0449838Y0117138D01*
X0450450Y0117750D01*
X0450959Y0118451D01*
X0451352Y0119222D01*
X0451620Y0120045D01*
X0451755Y0120900D01*
X0451755Y0121333D01*
X0446255Y0121333D01*
X0446255Y0121333D01*
X0446255Y0115833D01*
X0446255Y0121333D01*
X0446255Y0121333D01*
X0451755Y0121333D01*
X0451755Y0121766D01*
X0451620Y0122621D01*
X0451352Y0123445D01*
X0450959Y0124216D01*
X0450450Y0124916D01*
X0449838Y0125528D01*
X0449138Y0126037D01*
X0448556Y0126333D01*
X0449371Y0126671D01*
X0450806Y0128106D01*
X0453655Y0125256D01*
X0453655Y0087410D01*
X0450178Y0083933D01*
X0443518Y0083933D01*
X0443518Y0085065D01*
X0442757Y0086903D01*
X0436825Y0092835D01*
X0434987Y0093596D01*
X0432998Y0093596D01*
X0431160Y0092835D01*
X0429754Y0091428D01*
X0428992Y0089591D01*
X0428992Y0087601D01*
X0429754Y0085764D01*
X0435686Y0079832D01*
X0437523Y0079071D01*
X0438655Y0079071D01*
X0438655Y0077410D01*
X0435879Y0074634D01*
X0436447Y0076005D01*
X0436447Y0077994D01*
X0435686Y0079832D01*
X0429754Y0085764D01*
X0428855Y0086136D01*
X0428855Y0093303D01*
X0430236Y0094684D01*
X0430236Y0097982D01*
X0427904Y0100314D01*
X0424606Y0100314D01*
X0422274Y0097982D01*
X0422274Y0094684D01*
X0423655Y0093303D01*
X0423655Y0085330D01*
X0422682Y0084357D01*
X0421921Y0082520D01*
X0421921Y0080530D01*
X0422682Y0078693D01*
X0427442Y0073933D01*
X0357255Y0073933D01*
X0357728Y0074129D01*
X0360951Y0077352D01*
X0362904Y0077352D01*
X0365236Y0079684D01*
X0365236Y0082982D01*
X0362904Y0085314D01*
X0359606Y0085314D01*
X0357274Y0082982D01*
X0357274Y0081029D01*
X0355178Y0078933D01*
X0322332Y0078933D01*
X0318735Y0082530D01*
X0318735Y0085528D01*
X0317974Y0087366D01*
X0316568Y0088772D01*
X0314730Y0089533D01*
X0312741Y0089533D01*
X0310903Y0088772D01*
X0309497Y0087366D01*
X0308735Y0085528D01*
X0307974Y0087366D01*
X0306568Y0088772D01*
X0304730Y0089533D01*
X0302741Y0089533D01*
X0300903Y0088772D01*
X0299497Y0087366D01*
X0298735Y0085528D01*
X0298735Y0077139D01*
X0297974Y0075301D01*
X0296568Y0073895D01*
X0294730Y0073133D01*
X0292741Y0073133D01*
X0290903Y0073895D01*
X0289497Y0075301D01*
X0288735Y0077139D01*
X0288735Y0078733D01*
X0225738Y0078733D01*
X0224782Y0079129D01*
X0219782Y0084129D01*
X0219051Y0084861D01*
X0218655Y0085816D01*
X0218655Y0103798D01*
X0218423Y0103895D01*
X0217016Y0105301D01*
X0216255Y0107139D01*
X0216255Y0115528D01*
X0217016Y0117366D01*
X0218423Y0118772D01*
X0218655Y0118868D01*
X0218655Y0123798D01*
X0218423Y0123895D01*
X0217016Y0125301D01*
X0216255Y0127139D01*
X0216255Y0135528D01*
X0217016Y0137366D01*
X0218423Y0138772D01*
X0218655Y0138868D01*
X0218655Y0143798D01*
X0218423Y0143895D01*
X0217016Y0145301D01*
X0216255Y0147139D01*
X0216255Y0155528D01*
X0217016Y0157366D01*
X0218423Y0158772D01*
X0218655Y0158868D01*
X0218655Y0163798D01*
X0218423Y0163895D01*
X0217016Y0165301D01*
X0216255Y0167139D01*
X0216255Y0175528D01*
X0217016Y0177366D01*
X0218423Y0178772D01*
X0218655Y0178868D01*
X0218655Y0193733D01*
X0192332Y0193733D01*
X0188855Y0190256D01*
X0188855Y0160816D01*
X0188459Y0159861D01*
X0166784Y0138185D01*
X0166784Y0100667D01*
X0167441Y0100667D01*
X0169279Y0099906D01*
X0170686Y0098499D01*
X0171447Y0096662D01*
X0171447Y0094673D01*
X0170686Y0092835D01*
X0164754Y0086903D01*
X0163992Y0085065D01*
X0163992Y0083933D01*
X0157332Y0083933D01*
X0153855Y0087410D01*
X0153855Y0163462D01*
X0155223Y0162095D01*
X0157060Y0161333D01*
X0165450Y0161333D01*
X0167287Y0162095D01*
X0168694Y0163501D01*
X0168790Y0163733D01*
X0173225Y0163733D01*
X0174606Y0162352D01*
X0177904Y0162352D01*
X0180236Y0164684D01*
X0180236Y0167982D01*
X0177904Y0170314D01*
X0174606Y0170314D01*
X0173225Y0168933D01*
X0168790Y0168933D01*
X0168694Y0169166D01*
X0167287Y0170572D01*
X0165450Y0171333D01*
X0157060Y0171333D01*
X0155223Y0170572D01*
X0153855Y0169204D01*
X0153855Y0170256D01*
X0155555Y0171957D01*
X0157060Y0171333D01*
X0165450Y0171333D01*
X0167287Y0172095D01*
X0168694Y0173501D01*
X0169455Y0175339D01*
X0169455Y0177328D01*
X0168694Y0179166D01*
X0167287Y0180572D01*
X0165450Y0181333D01*
X0157060Y0181333D01*
X0155555Y0180710D01*
X0153855Y0182410D01*
X0153855Y0183462D01*
X0155223Y0182095D01*
X0157060Y0181333D01*
X0165450Y0181333D01*
X0167287Y0182095D01*
X0168694Y0183501D01*
X0168790Y0183733D01*
X0183655Y0183733D01*
X0183655Y0162410D01*
X0161980Y0140735D01*
X0161584Y0139779D01*
X0161584Y0097875D01*
X0157682Y0093974D01*
X0156921Y0092136D01*
X0156921Y0090147D01*
X0157682Y0088309D01*
X0159089Y0086903D01*
X0160927Y0086142D01*
X0162916Y0086142D01*
X0164754Y0086903D01*
X0170686Y0092835D01*
X0172523Y0093596D01*
X0173655Y0093596D01*
X0173655Y0101851D01*
X0174051Y0102806D01*
X0179051Y0107806D01*
X0179782Y0108537D01*
X0180738Y0108933D01*
X0181379Y0108933D01*
X0181592Y0109449D01*
X0183140Y0110996D01*
X0185161Y0111833D01*
X0187349Y0111833D01*
X0189371Y0110996D01*
X0190918Y0109449D01*
X0191255Y0108635D01*
X0191551Y0109216D01*
X0192060Y0109916D01*
X0192672Y0110528D01*
X0193372Y0111037D01*
X0194144Y0111430D01*
X0194967Y0111698D01*
X0195822Y0111833D01*
X0196255Y0111833D01*
X0196255Y0106333D01*
X0196255Y0106333D01*
X0201755Y0106333D01*
X0201755Y0105900D01*
X0201620Y0105045D01*
X0201352Y0104222D01*
X0200959Y0103451D01*
X0200450Y0102750D01*
X0199838Y0102138D01*
X0199138Y0101629D01*
X0198366Y0101236D01*
X0197543Y0100969D01*
X0196688Y0100833D01*
X0196380Y0100833D01*
X0196755Y0099927D01*
X0196755Y0098933D01*
X0206379Y0098933D01*
X0206592Y0099449D01*
X0208140Y0100996D01*
X0210161Y0101833D01*
X0212349Y0101833D01*
X0214371Y0100996D01*
X0215918Y0099449D01*
X0216755Y0097427D01*
X0216755Y0095239D01*
X0215918Y0093218D01*
X0214371Y0091671D01*
X0212349Y0090833D01*
X0210161Y0090833D01*
X0208140Y0091671D01*
X0206592Y0093218D01*
X0206379Y0093733D01*
X0193315Y0093733D01*
X0192349Y0093333D01*
X0190161Y0093333D01*
X0188140Y0094171D01*
X0186592Y0095718D01*
X0185755Y0097739D01*
X0185755Y0099927D01*
X0186130Y0100833D01*
X0185161Y0100833D01*
X0183140Y0101671D01*
X0181704Y0103106D01*
X0178855Y0100256D01*
X0178855Y0090816D01*
X0178459Y0089861D01*
X0178422Y0089823D01*
X0178518Y0089591D01*
X0178518Y0087601D01*
X0177757Y0085764D01*
X0179594Y0086525D01*
X0181583Y0086525D01*
X0183421Y0085764D01*
X0184828Y0084357D01*
X0185589Y0082520D01*
X0185589Y0081862D01*
X0187274Y0081862D01*
X0187274Y0082982D01*
X0189606Y0085314D01*
X0192904Y0085314D01*
X0195236Y0082982D01*
X0195236Y0079684D01*
X0192904Y0077352D01*
X0190951Y0077352D01*
X0190657Y0077058D01*
X0189701Y0076662D01*
X0182797Y0076662D01*
X0178896Y0072761D01*
X0177058Y0072000D01*
X0175069Y0072000D01*
X0173231Y0072761D01*
X0171825Y0074167D01*
X0171063Y0076005D01*
X0171063Y0077994D01*
X0171825Y0079832D01*
X0177757Y0085764D01*
X0171825Y0079832D01*
X0169987Y0079071D01*
X0167998Y0079071D01*
X0167765Y0079167D01*
X0167728Y0079129D01*
X0166772Y0078733D01*
X0155738Y0078733D01*
X0154782Y0079129D01*
X0151255Y0082656D01*
X0151255Y0082114D02*
X0151797Y0082114D01*
X0151255Y0080515D02*
X0153396Y0080515D01*
X0155295Y0078917D02*
X0151255Y0078917D01*
X0151255Y0077318D02*
X0171063Y0077318D01*
X0171181Y0075720D02*
X0151255Y0075720D01*
X0151255Y0074121D02*
X0171870Y0074121D01*
X0173805Y0072523D02*
X0151255Y0072523D01*
X0151255Y0070924D02*
X0307987Y0070924D01*
X0309586Y0069326D02*
X0151255Y0069326D01*
X0151255Y0067727D02*
X0459016Y0067727D01*
X0459016Y0069326D02*
X0437925Y0069326D01*
X0439523Y0070924D02*
X0459016Y0070924D01*
X0459016Y0072523D02*
X0441122Y0072523D01*
X0442720Y0074121D02*
X0459016Y0074121D01*
X0459016Y0075720D02*
X0443815Y0075720D01*
X0443855Y0077318D02*
X0459016Y0077318D01*
X0459016Y0078917D02*
X0452216Y0078917D01*
X0454114Y0080515D02*
X0459016Y0080515D01*
X0459016Y0082114D02*
X0455713Y0082114D01*
X0457311Y0083712D02*
X0459016Y0083712D01*
X0459016Y0085311D02*
X0458646Y0085311D01*
X0458855Y0086910D02*
X0459016Y0086910D01*
X0459016Y0088508D02*
X0458855Y0088508D01*
X0458855Y0090107D02*
X0459016Y0090107D01*
X0459016Y0091705D02*
X0458855Y0091705D01*
X0458855Y0093304D02*
X0459016Y0093304D01*
X0459016Y0094902D02*
X0458855Y0094902D01*
X0458855Y0096501D02*
X0459016Y0096501D01*
X0459016Y0098099D02*
X0458855Y0098099D01*
X0458855Y0099698D02*
X0459016Y0099698D01*
X0459016Y0101296D02*
X0458855Y0101296D01*
X0458855Y0102895D02*
X0459016Y0102895D01*
X0459016Y0104493D02*
X0458855Y0104493D01*
X0458855Y0106092D02*
X0459016Y0106092D01*
X0459016Y0107690D02*
X0458855Y0107690D01*
X0458855Y0109289D02*
X0459016Y0109289D01*
X0459016Y0110887D02*
X0458855Y0110887D01*
X0458855Y0112486D02*
X0459016Y0112486D01*
X0459016Y0114084D02*
X0458855Y0114084D01*
X0458855Y0115683D02*
X0459016Y0115683D01*
X0459016Y0117281D02*
X0458855Y0117281D01*
X0458855Y0118880D02*
X0459016Y0118880D01*
X0459016Y0120478D02*
X0458855Y0120478D01*
X0458855Y0122077D02*
X0459016Y0122077D01*
X0459016Y0123675D02*
X0458855Y0123675D01*
X0458855Y0125274D02*
X0459016Y0125274D01*
X0459016Y0126872D02*
X0458846Y0126872D01*
X0459016Y0128471D02*
X0457795Y0128471D01*
X0459016Y0130069D02*
X0456196Y0130069D01*
X0454598Y0131668D02*
X0459016Y0131668D01*
X0459016Y0133266D02*
X0452999Y0133266D01*
X0453464Y0134865D02*
X0459016Y0134865D01*
X0459016Y0136463D02*
X0455062Y0136463D01*
X0456661Y0138062D02*
X0459016Y0138062D01*
X0459016Y0139660D02*
X0458259Y0139660D01*
X0458855Y0141259D02*
X0459016Y0141259D01*
X0459016Y0142857D02*
X0458855Y0142857D01*
X0458855Y0144456D02*
X0459016Y0144456D01*
X0459016Y0146054D02*
X0458855Y0146054D01*
X0458855Y0147653D02*
X0459016Y0147653D01*
X0459016Y0149251D02*
X0458855Y0149251D01*
X0458855Y0150850D02*
X0459016Y0150850D01*
X0459016Y0152448D02*
X0458855Y0152448D01*
X0458855Y0154047D02*
X0459016Y0154047D01*
X0459016Y0155645D02*
X0458855Y0155645D01*
X0458855Y0157244D02*
X0459016Y0157244D01*
X0459016Y0158843D02*
X0458855Y0158843D01*
X0458855Y0160441D02*
X0459016Y0160441D01*
X0459016Y0162040D02*
X0458855Y0162040D01*
X0458855Y0163638D02*
X0459016Y0163638D01*
X0459016Y0165237D02*
X0458855Y0165237D01*
X0458855Y0166835D02*
X0459016Y0166835D01*
X0459016Y0168434D02*
X0458855Y0168434D01*
X0458855Y0170032D02*
X0459016Y0170032D01*
X0459016Y0171631D02*
X0458855Y0171631D01*
X0458855Y0173229D02*
X0459016Y0173229D01*
X0459016Y0174828D02*
X0458855Y0174828D01*
X0458855Y0176426D02*
X0459016Y0176426D01*
X0459016Y0178025D02*
X0458241Y0178025D01*
X0459016Y0179623D02*
X0456642Y0179623D01*
X0455044Y0181222D02*
X0459016Y0181222D01*
X0459016Y0182820D02*
X0456419Y0182820D01*
X0458017Y0184419D02*
X0459016Y0184419D01*
X0459016Y0186017D02*
X0458855Y0186017D01*
X0458855Y0187616D02*
X0459016Y0187616D01*
X0459016Y0189214D02*
X0458855Y0189214D01*
X0458855Y0190813D02*
X0459016Y0190813D01*
X0459016Y0192411D02*
X0458855Y0192411D01*
X0458855Y0194010D02*
X0459016Y0194010D01*
X0459016Y0195608D02*
X0458855Y0195608D01*
X0458855Y0197207D02*
X0459016Y0197207D01*
X0459016Y0198805D02*
X0458855Y0198805D01*
X0458855Y0200404D02*
X0459016Y0200404D01*
X0459016Y0202002D02*
X0458855Y0202002D01*
X0458855Y0203601D02*
X0459016Y0203601D01*
X0459016Y0205199D02*
X0458855Y0205199D01*
X0458855Y0206798D02*
X0459016Y0206798D01*
X0459016Y0208396D02*
X0458855Y0208396D01*
X0458855Y0209995D02*
X0459016Y0209995D01*
X0459016Y0211593D02*
X0458855Y0211593D01*
X0458855Y0213192D02*
X0459016Y0213192D01*
X0459016Y0214790D02*
X0458855Y0214790D01*
X0458855Y0216389D02*
X0459016Y0216389D01*
X0459016Y0217987D02*
X0458855Y0217987D01*
X0458855Y0219586D02*
X0459016Y0219586D01*
X0459016Y0221184D02*
X0458855Y0221184D01*
X0458855Y0222783D02*
X0459016Y0222783D01*
X0459016Y0224381D02*
X0458855Y0224381D01*
X0458855Y0225980D02*
X0459016Y0225980D01*
X0459016Y0227579D02*
X0458855Y0227579D01*
X0458855Y0229177D02*
X0459016Y0229177D01*
X0459016Y0230776D02*
X0458855Y0230776D01*
X0458855Y0232374D02*
X0459016Y0232374D01*
X0459016Y0233973D02*
X0458855Y0233973D01*
X0458855Y0235571D02*
X0459016Y0235571D01*
X0459016Y0237170D02*
X0458855Y0237170D01*
X0458855Y0238768D02*
X0459016Y0238768D01*
X0459016Y0240367D02*
X0458855Y0240367D01*
X0458855Y0241965D02*
X0459016Y0241965D01*
X0459016Y0243564D02*
X0458855Y0243564D01*
X0458855Y0245162D02*
X0459016Y0245162D01*
X0459016Y0246761D02*
X0458855Y0246761D01*
X0458855Y0248359D02*
X0459016Y0248359D01*
X0459016Y0249958D02*
X0458855Y0249958D01*
X0458855Y0251556D02*
X0459016Y0251556D01*
X0459016Y0253155D02*
X0458855Y0253155D01*
X0458855Y0254753D02*
X0459016Y0254753D01*
X0459016Y0256352D02*
X0458855Y0256352D01*
X0458855Y0257950D02*
X0459016Y0257950D01*
X0459016Y0259549D02*
X0458855Y0259549D01*
X0458855Y0261147D02*
X0459016Y0261147D01*
X0459016Y0262746D02*
X0458855Y0262746D01*
X0458855Y0264344D02*
X0459016Y0264344D01*
X0459016Y0265943D02*
X0458855Y0265943D01*
X0458855Y0267541D02*
X0459016Y0267541D01*
X0459016Y0269140D02*
X0458855Y0269140D01*
X0458855Y0270738D02*
X0459016Y0270738D01*
X0459016Y0272337D02*
X0458855Y0272337D01*
X0458855Y0273935D02*
X0459016Y0273935D01*
X0459016Y0275534D02*
X0458855Y0275534D01*
X0458738Y0277132D02*
X0459016Y0277132D01*
X0459016Y0278731D02*
X0457534Y0278731D01*
X0459016Y0280329D02*
X0455936Y0280329D01*
X0454337Y0281928D02*
X0459016Y0281928D01*
X0459016Y0283526D02*
X0452739Y0283526D01*
X0451255Y0281333D02*
X0456255Y0276333D01*
X0456255Y0186333D01*
X0451255Y0181333D01*
X0456255Y0176333D01*
X0456255Y0141333D01*
X0446255Y0131333D01*
X0451255Y0131333D01*
X0456255Y0126333D01*
X0456255Y0086333D01*
X0451255Y0081333D01*
X0441255Y0081333D01*
X0436255Y0086333D01*
X0441255Y0081333D01*
X0441255Y0076333D01*
X0436255Y0071333D01*
X0311255Y0071333D01*
X0303735Y0078853D01*
X0303735Y0081333D01*
X0298735Y0082114D02*
X0298735Y0082114D01*
X0298735Y0083712D02*
X0298735Y0083712D01*
X0298735Y0085311D02*
X0298735Y0085311D01*
X0298163Y0086910D02*
X0299308Y0086910D01*
X0300639Y0088508D02*
X0296832Y0088508D01*
X0290639Y0088508D02*
X0223855Y0088508D01*
X0223855Y0090107D02*
X0389926Y0090107D01*
X0391153Y0091333D02*
X0388224Y0088404D01*
X0388224Y0086533D01*
X0393023Y0086533D01*
X0393023Y0086133D01*
X0388224Y0086133D01*
X0388224Y0084262D01*
X0391153Y0081333D01*
X0393024Y0081333D01*
X0393024Y0086133D01*
X0393424Y0086133D01*
X0393424Y0086533D01*
X0398224Y0086533D01*
X0398224Y0088404D01*
X0395295Y0091333D01*
X0393424Y0091333D01*
X0393424Y0086533D01*
X0393024Y0086533D01*
X0393024Y0091333D01*
X0391153Y0091333D01*
X0395295Y0091333D01*
X0398224Y0094262D01*
X0398224Y0098404D01*
X0395295Y0101333D01*
X0391153Y0101333D01*
X0388224Y0098404D01*
X0388224Y0094262D01*
X0391153Y0091333D01*
X0390781Y0091705D02*
X0244405Y0091705D01*
X0244371Y0091671D02*
X0245918Y0093218D01*
X0246755Y0095239D01*
X0246755Y0097427D01*
X0245918Y0099449D01*
X0244371Y0100996D01*
X0242349Y0101833D01*
X0240161Y0101833D01*
X0238140Y0100996D01*
X0236592Y0099449D01*
X0235755Y0097427D01*
X0235755Y0095239D01*
X0236592Y0093218D01*
X0238140Y0091671D01*
X0240161Y0090833D01*
X0242349Y0090833D01*
X0244371Y0091671D01*
X0245953Y0093304D02*
X0389182Y0093304D01*
X0388224Y0094902D02*
X0246615Y0094902D01*
X0246755Y0096501D02*
X0388224Y0096501D01*
X0388224Y0098099D02*
X0246477Y0098099D01*
X0245669Y0099698D02*
X0389517Y0099698D01*
X0391115Y0101296D02*
X0243646Y0101296D01*
X0238864Y0101296D02*
X0223855Y0101296D01*
X0223855Y0099698D02*
X0236841Y0099698D01*
X0236033Y0098099D02*
X0223855Y0098099D01*
X0223855Y0096501D02*
X0235755Y0096501D01*
X0235895Y0094902D02*
X0223855Y0094902D01*
X0223855Y0093304D02*
X0236557Y0093304D01*
X0238105Y0091705D02*
X0223855Y0091705D01*
X0224356Y0086910D02*
X0289308Y0086910D01*
X0288735Y0085311D02*
X0225954Y0085311D01*
X0226255Y0081333D02*
X0221255Y0086333D01*
X0221255Y0111333D01*
X0221255Y0131333D01*
X0221255Y0151333D01*
X0221255Y0171333D01*
X0221255Y0196333D01*
X0231255Y0196333D01*
X0236255Y0201333D01*
X0236255Y0231333D01*
X0241255Y0236333D01*
X0321255Y0236333D01*
X0326255Y0241333D01*
X0326255Y0281333D01*
X0313735Y0281333D01*
X0308735Y0281928D02*
X0308735Y0281928D01*
X0308735Y0283526D02*
X0308735Y0283526D01*
X0308735Y0285125D02*
X0308735Y0285125D01*
X0308735Y0285528D02*
X0308735Y0277139D01*
X0309497Y0275301D01*
X0310903Y0273895D01*
X0312741Y0273133D01*
X0314730Y0273133D01*
X0316568Y0273895D01*
X0317974Y0275301D01*
X0318735Y0277139D01*
X0318735Y0278733D01*
X0323225Y0278733D01*
X0323655Y0278303D01*
X0323655Y0242410D01*
X0320178Y0238933D01*
X0240738Y0238933D01*
X0239782Y0238537D01*
X0234782Y0233537D01*
X0234051Y0232806D01*
X0233655Y0231851D01*
X0233655Y0202410D01*
X0230178Y0198933D01*
X0190738Y0198933D01*
X0189782Y0198537D01*
X0184782Y0193537D01*
X0184051Y0192806D01*
X0183655Y0191851D01*
X0183655Y0188933D01*
X0168790Y0188933D01*
X0168694Y0189166D01*
X0167287Y0190572D01*
X0165450Y0191333D01*
X0163855Y0191333D01*
X0163855Y0240256D01*
X0188459Y0264861D01*
X0188855Y0265816D01*
X0188855Y0271851D01*
X0188459Y0272806D01*
X0187728Y0273537D01*
X0186772Y0273933D01*
X0186474Y0273933D01*
X0185493Y0274915D01*
X0185589Y0275147D01*
X0185589Y0277136D01*
X0184828Y0278974D01*
X0178896Y0284906D01*
X0177058Y0285667D01*
X0175069Y0285667D01*
X0173231Y0284906D01*
X0171825Y0283499D01*
X0171063Y0281662D01*
X0171063Y0279673D01*
X0171825Y0277835D01*
X0169987Y0278596D01*
X0167998Y0278596D01*
X0167765Y0278500D01*
X0164932Y0281333D01*
X0172332Y0288733D01*
X0198384Y0288733D01*
X0197016Y0287366D01*
X0196255Y0285528D01*
X0196255Y0277139D01*
X0197016Y0275301D01*
X0198423Y0273895D01*
X0200260Y0273133D01*
X0202250Y0273133D01*
X0204087Y0273895D01*
X0205494Y0275301D01*
X0206255Y0277139D01*
X0207016Y0275301D01*
X0208423Y0273895D01*
X0210260Y0273133D01*
X0212250Y0273133D01*
X0214087Y0273895D01*
X0215494Y0275301D01*
X0216255Y0277139D01*
X0217016Y0275301D01*
X0218423Y0273895D01*
X0218655Y0273798D01*
X0218655Y0272410D01*
X0215178Y0268933D01*
X0195738Y0268933D01*
X0194782Y0268537D01*
X0194051Y0267806D01*
X0184051Y0257806D01*
X0183655Y0256851D01*
X0183655Y0248868D01*
X0183423Y0248772D01*
X0182016Y0247366D01*
X0181255Y0245528D01*
X0181255Y0237139D01*
X0182016Y0235301D01*
X0183423Y0233895D01*
X0183571Y0233833D01*
X0183423Y0233772D01*
X0182016Y0232366D01*
X0181255Y0230528D01*
X0181255Y0222139D01*
X0182016Y0220301D01*
X0183423Y0218895D01*
X0183571Y0218833D01*
X0183423Y0218772D01*
X0182016Y0217366D01*
X0181255Y0215528D01*
X0181255Y0207139D01*
X0182016Y0205301D01*
X0183423Y0203895D01*
X0185260Y0203133D01*
X0187250Y0203133D01*
X0189087Y0203895D01*
X0190494Y0205301D01*
X0191255Y0207139D01*
X0192016Y0205301D01*
X0193423Y0203895D01*
X0195260Y0203133D01*
X0197250Y0203133D01*
X0199087Y0203895D01*
X0200494Y0205301D01*
X0201255Y0207139D01*
X0202016Y0205301D01*
X0203423Y0203895D01*
X0205260Y0203133D01*
X0207250Y0203133D01*
X0209087Y0203895D01*
X0210494Y0205301D01*
X0211255Y0207139D01*
X0211255Y0208733D01*
X0220178Y0208733D01*
X0222274Y0206637D01*
X0222274Y0204684D01*
X0224606Y0202352D01*
X0227904Y0202352D01*
X0230236Y0204684D01*
X0230236Y0207982D01*
X0227904Y0210314D01*
X0225951Y0210314D01*
X0223459Y0212806D01*
X0222728Y0213537D01*
X0221772Y0213933D01*
X0211255Y0213933D01*
X0211255Y0215528D01*
X0210494Y0217366D01*
X0209087Y0218772D01*
X0208940Y0218833D01*
X0209087Y0218895D01*
X0210494Y0220301D01*
X0211255Y0222139D01*
X0211255Y0230528D01*
X0210494Y0232366D01*
X0209087Y0233772D01*
X0208940Y0233833D01*
X0209087Y0233895D01*
X0210494Y0235301D01*
X0211255Y0237139D01*
X0211255Y0245528D01*
X0210494Y0247366D01*
X0209087Y0248772D01*
X0208855Y0248868D01*
X0208855Y0250256D01*
X0212332Y0253733D01*
X0246772Y0253733D01*
X0247728Y0254129D01*
X0248459Y0254861D01*
X0253459Y0259861D01*
X0253855Y0260816D01*
X0253855Y0273798D01*
X0254087Y0273895D01*
X0255494Y0275301D01*
X0256255Y0277139D01*
X0256255Y0277656D01*
X0262274Y0271637D01*
X0262274Y0269684D01*
X0264606Y0267352D01*
X0267904Y0267352D01*
X0270236Y0269684D01*
X0270236Y0272982D01*
X0267904Y0275314D01*
X0265951Y0275314D01*
X0257728Y0283537D01*
X0256772Y0283933D01*
X0256255Y0283933D01*
X0256255Y0285528D01*
X0255494Y0287366D01*
X0254126Y0288733D01*
X0270178Y0288733D01*
X0273655Y0285256D01*
X0273655Y0275816D01*
X0274051Y0274861D01*
X0279051Y0269861D01*
X0279782Y0269129D01*
X0280738Y0268733D01*
X0301772Y0268733D01*
X0302728Y0269129D01*
X0305940Y0272341D01*
X0306335Y0273296D01*
X0306335Y0273798D01*
X0306568Y0273895D01*
X0307974Y0275301D01*
X0308735Y0277139D01*
X0308735Y0285528D01*
X0307974Y0287366D01*
X0306606Y0288733D01*
X0310864Y0288733D01*
X0309497Y0287366D01*
X0308735Y0285528D01*
X0308240Y0286723D02*
X0309231Y0286723D01*
X0310453Y0288322D02*
X0307018Y0288322D01*
X0308735Y0280329D02*
X0308735Y0280329D01*
X0308735Y0278731D02*
X0308735Y0278731D01*
X0308733Y0277132D02*
X0308738Y0277132D01*
X0309400Y0275534D02*
X0308071Y0275534D01*
X0306608Y0273935D02*
X0310862Y0273935D01*
X0305936Y0272337D02*
X0323655Y0272337D01*
X0323655Y0273935D02*
X0316608Y0273935D01*
X0318071Y0275534D02*
X0323655Y0275534D01*
X0323655Y0277132D02*
X0318733Y0277132D01*
X0318735Y0278731D02*
X0323227Y0278731D01*
X0328855Y0277132D02*
X0388224Y0277132D01*
X0388224Y0278404D02*
X0388224Y0274262D01*
X0391153Y0271333D01*
X0388224Y0268404D01*
X0388224Y0264262D01*
X0391153Y0261333D01*
X0388224Y0258404D01*
X0388224Y0254262D01*
X0391153Y0251333D01*
X0388224Y0248404D01*
X0388224Y0244262D01*
X0391153Y0241333D01*
X0388224Y0238404D01*
X0388224Y0236533D01*
X0393023Y0236533D01*
X0393023Y0236133D01*
X0388224Y0236133D01*
X0388224Y0234262D01*
X0391153Y0231333D01*
X0388224Y0228404D01*
X0388224Y0224262D01*
X0391153Y0221333D01*
X0388224Y0218404D01*
X0388224Y0214262D01*
X0391153Y0211333D01*
X0388224Y0208404D01*
X0388224Y0204262D01*
X0391153Y0201333D01*
X0388224Y0198404D01*
X0388224Y0194262D01*
X0391153Y0191333D01*
X0388224Y0188404D01*
X0388224Y0184262D01*
X0391153Y0181333D01*
X0388224Y0178404D01*
X0388224Y0174262D01*
X0391153Y0171333D01*
X0388224Y0168404D01*
X0388224Y0164262D01*
X0391153Y0161333D01*
X0388224Y0158404D01*
X0388224Y0156533D01*
X0393023Y0156533D01*
X0393023Y0156133D01*
X0388224Y0156133D01*
X0388224Y0154262D01*
X0391153Y0151333D01*
X0388224Y0148404D01*
X0388224Y0144262D01*
X0391153Y0141333D01*
X0388224Y0138404D01*
X0388224Y0134262D01*
X0391153Y0131333D01*
X0388224Y0128404D01*
X0388224Y0124262D01*
X0391153Y0121333D01*
X0388224Y0118404D01*
X0388224Y0114262D01*
X0391153Y0111333D01*
X0388224Y0108404D01*
X0388224Y0104262D01*
X0391153Y0101333D01*
X0395295Y0101333D01*
X0398224Y0104262D01*
X0398224Y0108404D01*
X0395295Y0111333D01*
X0391153Y0111333D01*
X0395295Y0111333D01*
X0398224Y0114262D01*
X0398224Y0118404D01*
X0395295Y0121333D01*
X0391153Y0121333D01*
X0395295Y0121333D01*
X0398224Y0124262D01*
X0398224Y0128404D01*
X0395295Y0131333D01*
X0391153Y0131333D01*
X0395295Y0131333D01*
X0398224Y0134262D01*
X0398224Y0138404D01*
X0395295Y0141333D01*
X0391153Y0141333D01*
X0395295Y0141333D01*
X0398224Y0144262D01*
X0398224Y0148404D01*
X0395295Y0151333D01*
X0391153Y0151333D01*
X0393024Y0151333D01*
X0393024Y0156133D01*
X0393424Y0156133D01*
X0393424Y0156533D01*
X0398224Y0156533D01*
X0398224Y0158404D01*
X0395295Y0161333D01*
X0393424Y0161333D01*
X0393424Y0156533D01*
X0393024Y0156533D01*
X0393024Y0161333D01*
X0391153Y0161333D01*
X0395295Y0161333D01*
X0398224Y0164262D01*
X0398224Y0168404D01*
X0395295Y0171333D01*
X0391153Y0171333D01*
X0395295Y0171333D01*
X0398224Y0174262D01*
X0398224Y0178404D01*
X0395295Y0181333D01*
X0391153Y0181333D01*
X0395295Y0181333D01*
X0398224Y0184262D01*
X0398224Y0188404D01*
X0395295Y0191333D01*
X0391153Y0191333D01*
X0395295Y0191333D01*
X0398224Y0194262D01*
X0398224Y0198404D01*
X0395295Y0201333D01*
X0391153Y0201333D01*
X0395295Y0201333D01*
X0398224Y0204262D01*
X0398224Y0208404D01*
X0395295Y0211333D01*
X0391153Y0211333D01*
X0395295Y0211333D01*
X0398224Y0214262D01*
X0398224Y0218404D01*
X0395295Y0221333D01*
X0391153Y0221333D01*
X0395295Y0221333D01*
X0398224Y0224262D01*
X0398224Y0228404D01*
X0395295Y0231333D01*
X0391153Y0231333D01*
X0393024Y0231333D01*
X0393024Y0236133D01*
X0393424Y0236133D01*
X0393424Y0236533D01*
X0398224Y0236533D01*
X0398224Y0238404D01*
X0398224Y0234262D01*
X0401153Y0231333D01*
X0405295Y0231333D01*
X0408224Y0234262D01*
X0408224Y0238404D01*
X0405295Y0241333D01*
X0401153Y0241333D01*
X0398224Y0238404D01*
X0395295Y0241333D01*
X0393424Y0241333D01*
X0393424Y0236533D01*
X0393024Y0236533D01*
X0393024Y0241333D01*
X0391153Y0241333D01*
X0395295Y0241333D01*
X0398224Y0244262D01*
X0401153Y0241333D01*
X0405295Y0241333D01*
X0408224Y0244262D01*
X0408224Y0248404D01*
X0405295Y0251333D01*
X0401153Y0251333D01*
X0398224Y0248404D01*
X0398224Y0244262D01*
X0398224Y0248404D01*
X0395295Y0251333D01*
X0391153Y0251333D01*
X0395295Y0251333D01*
X0398224Y0254262D01*
X0401153Y0251333D01*
X0403024Y0251333D01*
X0403024Y0256133D01*
X0403424Y0256133D01*
X0403424Y0256533D01*
X0408224Y0256533D01*
X0408224Y0258404D01*
X0405295Y0261333D01*
X0403424Y0261333D01*
X0403424Y0256533D01*
X0403024Y0256533D01*
X0403023Y0256533D02*
X0403023Y0256133D01*
X0398224Y0256133D01*
X0398224Y0254262D01*
X0398224Y0258404D01*
X0398224Y0256533D01*
X0403023Y0256533D01*
X0403024Y0256533D02*
X0403024Y0261333D01*
X0401153Y0261333D01*
X0398224Y0258404D01*
X0395295Y0261333D01*
X0391153Y0261333D01*
X0395295Y0261333D01*
X0398224Y0264262D01*
X0401153Y0261333D01*
X0405295Y0261333D01*
X0408224Y0264262D01*
X0408224Y0268404D01*
X0405295Y0271333D01*
X0401153Y0271333D01*
X0398224Y0268404D01*
X0398224Y0264262D01*
X0398224Y0268404D01*
X0395295Y0271333D01*
X0391153Y0271333D01*
X0395295Y0271333D01*
X0398224Y0274262D01*
X0401153Y0271333D01*
X0405295Y0271333D01*
X0408224Y0274262D01*
X0408224Y0278404D01*
X0405295Y0281333D01*
X0401153Y0281333D01*
X0398224Y0278404D01*
X0398224Y0274262D01*
X0398224Y0278404D01*
X0395295Y0281333D01*
X0391153Y0281333D01*
X0388224Y0278404D01*
X0388550Y0278731D02*
X0329283Y0278731D01*
X0330236Y0280329D02*
X0390149Y0280329D01*
X0396299Y0280329D02*
X0400149Y0280329D01*
X0398550Y0278731D02*
X0397897Y0278731D01*
X0398224Y0277132D02*
X0398224Y0277132D01*
X0398224Y0275534D02*
X0398224Y0275534D01*
X0397897Y0273935D02*
X0398551Y0273935D01*
X0400149Y0272337D02*
X0396298Y0272337D01*
X0395890Y0270738D02*
X0400558Y0270738D01*
X0398959Y0269140D02*
X0397488Y0269140D01*
X0398224Y0267541D02*
X0398224Y0267541D01*
X0398224Y0265943D02*
X0398224Y0265943D01*
X0398224Y0264344D02*
X0398224Y0264344D01*
X0399740Y0262746D02*
X0396707Y0262746D01*
X0395481Y0261147D02*
X0400966Y0261147D01*
X0403024Y0261147D02*
X0403424Y0261147D01*
X0403424Y0259549D02*
X0403024Y0259549D01*
X0403024Y0257950D02*
X0403424Y0257950D01*
X0403424Y0256352D02*
X0408655Y0256352D01*
X0408224Y0256133D02*
X0403424Y0256133D01*
X0403424Y0251333D01*
X0405295Y0251333D01*
X0408224Y0254262D01*
X0408224Y0256133D01*
X0408224Y0254753D02*
X0408655Y0254753D01*
X0408655Y0253155D02*
X0407116Y0253155D01*
X0408655Y0251556D02*
X0405517Y0251556D01*
X0406670Y0249958D02*
X0408655Y0249958D01*
X0408655Y0248359D02*
X0408224Y0248359D01*
X0408224Y0246761D02*
X0408655Y0246761D01*
X0408655Y0245162D02*
X0408224Y0245162D01*
X0408655Y0243564D02*
X0407525Y0243564D01*
X0408655Y0241965D02*
X0405926Y0241965D01*
X0406261Y0240367D02*
X0408655Y0240367D01*
X0408655Y0238768D02*
X0407860Y0238768D01*
X0408224Y0237170D02*
X0408655Y0237170D01*
X0408655Y0235571D02*
X0408224Y0235571D01*
X0407934Y0233973D02*
X0408655Y0233973D01*
X0408655Y0232374D02*
X0406335Y0232374D01*
X0405852Y0230776D02*
X0408655Y0230776D01*
X0408469Y0229177D02*
X0407451Y0229177D01*
X0411255Y0226333D02*
X0411255Y0286333D01*
X0406255Y0291333D01*
X0296255Y0291333D01*
X0291255Y0286333D01*
X0291255Y0283814D01*
X0293735Y0281333D01*
X0288735Y0281928D02*
X0278855Y0281928D01*
X0278855Y0283526D02*
X0288655Y0283526D01*
X0288655Y0285125D02*
X0278855Y0285125D01*
X0278855Y0286723D02*
X0288655Y0286723D01*
X0289567Y0288322D02*
X0277943Y0288322D01*
X0276345Y0289920D02*
X0291165Y0289920D01*
X0292764Y0291519D02*
X0274746Y0291519D01*
X0273148Y0293117D02*
X0294362Y0293117D01*
X0288735Y0280329D02*
X0278855Y0280329D01*
X0278855Y0278731D02*
X0288735Y0278731D01*
X0288738Y0277132D02*
X0279133Y0277132D01*
X0280731Y0275534D02*
X0289400Y0275534D01*
X0290862Y0273935D02*
X0282330Y0273935D01*
X0281255Y0271333D02*
X0276255Y0276333D01*
X0276255Y0286333D01*
X0271255Y0291333D01*
X0171255Y0291333D01*
X0161255Y0281333D01*
X0171255Y0271333D01*
X0167976Y0267541D02*
X0167976Y0267541D01*
X0169575Y0265943D02*
X0169575Y0265943D01*
X0170686Y0264832D02*
X0164754Y0270764D01*
X0170686Y0264832D01*
X0172523Y0264071D01*
X0174512Y0264071D01*
X0176350Y0264832D01*
X0177757Y0266238D01*
X0178518Y0268076D01*
X0178518Y0270065D01*
X0177757Y0271903D01*
X0171825Y0277835D01*
X0177757Y0271903D01*
X0179594Y0271142D01*
X0181583Y0271142D01*
X0181816Y0271238D01*
X0183655Y0269398D01*
X0183655Y0267410D01*
X0159782Y0243537D01*
X0159051Y0242806D01*
X0158655Y0241851D01*
X0158655Y0191333D01*
X0157060Y0191333D01*
X0155223Y0190572D01*
X0153855Y0189204D01*
X0153855Y0270256D01*
X0161255Y0277656D01*
X0164089Y0274823D01*
X0163992Y0274591D01*
X0163992Y0272601D01*
X0164754Y0270764D01*
X0162916Y0271525D01*
X0160927Y0271525D01*
X0159089Y0270764D01*
X0157682Y0269357D01*
X0156921Y0267520D01*
X0156921Y0265530D01*
X0157682Y0263693D01*
X0158910Y0262465D01*
X0158655Y0261851D01*
X0158655Y0254363D01*
X0157274Y0252982D01*
X0157274Y0249684D01*
X0159606Y0247352D01*
X0162904Y0247352D01*
X0165236Y0249684D01*
X0165236Y0252982D01*
X0163855Y0254363D01*
X0163855Y0257661D01*
X0165452Y0257000D01*
X0167441Y0257000D01*
X0169279Y0257761D01*
X0170686Y0259167D01*
X0171447Y0261005D01*
X0171447Y0262994D01*
X0170686Y0264832D01*
X0170887Y0264344D02*
X0171863Y0264344D01*
X0171447Y0262746D02*
X0178991Y0262746D01*
X0180589Y0264344D02*
X0175173Y0264344D01*
X0177461Y0265943D02*
X0182188Y0265943D01*
X0183655Y0267541D02*
X0178296Y0267541D01*
X0178518Y0269140D02*
X0183655Y0269140D01*
X0182315Y0270738D02*
X0178239Y0270738D01*
X0185397Y0271333D02*
X0178326Y0278404D01*
X0181874Y0281928D02*
X0196255Y0281928D01*
X0196255Y0283526D02*
X0180275Y0283526D01*
X0178367Y0285125D02*
X0196255Y0285125D01*
X0196750Y0286723D02*
X0170322Y0286723D01*
X0168724Y0285125D02*
X0173760Y0285125D01*
X0171852Y0283526D02*
X0167125Y0283526D01*
X0165527Y0281928D02*
X0171174Y0281928D01*
X0171063Y0280329D02*
X0165936Y0280329D01*
X0167534Y0278731D02*
X0171453Y0278731D01*
X0163378Y0275534D02*
X0159133Y0275534D01*
X0160731Y0277132D02*
X0161779Y0277132D01*
X0163992Y0273935D02*
X0157534Y0273935D01*
X0155935Y0272337D02*
X0164102Y0272337D01*
X0164779Y0270738D02*
X0164779Y0270738D01*
X0166377Y0269140D02*
X0166378Y0269140D01*
X0164184Y0264262D02*
X0161255Y0261333D01*
X0161255Y0251333D01*
X0158599Y0248359D02*
X0153855Y0248359D01*
X0153855Y0246761D02*
X0163005Y0246761D01*
X0163911Y0248359D02*
X0164604Y0248359D01*
X0165236Y0249958D02*
X0166202Y0249958D01*
X0165236Y0251556D02*
X0167801Y0251556D01*
X0169399Y0253155D02*
X0165064Y0253155D01*
X0163855Y0254753D02*
X0170998Y0254753D01*
X0172597Y0256352D02*
X0163855Y0256352D01*
X0158655Y0256352D02*
X0153855Y0256352D01*
X0153855Y0257950D02*
X0158655Y0257950D01*
X0158655Y0259549D02*
X0153855Y0259549D01*
X0153855Y0261147D02*
X0158655Y0261147D01*
X0158629Y0262746D02*
X0153855Y0262746D01*
X0153855Y0264344D02*
X0157413Y0264344D01*
X0156921Y0265943D02*
X0153855Y0265943D01*
X0153855Y0267541D02*
X0156930Y0267541D01*
X0157592Y0269140D02*
X0153855Y0269140D01*
X0154337Y0270738D02*
X0159064Y0270738D01*
X0151255Y0271333D02*
X0161255Y0281333D01*
X0159771Y0283526D02*
X0151255Y0283526D01*
X0151255Y0281928D02*
X0158173Y0281928D01*
X0156574Y0280329D02*
X0151255Y0280329D01*
X0151255Y0278731D02*
X0154976Y0278731D01*
X0153377Y0277132D02*
X0151255Y0277132D01*
X0151255Y0275534D02*
X0151779Y0275534D01*
X0151255Y0271333D02*
X0151255Y0181333D01*
X0156255Y0176333D01*
X0161255Y0176333D01*
X0156255Y0176333D02*
X0151255Y0171333D01*
X0151255Y0086333D01*
X0156255Y0081333D01*
X0166255Y0081333D01*
X0171255Y0086333D01*
X0176255Y0091333D01*
X0176255Y0101333D01*
X0181255Y0106333D01*
X0186255Y0106333D01*
X0184044Y0101296D02*
X0179895Y0101296D01*
X0178855Y0099698D02*
X0185755Y0099698D01*
X0185755Y0098099D02*
X0178855Y0098099D01*
X0178855Y0096501D02*
X0186268Y0096501D01*
X0187408Y0094902D02*
X0178855Y0094902D01*
X0178855Y0093304D02*
X0206557Y0093304D01*
X0208105Y0091705D02*
X0178855Y0091705D01*
X0178561Y0090107D02*
X0218655Y0090107D01*
X0218655Y0091705D02*
X0214405Y0091705D01*
X0215953Y0093304D02*
X0218655Y0093304D01*
X0218655Y0094902D02*
X0216615Y0094902D01*
X0216755Y0096501D02*
X0218655Y0096501D01*
X0218655Y0098099D02*
X0216477Y0098099D01*
X0215669Y0099698D02*
X0218655Y0099698D01*
X0218655Y0101296D02*
X0213646Y0101296D01*
X0213174Y0103500D02*
X0213876Y0103857D01*
X0214512Y0104320D01*
X0215069Y0104876D01*
X0215531Y0105513D01*
X0215889Y0106214D01*
X0216132Y0106962D01*
X0216255Y0107740D01*
X0216255Y0111133D01*
X0211455Y0111133D01*
X0211455Y0103133D01*
X0211649Y0103133D01*
X0212426Y0103256D01*
X0213174Y0103500D01*
X0214686Y0104493D02*
X0217824Y0104493D01*
X0218655Y0102895D02*
X0200555Y0102895D01*
X0201440Y0104493D02*
X0207824Y0104493D01*
X0207998Y0104320D02*
X0207441Y0104876D01*
X0206979Y0105513D01*
X0206621Y0106214D01*
X0206378Y0106962D01*
X0206255Y0107740D01*
X0206255Y0111133D01*
X0211055Y0111133D01*
X0211455Y0111133D01*
X0211455Y0111533D01*
X0216255Y0111533D01*
X0216255Y0114927D01*
X0216132Y0115704D01*
X0215889Y0116453D01*
X0215531Y0117154D01*
X0215069Y0117791D01*
X0214512Y0118347D01*
X0213876Y0118810D01*
X0213174Y0119167D01*
X0212426Y0119410D01*
X0211649Y0119533D01*
X0211455Y0119533D01*
X0211455Y0111533D01*
X0211055Y0111533D01*
X0211055Y0111133D01*
X0211055Y0103133D01*
X0210862Y0103133D01*
X0210084Y0103256D01*
X0209336Y0103500D01*
X0208634Y0103857D01*
X0207998Y0104320D01*
X0206684Y0106092D02*
X0201755Y0106092D01*
X0201755Y0106333D02*
X0201755Y0106766D01*
X0201620Y0107621D01*
X0201352Y0108445D01*
X0200959Y0109216D01*
X0200450Y0109916D01*
X0199838Y0110528D01*
X0199138Y0111037D01*
X0198366Y0111430D01*
X0197543Y0111698D01*
X0196688Y0111833D01*
X0196255Y0111833D01*
X0196255Y0106333D01*
X0201755Y0106333D01*
X0201597Y0107690D02*
X0206263Y0107690D01*
X0206255Y0109289D02*
X0200906Y0109289D01*
X0199344Y0110887D02*
X0206255Y0110887D01*
X0206255Y0111533D02*
X0211055Y0111533D01*
X0211055Y0119533D01*
X0210862Y0119533D01*
X0210084Y0119410D01*
X0209336Y0119167D01*
X0208634Y0118810D01*
X0207998Y0118347D01*
X0207441Y0117791D01*
X0206979Y0117154D01*
X0206621Y0116453D01*
X0206378Y0115704D01*
X0206255Y0114927D01*
X0206255Y0111533D01*
X0206255Y0112486D02*
X0166784Y0112486D01*
X0166784Y0114084D02*
X0206255Y0114084D01*
X0206375Y0115683D02*
X0166784Y0115683D01*
X0166784Y0117281D02*
X0207071Y0117281D01*
X0208772Y0118880D02*
X0166784Y0118880D01*
X0166784Y0120478D02*
X0218655Y0120478D01*
X0218655Y0118880D02*
X0213738Y0118880D01*
X0211455Y0118880D02*
X0211055Y0118880D01*
X0211055Y0117281D02*
X0211455Y0117281D01*
X0211455Y0115683D02*
X0211055Y0115683D01*
X0211055Y0114084D02*
X0211455Y0114084D01*
X0211455Y0112486D02*
X0211055Y0112486D01*
X0211055Y0110887D02*
X0211455Y0110887D01*
X0211455Y0109289D02*
X0211055Y0109289D01*
X0211055Y0107690D02*
X0211455Y0107690D01*
X0211455Y0106092D02*
X0211055Y0106092D01*
X0211055Y0104493D02*
X0211455Y0104493D01*
X0208864Y0101296D02*
X0198484Y0101296D01*
X0196755Y0099698D02*
X0206841Y0099698D01*
X0211255Y0096333D02*
X0193755Y0096333D01*
X0191255Y0098833D01*
X0181916Y0102895D02*
X0181493Y0102895D01*
X0177336Y0106092D02*
X0166784Y0106092D01*
X0166784Y0107690D02*
X0178935Y0107690D01*
X0181526Y0109289D02*
X0166784Y0109289D01*
X0166784Y0110887D02*
X0183031Y0110887D01*
X0189479Y0110887D02*
X0193166Y0110887D01*
X0191604Y0109289D02*
X0190984Y0109289D01*
X0196255Y0109289D02*
X0196255Y0109289D01*
X0196255Y0110887D02*
X0196255Y0110887D01*
X0196255Y0107690D02*
X0196255Y0107690D01*
X0196255Y0106333D02*
X0196255Y0106333D01*
X0215826Y0106092D02*
X0216689Y0106092D01*
X0216255Y0107690D02*
X0216247Y0107690D01*
X0216255Y0109289D02*
X0216255Y0109289D01*
X0216255Y0110887D02*
X0216255Y0110887D01*
X0216255Y0112486D02*
X0216255Y0112486D01*
X0216255Y0114084D02*
X0216255Y0114084D01*
X0216319Y0115683D02*
X0216135Y0115683D01*
X0215439Y0117281D02*
X0216981Y0117281D01*
X0218655Y0122077D02*
X0166784Y0122077D01*
X0166784Y0123675D02*
X0208991Y0123675D01*
X0209336Y0123500D02*
X0210084Y0123256D01*
X0210862Y0123133D01*
X0211055Y0123133D01*
X0211055Y0131133D01*
X0211455Y0131133D01*
X0211455Y0123133D01*
X0211649Y0123133D01*
X0212426Y0123256D01*
X0213174Y0123500D01*
X0213876Y0123857D01*
X0214512Y0124320D01*
X0215069Y0124876D01*
X0215531Y0125513D01*
X0215889Y0126214D01*
X0216132Y0126962D01*
X0216255Y0127740D01*
X0216255Y0131133D01*
X0211455Y0131133D01*
X0211455Y0131533D01*
X0216255Y0131533D01*
X0216255Y0134927D01*
X0216132Y0135704D01*
X0215889Y0136453D01*
X0215531Y0137154D01*
X0215069Y0137791D01*
X0214512Y0138347D01*
X0213876Y0138810D01*
X0213174Y0139167D01*
X0212426Y0139410D01*
X0211649Y0139533D01*
X0211455Y0139533D01*
X0211455Y0131533D01*
X0211055Y0131533D01*
X0211055Y0131133D01*
X0206255Y0131133D01*
X0206255Y0127740D01*
X0206378Y0126962D01*
X0206621Y0126214D01*
X0206979Y0125513D01*
X0207441Y0124876D01*
X0207998Y0124320D01*
X0208634Y0123857D01*
X0209336Y0123500D01*
X0211055Y0123675D02*
X0211455Y0123675D01*
X0211455Y0125274D02*
X0211055Y0125274D01*
X0211055Y0126872D02*
X0211455Y0126872D01*
X0211455Y0128471D02*
X0211055Y0128471D01*
X0211055Y0130069D02*
X0211455Y0130069D01*
X0211055Y0131533D02*
X0206255Y0131533D01*
X0206255Y0134927D01*
X0206378Y0135704D01*
X0206621Y0136453D01*
X0206979Y0137154D01*
X0207441Y0137791D01*
X0207998Y0138347D01*
X0208634Y0138810D01*
X0209336Y0139167D01*
X0210084Y0139410D01*
X0210862Y0139533D01*
X0211055Y0139533D01*
X0211055Y0131533D01*
X0211055Y0131668D02*
X0211455Y0131668D01*
X0211455Y0133266D02*
X0211055Y0133266D01*
X0211055Y0134865D02*
X0211455Y0134865D01*
X0211455Y0136463D02*
X0211055Y0136463D01*
X0211055Y0138062D02*
X0211455Y0138062D01*
X0214798Y0138062D02*
X0217713Y0138062D01*
X0218655Y0139660D02*
X0168259Y0139660D01*
X0166784Y0138062D02*
X0207713Y0138062D01*
X0206627Y0136463D02*
X0166784Y0136463D01*
X0166784Y0134865D02*
X0206255Y0134865D01*
X0206255Y0133266D02*
X0166784Y0133266D01*
X0166784Y0131668D02*
X0206255Y0131668D01*
X0206255Y0130069D02*
X0166784Y0130069D01*
X0166784Y0128471D02*
X0206255Y0128471D01*
X0206407Y0126872D02*
X0166784Y0126872D01*
X0166784Y0125274D02*
X0207152Y0125274D01*
X0213519Y0123675D02*
X0218655Y0123675D01*
X0217044Y0125274D02*
X0215358Y0125274D01*
X0216103Y0126872D02*
X0216365Y0126872D01*
X0216255Y0128471D02*
X0216255Y0128471D01*
X0216255Y0130069D02*
X0216255Y0130069D01*
X0216255Y0131668D02*
X0216255Y0131668D01*
X0216255Y0133266D02*
X0216255Y0133266D01*
X0216255Y0134865D02*
X0216255Y0134865D01*
X0215883Y0136463D02*
X0216643Y0136463D01*
X0218655Y0141259D02*
X0169858Y0141259D01*
X0171456Y0142857D02*
X0218655Y0142857D01*
X0217861Y0144456D02*
X0214649Y0144456D01*
X0214512Y0144320D02*
X0215069Y0144876D01*
X0215531Y0145513D01*
X0215889Y0146214D01*
X0216132Y0146962D01*
X0216255Y0147740D01*
X0216255Y0151133D01*
X0211455Y0151133D01*
X0211455Y0143133D01*
X0211649Y0143133D01*
X0212426Y0143256D01*
X0213174Y0143500D01*
X0213876Y0143857D01*
X0214512Y0144320D01*
X0215807Y0146054D02*
X0216704Y0146054D01*
X0216255Y0147653D02*
X0216241Y0147653D01*
X0216255Y0149251D02*
X0216255Y0149251D01*
X0216255Y0150850D02*
X0216255Y0150850D01*
X0216255Y0151533D02*
X0216255Y0154927D01*
X0216132Y0155704D01*
X0215889Y0156453D01*
X0215531Y0157154D01*
X0215069Y0157791D01*
X0214512Y0158347D01*
X0213876Y0158810D01*
X0213174Y0159167D01*
X0212426Y0159410D01*
X0211649Y0159533D01*
X0211455Y0159533D01*
X0211455Y0151533D01*
X0216255Y0151533D01*
X0216255Y0152448D02*
X0216255Y0152448D01*
X0216255Y0154047D02*
X0216255Y0154047D01*
X0216304Y0155645D02*
X0216141Y0155645D01*
X0215466Y0157244D02*
X0216966Y0157244D01*
X0218593Y0158843D02*
X0213811Y0158843D01*
X0211455Y0158843D02*
X0211055Y0158843D01*
X0211055Y0159533D02*
X0210862Y0159533D01*
X0210084Y0159410D01*
X0209336Y0159167D01*
X0208634Y0158810D01*
X0207998Y0158347D01*
X0207441Y0157791D01*
X0206979Y0157154D01*
X0206621Y0156453D01*
X0206378Y0155704D01*
X0206255Y0154927D01*
X0206255Y0151533D01*
X0211055Y0151533D01*
X0211055Y0151133D01*
X0211455Y0151133D01*
X0211455Y0151533D01*
X0211055Y0151533D01*
X0211055Y0159533D01*
X0211055Y0157244D02*
X0211455Y0157244D01*
X0211455Y0155645D02*
X0211055Y0155645D01*
X0211055Y0154047D02*
X0211455Y0154047D01*
X0211455Y0152448D02*
X0211055Y0152448D01*
X0211055Y0151133D02*
X0206255Y0151133D01*
X0206255Y0147740D01*
X0206378Y0146962D01*
X0206621Y0146214D01*
X0206979Y0145513D01*
X0207441Y0144876D01*
X0207998Y0144320D01*
X0208634Y0143857D01*
X0209336Y0143500D01*
X0210084Y0143256D01*
X0210862Y0143133D01*
X0211055Y0143133D01*
X0211055Y0151133D01*
X0211055Y0150850D02*
X0211455Y0150850D01*
X0211455Y0149251D02*
X0211055Y0149251D01*
X0211055Y0147653D02*
X0211455Y0147653D01*
X0211455Y0146054D02*
X0211055Y0146054D01*
X0211055Y0144456D02*
X0211455Y0144456D01*
X0207861Y0144456D02*
X0173055Y0144456D01*
X0174653Y0146054D02*
X0206703Y0146054D01*
X0206269Y0147653D02*
X0176252Y0147653D01*
X0177850Y0149251D02*
X0206255Y0149251D01*
X0206255Y0150850D02*
X0179449Y0150850D01*
X0181047Y0152448D02*
X0206255Y0152448D01*
X0206255Y0154047D02*
X0182646Y0154047D01*
X0184244Y0155645D02*
X0206369Y0155645D01*
X0207044Y0157244D02*
X0185843Y0157244D01*
X0187441Y0158843D02*
X0208699Y0158843D01*
X0210084Y0163256D02*
X0210862Y0163133D01*
X0211055Y0163133D01*
X0211055Y0171133D01*
X0211455Y0171133D01*
X0211455Y0163133D01*
X0211649Y0163133D01*
X0212426Y0163256D01*
X0213174Y0163500D01*
X0213876Y0163857D01*
X0214512Y0164320D01*
X0215069Y0164876D01*
X0215531Y0165513D01*
X0215889Y0166214D01*
X0216132Y0166962D01*
X0216255Y0167740D01*
X0216255Y0171133D01*
X0211455Y0171133D01*
X0211455Y0171533D01*
X0216255Y0171533D01*
X0216255Y0174927D01*
X0216132Y0175704D01*
X0215889Y0176453D01*
X0215531Y0177154D01*
X0215069Y0177791D01*
X0214512Y0178347D01*
X0213876Y0178810D01*
X0213174Y0179167D01*
X0212426Y0179410D01*
X0211649Y0179533D01*
X0211455Y0179533D01*
X0211455Y0171533D01*
X0211055Y0171533D01*
X0211055Y0171133D01*
X0206255Y0171133D01*
X0206255Y0167740D01*
X0206378Y0166962D01*
X0206621Y0166214D01*
X0206979Y0165513D01*
X0207441Y0164876D01*
X0207998Y0164320D01*
X0208634Y0163857D01*
X0209336Y0163500D01*
X0210084Y0163256D01*
X0211055Y0163638D02*
X0211455Y0163638D01*
X0211455Y0165237D02*
X0211055Y0165237D01*
X0211055Y0166835D02*
X0211455Y0166835D01*
X0211455Y0168434D02*
X0211055Y0168434D01*
X0211055Y0170032D02*
X0211455Y0170032D01*
X0211055Y0171533D02*
X0206255Y0171533D01*
X0206255Y0174927D01*
X0206378Y0175704D01*
X0206621Y0176453D01*
X0206979Y0177154D01*
X0207441Y0177791D01*
X0207998Y0178347D01*
X0208634Y0178810D01*
X0209336Y0179167D01*
X0210084Y0179410D01*
X0210862Y0179533D01*
X0211055Y0179533D01*
X0211055Y0171533D01*
X0211055Y0171631D02*
X0211455Y0171631D01*
X0211455Y0173229D02*
X0211055Y0173229D01*
X0211055Y0174828D02*
X0211455Y0174828D01*
X0211455Y0176426D02*
X0211055Y0176426D01*
X0211055Y0178025D02*
X0211455Y0178025D01*
X0214835Y0178025D02*
X0217675Y0178025D01*
X0218655Y0179623D02*
X0188855Y0179623D01*
X0188855Y0178025D02*
X0207675Y0178025D01*
X0206613Y0176426D02*
X0188855Y0176426D01*
X0188855Y0174828D02*
X0206255Y0174828D01*
X0206255Y0173229D02*
X0188855Y0173229D01*
X0188855Y0171631D02*
X0206255Y0171631D01*
X0206255Y0170032D02*
X0188855Y0170032D01*
X0188855Y0168434D02*
X0206255Y0168434D01*
X0206420Y0166835D02*
X0188855Y0166835D01*
X0188855Y0165237D02*
X0207179Y0165237D01*
X0209064Y0163638D02*
X0188855Y0163638D01*
X0188855Y0162040D02*
X0218655Y0162040D01*
X0218655Y0163638D02*
X0213446Y0163638D01*
X0215331Y0165237D02*
X0217081Y0165237D01*
X0216381Y0166835D02*
X0216091Y0166835D01*
X0216255Y0168434D02*
X0216255Y0168434D01*
X0216255Y0170032D02*
X0216255Y0170032D01*
X0216255Y0171631D02*
X0216255Y0171631D01*
X0216255Y0173229D02*
X0216255Y0173229D01*
X0216255Y0174828D02*
X0216255Y0174828D01*
X0215897Y0176426D02*
X0216627Y0176426D01*
X0218655Y0181222D02*
X0188855Y0181222D01*
X0188855Y0182820D02*
X0218655Y0182820D01*
X0218655Y0184419D02*
X0188855Y0184419D01*
X0188855Y0186017D02*
X0218655Y0186017D01*
X0218655Y0187616D02*
X0188855Y0187616D01*
X0188855Y0189214D02*
X0218655Y0189214D01*
X0218655Y0190813D02*
X0189411Y0190813D01*
X0191010Y0192411D02*
X0218655Y0192411D01*
X0221255Y0196333D02*
X0191255Y0196333D01*
X0186255Y0191333D01*
X0186255Y0186333D01*
X0161255Y0186333D01*
X0161255Y0241333D01*
X0186255Y0266333D01*
X0186255Y0271333D01*
X0185397Y0271333D01*
X0186472Y0273935D02*
X0198382Y0273935D01*
X0196920Y0275534D02*
X0185589Y0275534D01*
X0185589Y0277132D02*
X0196258Y0277132D01*
X0196255Y0278731D02*
X0184928Y0278731D01*
X0183472Y0280329D02*
X0196255Y0280329D01*
X0197973Y0288322D02*
X0171921Y0288322D01*
X0167764Y0291519D02*
X0151255Y0291519D01*
X0151255Y0293117D02*
X0169362Y0293117D01*
X0166165Y0289920D02*
X0151255Y0289920D01*
X0151255Y0288322D02*
X0164567Y0288322D01*
X0162968Y0286723D02*
X0151255Y0286723D01*
X0151255Y0285125D02*
X0161370Y0285125D01*
X0151255Y0294716D02*
X0459016Y0294716D01*
X0459016Y0293117D02*
X0408148Y0293117D01*
X0409746Y0291519D02*
X0459016Y0291519D01*
X0459016Y0289920D02*
X0411345Y0289920D01*
X0412943Y0288322D02*
X0459016Y0288322D01*
X0459016Y0286723D02*
X0413855Y0286723D01*
X0413855Y0285125D02*
X0429143Y0285125D01*
X0427235Y0283526D02*
X0413855Y0283526D01*
X0413855Y0281928D02*
X0425636Y0281928D01*
X0424038Y0280329D02*
X0413855Y0280329D01*
X0416255Y0276333D02*
X0426255Y0276333D01*
X0426255Y0246333D01*
X0431255Y0241333D01*
X0441255Y0241333D01*
X0446255Y0241333D01*
X0451255Y0236333D01*
X0451255Y0206333D01*
X0441255Y0196333D01*
X0441255Y0191333D01*
X0421255Y0191333D01*
X0416255Y0186333D01*
X0416255Y0116333D01*
X0421255Y0111333D01*
X0431255Y0111333D01*
X0443326Y0099262D01*
X0443326Y0093404D01*
X0447301Y0096501D02*
X0453655Y0096501D01*
X0453655Y0098099D02*
X0445926Y0098099D01*
X0445926Y0099698D02*
X0453655Y0099698D01*
X0453655Y0101296D02*
X0444969Y0101296D01*
X0443371Y0102895D02*
X0453655Y0102895D01*
X0453655Y0104493D02*
X0441772Y0104493D01*
X0440174Y0106092D02*
X0453655Y0106092D01*
X0453655Y0107690D02*
X0438575Y0107690D01*
X0436977Y0109289D02*
X0453655Y0109289D01*
X0453655Y0110887D02*
X0435378Y0110887D01*
X0433780Y0112486D02*
X0453655Y0112486D01*
X0453655Y0114084D02*
X0422181Y0114084D01*
X0420583Y0115683D02*
X0453655Y0115683D01*
X0453655Y0117281D02*
X0449981Y0117281D01*
X0451178Y0118880D02*
X0453655Y0118880D01*
X0453655Y0120478D02*
X0451688Y0120478D01*
X0451706Y0122077D02*
X0453655Y0122077D01*
X0453655Y0123675D02*
X0451235Y0123675D01*
X0450093Y0125274D02*
X0453638Y0125274D01*
X0452039Y0126872D02*
X0449572Y0126872D01*
X0446255Y0120478D02*
X0446255Y0120478D01*
X0446255Y0118880D02*
X0446255Y0118880D01*
X0446255Y0117281D02*
X0446255Y0117281D01*
X0442529Y0117281D02*
X0418984Y0117281D01*
X0418855Y0118880D02*
X0441332Y0118880D01*
X0440822Y0120478D02*
X0418855Y0120478D01*
X0418855Y0122077D02*
X0435233Y0122077D01*
X0433903Y0123675D02*
X0418855Y0123675D01*
X0418855Y0125274D02*
X0433255Y0125274D01*
X0433255Y0126872D02*
X0429572Y0126872D01*
X0431023Y0128471D02*
X0432941Y0128471D01*
X0433755Y0131333D02*
X0438755Y0126333D01*
X0437262Y0131668D02*
X0437098Y0131668D01*
X0435499Y0133266D02*
X0441103Y0133266D01*
X0440755Y0131668D02*
X0440249Y0131668D01*
X0442008Y0134865D02*
X0430502Y0134865D01*
X0428242Y0136463D02*
X0444268Y0136463D01*
X0449307Y0138062D02*
X0418855Y0138062D01*
X0418855Y0139660D02*
X0450905Y0139660D01*
X0452504Y0141259D02*
X0418855Y0141259D01*
X0418855Y0142857D02*
X0453655Y0142857D01*
X0453655Y0144456D02*
X0418855Y0144456D01*
X0418855Y0146054D02*
X0453655Y0146054D01*
X0453655Y0147653D02*
X0418855Y0147653D01*
X0418855Y0149251D02*
X0453655Y0149251D01*
X0453655Y0150850D02*
X0418855Y0150850D01*
X0418855Y0152448D02*
X0453655Y0152448D01*
X0453655Y0154047D02*
X0418855Y0154047D01*
X0418855Y0155645D02*
X0453655Y0155645D01*
X0453655Y0157244D02*
X0429944Y0157244D01*
X0429371Y0156671D02*
X0430918Y0158218D01*
X0431755Y0160239D01*
X0431755Y0162427D01*
X0430918Y0164449D01*
X0429371Y0165996D01*
X0427349Y0166833D01*
X0425161Y0166833D01*
X0423140Y0165996D01*
X0421592Y0164449D01*
X0420755Y0162427D01*
X0420755Y0160239D01*
X0421592Y0158218D01*
X0423140Y0156671D01*
X0425161Y0155833D01*
X0427349Y0155833D01*
X0429371Y0156671D01*
X0431176Y0158843D02*
X0453655Y0158843D01*
X0453655Y0160441D02*
X0431755Y0160441D01*
X0431755Y0162040D02*
X0453655Y0162040D01*
X0453655Y0163638D02*
X0431254Y0163638D01*
X0430130Y0165237D02*
X0453655Y0165237D01*
X0453655Y0166835D02*
X0446661Y0166835D01*
X0448626Y0168434D02*
X0453655Y0168434D01*
X0453655Y0170032D02*
X0449328Y0170032D01*
X0449455Y0171631D02*
X0453655Y0171631D01*
X0453655Y0173229D02*
X0449082Y0173229D01*
X0448032Y0174828D02*
X0453655Y0174828D01*
X0452485Y0176426D02*
X0445674Y0176426D01*
X0448217Y0178025D02*
X0450887Y0178025D01*
X0451255Y0181333D02*
X0441255Y0181333D01*
X0445450Y0186333D02*
X0437060Y0186333D01*
X0445450Y0186333D01*
X0447287Y0185572D01*
X0448694Y0184166D01*
X0448790Y0183933D01*
X0450178Y0183933D01*
X0453655Y0187410D01*
X0453655Y0205333D01*
X0453459Y0204861D01*
X0444932Y0196333D01*
X0445450Y0196333D01*
X0447287Y0195572D01*
X0448694Y0194166D01*
X0449455Y0192328D01*
X0449455Y0190339D01*
X0448694Y0188501D01*
X0447287Y0187095D01*
X0445450Y0186333D01*
X0446213Y0186017D02*
X0452262Y0186017D01*
X0453655Y0187616D02*
X0447809Y0187616D01*
X0448989Y0189214D02*
X0453655Y0189214D01*
X0453655Y0190813D02*
X0449455Y0190813D01*
X0449421Y0192411D02*
X0453655Y0192411D01*
X0453655Y0194010D02*
X0448758Y0194010D01*
X0447200Y0195608D02*
X0453655Y0195608D01*
X0453655Y0197207D02*
X0445805Y0197207D01*
X0447404Y0198805D02*
X0453655Y0198805D01*
X0453655Y0200404D02*
X0449002Y0200404D01*
X0450601Y0202002D02*
X0453655Y0202002D01*
X0453655Y0203601D02*
X0452200Y0203601D01*
X0453600Y0205199D02*
X0453655Y0205199D01*
X0448043Y0206798D02*
X0446567Y0206798D01*
X0446444Y0205199D02*
X0408224Y0205199D01*
X0408224Y0206798D02*
X0435943Y0206798D01*
X0436136Y0206700D02*
X0436884Y0206456D01*
X0437662Y0206333D01*
X0441055Y0206333D01*
X0441055Y0211133D01*
X0433055Y0211133D01*
X0433055Y0210940D01*
X0433178Y0210162D01*
X0433421Y0209414D01*
X0433779Y0208713D01*
X0434241Y0208076D01*
X0434798Y0207520D01*
X0435434Y0207057D01*
X0436136Y0206700D01*
X0434009Y0208396D02*
X0408224Y0208396D01*
X0406633Y0209995D02*
X0433233Y0209995D01*
X0433055Y0211533D02*
X0441055Y0211533D01*
X0441055Y0216333D01*
X0437662Y0216333D01*
X0436884Y0216210D01*
X0436136Y0215967D01*
X0435434Y0215610D01*
X0434798Y0215147D01*
X0434241Y0214591D01*
X0433779Y0213954D01*
X0433421Y0213253D01*
X0433178Y0212504D01*
X0433055Y0211727D01*
X0433055Y0211533D01*
X0433055Y0211593D02*
X0405555Y0211593D01*
X0405295Y0211333D02*
X0408224Y0214262D01*
X0408224Y0216133D01*
X0403424Y0216133D01*
X0403424Y0211333D01*
X0405295Y0211333D01*
X0403424Y0211593D02*
X0403024Y0211593D01*
X0403024Y0213192D02*
X0403424Y0213192D01*
X0403424Y0214790D02*
X0403024Y0214790D01*
X0403023Y0216389D02*
X0398224Y0216389D01*
X0398224Y0217987D02*
X0398224Y0217987D01*
X0399405Y0219586D02*
X0397042Y0219586D01*
X0395443Y0221184D02*
X0401004Y0221184D01*
X0403024Y0221184D02*
X0403424Y0221184D01*
X0403424Y0219586D02*
X0403024Y0219586D01*
X0403024Y0217987D02*
X0403424Y0217987D01*
X0403424Y0216389D02*
X0436926Y0216389D01*
X0434441Y0214790D02*
X0408224Y0214790D01*
X0407153Y0213192D02*
X0433402Y0213192D01*
X0434330Y0217987D02*
X0423539Y0217987D01*
X0421255Y0221333D02*
X0441255Y0221333D01*
X0445450Y0226333D02*
X0437060Y0226333D01*
X0445450Y0226333D01*
X0447287Y0225572D01*
X0448655Y0224204D01*
X0448655Y0228462D01*
X0447287Y0227095D01*
X0445450Y0226333D01*
X0446303Y0225980D02*
X0448655Y0225980D01*
X0448655Y0227579D02*
X0447771Y0227579D01*
X0448478Y0224381D02*
X0448655Y0224381D01*
X0448655Y0217987D02*
X0448180Y0217987D01*
X0448655Y0216389D02*
X0445584Y0216389D01*
X0448069Y0214790D02*
X0448655Y0214790D01*
X0448655Y0208396D02*
X0448502Y0208396D01*
X0444846Y0203601D02*
X0407562Y0203601D01*
X0405964Y0202002D02*
X0443247Y0202002D01*
X0441649Y0200404D02*
X0406224Y0200404D01*
X0407823Y0198805D02*
X0440050Y0198805D01*
X0438803Y0197207D02*
X0408224Y0197207D01*
X0408224Y0195608D02*
X0435310Y0195608D01*
X0433752Y0194010D02*
X0407971Y0194010D01*
X0406373Y0192411D02*
X0418656Y0192411D01*
X0419051Y0192806D02*
X0419051Y0192806D01*
X0417058Y0190813D02*
X0405815Y0190813D01*
X0407414Y0189214D02*
X0415459Y0189214D01*
X0413972Y0187616D02*
X0408224Y0187616D01*
X0408224Y0186133D02*
X0403424Y0186133D01*
X0403424Y0181333D01*
X0405295Y0181333D01*
X0408224Y0184262D01*
X0408224Y0186133D01*
X0408224Y0186017D02*
X0413655Y0186017D01*
X0413655Y0184419D02*
X0408224Y0184419D01*
X0406781Y0182820D02*
X0413655Y0182820D01*
X0413655Y0181222D02*
X0405406Y0181222D01*
X0407005Y0179623D02*
X0413655Y0179623D01*
X0413655Y0178025D02*
X0408224Y0178025D01*
X0408224Y0176426D02*
X0413655Y0176426D01*
X0413655Y0174828D02*
X0408224Y0174828D01*
X0407190Y0173229D02*
X0413655Y0173229D01*
X0413655Y0171631D02*
X0405592Y0171631D01*
X0406596Y0170032D02*
X0413655Y0170032D01*
X0413655Y0168434D02*
X0408194Y0168434D01*
X0408224Y0166835D02*
X0413655Y0166835D01*
X0413655Y0165237D02*
X0408224Y0165237D01*
X0407599Y0163638D02*
X0413655Y0163638D01*
X0413655Y0162040D02*
X0406001Y0162040D01*
X0406187Y0160441D02*
X0413655Y0160441D01*
X0413655Y0158843D02*
X0407785Y0158843D01*
X0408224Y0157244D02*
X0413655Y0157244D01*
X0413655Y0155645D02*
X0408224Y0155645D01*
X0408008Y0154047D02*
X0413655Y0154047D01*
X0413655Y0152448D02*
X0406410Y0152448D01*
X0405778Y0150850D02*
X0413655Y0150850D01*
X0413655Y0149251D02*
X0407376Y0149251D01*
X0408224Y0147653D02*
X0413655Y0147653D01*
X0413655Y0146054D02*
X0408224Y0146054D01*
X0408224Y0144456D02*
X0413655Y0144456D01*
X0413655Y0142857D02*
X0406819Y0142857D01*
X0405369Y0141259D02*
X0413655Y0141259D01*
X0413655Y0139660D02*
X0406968Y0139660D01*
X0408224Y0138062D02*
X0413655Y0138062D01*
X0413655Y0136463D02*
X0403424Y0136463D01*
X0403424Y0136133D02*
X0408224Y0136133D01*
X0408224Y0134262D01*
X0405295Y0131333D01*
X0403424Y0131333D01*
X0403424Y0136133D01*
X0403023Y0136463D02*
X0398224Y0136463D01*
X0398224Y0134865D02*
X0398224Y0134865D01*
X0397228Y0133266D02*
X0399220Y0133266D01*
X0400818Y0131668D02*
X0395629Y0131668D01*
X0396559Y0130069D02*
X0399889Y0130069D01*
X0398290Y0128471D02*
X0398157Y0128471D01*
X0398224Y0126872D02*
X0398224Y0126872D01*
X0398224Y0125274D02*
X0398224Y0125274D01*
X0397637Y0123675D02*
X0398811Y0123675D01*
X0400409Y0122077D02*
X0396038Y0122077D01*
X0396150Y0120478D02*
X0400297Y0120478D01*
X0398699Y0118880D02*
X0397748Y0118880D01*
X0398224Y0117281D02*
X0398224Y0117281D01*
X0398224Y0115683D02*
X0398224Y0115683D01*
X0398045Y0114084D02*
X0398402Y0114084D01*
X0400000Y0112486D02*
X0396447Y0112486D01*
X0395741Y0110887D02*
X0400706Y0110887D01*
X0399108Y0109289D02*
X0397339Y0109289D01*
X0398224Y0107690D02*
X0398224Y0107690D01*
X0398224Y0106092D02*
X0398224Y0106092D01*
X0398224Y0104493D02*
X0398224Y0104493D01*
X0399591Y0102895D02*
X0396856Y0102895D01*
X0395332Y0101296D02*
X0401115Y0101296D01*
X0399517Y0099698D02*
X0396930Y0099698D01*
X0398224Y0098099D02*
X0398224Y0098099D01*
X0398224Y0096501D02*
X0398224Y0096501D01*
X0398224Y0094902D02*
X0398224Y0094902D01*
X0397265Y0093304D02*
X0399182Y0093304D01*
X0400781Y0091705D02*
X0395666Y0091705D01*
X0396521Y0090107D02*
X0399926Y0090107D01*
X0398327Y0088508D02*
X0398120Y0088508D01*
X0398224Y0086910D02*
X0398224Y0086910D01*
X0398224Y0086133D02*
X0393424Y0086133D01*
X0393424Y0081333D01*
X0395295Y0081333D01*
X0398224Y0084262D01*
X0398224Y0086133D01*
X0398224Y0085311D02*
X0398224Y0085311D01*
X0397674Y0083712D02*
X0398773Y0083712D01*
X0400372Y0082114D02*
X0396075Y0082114D01*
X0393424Y0082114D02*
X0393024Y0082114D01*
X0393024Y0083712D02*
X0393424Y0083712D01*
X0393424Y0085311D02*
X0393024Y0085311D01*
X0393024Y0086910D02*
X0393424Y0086910D01*
X0393424Y0088508D02*
X0393024Y0088508D01*
X0393024Y0090107D02*
X0393424Y0090107D01*
X0388327Y0088508D02*
X0316832Y0088508D01*
X0318163Y0086910D02*
X0388224Y0086910D01*
X0388224Y0085311D02*
X0362908Y0085311D01*
X0364506Y0083712D02*
X0388773Y0083712D01*
X0390372Y0082114D02*
X0365236Y0082114D01*
X0365236Y0080515D02*
X0421927Y0080515D01*
X0421921Y0082114D02*
X0406075Y0082114D01*
X0407674Y0083712D02*
X0422415Y0083712D01*
X0423636Y0085311D02*
X0408224Y0085311D01*
X0408224Y0086910D02*
X0423655Y0086910D01*
X0423655Y0088508D02*
X0408120Y0088508D01*
X0406521Y0090107D02*
X0423655Y0090107D01*
X0423655Y0091705D02*
X0405666Y0091705D01*
X0407265Y0093304D02*
X0423655Y0093304D01*
X0422274Y0094902D02*
X0408224Y0094902D01*
X0408224Y0096501D02*
X0422274Y0096501D01*
X0422391Y0098099D02*
X0408224Y0098099D01*
X0406930Y0099698D02*
X0423989Y0099698D01*
X0426255Y0096333D02*
X0426255Y0081333D01*
X0427113Y0081333D01*
X0429184Y0079262D01*
X0428326Y0079262D01*
X0425655Y0075720D02*
X0359319Y0075720D01*
X0360917Y0077318D02*
X0424057Y0077318D01*
X0422590Y0078917D02*
X0364469Y0078917D01*
X0361255Y0081333D02*
X0356255Y0076333D01*
X0321255Y0076333D01*
X0316255Y0081333D01*
X0313735Y0081333D01*
X0308735Y0082114D02*
X0308735Y0082114D01*
X0308735Y0083712D02*
X0308735Y0083712D01*
X0308735Y0085311D02*
X0308735Y0085311D01*
X0308735Y0085528D02*
X0308735Y0077530D01*
X0308735Y0077530D01*
X0308735Y0085528D01*
X0308163Y0086910D02*
X0309308Y0086910D01*
X0310639Y0088508D02*
X0306832Y0088508D01*
X0308735Y0080515D02*
X0308735Y0080515D01*
X0308735Y0078917D02*
X0308735Y0078917D01*
X0299323Y0075720D02*
X0298148Y0075720D01*
X0298735Y0077318D02*
X0298735Y0077318D01*
X0298735Y0078917D02*
X0298735Y0078917D01*
X0298735Y0080515D02*
X0298735Y0080515D01*
X0293735Y0081333D02*
X0226255Y0081333D01*
X0225295Y0078917D02*
X0194469Y0078917D01*
X0195236Y0080515D02*
X0223396Y0080515D01*
X0221797Y0082114D02*
X0195236Y0082114D01*
X0194506Y0083712D02*
X0220199Y0083712D01*
X0218864Y0085311D02*
X0192908Y0085311D01*
X0189603Y0085311D02*
X0183874Y0085311D01*
X0185095Y0083712D02*
X0188004Y0083712D01*
X0187274Y0082114D02*
X0185589Y0082114D01*
X0189184Y0079262D02*
X0178326Y0079262D01*
X0181855Y0075720D02*
X0289323Y0075720D01*
X0288735Y0077318D02*
X0190917Y0077318D01*
X0189184Y0079262D02*
X0191255Y0081333D01*
X0180256Y0074121D02*
X0290676Y0074121D01*
X0296795Y0074121D02*
X0300676Y0074121D01*
X0306389Y0072523D02*
X0178322Y0072523D01*
X0171446Y0078917D02*
X0167216Y0078917D01*
X0172508Y0080515D02*
X0172508Y0080515D01*
X0174107Y0082114D02*
X0174107Y0082114D01*
X0175705Y0083712D02*
X0175705Y0083712D01*
X0177304Y0085311D02*
X0177304Y0085311D01*
X0178231Y0086910D02*
X0218655Y0086910D01*
X0218655Y0088508D02*
X0178518Y0088508D01*
X0173655Y0094902D02*
X0171447Y0094902D01*
X0171447Y0096501D02*
X0173655Y0096501D01*
X0173655Y0098099D02*
X0170851Y0098099D01*
X0169487Y0099698D02*
X0173655Y0099698D01*
X0173655Y0101296D02*
X0166784Y0101296D01*
X0166784Y0102895D02*
X0174139Y0102895D01*
X0175738Y0104493D02*
X0166784Y0104493D01*
X0161584Y0104493D02*
X0153855Y0104493D01*
X0153855Y0102895D02*
X0161584Y0102895D01*
X0161584Y0101296D02*
X0153855Y0101296D01*
X0153855Y0099698D02*
X0161584Y0099698D01*
X0161584Y0098099D02*
X0153855Y0098099D01*
X0153855Y0096501D02*
X0160209Y0096501D01*
X0158611Y0094902D02*
X0153855Y0094902D01*
X0153855Y0093304D02*
X0157405Y0093304D01*
X0156921Y0091705D02*
X0153855Y0091705D01*
X0153855Y0090107D02*
X0156938Y0090107D01*
X0157600Y0088508D02*
X0153855Y0088508D01*
X0154356Y0086910D02*
X0159082Y0086910D01*
X0155954Y0085311D02*
X0164094Y0085311D01*
X0164760Y0086910D02*
X0164760Y0086910D01*
X0166359Y0088508D02*
X0166359Y0088508D01*
X0167957Y0090107D02*
X0167957Y0090107D01*
X0169556Y0091705D02*
X0169556Y0091705D01*
X0170880Y0093304D02*
X0171817Y0093304D01*
X0164184Y0093404D02*
X0164184Y0139262D01*
X0186255Y0161333D01*
X0186255Y0186333D01*
X0183655Y0189214D02*
X0168645Y0189214D01*
X0166706Y0190813D02*
X0183655Y0190813D01*
X0183887Y0192411D02*
X0163855Y0192411D01*
X0163855Y0194010D02*
X0185255Y0194010D01*
X0186853Y0195608D02*
X0163855Y0195608D01*
X0163855Y0197207D02*
X0188452Y0197207D01*
X0190429Y0198805D02*
X0163855Y0198805D01*
X0163855Y0200404D02*
X0231649Y0200404D01*
X0233247Y0202002D02*
X0163855Y0202002D01*
X0163855Y0203601D02*
X0174137Y0203601D01*
X0174336Y0203500D02*
X0175084Y0203256D01*
X0175862Y0203133D01*
X0176055Y0203133D01*
X0176055Y0211133D01*
X0176455Y0211133D01*
X0176455Y0203133D01*
X0176649Y0203133D01*
X0177426Y0203256D01*
X0178174Y0203500D01*
X0178876Y0203857D01*
X0179512Y0204320D01*
X0180069Y0204876D01*
X0180531Y0205513D01*
X0180889Y0206214D01*
X0181132Y0206962D01*
X0181255Y0207740D01*
X0181255Y0211133D01*
X0176455Y0211133D01*
X0176455Y0211533D01*
X0181255Y0211533D01*
X0181255Y0214927D01*
X0181132Y0215704D01*
X0180889Y0216453D01*
X0180531Y0217154D01*
X0180069Y0217791D01*
X0179512Y0218347D01*
X0178876Y0218810D01*
X0178829Y0218833D01*
X0178876Y0218857D01*
X0179512Y0219320D01*
X0180069Y0219876D01*
X0180531Y0220513D01*
X0180889Y0221214D01*
X0181132Y0221962D01*
X0181255Y0222740D01*
X0181255Y0226133D01*
X0176455Y0226133D01*
X0176455Y0219533D01*
X0176455Y0211533D01*
X0176055Y0211533D01*
X0176055Y0211133D01*
X0171255Y0211133D01*
X0171255Y0207740D01*
X0171378Y0206962D01*
X0171621Y0206214D01*
X0171979Y0205513D01*
X0172441Y0204876D01*
X0172998Y0204320D01*
X0173634Y0203857D01*
X0174336Y0203500D01*
X0176055Y0203601D02*
X0176455Y0203601D01*
X0176455Y0205199D02*
X0176055Y0205199D01*
X0176055Y0206798D02*
X0176455Y0206798D01*
X0176455Y0208396D02*
X0176055Y0208396D01*
X0176055Y0209995D02*
X0176455Y0209995D01*
X0176055Y0211533D02*
X0171255Y0211533D01*
X0171255Y0214927D01*
X0171378Y0215704D01*
X0171621Y0216453D01*
X0171979Y0217154D01*
X0172441Y0217791D01*
X0172998Y0218347D01*
X0173634Y0218810D01*
X0173681Y0218833D01*
X0173634Y0218857D01*
X0172998Y0219320D01*
X0172441Y0219876D01*
X0171979Y0220513D01*
X0171621Y0221214D01*
X0171378Y0221962D01*
X0171255Y0222740D01*
X0171255Y0226133D01*
X0176055Y0226133D01*
X0176455Y0226133D01*
X0176455Y0226533D01*
X0181255Y0226533D01*
X0181255Y0229927D01*
X0181132Y0230704D01*
X0180889Y0231453D01*
X0180531Y0232154D01*
X0180069Y0232791D01*
X0179512Y0233347D01*
X0178876Y0233810D01*
X0178829Y0233833D01*
X0178876Y0233857D01*
X0179512Y0234320D01*
X0180069Y0234876D01*
X0180531Y0235513D01*
X0180889Y0236214D01*
X0181132Y0236962D01*
X0181255Y0237740D01*
X0181255Y0241133D01*
X0176455Y0241133D01*
X0176455Y0226533D01*
X0176055Y0226533D01*
X0176055Y0226133D01*
X0176055Y0211533D01*
X0176055Y0211593D02*
X0176455Y0211593D01*
X0176455Y0213192D02*
X0176055Y0213192D01*
X0176055Y0214790D02*
X0176455Y0214790D01*
X0176455Y0216389D02*
X0176055Y0216389D01*
X0176055Y0217987D02*
X0176455Y0217987D01*
X0176455Y0219586D02*
X0176055Y0219586D01*
X0176055Y0221184D02*
X0176455Y0221184D01*
X0176455Y0222783D02*
X0176055Y0222783D01*
X0176055Y0224381D02*
X0176455Y0224381D01*
X0176455Y0225980D02*
X0176055Y0225980D01*
X0176055Y0226533D02*
X0171255Y0226533D01*
X0171255Y0229927D01*
X0171378Y0230704D01*
X0171621Y0231453D01*
X0171979Y0232154D01*
X0172441Y0232791D01*
X0172998Y0233347D01*
X0173634Y0233810D01*
X0173681Y0233833D01*
X0173634Y0233857D01*
X0172998Y0234320D01*
X0172441Y0234876D01*
X0171979Y0235513D01*
X0171621Y0236214D01*
X0171378Y0236962D01*
X0171255Y0237740D01*
X0171255Y0241133D01*
X0176055Y0241133D01*
X0176055Y0234533D01*
X0176055Y0226533D01*
X0176055Y0227579D02*
X0176455Y0227579D01*
X0176455Y0229177D02*
X0176055Y0229177D01*
X0176055Y0230776D02*
X0176455Y0230776D01*
X0176455Y0232374D02*
X0176055Y0232374D01*
X0176055Y0233973D02*
X0176455Y0233973D01*
X0176455Y0235571D02*
X0176055Y0235571D01*
X0176055Y0237170D02*
X0176455Y0237170D01*
X0176455Y0238768D02*
X0176055Y0238768D01*
X0176055Y0240367D02*
X0176455Y0240367D01*
X0176455Y0241133D02*
X0176055Y0241133D01*
X0176055Y0241533D01*
X0171255Y0241533D01*
X0171255Y0244927D01*
X0171378Y0245704D01*
X0171621Y0246453D01*
X0171979Y0247154D01*
X0172441Y0247791D01*
X0172998Y0248347D01*
X0173634Y0248810D01*
X0174336Y0249167D01*
X0175084Y0249410D01*
X0175862Y0249533D01*
X0176055Y0249533D01*
X0176055Y0241533D01*
X0176455Y0241533D01*
X0181255Y0241533D01*
X0181255Y0244927D01*
X0181132Y0245704D01*
X0180889Y0246453D01*
X0180531Y0247154D01*
X0180069Y0247791D01*
X0179512Y0248347D01*
X0178876Y0248810D01*
X0178174Y0249167D01*
X0177426Y0249410D01*
X0176649Y0249533D01*
X0176455Y0249533D01*
X0176455Y0241533D01*
X0176455Y0241133D01*
X0176455Y0241965D02*
X0176055Y0241965D01*
X0176055Y0243564D02*
X0176455Y0243564D01*
X0176455Y0245162D02*
X0176055Y0245162D01*
X0176055Y0246761D02*
X0176455Y0246761D01*
X0176455Y0248359D02*
X0176055Y0248359D01*
X0173556Y0249958D02*
X0183655Y0249958D01*
X0183655Y0251556D02*
X0175155Y0251556D01*
X0176753Y0253155D02*
X0183655Y0253155D01*
X0183655Y0254753D02*
X0178352Y0254753D01*
X0179950Y0256352D02*
X0183655Y0256352D01*
X0184195Y0257950D02*
X0181549Y0257950D01*
X0183147Y0259549D02*
X0185794Y0259549D01*
X0184746Y0261147D02*
X0187392Y0261147D01*
X0186344Y0262746D02*
X0188991Y0262746D01*
X0187943Y0264344D02*
X0190589Y0264344D01*
X0192188Y0265943D02*
X0188855Y0265943D01*
X0188855Y0267541D02*
X0193786Y0267541D01*
X0196255Y0266333D02*
X0216255Y0266333D01*
X0221255Y0271333D01*
X0226255Y0271333D01*
X0221255Y0271333D02*
X0221255Y0281333D01*
X0216255Y0281928D02*
X0216255Y0281928D01*
X0216255Y0283526D02*
X0216255Y0283526D01*
X0216255Y0285125D02*
X0216255Y0285125D01*
X0216255Y0285528D02*
X0216255Y0277139D01*
X0216255Y0285528D01*
X0217016Y0287366D01*
X0218384Y0288733D01*
X0214126Y0288733D01*
X0215494Y0287366D01*
X0216255Y0285528D01*
X0215760Y0286723D02*
X0216750Y0286723D01*
X0217973Y0288322D02*
X0214538Y0288322D01*
X0208384Y0288733D02*
X0207016Y0287366D01*
X0206255Y0285528D01*
X0206255Y0277139D01*
X0206255Y0285528D01*
X0205494Y0287366D01*
X0204126Y0288733D01*
X0208384Y0288733D01*
X0207973Y0288322D02*
X0204538Y0288322D01*
X0205760Y0286723D02*
X0206750Y0286723D01*
X0206255Y0285125D02*
X0206255Y0285125D01*
X0206255Y0283526D02*
X0206255Y0283526D01*
X0206255Y0281928D02*
X0206255Y0281928D01*
X0206255Y0280329D02*
X0206255Y0280329D01*
X0206255Y0278731D02*
X0206255Y0278731D01*
X0206252Y0277132D02*
X0206258Y0277132D01*
X0206920Y0275534D02*
X0205590Y0275534D01*
X0204128Y0273935D02*
X0208382Y0273935D01*
X0214128Y0273935D02*
X0218382Y0273935D01*
X0218582Y0272337D02*
X0188654Y0272337D01*
X0188855Y0270738D02*
X0216983Y0270738D01*
X0215385Y0269140D02*
X0188855Y0269140D01*
X0196255Y0266333D02*
X0186255Y0256333D01*
X0186255Y0241333D01*
X0186255Y0226333D01*
X0186255Y0211333D01*
X0181255Y0211593D02*
X0181255Y0211593D01*
X0181255Y0209995D02*
X0181255Y0209995D01*
X0181255Y0208396D02*
X0181255Y0208396D01*
X0181396Y0206798D02*
X0181078Y0206798D01*
X0180304Y0205199D02*
X0182118Y0205199D01*
X0184132Y0203601D02*
X0178373Y0203601D01*
X0172206Y0205199D02*
X0163855Y0205199D01*
X0163855Y0206798D02*
X0171432Y0206798D01*
X0171255Y0208396D02*
X0163855Y0208396D01*
X0163855Y0209995D02*
X0171255Y0209995D01*
X0171255Y0211593D02*
X0163855Y0211593D01*
X0163855Y0213192D02*
X0171255Y0213192D01*
X0171255Y0214790D02*
X0163855Y0214790D01*
X0163855Y0216389D02*
X0171601Y0216389D01*
X0172638Y0217987D02*
X0163855Y0217987D01*
X0163855Y0219586D02*
X0172731Y0219586D01*
X0171636Y0221184D02*
X0163855Y0221184D01*
X0163855Y0222783D02*
X0171255Y0222783D01*
X0171255Y0224381D02*
X0163855Y0224381D01*
X0163855Y0225980D02*
X0171255Y0225980D01*
X0171255Y0227579D02*
X0163855Y0227579D01*
X0163855Y0229177D02*
X0171255Y0229177D01*
X0171401Y0230776D02*
X0163855Y0230776D01*
X0163855Y0232374D02*
X0172139Y0232374D01*
X0173475Y0233973D02*
X0163855Y0233973D01*
X0163855Y0235571D02*
X0171949Y0235571D01*
X0171345Y0237170D02*
X0163855Y0237170D01*
X0163855Y0238768D02*
X0171255Y0238768D01*
X0171255Y0240367D02*
X0163965Y0240367D01*
X0165564Y0241965D02*
X0171255Y0241965D01*
X0171255Y0243564D02*
X0167162Y0243564D01*
X0168761Y0245162D02*
X0171292Y0245162D01*
X0171778Y0246761D02*
X0170359Y0246761D01*
X0171958Y0248359D02*
X0173014Y0248359D01*
X0179496Y0248359D02*
X0183010Y0248359D01*
X0181766Y0246761D02*
X0180732Y0246761D01*
X0181218Y0245162D02*
X0181255Y0245162D01*
X0181255Y0243564D02*
X0181255Y0243564D01*
X0181255Y0241965D02*
X0181255Y0241965D01*
X0181255Y0240367D02*
X0181255Y0240367D01*
X0181255Y0238768D02*
X0181255Y0238768D01*
X0181255Y0237170D02*
X0181165Y0237170D01*
X0180561Y0235571D02*
X0181904Y0235571D01*
X0183345Y0233973D02*
X0179035Y0233973D01*
X0180372Y0232374D02*
X0182025Y0232374D01*
X0181358Y0230776D02*
X0181109Y0230776D01*
X0181255Y0229177D02*
X0181255Y0229177D01*
X0181255Y0227579D02*
X0181255Y0227579D01*
X0181255Y0225980D02*
X0181255Y0225980D01*
X0181255Y0224381D02*
X0181255Y0224381D01*
X0181255Y0222783D02*
X0181255Y0222783D01*
X0180874Y0221184D02*
X0181650Y0221184D01*
X0182731Y0219586D02*
X0179779Y0219586D01*
X0179872Y0217987D02*
X0182638Y0217987D01*
X0181612Y0216389D02*
X0180909Y0216389D01*
X0181255Y0214790D02*
X0181255Y0214790D01*
X0181255Y0213192D02*
X0181255Y0213192D01*
X0188940Y0218833D02*
X0189087Y0218895D01*
X0190494Y0220301D01*
X0191255Y0222139D01*
X0192016Y0220301D01*
X0193423Y0218895D01*
X0193571Y0218833D01*
X0193423Y0218772D01*
X0192016Y0217366D01*
X0191255Y0215528D01*
X0191255Y0207139D01*
X0191255Y0215528D01*
X0190494Y0217366D01*
X0189087Y0218772D01*
X0188940Y0218833D01*
X0189779Y0219586D02*
X0192731Y0219586D01*
X0192638Y0217987D02*
X0189872Y0217987D01*
X0190898Y0216389D02*
X0191612Y0216389D01*
X0191255Y0214790D02*
X0191255Y0214790D01*
X0191255Y0213192D02*
X0191255Y0213192D01*
X0191255Y0211593D02*
X0191255Y0211593D01*
X0191255Y0209995D02*
X0191255Y0209995D01*
X0191255Y0208396D02*
X0191255Y0208396D01*
X0191114Y0206798D02*
X0191396Y0206798D01*
X0192118Y0205199D02*
X0190392Y0205199D01*
X0188378Y0203601D02*
X0194132Y0203601D01*
X0198378Y0203601D02*
X0204132Y0203601D01*
X0202118Y0205199D02*
X0200392Y0205199D01*
X0201114Y0206798D02*
X0201396Y0206798D01*
X0201255Y0207139D02*
X0201255Y0215528D01*
X0202016Y0217366D01*
X0203423Y0218772D01*
X0203571Y0218833D01*
X0203423Y0218895D01*
X0202016Y0220301D01*
X0201255Y0222139D01*
X0201255Y0230528D01*
X0202016Y0232366D01*
X0203423Y0233772D01*
X0203571Y0233833D01*
X0203423Y0233895D01*
X0202016Y0235301D01*
X0201255Y0237139D01*
X0201255Y0245528D01*
X0202016Y0247366D01*
X0203423Y0248772D01*
X0203655Y0248868D01*
X0203655Y0251851D01*
X0204051Y0252806D01*
X0204782Y0253537D01*
X0209782Y0258537D01*
X0210255Y0258733D01*
X0202332Y0258733D01*
X0198855Y0255256D01*
X0198855Y0248868D01*
X0199087Y0248772D01*
X0200494Y0247366D01*
X0201255Y0245528D01*
X0201255Y0237139D01*
X0200494Y0235301D01*
X0199087Y0233895D01*
X0198940Y0233833D01*
X0199087Y0233772D01*
X0200494Y0232366D01*
X0201255Y0230528D01*
X0201255Y0222139D01*
X0200494Y0220301D01*
X0199087Y0218895D01*
X0198940Y0218833D01*
X0199087Y0218772D01*
X0200494Y0217366D01*
X0201255Y0215528D01*
X0201255Y0207139D01*
X0201255Y0208396D02*
X0201255Y0208396D01*
X0201255Y0209995D02*
X0201255Y0209995D01*
X0201255Y0211593D02*
X0201255Y0211593D01*
X0201255Y0213192D02*
X0201255Y0213192D01*
X0201255Y0214790D02*
X0201255Y0214790D01*
X0200898Y0216389D02*
X0201612Y0216389D01*
X0202638Y0217987D02*
X0199872Y0217987D01*
X0199779Y0219586D02*
X0202731Y0219586D01*
X0201650Y0221184D02*
X0200860Y0221184D01*
X0201255Y0222783D02*
X0201255Y0222783D01*
X0201255Y0224381D02*
X0201255Y0224381D01*
X0201255Y0225980D02*
X0201255Y0225980D01*
X0201255Y0227579D02*
X0201255Y0227579D01*
X0201255Y0229177D02*
X0201255Y0229177D01*
X0201152Y0230776D02*
X0201358Y0230776D01*
X0202025Y0232374D02*
X0200485Y0232374D01*
X0199165Y0233973D02*
X0203345Y0233973D01*
X0201904Y0235571D02*
X0200606Y0235571D01*
X0201255Y0237170D02*
X0201255Y0237170D01*
X0201255Y0238768D02*
X0201255Y0238768D01*
X0201255Y0240367D02*
X0201255Y0240367D01*
X0201255Y0241965D02*
X0201255Y0241965D01*
X0201255Y0243564D02*
X0201255Y0243564D01*
X0201255Y0245162D02*
X0201255Y0245162D01*
X0200744Y0246761D02*
X0201766Y0246761D01*
X0203010Y0248359D02*
X0199500Y0248359D01*
X0198855Y0249958D02*
X0203655Y0249958D01*
X0203655Y0251556D02*
X0198855Y0251556D01*
X0198855Y0253155D02*
X0204399Y0253155D01*
X0205998Y0254753D02*
X0198855Y0254753D01*
X0199950Y0256352D02*
X0207597Y0256352D01*
X0209195Y0257950D02*
X0201549Y0257950D01*
X0201255Y0261333D02*
X0196255Y0256333D01*
X0196255Y0241333D01*
X0196255Y0226333D01*
X0196255Y0211333D01*
X0206255Y0211333D02*
X0221255Y0211333D01*
X0226255Y0206333D01*
X0223357Y0203601D02*
X0208378Y0203601D01*
X0210392Y0205199D02*
X0222274Y0205199D01*
X0222114Y0206798D02*
X0211114Y0206798D01*
X0211255Y0208396D02*
X0220515Y0208396D01*
X0224672Y0211593D02*
X0233655Y0211593D01*
X0233655Y0209995D02*
X0228224Y0209995D01*
X0229822Y0208396D02*
X0233655Y0208396D01*
X0233655Y0206798D02*
X0230236Y0206798D01*
X0230236Y0205199D02*
X0233655Y0205199D01*
X0233655Y0203601D02*
X0229153Y0203601D01*
X0235805Y0197207D02*
X0388224Y0197207D01*
X0388224Y0195608D02*
X0234207Y0195608D01*
X0233459Y0194861D02*
X0233459Y0194861D01*
X0232440Y0194010D02*
X0388476Y0194010D01*
X0390075Y0192411D02*
X0223855Y0192411D01*
X0223855Y0190813D02*
X0390632Y0190813D01*
X0389033Y0189214D02*
X0223855Y0189214D01*
X0223855Y0187616D02*
X0388224Y0187616D01*
X0388224Y0186017D02*
X0223855Y0186017D01*
X0223855Y0184419D02*
X0388224Y0184419D01*
X0389666Y0182820D02*
X0223855Y0182820D01*
X0223855Y0181222D02*
X0391041Y0181222D01*
X0389442Y0179623D02*
X0223855Y0179623D01*
X0224835Y0178025D02*
X0227675Y0178025D01*
X0226627Y0176426D02*
X0225883Y0176426D01*
X0226255Y0174828D02*
X0226255Y0174828D01*
X0226255Y0173229D02*
X0226255Y0173229D01*
X0226255Y0171631D02*
X0226255Y0171631D01*
X0226255Y0170032D02*
X0226255Y0170032D01*
X0226255Y0168434D02*
X0226255Y0168434D01*
X0226129Y0166835D02*
X0226381Y0166835D01*
X0227081Y0165237D02*
X0225429Y0165237D01*
X0223855Y0163638D02*
X0229042Y0163638D01*
X0233468Y0163638D02*
X0243655Y0163638D01*
X0243655Y0162040D02*
X0223855Y0162040D01*
X0223855Y0160441D02*
X0243655Y0160441D01*
X0243655Y0158843D02*
X0233917Y0158843D01*
X0235544Y0157244D02*
X0243655Y0157244D01*
X0243655Y0155645D02*
X0236206Y0155645D01*
X0236255Y0154047D02*
X0243655Y0154047D01*
X0243655Y0152448D02*
X0238817Y0152448D01*
X0240415Y0150850D02*
X0243655Y0150850D01*
X0243655Y0149251D02*
X0242014Y0149251D01*
X0243523Y0147653D02*
X0243655Y0147653D01*
X0241255Y0146333D02*
X0241255Y0131333D01*
X0246255Y0126333D01*
X0381255Y0126333D01*
X0378283Y0123675D02*
X0377395Y0123675D01*
X0379189Y0122077D02*
X0390409Y0122077D01*
X0390297Y0120478D02*
X0380787Y0120478D01*
X0384339Y0118880D02*
X0388699Y0118880D01*
X0388224Y0117281D02*
X0385236Y0117281D01*
X0385236Y0115683D02*
X0388224Y0115683D01*
X0388402Y0114084D02*
X0384636Y0114084D01*
X0383038Y0112486D02*
X0390000Y0112486D01*
X0390706Y0110887D02*
X0365378Y0110887D01*
X0366977Y0109289D02*
X0378580Y0109289D01*
X0379473Y0112486D02*
X0363780Y0112486D01*
X0362181Y0114084D02*
X0377874Y0114084D01*
X0377274Y0115683D02*
X0360583Y0115683D01*
X0358984Y0117281D02*
X0376630Y0117281D01*
X0376255Y0121333D02*
X0246255Y0121333D01*
X0236255Y0131333D01*
X0231255Y0131333D01*
X0226255Y0131668D02*
X0226255Y0131668D01*
X0226255Y0133266D02*
X0226255Y0133266D01*
X0226255Y0134865D02*
X0226255Y0134865D01*
X0225868Y0136463D02*
X0226643Y0136463D01*
X0227713Y0138062D02*
X0224798Y0138062D01*
X0223855Y0139660D02*
X0238655Y0139660D01*
X0238655Y0138062D02*
X0234798Y0138062D01*
X0235868Y0136463D02*
X0238655Y0136463D01*
X0238655Y0134865D02*
X0236255Y0134865D01*
X0237999Y0133266D02*
X0238655Y0133266D01*
X0237039Y0126872D02*
X0236145Y0126872D01*
X0235467Y0125274D02*
X0238638Y0125274D01*
X0240236Y0123675D02*
X0233558Y0123675D01*
X0228952Y0123675D02*
X0223855Y0123675D01*
X0223855Y0122077D02*
X0241835Y0122077D01*
X0243433Y0120478D02*
X0223855Y0120478D01*
X0223855Y0118880D02*
X0228683Y0118880D01*
X0226981Y0117281D02*
X0225529Y0117281D01*
X0226191Y0115683D02*
X0226319Y0115683D01*
X0226255Y0114084D02*
X0226255Y0114084D01*
X0226255Y0112486D02*
X0226255Y0112486D01*
X0226255Y0110887D02*
X0226255Y0110887D01*
X0226255Y0109289D02*
X0226255Y0109289D01*
X0226255Y0107690D02*
X0226255Y0107690D01*
X0225821Y0106092D02*
X0226689Y0106092D01*
X0227824Y0104493D02*
X0224686Y0104493D01*
X0223855Y0102895D02*
X0379064Y0102895D01*
X0381255Y0106333D02*
X0366255Y0106333D01*
X0356255Y0116333D01*
X0246255Y0116333D01*
X0241255Y0111333D01*
X0231255Y0111333D01*
X0236255Y0114084D02*
X0240329Y0114084D01*
X0241928Y0115683D02*
X0236191Y0115683D01*
X0235529Y0117281D02*
X0243526Y0117281D01*
X0245384Y0118880D02*
X0233828Y0118880D01*
X0227044Y0125274D02*
X0225467Y0125274D01*
X0226145Y0126872D02*
X0226365Y0126872D01*
X0226255Y0128471D02*
X0226255Y0128471D01*
X0226255Y0130069D02*
X0226255Y0130069D01*
X0223855Y0141259D02*
X0238655Y0141259D01*
X0238655Y0142857D02*
X0223855Y0142857D01*
X0224649Y0144456D02*
X0227861Y0144456D01*
X0226704Y0146054D02*
X0225806Y0146054D01*
X0226255Y0147653D02*
X0226255Y0147653D01*
X0226255Y0149251D02*
X0226255Y0149251D01*
X0226255Y0150850D02*
X0226255Y0150850D01*
X0226255Y0152448D02*
X0226255Y0152448D01*
X0226255Y0154047D02*
X0226255Y0154047D01*
X0226206Y0155645D02*
X0226304Y0155645D01*
X0226966Y0157244D02*
X0225544Y0157244D01*
X0223917Y0158843D02*
X0228593Y0158843D01*
X0218655Y0160441D02*
X0188700Y0160441D01*
X0183284Y0162040D02*
X0167155Y0162040D01*
X0168751Y0163638D02*
X0173320Y0163638D01*
X0176255Y0166333D02*
X0161255Y0166333D01*
X0156343Y0171631D02*
X0155229Y0171631D01*
X0154683Y0170032D02*
X0153855Y0170032D01*
X0153855Y0162040D02*
X0155356Y0162040D01*
X0153855Y0160441D02*
X0181686Y0160441D01*
X0180087Y0158843D02*
X0153855Y0158843D01*
X0153855Y0157244D02*
X0178489Y0157244D01*
X0176890Y0155645D02*
X0153855Y0155645D01*
X0153855Y0154047D02*
X0175292Y0154047D01*
X0173693Y0152448D02*
X0153855Y0152448D01*
X0153855Y0150850D02*
X0172095Y0150850D01*
X0170496Y0149251D02*
X0153855Y0149251D01*
X0153855Y0147653D02*
X0168898Y0147653D01*
X0167299Y0146054D02*
X0153855Y0146054D01*
X0153855Y0144456D02*
X0165701Y0144456D01*
X0164102Y0142857D02*
X0153855Y0142857D01*
X0153855Y0141259D02*
X0162504Y0141259D01*
X0161584Y0139660D02*
X0153855Y0139660D01*
X0153855Y0138062D02*
X0161584Y0138062D01*
X0161584Y0136463D02*
X0153855Y0136463D01*
X0153855Y0134865D02*
X0161584Y0134865D01*
X0161584Y0133266D02*
X0153855Y0133266D01*
X0153855Y0131668D02*
X0161584Y0131668D01*
X0161584Y0130069D02*
X0153855Y0130069D01*
X0153855Y0128471D02*
X0161584Y0128471D01*
X0161584Y0126872D02*
X0153855Y0126872D01*
X0153855Y0125274D02*
X0161584Y0125274D01*
X0161584Y0123675D02*
X0153855Y0123675D01*
X0153855Y0122077D02*
X0161584Y0122077D01*
X0161584Y0120478D02*
X0153855Y0120478D01*
X0153855Y0118880D02*
X0161584Y0118880D01*
X0161584Y0117281D02*
X0153855Y0117281D01*
X0153855Y0115683D02*
X0161584Y0115683D01*
X0161584Y0114084D02*
X0153855Y0114084D01*
X0153855Y0112486D02*
X0161584Y0112486D01*
X0161584Y0110887D02*
X0153855Y0110887D01*
X0153855Y0109289D02*
X0161584Y0109289D01*
X0161584Y0107690D02*
X0153855Y0107690D01*
X0153855Y0106092D02*
X0161584Y0106092D01*
X0231255Y0151333D02*
X0236255Y0151333D01*
X0241255Y0146333D01*
X0238655Y0144456D02*
X0234649Y0144456D01*
X0235806Y0146054D02*
X0237857Y0146054D01*
X0236259Y0147653D02*
X0236255Y0147653D01*
X0248855Y0147653D02*
X0295235Y0147653D01*
X0295235Y0147670D02*
X0295235Y0144288D01*
X0296529Y0141164D01*
X0298921Y0138773D01*
X0302045Y0137479D01*
X0303238Y0137479D01*
X0305426Y0137479D01*
X0308550Y0138773D01*
X0308550Y0138773D01*
X0310941Y0141164D01*
X0310941Y0141164D01*
X0312235Y0144288D01*
X0312235Y0147670D01*
X0310941Y0150794D01*
X0308550Y0153185D01*
X0305426Y0154479D01*
X0302045Y0154479D01*
X0298921Y0153185D01*
X0298921Y0153185D01*
X0296529Y0150794D01*
X0295235Y0147670D01*
X0295235Y0146054D02*
X0248855Y0146054D01*
X0248855Y0144456D02*
X0295235Y0144456D01*
X0295828Y0142857D02*
X0248855Y0142857D01*
X0248855Y0141259D02*
X0296490Y0141259D01*
X0296529Y0141164D02*
X0296529Y0141164D01*
X0298033Y0139660D02*
X0248855Y0139660D01*
X0248855Y0138062D02*
X0300637Y0138062D01*
X0298921Y0138773D02*
X0298921Y0138773D01*
X0298921Y0138773D01*
X0306833Y0138062D02*
X0374307Y0138062D01*
X0372708Y0136463D02*
X0249802Y0136463D01*
X0251400Y0134865D02*
X0371110Y0134865D01*
X0371255Y0131333D02*
X0376255Y0136333D01*
X0381255Y0136333D01*
X0385236Y0136463D02*
X0388224Y0136463D01*
X0388224Y0134865D02*
X0385236Y0134865D01*
X0383818Y0133266D02*
X0389220Y0133266D01*
X0390818Y0131668D02*
X0375267Y0131668D01*
X0376865Y0133266D02*
X0378692Y0133266D01*
X0379361Y0130069D02*
X0373668Y0130069D01*
X0371255Y0131333D02*
X0251255Y0131333D01*
X0246255Y0136333D01*
X0246255Y0166333D01*
X0241255Y0171333D01*
X0231255Y0171333D01*
X0236255Y0168434D02*
X0240478Y0168434D01*
X0242076Y0166835D02*
X0236129Y0166835D01*
X0235429Y0165237D02*
X0243655Y0165237D01*
X0248855Y0165237D02*
X0388224Y0165237D01*
X0388224Y0166835D02*
X0248855Y0166835D01*
X0247832Y0168434D02*
X0388253Y0168434D01*
X0389851Y0170032D02*
X0246233Y0170032D01*
X0244635Y0171631D02*
X0390855Y0171631D01*
X0389257Y0173229D02*
X0243036Y0173229D01*
X0236255Y0174828D02*
X0388224Y0174828D01*
X0388224Y0176426D02*
X0235883Y0176426D01*
X0234835Y0178025D02*
X0388224Y0178025D01*
X0395406Y0181222D02*
X0401041Y0181222D01*
X0399666Y0182820D02*
X0396781Y0182820D01*
X0398224Y0184419D02*
X0398224Y0184419D01*
X0398224Y0186017D02*
X0398224Y0186017D01*
X0398224Y0187616D02*
X0398224Y0187616D01*
X0397414Y0189214D02*
X0399033Y0189214D01*
X0400632Y0190813D02*
X0395815Y0190813D01*
X0396373Y0192411D02*
X0400075Y0192411D01*
X0398476Y0194010D02*
X0397971Y0194010D01*
X0398224Y0195608D02*
X0398224Y0195608D01*
X0398224Y0197207D02*
X0398224Y0197207D01*
X0397823Y0198805D02*
X0398624Y0198805D01*
X0400223Y0200404D02*
X0396224Y0200404D01*
X0395964Y0202002D02*
X0400484Y0202002D01*
X0398885Y0203601D02*
X0397562Y0203601D01*
X0398224Y0205199D02*
X0398224Y0205199D01*
X0398224Y0206798D02*
X0398224Y0206798D01*
X0398224Y0208396D02*
X0398224Y0208396D01*
X0399814Y0209995D02*
X0396633Y0209995D01*
X0395555Y0211593D02*
X0400892Y0211593D01*
X0399294Y0213192D02*
X0397153Y0213192D01*
X0398224Y0214790D02*
X0398224Y0214790D01*
X0390892Y0211593D02*
X0238855Y0211593D01*
X0238855Y0209995D02*
X0389814Y0209995D01*
X0388224Y0208396D02*
X0238855Y0208396D01*
X0238855Y0206798D02*
X0388224Y0206798D01*
X0388224Y0205199D02*
X0238855Y0205199D01*
X0238855Y0203601D02*
X0388885Y0203601D01*
X0390484Y0202002D02*
X0238855Y0202002D01*
X0238684Y0200404D02*
X0390223Y0200404D01*
X0388624Y0198805D02*
X0237404Y0198805D01*
X0237728Y0199129D02*
X0237728Y0199129D01*
X0238855Y0213192D02*
X0389294Y0213192D01*
X0388224Y0214790D02*
X0238855Y0214790D01*
X0238855Y0216389D02*
X0388224Y0216389D01*
X0388224Y0217987D02*
X0238855Y0217987D01*
X0238855Y0219586D02*
X0389405Y0219586D01*
X0391004Y0221184D02*
X0238855Y0221184D01*
X0238855Y0222783D02*
X0389703Y0222783D01*
X0388224Y0224381D02*
X0238855Y0224381D01*
X0238855Y0225980D02*
X0388224Y0225980D01*
X0388224Y0227579D02*
X0238855Y0227579D01*
X0238855Y0229177D02*
X0388996Y0229177D01*
X0390595Y0230776D02*
X0239374Y0230776D01*
X0240973Y0232374D02*
X0390112Y0232374D01*
X0388513Y0233973D02*
X0322350Y0233973D01*
X0324170Y0235571D02*
X0388224Y0235571D01*
X0388224Y0237170D02*
X0325768Y0237170D01*
X0327367Y0238768D02*
X0388587Y0238768D01*
X0390186Y0240367D02*
X0328669Y0240367D01*
X0328855Y0241965D02*
X0390521Y0241965D01*
X0388922Y0243564D02*
X0328855Y0243564D01*
X0328855Y0245162D02*
X0388224Y0245162D01*
X0388224Y0246761D02*
X0328855Y0246761D01*
X0328855Y0248359D02*
X0388224Y0248359D01*
X0389777Y0249958D02*
X0328855Y0249958D01*
X0328855Y0251556D02*
X0390930Y0251556D01*
X0389331Y0253155D02*
X0328855Y0253155D01*
X0328855Y0254753D02*
X0388224Y0254753D01*
X0388224Y0256352D02*
X0328855Y0256352D01*
X0328855Y0257950D02*
X0388224Y0257950D01*
X0389368Y0259549D02*
X0328855Y0259549D01*
X0328855Y0261147D02*
X0390966Y0261147D01*
X0389740Y0262746D02*
X0328855Y0262746D01*
X0328855Y0264344D02*
X0388224Y0264344D01*
X0388224Y0265943D02*
X0328855Y0265943D01*
X0328855Y0267541D02*
X0388224Y0267541D01*
X0388959Y0269140D02*
X0328855Y0269140D01*
X0328855Y0270738D02*
X0390558Y0270738D01*
X0390149Y0272337D02*
X0328855Y0272337D01*
X0328855Y0273935D02*
X0388551Y0273935D01*
X0388224Y0275534D02*
X0328855Y0275534D01*
X0323655Y0270738D02*
X0304337Y0270738D01*
X0302738Y0269140D02*
X0323655Y0269140D01*
X0323655Y0267541D02*
X0268093Y0267541D01*
X0269692Y0269140D02*
X0279772Y0269140D01*
X0278173Y0270738D02*
X0270236Y0270738D01*
X0270236Y0272337D02*
X0276575Y0272337D01*
X0274976Y0273935D02*
X0269283Y0273935D01*
X0265731Y0275534D02*
X0273772Y0275534D01*
X0273655Y0277132D02*
X0264133Y0277132D01*
X0262534Y0278731D02*
X0273655Y0278731D01*
X0273655Y0280329D02*
X0260936Y0280329D01*
X0259337Y0281928D02*
X0273655Y0281928D01*
X0273655Y0283526D02*
X0257739Y0283526D01*
X0256255Y0285125D02*
X0273655Y0285125D01*
X0272188Y0286723D02*
X0255760Y0286723D01*
X0254538Y0288322D02*
X0270590Y0288322D01*
X0256255Y0281333D02*
X0266255Y0271333D01*
X0262274Y0270738D02*
X0253855Y0270738D01*
X0253855Y0269140D02*
X0262818Y0269140D01*
X0264417Y0267541D02*
X0253855Y0267541D01*
X0253855Y0265943D02*
X0323655Y0265943D01*
X0323655Y0264344D02*
X0253855Y0264344D01*
X0253855Y0262746D02*
X0302042Y0262746D01*
X0302045Y0262747D02*
X0298921Y0261453D01*
X0296529Y0259062D01*
X0296529Y0259062D01*
X0295235Y0255937D01*
X0295235Y0252556D01*
X0296529Y0249432D01*
X0298921Y0247041D01*
X0302045Y0245747D01*
X0303238Y0245747D01*
X0305426Y0245747D01*
X0308550Y0247041D01*
X0310941Y0249432D01*
X0312235Y0252556D01*
X0312235Y0255937D01*
X0310941Y0259062D01*
X0308550Y0261453D01*
X0305426Y0262747D01*
X0302045Y0262747D01*
X0298921Y0261453D02*
X0298921Y0261453D01*
X0298615Y0261147D02*
X0253855Y0261147D01*
X0253147Y0259549D02*
X0297017Y0259549D01*
X0296069Y0257950D02*
X0251549Y0257950D01*
X0249950Y0256352D02*
X0295407Y0256352D01*
X0295235Y0254753D02*
X0248352Y0254753D01*
X0246255Y0256333D02*
X0211255Y0256333D01*
X0206255Y0251333D01*
X0206255Y0241333D01*
X0206255Y0226333D01*
X0206255Y0211333D01*
X0211255Y0214790D02*
X0233655Y0214790D01*
X0233655Y0213192D02*
X0223073Y0213192D01*
X0233655Y0216389D02*
X0210898Y0216389D01*
X0209872Y0217987D02*
X0233655Y0217987D01*
X0233655Y0219586D02*
X0209779Y0219586D01*
X0210860Y0221184D02*
X0233655Y0221184D01*
X0233655Y0222783D02*
X0211255Y0222783D01*
X0211255Y0224381D02*
X0233655Y0224381D01*
X0233655Y0225980D02*
X0211255Y0225980D01*
X0211255Y0227579D02*
X0233655Y0227579D01*
X0233655Y0229177D02*
X0211255Y0229177D01*
X0211152Y0230776D02*
X0233655Y0230776D01*
X0233872Y0232374D02*
X0210485Y0232374D01*
X0209165Y0233973D02*
X0235217Y0233973D01*
X0236816Y0235571D02*
X0210606Y0235571D01*
X0211255Y0237170D02*
X0238414Y0237170D01*
X0240339Y0238768D02*
X0211255Y0238768D01*
X0211255Y0240367D02*
X0321611Y0240367D01*
X0323210Y0241965D02*
X0211255Y0241965D01*
X0211255Y0243564D02*
X0323655Y0243564D01*
X0323655Y0245162D02*
X0211255Y0245162D01*
X0210744Y0246761D02*
X0299597Y0246761D01*
X0298921Y0247041D02*
X0298921Y0247041D01*
X0297602Y0248359D02*
X0209500Y0248359D01*
X0208855Y0249958D02*
X0296312Y0249958D01*
X0296529Y0249432D02*
X0296529Y0249432D01*
X0295649Y0251556D02*
X0210155Y0251556D01*
X0211753Y0253155D02*
X0295235Y0253155D01*
X0305426Y0245747D02*
X0305426Y0245747D01*
X0307874Y0246761D02*
X0323655Y0246761D01*
X0323655Y0248359D02*
X0309869Y0248359D01*
X0310941Y0249432D02*
X0310941Y0249432D01*
X0311159Y0249958D02*
X0323655Y0249958D01*
X0323655Y0251556D02*
X0311821Y0251556D01*
X0312235Y0253155D02*
X0323655Y0253155D01*
X0323655Y0254753D02*
X0312235Y0254753D01*
X0312064Y0256352D02*
X0323655Y0256352D01*
X0323655Y0257950D02*
X0311402Y0257950D01*
X0310941Y0259062D02*
X0310941Y0259062D01*
X0310454Y0259549D02*
X0323655Y0259549D01*
X0323655Y0261147D02*
X0308856Y0261147D01*
X0308550Y0261453D02*
X0308550Y0261453D01*
X0305428Y0262746D02*
X0323655Y0262746D01*
X0303735Y0273814D02*
X0301255Y0271333D01*
X0281255Y0271333D01*
X0261575Y0272337D02*
X0253855Y0272337D01*
X0254128Y0273935D02*
X0259976Y0273935D01*
X0258378Y0275534D02*
X0255590Y0275534D01*
X0256252Y0277132D02*
X0256779Y0277132D01*
X0256255Y0281333D02*
X0251255Y0281333D01*
X0251255Y0261333D01*
X0246255Y0256333D01*
X0245178Y0258933D02*
X0227255Y0258933D01*
X0227728Y0259129D01*
X0232332Y0263733D01*
X0233225Y0263733D01*
X0234606Y0262352D01*
X0237904Y0262352D01*
X0240236Y0264684D01*
X0240236Y0267982D01*
X0237904Y0270314D01*
X0234606Y0270314D01*
X0233855Y0269563D01*
X0233855Y0273798D01*
X0234087Y0273895D01*
X0235494Y0275301D01*
X0236255Y0277139D01*
X0236255Y0285528D01*
X0235494Y0287366D01*
X0234126Y0288733D01*
X0238529Y0288733D01*
X0237998Y0288347D01*
X0237441Y0287791D01*
X0236979Y0287154D01*
X0236621Y0286453D01*
X0236378Y0285704D01*
X0236255Y0284927D01*
X0236255Y0281533D01*
X0241055Y0281533D01*
X0241055Y0281133D01*
X0241455Y0281133D01*
X0241455Y0273133D01*
X0241649Y0273133D01*
X0242426Y0273256D01*
X0243174Y0273500D01*
X0243876Y0273857D01*
X0244512Y0274320D01*
X0245069Y0274876D01*
X0245531Y0275513D01*
X0245889Y0276214D01*
X0246132Y0276962D01*
X0246255Y0277740D01*
X0246255Y0281133D01*
X0241455Y0281133D01*
X0241455Y0281533D01*
X0246255Y0281533D01*
X0246255Y0284927D01*
X0246132Y0285704D01*
X0245889Y0286453D01*
X0245531Y0287154D01*
X0245069Y0287791D01*
X0244512Y0288347D01*
X0243981Y0288733D01*
X0248384Y0288733D01*
X0247016Y0287366D01*
X0246255Y0285528D01*
X0246255Y0277139D01*
X0247016Y0275301D01*
X0248423Y0273895D01*
X0248655Y0273798D01*
X0248655Y0262410D01*
X0245178Y0258933D01*
X0245794Y0259549D02*
X0228147Y0259549D01*
X0229746Y0261147D02*
X0247392Y0261147D01*
X0248655Y0262746D02*
X0238298Y0262746D01*
X0239896Y0264344D02*
X0248655Y0264344D01*
X0248655Y0265943D02*
X0240236Y0265943D01*
X0240236Y0267541D02*
X0248655Y0267541D01*
X0248655Y0269140D02*
X0239079Y0269140D01*
X0236255Y0266333D02*
X0231255Y0266333D01*
X0231255Y0281333D01*
X0236255Y0281133D02*
X0236255Y0277740D01*
X0236378Y0276962D01*
X0236621Y0276214D01*
X0236979Y0275513D01*
X0237441Y0274876D01*
X0237998Y0274320D01*
X0238634Y0273857D01*
X0239336Y0273500D01*
X0240084Y0273256D01*
X0240862Y0273133D01*
X0241055Y0273133D01*
X0241055Y0281133D01*
X0236255Y0281133D01*
X0236255Y0281928D02*
X0236255Y0281928D01*
X0236255Y0283526D02*
X0236255Y0283526D01*
X0236255Y0285125D02*
X0236286Y0285125D01*
X0236759Y0286723D02*
X0235760Y0286723D01*
X0234538Y0288322D02*
X0237973Y0288322D01*
X0244538Y0288322D02*
X0247973Y0288322D01*
X0246750Y0286723D02*
X0245751Y0286723D01*
X0246224Y0285125D02*
X0246255Y0285125D01*
X0246255Y0283526D02*
X0246255Y0283526D01*
X0246255Y0281928D02*
X0246255Y0281928D01*
X0246255Y0280329D02*
X0246255Y0280329D01*
X0246255Y0278731D02*
X0246255Y0278731D01*
X0246258Y0277132D02*
X0246159Y0277132D01*
X0245542Y0275534D02*
X0246920Y0275534D01*
X0248382Y0273935D02*
X0243984Y0273935D01*
X0241455Y0273935D02*
X0241055Y0273935D01*
X0241055Y0275534D02*
X0241455Y0275534D01*
X0241455Y0277132D02*
X0241055Y0277132D01*
X0241055Y0278731D02*
X0241455Y0278731D01*
X0241455Y0280329D02*
X0241055Y0280329D01*
X0236255Y0280329D02*
X0236255Y0280329D01*
X0236255Y0278731D02*
X0236255Y0278731D01*
X0236252Y0277132D02*
X0236351Y0277132D01*
X0236968Y0275534D02*
X0235590Y0275534D01*
X0234128Y0273935D02*
X0238527Y0273935D01*
X0233855Y0272337D02*
X0248655Y0272337D01*
X0248655Y0270738D02*
X0233855Y0270738D01*
X0231255Y0266333D02*
X0226255Y0261333D01*
X0201255Y0261333D01*
X0200255Y0263733D02*
X0199782Y0263537D01*
X0199051Y0262806D01*
X0194051Y0257806D01*
X0193655Y0256851D01*
X0193655Y0248868D01*
X0193423Y0248772D01*
X0192016Y0247366D01*
X0191255Y0245528D01*
X0191255Y0237139D01*
X0192016Y0235301D01*
X0193423Y0233895D01*
X0193571Y0233833D01*
X0193423Y0233772D01*
X0192016Y0232366D01*
X0191255Y0230528D01*
X0191255Y0222139D01*
X0191255Y0230528D01*
X0190494Y0232366D01*
X0189087Y0233772D01*
X0188940Y0233833D01*
X0189087Y0233895D01*
X0190494Y0235301D01*
X0191255Y0237139D01*
X0191255Y0245528D01*
X0190494Y0247366D01*
X0189087Y0248772D01*
X0188855Y0248868D01*
X0188855Y0255256D01*
X0197332Y0263733D01*
X0200255Y0263733D01*
X0198991Y0262746D02*
X0196344Y0262746D01*
X0197392Y0261147D02*
X0194746Y0261147D01*
X0195794Y0259549D02*
X0193147Y0259549D01*
X0194195Y0257950D02*
X0191549Y0257950D01*
X0189950Y0256352D02*
X0193655Y0256352D01*
X0193655Y0254753D02*
X0188855Y0254753D01*
X0188855Y0253155D02*
X0193655Y0253155D01*
X0193655Y0251556D02*
X0188855Y0251556D01*
X0188855Y0249958D02*
X0193655Y0249958D01*
X0193010Y0248359D02*
X0189500Y0248359D01*
X0190744Y0246761D02*
X0191766Y0246761D01*
X0191255Y0245162D02*
X0191255Y0245162D01*
X0191255Y0243564D02*
X0191255Y0243564D01*
X0191255Y0241965D02*
X0191255Y0241965D01*
X0191255Y0240367D02*
X0191255Y0240367D01*
X0191255Y0238768D02*
X0191255Y0238768D01*
X0191255Y0237170D02*
X0191255Y0237170D01*
X0190606Y0235571D02*
X0191904Y0235571D01*
X0193345Y0233973D02*
X0189165Y0233973D01*
X0190485Y0232374D02*
X0192025Y0232374D01*
X0191358Y0230776D02*
X0191152Y0230776D01*
X0191255Y0229177D02*
X0191255Y0229177D01*
X0191255Y0227579D02*
X0191255Y0227579D01*
X0191255Y0225980D02*
X0191255Y0225980D01*
X0191255Y0224381D02*
X0191255Y0224381D01*
X0191255Y0222783D02*
X0191255Y0222783D01*
X0190860Y0221184D02*
X0191650Y0221184D01*
X0158655Y0221184D02*
X0153855Y0221184D01*
X0153855Y0219586D02*
X0158655Y0219586D01*
X0158655Y0217987D02*
X0153855Y0217987D01*
X0153855Y0216389D02*
X0158655Y0216389D01*
X0158655Y0214790D02*
X0153855Y0214790D01*
X0153855Y0213192D02*
X0158655Y0213192D01*
X0158655Y0211593D02*
X0153855Y0211593D01*
X0153855Y0209995D02*
X0158655Y0209995D01*
X0158655Y0208396D02*
X0153855Y0208396D01*
X0153855Y0206798D02*
X0158655Y0206798D01*
X0158655Y0205199D02*
X0153855Y0205199D01*
X0153855Y0203601D02*
X0158655Y0203601D01*
X0158655Y0202002D02*
X0153855Y0202002D01*
X0153855Y0200404D02*
X0158655Y0200404D01*
X0158655Y0198805D02*
X0153855Y0198805D01*
X0153855Y0197207D02*
X0158655Y0197207D01*
X0158655Y0195608D02*
X0153855Y0195608D01*
X0153855Y0194010D02*
X0158655Y0194010D01*
X0158655Y0192411D02*
X0153855Y0192411D01*
X0153855Y0190813D02*
X0155804Y0190813D01*
X0153865Y0189214D02*
X0153855Y0189214D01*
X0153855Y0182820D02*
X0154497Y0182820D01*
X0155044Y0181222D02*
X0156791Y0181222D01*
X0165719Y0181222D02*
X0183655Y0181222D01*
X0183655Y0182820D02*
X0168013Y0182820D01*
X0168236Y0179623D02*
X0183655Y0179623D01*
X0183655Y0178025D02*
X0169166Y0178025D01*
X0169455Y0176426D02*
X0183655Y0176426D01*
X0183655Y0174828D02*
X0169243Y0174828D01*
X0168422Y0173229D02*
X0183655Y0173229D01*
X0183655Y0171631D02*
X0166167Y0171631D01*
X0167827Y0170032D02*
X0174324Y0170032D01*
X0178186Y0170032D02*
X0183655Y0170032D01*
X0183655Y0168434D02*
X0179785Y0168434D01*
X0180236Y0166835D02*
X0183655Y0166835D01*
X0183655Y0165237D02*
X0180236Y0165237D01*
X0179190Y0163638D02*
X0183655Y0163638D01*
X0248855Y0163638D02*
X0388848Y0163638D01*
X0390446Y0162040D02*
X0248855Y0162040D01*
X0248855Y0160441D02*
X0390260Y0160441D01*
X0388662Y0158843D02*
X0248855Y0158843D01*
X0248855Y0157244D02*
X0388224Y0157244D01*
X0388224Y0155645D02*
X0248855Y0155645D01*
X0248855Y0154047D02*
X0301002Y0154047D01*
X0298184Y0152448D02*
X0248855Y0152448D01*
X0248855Y0150850D02*
X0296586Y0150850D01*
X0295891Y0149251D02*
X0248855Y0149251D01*
X0246084Y0112486D02*
X0356426Y0112486D01*
X0358024Y0110887D02*
X0244486Y0110887D01*
X0242887Y0109289D02*
X0359623Y0109289D01*
X0361221Y0107690D02*
X0236255Y0107690D01*
X0235821Y0106092D02*
X0362820Y0106092D01*
X0364418Y0104493D02*
X0234686Y0104493D01*
X0306469Y0154047D02*
X0388439Y0154047D01*
X0390037Y0152448D02*
X0309287Y0152448D01*
X0308550Y0153185D02*
X0308550Y0153185D01*
X0310885Y0150850D02*
X0390669Y0150850D01*
X0389071Y0149251D02*
X0311580Y0149251D01*
X0310941Y0150794D02*
X0310941Y0150794D01*
X0312235Y0147653D02*
X0388224Y0147653D01*
X0388224Y0146054D02*
X0312235Y0146054D01*
X0312235Y0144456D02*
X0388224Y0144456D01*
X0389628Y0142857D02*
X0311643Y0142857D01*
X0310981Y0141259D02*
X0391078Y0141259D01*
X0389480Y0139660D02*
X0383558Y0139660D01*
X0385157Y0138062D02*
X0388224Y0138062D01*
X0378952Y0139660D02*
X0309438Y0139660D01*
X0376255Y0121333D02*
X0381255Y0116333D01*
X0383930Y0109289D02*
X0389108Y0109289D01*
X0388224Y0107690D02*
X0385236Y0107690D01*
X0385236Y0106092D02*
X0388224Y0106092D01*
X0388224Y0104493D02*
X0385045Y0104493D01*
X0383446Y0102895D02*
X0389591Y0102895D01*
X0403424Y0111333D02*
X0405295Y0111333D01*
X0408224Y0114262D01*
X0408224Y0116133D01*
X0403424Y0116133D01*
X0403424Y0111333D01*
X0403424Y0112486D02*
X0403024Y0112486D01*
X0403024Y0114084D02*
X0403424Y0114084D01*
X0403424Y0115683D02*
X0403024Y0115683D01*
X0403024Y0117281D02*
X0403424Y0117281D01*
X0403424Y0118880D02*
X0403024Y0118880D01*
X0403024Y0120478D02*
X0403424Y0120478D01*
X0406150Y0120478D02*
X0413655Y0120478D01*
X0413655Y0118880D02*
X0407748Y0118880D01*
X0408224Y0117281D02*
X0413655Y0117281D01*
X0413710Y0115683D02*
X0408224Y0115683D01*
X0408045Y0114084D02*
X0414827Y0114084D01*
X0416426Y0112486D02*
X0406447Y0112486D01*
X0405741Y0110887D02*
X0418024Y0110887D01*
X0419623Y0109289D02*
X0407339Y0109289D01*
X0408224Y0107690D02*
X0431221Y0107690D01*
X0432820Y0106092D02*
X0408224Y0106092D01*
X0408224Y0104493D02*
X0434418Y0104493D01*
X0436017Y0102895D02*
X0406856Y0102895D01*
X0405332Y0101296D02*
X0437615Y0101296D01*
X0438023Y0099698D02*
X0428521Y0099698D01*
X0430119Y0098099D02*
X0436659Y0098099D01*
X0436063Y0096501D02*
X0430236Y0096501D01*
X0430236Y0094902D02*
X0436063Y0094902D01*
X0435693Y0093304D02*
X0436630Y0093304D01*
X0432292Y0093304D02*
X0428855Y0093304D01*
X0428855Y0091705D02*
X0430030Y0091705D01*
X0429206Y0090107D02*
X0428855Y0090107D01*
X0428855Y0088508D02*
X0428992Y0088508D01*
X0428855Y0086910D02*
X0429279Y0086910D01*
X0430206Y0085311D02*
X0430206Y0085311D01*
X0431805Y0083712D02*
X0431805Y0083712D01*
X0433403Y0082114D02*
X0433403Y0082114D01*
X0435002Y0080515D02*
X0435002Y0080515D01*
X0436064Y0078917D02*
X0438655Y0078917D01*
X0438563Y0077318D02*
X0436447Y0077318D01*
X0436329Y0075720D02*
X0436965Y0075720D01*
X0427254Y0074121D02*
X0357709Y0074121D01*
X0356760Y0080515D02*
X0320750Y0080515D01*
X0319151Y0082114D02*
X0357274Y0082114D01*
X0358004Y0083712D02*
X0318735Y0083712D01*
X0318735Y0085311D02*
X0359603Y0085311D01*
X0406038Y0122077D02*
X0413655Y0122077D01*
X0413655Y0123675D02*
X0407637Y0123675D01*
X0408224Y0125274D02*
X0413655Y0125274D01*
X0413655Y0126872D02*
X0408224Y0126872D01*
X0408157Y0128471D02*
X0413655Y0128471D01*
X0413655Y0130069D02*
X0406559Y0130069D01*
X0405629Y0131668D02*
X0413655Y0131668D01*
X0413655Y0133266D02*
X0407228Y0133266D01*
X0408224Y0134865D02*
X0413655Y0134865D01*
X0418855Y0134865D02*
X0422008Y0134865D01*
X0421103Y0133266D02*
X0418855Y0133266D01*
X0418855Y0131668D02*
X0420755Y0131668D01*
X0420825Y0130069D02*
X0418855Y0130069D01*
X0418855Y0128471D02*
X0421488Y0128471D01*
X0422938Y0126872D02*
X0418855Y0126872D01*
X0426255Y0131333D02*
X0433755Y0131333D01*
X0424268Y0136463D02*
X0418855Y0136463D01*
X0403424Y0134865D02*
X0403024Y0134865D01*
X0403024Y0133266D02*
X0403424Y0133266D01*
X0403424Y0131668D02*
X0403024Y0131668D01*
X0403024Y0138062D02*
X0403424Y0138062D01*
X0403424Y0139660D02*
X0403024Y0139660D01*
X0403024Y0141259D02*
X0403424Y0141259D01*
X0401078Y0141259D02*
X0395369Y0141259D01*
X0396819Y0142857D02*
X0399628Y0142857D01*
X0398224Y0144456D02*
X0398224Y0144456D01*
X0398224Y0146054D02*
X0398224Y0146054D01*
X0398224Y0147653D02*
X0398224Y0147653D01*
X0399071Y0149251D02*
X0397376Y0149251D01*
X0395778Y0150850D02*
X0400669Y0150850D01*
X0400037Y0152448D02*
X0396410Y0152448D01*
X0395295Y0151333D02*
X0398224Y0154262D01*
X0398224Y0156133D01*
X0393424Y0156133D01*
X0393424Y0151333D01*
X0395295Y0151333D01*
X0393424Y0152448D02*
X0393024Y0152448D01*
X0393024Y0154047D02*
X0393424Y0154047D01*
X0393424Y0155645D02*
X0393024Y0155645D01*
X0393024Y0157244D02*
X0393424Y0157244D01*
X0393424Y0158843D02*
X0393024Y0158843D01*
X0393024Y0160441D02*
X0393424Y0160441D01*
X0396187Y0160441D02*
X0400260Y0160441D01*
X0400446Y0162040D02*
X0396001Y0162040D01*
X0397599Y0163638D02*
X0398848Y0163638D01*
X0398224Y0165237D02*
X0398224Y0165237D01*
X0398224Y0166835D02*
X0398224Y0166835D01*
X0398194Y0168434D02*
X0398253Y0168434D01*
X0399851Y0170032D02*
X0396596Y0170032D01*
X0395592Y0171631D02*
X0400855Y0171631D01*
X0399257Y0173229D02*
X0397190Y0173229D01*
X0398224Y0174828D02*
X0398224Y0174828D01*
X0398224Y0176426D02*
X0398224Y0176426D01*
X0398224Y0178025D02*
X0398224Y0178025D01*
X0397005Y0179623D02*
X0399442Y0179623D01*
X0403024Y0182820D02*
X0403424Y0182820D01*
X0403424Y0184419D02*
X0403024Y0184419D01*
X0403024Y0186017D02*
X0403424Y0186017D01*
X0403424Y0187616D02*
X0403024Y0187616D01*
X0403024Y0189214D02*
X0403424Y0189214D01*
X0403424Y0190813D02*
X0403024Y0190813D01*
X0418855Y0184419D02*
X0434069Y0184419D01*
X0433259Y0182820D02*
X0418855Y0182820D01*
X0418855Y0181222D02*
X0433055Y0181222D01*
X0433351Y0179623D02*
X0418855Y0179623D01*
X0418855Y0178025D02*
X0434293Y0178025D01*
X0436836Y0176426D02*
X0418855Y0176426D01*
X0418855Y0174828D02*
X0424119Y0174828D01*
X0422521Y0173229D02*
X0418855Y0173229D01*
X0418855Y0171631D02*
X0422274Y0171631D01*
X0422274Y0170032D02*
X0418855Y0170032D01*
X0418855Y0168434D02*
X0423525Y0168434D01*
X0422380Y0165237D02*
X0418855Y0165237D01*
X0418855Y0166835D02*
X0435849Y0166835D01*
X0433884Y0168434D02*
X0428985Y0168434D01*
X0426255Y0171333D02*
X0441255Y0171333D01*
X0434478Y0174828D02*
X0428391Y0174828D01*
X0421257Y0163638D02*
X0418855Y0163638D01*
X0418855Y0162040D02*
X0420755Y0162040D01*
X0420755Y0160441D02*
X0418855Y0160441D01*
X0418855Y0158843D02*
X0421334Y0158843D01*
X0422566Y0157244D02*
X0418855Y0157244D01*
X0398662Y0158843D02*
X0397785Y0158843D01*
X0398224Y0157244D02*
X0398224Y0157244D01*
X0398224Y0155645D02*
X0398224Y0155645D01*
X0398008Y0154047D02*
X0398439Y0154047D01*
X0399480Y0139660D02*
X0396968Y0139660D01*
X0398224Y0138062D02*
X0398224Y0138062D01*
X0389889Y0130069D02*
X0383149Y0130069D01*
X0384748Y0128471D02*
X0388290Y0128471D01*
X0388224Y0126872D02*
X0385236Y0126872D01*
X0385236Y0125274D02*
X0388224Y0125274D01*
X0388811Y0123675D02*
X0384227Y0123675D01*
X0443416Y0085311D02*
X0451556Y0085311D01*
X0453154Y0086910D02*
X0448428Y0086910D01*
X0449910Y0088508D02*
X0453655Y0088508D01*
X0453655Y0090107D02*
X0450572Y0090107D01*
X0450589Y0091705D02*
X0453655Y0091705D01*
X0453655Y0093304D02*
X0450105Y0093304D01*
X0448900Y0094902D02*
X0453655Y0094902D01*
X0450663Y0184419D02*
X0448441Y0184419D01*
X0436297Y0186017D02*
X0419616Y0186017D01*
X0421214Y0187616D02*
X0434702Y0187616D01*
X0441055Y0206798D02*
X0441455Y0206798D01*
X0441455Y0208396D02*
X0441055Y0208396D01*
X0441055Y0209995D02*
X0441455Y0209995D01*
X0441455Y0211593D02*
X0441055Y0211593D01*
X0441055Y0213192D02*
X0441455Y0213192D01*
X0441455Y0214790D02*
X0441055Y0214790D01*
X0434032Y0224381D02*
X0423837Y0224381D01*
X0424380Y0227579D02*
X0415236Y0227579D01*
X0415236Y0225980D02*
X0436208Y0225980D01*
X0434739Y0227579D02*
X0428130Y0227579D01*
X0426255Y0231333D02*
X0441255Y0231333D01*
X0433736Y0233973D02*
X0429246Y0233973D01*
X0430654Y0238768D02*
X0413855Y0238768D01*
X0413855Y0237170D02*
X0435148Y0237170D01*
X0435222Y0235571D02*
X0413855Y0235571D01*
X0413855Y0233973D02*
X0423264Y0233973D01*
X0422274Y0232374D02*
X0413855Y0232374D01*
X0413855Y0230776D02*
X0422274Y0230776D01*
X0422781Y0229177D02*
X0414041Y0229177D01*
X0414933Y0224381D02*
X0418673Y0224381D01*
X0417274Y0222783D02*
X0413335Y0222783D01*
X0409175Y0222783D02*
X0406744Y0222783D01*
X0405443Y0221184D02*
X0417274Y0221184D01*
X0417372Y0219586D02*
X0407042Y0219586D01*
X0408224Y0217987D02*
X0418971Y0217987D01*
X0400595Y0230776D02*
X0395852Y0230776D01*
X0395295Y0231333D02*
X0398224Y0234262D01*
X0398224Y0236133D01*
X0393424Y0236133D01*
X0393424Y0231333D01*
X0395295Y0231333D01*
X0396335Y0232374D02*
X0400112Y0232374D01*
X0398513Y0233973D02*
X0397934Y0233973D01*
X0398224Y0235571D02*
X0398224Y0235571D01*
X0398224Y0237170D02*
X0398224Y0237170D01*
X0397860Y0238768D02*
X0398587Y0238768D01*
X0400186Y0240367D02*
X0396261Y0240367D01*
X0395926Y0241965D02*
X0400521Y0241965D01*
X0398922Y0243564D02*
X0397525Y0243564D01*
X0398224Y0245162D02*
X0398224Y0245162D01*
X0398224Y0246761D02*
X0398224Y0246761D01*
X0398224Y0248359D02*
X0398224Y0248359D01*
X0396670Y0249958D02*
X0399777Y0249958D01*
X0400930Y0251556D02*
X0395517Y0251556D01*
X0397116Y0253155D02*
X0399331Y0253155D01*
X0398224Y0254753D02*
X0398224Y0254753D01*
X0398224Y0256352D02*
X0403023Y0256352D01*
X0403024Y0254753D02*
X0403424Y0254753D01*
X0403424Y0253155D02*
X0403024Y0253155D01*
X0403024Y0251556D02*
X0403424Y0251556D01*
X0408224Y0257950D02*
X0408655Y0257950D01*
X0408655Y0259549D02*
X0407079Y0259549D01*
X0408655Y0261147D02*
X0405481Y0261147D01*
X0406707Y0262746D02*
X0408655Y0262746D01*
X0408655Y0264344D02*
X0408224Y0264344D01*
X0408224Y0265943D02*
X0408655Y0265943D01*
X0408655Y0267541D02*
X0408224Y0267541D01*
X0408655Y0269140D02*
X0407488Y0269140D01*
X0408655Y0270738D02*
X0405890Y0270738D01*
X0406298Y0272337D02*
X0408655Y0272337D01*
X0408655Y0273935D02*
X0407897Y0273935D01*
X0408224Y0275534D02*
X0408655Y0275534D01*
X0408655Y0277132D02*
X0408224Y0277132D01*
X0407897Y0278731D02*
X0408655Y0278731D01*
X0408655Y0280329D02*
X0406299Y0280329D01*
X0408655Y0281928D02*
X0330236Y0281928D01*
X0329692Y0283526D02*
X0408655Y0283526D01*
X0408655Y0285125D02*
X0328094Y0285125D01*
X0324417Y0285125D02*
X0318735Y0285125D01*
X0318240Y0286723D02*
X0407188Y0286723D01*
X0405590Y0288322D02*
X0317018Y0288322D01*
X0393024Y0240367D02*
X0393424Y0240367D01*
X0393424Y0238768D02*
X0393024Y0238768D01*
X0393024Y0237170D02*
X0393424Y0237170D01*
X0393424Y0235571D02*
X0393024Y0235571D01*
X0393024Y0233973D02*
X0393424Y0233973D01*
X0393424Y0232374D02*
X0393024Y0232374D01*
X0397451Y0229177D02*
X0398996Y0229177D01*
X0398224Y0227579D02*
X0398224Y0227579D01*
X0398224Y0225980D02*
X0398224Y0225980D01*
X0398224Y0224381D02*
X0398224Y0224381D01*
X0399703Y0222783D02*
X0396744Y0222783D01*
X0413855Y0240367D02*
X0428545Y0240367D01*
X0426946Y0241965D02*
X0413855Y0241965D01*
X0413855Y0243564D02*
X0425348Y0243564D01*
X0424051Y0244861D02*
X0423655Y0245816D01*
X0423655Y0272337D01*
X0428855Y0270738D02*
X0429271Y0270738D01*
X0428992Y0269140D02*
X0428855Y0269140D01*
X0428855Y0267541D02*
X0429214Y0267541D01*
X0428855Y0265943D02*
X0430049Y0265943D01*
X0428855Y0264344D02*
X0432337Y0264344D01*
X0435648Y0264344D02*
X0436623Y0264344D01*
X0436063Y0262746D02*
X0428855Y0262746D01*
X0428855Y0261147D02*
X0436063Y0261147D01*
X0433840Y0259549D02*
X0428855Y0259549D01*
X0428855Y0257950D02*
X0432274Y0257950D01*
X0432274Y0256352D02*
X0428855Y0256352D01*
X0428855Y0254753D02*
X0432274Y0254753D01*
X0433804Y0253155D02*
X0428855Y0253155D01*
X0428855Y0251556D02*
X0453655Y0251556D01*
X0453655Y0249958D02*
X0428855Y0249958D01*
X0428855Y0248359D02*
X0453655Y0248359D01*
X0453655Y0246761D02*
X0429505Y0246761D01*
X0431103Y0245162D02*
X0434813Y0245162D01*
X0438707Y0253155D02*
X0453655Y0253155D01*
X0453655Y0254753D02*
X0440236Y0254753D01*
X0440236Y0256352D02*
X0453655Y0256352D01*
X0453655Y0257950D02*
X0444085Y0257950D01*
X0445684Y0259549D02*
X0453655Y0259549D01*
X0453655Y0261147D02*
X0447282Y0261147D01*
X0448881Y0262746D02*
X0453655Y0262746D01*
X0453655Y0264344D02*
X0450098Y0264344D01*
X0450589Y0265943D02*
X0453655Y0265943D01*
X0453655Y0267541D02*
X0450580Y0267541D01*
X0449918Y0269140D02*
X0453655Y0269140D01*
X0453655Y0270738D02*
X0448447Y0270738D01*
X0443408Y0272337D02*
X0453655Y0272337D01*
X0453655Y0273935D02*
X0443518Y0273935D01*
X0444133Y0275534D02*
X0453378Y0275534D01*
X0451779Y0277132D02*
X0445731Y0277132D01*
X0447330Y0278731D02*
X0450181Y0278731D01*
X0451255Y0281333D02*
X0446255Y0281333D01*
X0436255Y0271333D01*
X0439534Y0267541D02*
X0439534Y0267541D01*
X0437936Y0265943D02*
X0437936Y0265943D01*
X0441133Y0269140D02*
X0441133Y0269140D01*
X0442731Y0270738D02*
X0442731Y0270738D01*
X0443326Y0264262D02*
X0436255Y0257191D01*
X0436255Y0256333D01*
X0447697Y0245162D02*
X0453655Y0245162D01*
X0453655Y0243564D02*
X0448943Y0243564D01*
X0449455Y0241965D02*
X0453655Y0241965D01*
X0453655Y0240367D02*
X0450899Y0240367D01*
X0452497Y0238768D02*
X0453655Y0238768D01*
X0448655Y0235256D02*
X0448655Y0234204D01*
X0447287Y0235572D01*
X0445450Y0236333D01*
X0437060Y0236333D01*
X0445450Y0236333D01*
X0446955Y0236957D01*
X0448655Y0235256D01*
X0448340Y0235571D02*
X0447288Y0235571D01*
X0430187Y0272337D02*
X0430187Y0272337D01*
X0431786Y0273935D02*
X0431786Y0273935D01*
X0433385Y0275534D02*
X0433385Y0275534D01*
X0434983Y0277132D02*
X0434983Y0277132D01*
X0436057Y0278731D02*
X0439976Y0278731D01*
X0441574Y0280329D02*
X0436447Y0280329D01*
X0436336Y0281928D02*
X0443173Y0281928D01*
X0444771Y0283526D02*
X0435659Y0283526D01*
X0433750Y0285125D02*
X0459016Y0285125D01*
X0429184Y0278404D02*
X0427113Y0276333D01*
X0426255Y0276333D01*
X0399368Y0259549D02*
X0397079Y0259549D01*
X0398224Y0257950D02*
X0398224Y0257950D01*
X0234213Y0262746D02*
X0231344Y0262746D01*
X0216920Y0275534D02*
X0215590Y0275534D01*
X0216252Y0277132D02*
X0216258Y0277132D01*
X0216255Y0278731D02*
X0216255Y0278731D01*
X0216255Y0280329D02*
X0216255Y0280329D01*
X0177392Y0261147D02*
X0171447Y0261147D01*
X0170844Y0259549D02*
X0175794Y0259549D01*
X0174195Y0257950D02*
X0169468Y0257950D01*
X0158655Y0254753D02*
X0153855Y0254753D01*
X0153855Y0253155D02*
X0157446Y0253155D01*
X0157274Y0251556D02*
X0153855Y0251556D01*
X0153855Y0249958D02*
X0157274Y0249958D01*
X0153855Y0245162D02*
X0161407Y0245162D01*
X0159808Y0243564D02*
X0153855Y0243564D01*
X0153855Y0241965D02*
X0158703Y0241965D01*
X0158655Y0240367D02*
X0153855Y0240367D01*
X0153855Y0238768D02*
X0158655Y0238768D01*
X0158655Y0237170D02*
X0153855Y0237170D01*
X0153855Y0235571D02*
X0158655Y0235571D01*
X0158655Y0233973D02*
X0153855Y0233973D01*
X0153855Y0232374D02*
X0158655Y0232374D01*
X0158655Y0230776D02*
X0153855Y0230776D01*
X0153855Y0229177D02*
X0158655Y0229177D01*
X0158655Y0227579D02*
X0153855Y0227579D01*
X0153855Y0225980D02*
X0158655Y0225980D01*
X0158655Y0224381D02*
X0153855Y0224381D01*
X0153855Y0222783D02*
X0158655Y0222783D01*
X0159782Y0243537D02*
X0159782Y0243537D01*
D15*
X0161255Y0251333D03*
X0226255Y0271333D03*
X0236255Y0266333D03*
X0266255Y0271333D03*
X0326255Y0281333D03*
X0411255Y0226333D03*
X0421255Y0221333D03*
X0426255Y0231333D03*
X0436255Y0256333D03*
X0416255Y0276333D03*
X0426255Y0171333D03*
X0381255Y0136333D03*
X0381255Y0126333D03*
X0381255Y0116333D03*
X0381255Y0106333D03*
X0361255Y0081333D03*
X0426255Y0096333D03*
X0226255Y0206333D03*
X0176255Y0166333D03*
X0191255Y0081333D03*
M02*
